%TF.GenerationSoftware,KiCad,Pcbnew,9.0.1*%
%TF.CreationDate,2025-06-03T12:38:30-05:00*%
%TF.ProjectId,Orientation_Paddle,4f726965-6e74-4617-9469-6f6e5f506164,2.0*%
%TF.SameCoordinates,Original*%
%TF.FileFunction,Legend,Bot*%
%TF.FilePolarity,Positive*%
%FSLAX46Y46*%
G04 Gerber Fmt 4.6, Leading zero omitted, Abs format (unit mm)*
G04 Created by KiCad (PCBNEW 9.0.1) date 2025-06-03 12:38:30*
%MOMM*%
%LPD*%
G01*
G04 APERTURE LIST*
%ADD10C,0.150000*%
%ADD11C,0.250000*%
%ADD12C,0.158750*%
%ADD13C,0.317500*%
%ADD14C,0.300000*%
%ADD15C,0.120000*%
%ADD16C,0.010000*%
G04 APERTURE END LIST*
D10*
X82223000Y-130175000D02*
X88573000Y-130175000D01*
X88573000Y-130175000D02*
X88573000Y-130937000D01*
X96447298Y-130175000D02*
X96447298Y-130937000D01*
X82169000Y-130937000D02*
X82169000Y-130175000D01*
X90097000Y-130175000D02*
X96447000Y-130175000D01*
X90097000Y-130937000D02*
X90097000Y-130175000D01*
D11*
X104081619Y-136707523D02*
X103605428Y-136374190D01*
X104081619Y-136136095D02*
X103081619Y-136136095D01*
X103081619Y-136136095D02*
X103081619Y-136517047D01*
X103081619Y-136517047D02*
X103129238Y-136612285D01*
X103129238Y-136612285D02*
X103176857Y-136659904D01*
X103176857Y-136659904D02*
X103272095Y-136707523D01*
X103272095Y-136707523D02*
X103414952Y-136707523D01*
X103414952Y-136707523D02*
X103510190Y-136659904D01*
X103510190Y-136659904D02*
X103557809Y-136612285D01*
X103557809Y-136612285D02*
X103605428Y-136517047D01*
X103605428Y-136517047D02*
X103605428Y-136136095D01*
D12*
X156972000Y-97732787D02*
X156476700Y-97732787D01*
X156476700Y-97732787D02*
X156743400Y-98037587D01*
X156743400Y-98037587D02*
X156629100Y-98037587D01*
X156629100Y-98037587D02*
X156552900Y-98075687D01*
X156552900Y-98075687D02*
X156514800Y-98113787D01*
X156514800Y-98113787D02*
X156476700Y-98189987D01*
X156476700Y-98189987D02*
X156476700Y-98380487D01*
X156476700Y-98380487D02*
X156514800Y-98456687D01*
X156514800Y-98456687D02*
X156552900Y-98494787D01*
X156552900Y-98494787D02*
X156629100Y-98532887D01*
X156629100Y-98532887D02*
X156857700Y-98532887D01*
X156857700Y-98532887D02*
X156933900Y-98494787D01*
X156933900Y-98494787D02*
X156972000Y-98456687D01*
X156133800Y-98228087D02*
X155524200Y-98228087D01*
X154990800Y-97732787D02*
X154914600Y-97732787D01*
X154914600Y-97732787D02*
X154838400Y-97770887D01*
X154838400Y-97770887D02*
X154800300Y-97808987D01*
X154800300Y-97808987D02*
X154762200Y-97885187D01*
X154762200Y-97885187D02*
X154724100Y-98037587D01*
X154724100Y-98037587D02*
X154724100Y-98228087D01*
X154724100Y-98228087D02*
X154762200Y-98380487D01*
X154762200Y-98380487D02*
X154800300Y-98456687D01*
X154800300Y-98456687D02*
X154838400Y-98494787D01*
X154838400Y-98494787D02*
X154914600Y-98532887D01*
X154914600Y-98532887D02*
X154990800Y-98532887D01*
X154990800Y-98532887D02*
X155067000Y-98494787D01*
X155067000Y-98494787D02*
X155105100Y-98456687D01*
X155105100Y-98456687D02*
X155143200Y-98380487D01*
X155143200Y-98380487D02*
X155181300Y-98228087D01*
X155181300Y-98228087D02*
X155181300Y-98037587D01*
X155181300Y-98037587D02*
X155143200Y-97885187D01*
X155143200Y-97885187D02*
X155105100Y-97808987D01*
X155105100Y-97808987D02*
X155067000Y-97770887D01*
X155067000Y-97770887D02*
X154990800Y-97732787D01*
X154228800Y-97732787D02*
X154152600Y-97732787D01*
X154152600Y-97732787D02*
X154076400Y-97770887D01*
X154076400Y-97770887D02*
X154038300Y-97808987D01*
X154038300Y-97808987D02*
X154000200Y-97885187D01*
X154000200Y-97885187D02*
X153962100Y-98037587D01*
X153962100Y-98037587D02*
X153962100Y-98228087D01*
X153962100Y-98228087D02*
X154000200Y-98380487D01*
X154000200Y-98380487D02*
X154038300Y-98456687D01*
X154038300Y-98456687D02*
X154076400Y-98494787D01*
X154076400Y-98494787D02*
X154152600Y-98532887D01*
X154152600Y-98532887D02*
X154228800Y-98532887D01*
X154228800Y-98532887D02*
X154305000Y-98494787D01*
X154305000Y-98494787D02*
X154343100Y-98456687D01*
X154343100Y-98456687D02*
X154381200Y-98380487D01*
X154381200Y-98380487D02*
X154419300Y-98228087D01*
X154419300Y-98228087D02*
X154419300Y-98037587D01*
X154419300Y-98037587D02*
X154381200Y-97885187D01*
X154381200Y-97885187D02*
X154343100Y-97808987D01*
X154343100Y-97808987D02*
X154305000Y-97770887D01*
X154305000Y-97770887D02*
X154228800Y-97732787D01*
X153466800Y-97732787D02*
X153390600Y-97732787D01*
X153390600Y-97732787D02*
X153314400Y-97770887D01*
X153314400Y-97770887D02*
X153276300Y-97808987D01*
X153276300Y-97808987D02*
X153238200Y-97885187D01*
X153238200Y-97885187D02*
X153200100Y-98037587D01*
X153200100Y-98037587D02*
X153200100Y-98228087D01*
X153200100Y-98228087D02*
X153238200Y-98380487D01*
X153238200Y-98380487D02*
X153276300Y-98456687D01*
X153276300Y-98456687D02*
X153314400Y-98494787D01*
X153314400Y-98494787D02*
X153390600Y-98532887D01*
X153390600Y-98532887D02*
X153466800Y-98532887D01*
X153466800Y-98532887D02*
X153543000Y-98494787D01*
X153543000Y-98494787D02*
X153581100Y-98456687D01*
X153581100Y-98456687D02*
X153619200Y-98380487D01*
X153619200Y-98380487D02*
X153657300Y-98228087D01*
X153657300Y-98228087D02*
X153657300Y-98037587D01*
X153657300Y-98037587D02*
X153619200Y-97885187D01*
X153619200Y-97885187D02*
X153581100Y-97808987D01*
X153581100Y-97808987D02*
X153543000Y-97770887D01*
X153543000Y-97770887D02*
X153466800Y-97732787D01*
X152704800Y-97732787D02*
X152628600Y-97732787D01*
X152628600Y-97732787D02*
X152552400Y-97770887D01*
X152552400Y-97770887D02*
X152514300Y-97808987D01*
X152514300Y-97808987D02*
X152476200Y-97885187D01*
X152476200Y-97885187D02*
X152438100Y-98037587D01*
X152438100Y-98037587D02*
X152438100Y-98228087D01*
X152438100Y-98228087D02*
X152476200Y-98380487D01*
X152476200Y-98380487D02*
X152514300Y-98456687D01*
X152514300Y-98456687D02*
X152552400Y-98494787D01*
X152552400Y-98494787D02*
X152628600Y-98532887D01*
X152628600Y-98532887D02*
X152704800Y-98532887D01*
X152704800Y-98532887D02*
X152781000Y-98494787D01*
X152781000Y-98494787D02*
X152819100Y-98456687D01*
X152819100Y-98456687D02*
X152857200Y-98380487D01*
X152857200Y-98380487D02*
X152895300Y-98228087D01*
X152895300Y-98228087D02*
X152895300Y-98037587D01*
X152895300Y-98037587D02*
X152857200Y-97885187D01*
X152857200Y-97885187D02*
X152819100Y-97808987D01*
X152819100Y-97808987D02*
X152781000Y-97770887D01*
X152781000Y-97770887D02*
X152704800Y-97732787D01*
X152133300Y-97808987D02*
X152095200Y-97770887D01*
X152095200Y-97770887D02*
X152019000Y-97732787D01*
X152019000Y-97732787D02*
X151828500Y-97732787D01*
X151828500Y-97732787D02*
X151752300Y-97770887D01*
X151752300Y-97770887D02*
X151714200Y-97808987D01*
X151714200Y-97808987D02*
X151676100Y-97885187D01*
X151676100Y-97885187D02*
X151676100Y-97961387D01*
X151676100Y-97961387D02*
X151714200Y-98075687D01*
X151714200Y-98075687D02*
X152171400Y-98532887D01*
X152171400Y-98532887D02*
X151676100Y-98532887D01*
X150990300Y-97732787D02*
X151142700Y-97732787D01*
X151142700Y-97732787D02*
X151218900Y-97770887D01*
X151218900Y-97770887D02*
X151257000Y-97808987D01*
X151257000Y-97808987D02*
X151333200Y-97923287D01*
X151333200Y-97923287D02*
X151371300Y-98075687D01*
X151371300Y-98075687D02*
X151371300Y-98380487D01*
X151371300Y-98380487D02*
X151333200Y-98456687D01*
X151333200Y-98456687D02*
X151295100Y-98494787D01*
X151295100Y-98494787D02*
X151218900Y-98532887D01*
X151218900Y-98532887D02*
X151066500Y-98532887D01*
X151066500Y-98532887D02*
X150990300Y-98494787D01*
X150990300Y-98494787D02*
X150952200Y-98456687D01*
X150952200Y-98456687D02*
X150914100Y-98380487D01*
X150914100Y-98380487D02*
X150914100Y-98189987D01*
X150914100Y-98189987D02*
X150952200Y-98113787D01*
X150952200Y-98113787D02*
X150990300Y-98075687D01*
X150990300Y-98075687D02*
X151066500Y-98037587D01*
X151066500Y-98037587D02*
X151218900Y-98037587D01*
X151218900Y-98037587D02*
X151295100Y-98075687D01*
X151295100Y-98075687D02*
X151333200Y-98113787D01*
X151333200Y-98113787D02*
X151371300Y-98189987D01*
X150647400Y-97732787D02*
X150114000Y-97732787D01*
X150114000Y-97732787D02*
X150456900Y-98532887D01*
D11*
X101520572Y-136659904D02*
X101472953Y-136564666D01*
X101472953Y-136564666D02*
X101472953Y-136421809D01*
X101472953Y-136421809D02*
X101520572Y-136278952D01*
X101520572Y-136278952D02*
X101615810Y-136183714D01*
X101615810Y-136183714D02*
X101711048Y-136136095D01*
X101711048Y-136136095D02*
X101901524Y-136088476D01*
X101901524Y-136088476D02*
X102044381Y-136088476D01*
X102044381Y-136088476D02*
X102234857Y-136136095D01*
X102234857Y-136136095D02*
X102330095Y-136183714D01*
X102330095Y-136183714D02*
X102425334Y-136278952D01*
X102425334Y-136278952D02*
X102472953Y-136421809D01*
X102472953Y-136421809D02*
X102472953Y-136517047D01*
X102472953Y-136517047D02*
X102425334Y-136659904D01*
X102425334Y-136659904D02*
X102377714Y-136707523D01*
X102377714Y-136707523D02*
X102044381Y-136707523D01*
X102044381Y-136707523D02*
X102044381Y-136517047D01*
X115024905Y-134580476D02*
X114977286Y-134485238D01*
X114977286Y-134485238D02*
X114977286Y-134342381D01*
X114977286Y-134342381D02*
X115024905Y-134199524D01*
X115024905Y-134199524D02*
X115120143Y-134104286D01*
X115120143Y-134104286D02*
X115215381Y-134056667D01*
X115215381Y-134056667D02*
X115405857Y-134009048D01*
X115405857Y-134009048D02*
X115548714Y-134009048D01*
X115548714Y-134009048D02*
X115739190Y-134056667D01*
X115739190Y-134056667D02*
X115834428Y-134104286D01*
X115834428Y-134104286D02*
X115929667Y-134199524D01*
X115929667Y-134199524D02*
X115977286Y-134342381D01*
X115977286Y-134342381D02*
X115977286Y-134437619D01*
X115977286Y-134437619D02*
X115929667Y-134580476D01*
X115929667Y-134580476D02*
X115882047Y-134628095D01*
X115882047Y-134628095D02*
X115548714Y-134628095D01*
X115548714Y-134628095D02*
X115548714Y-134437619D01*
X115977286Y-135056667D02*
X114977286Y-135056667D01*
X114977286Y-135056667D02*
X115977286Y-135628095D01*
X115977286Y-135628095D02*
X114977286Y-135628095D01*
X115977286Y-136104286D02*
X114977286Y-136104286D01*
X114977286Y-136104286D02*
X114977286Y-136342381D01*
X114977286Y-136342381D02*
X115024905Y-136485238D01*
X115024905Y-136485238D02*
X115120143Y-136580476D01*
X115120143Y-136580476D02*
X115215381Y-136628095D01*
X115215381Y-136628095D02*
X115405857Y-136675714D01*
X115405857Y-136675714D02*
X115548714Y-136675714D01*
X115548714Y-136675714D02*
X115739190Y-136628095D01*
X115739190Y-136628095D02*
X115834428Y-136580476D01*
X115834428Y-136580476D02*
X115929667Y-136485238D01*
X115929667Y-136485238D02*
X115977286Y-136342381D01*
X115977286Y-136342381D02*
X115977286Y-136104286D01*
D13*
X86791492Y-136065381D02*
X86731016Y-135944428D01*
X86731016Y-135944428D02*
X86731016Y-135763000D01*
X86731016Y-135763000D02*
X86791492Y-135581571D01*
X86791492Y-135581571D02*
X86912444Y-135460619D01*
X86912444Y-135460619D02*
X87033397Y-135400142D01*
X87033397Y-135400142D02*
X87275301Y-135339666D01*
X87275301Y-135339666D02*
X87456730Y-135339666D01*
X87456730Y-135339666D02*
X87698635Y-135400142D01*
X87698635Y-135400142D02*
X87819587Y-135460619D01*
X87819587Y-135460619D02*
X87940540Y-135581571D01*
X87940540Y-135581571D02*
X88001016Y-135763000D01*
X88001016Y-135763000D02*
X88001016Y-135883952D01*
X88001016Y-135883952D02*
X87940540Y-136065381D01*
X87940540Y-136065381D02*
X87880063Y-136125857D01*
X87880063Y-136125857D02*
X87456730Y-136125857D01*
X87456730Y-136125857D02*
X87456730Y-135883952D01*
X88001016Y-136670142D02*
X86731016Y-136670142D01*
X86731016Y-136670142D02*
X88001016Y-137395857D01*
X88001016Y-137395857D02*
X86731016Y-137395857D01*
X88001016Y-138000618D02*
X86731016Y-138000618D01*
X86731016Y-138000618D02*
X86731016Y-138302999D01*
X86731016Y-138302999D02*
X86791492Y-138484428D01*
X86791492Y-138484428D02*
X86912444Y-138605380D01*
X86912444Y-138605380D02*
X87033397Y-138665857D01*
X87033397Y-138665857D02*
X87275301Y-138726333D01*
X87275301Y-138726333D02*
X87456730Y-138726333D01*
X87456730Y-138726333D02*
X87698635Y-138665857D01*
X87698635Y-138665857D02*
X87819587Y-138605380D01*
X87819587Y-138605380D02*
X87940540Y-138484428D01*
X87940540Y-138484428D02*
X88001016Y-138302999D01*
X88001016Y-138302999D02*
X88001016Y-138000618D01*
D11*
X110151286Y-134247143D02*
X110151286Y-134866190D01*
X110151286Y-134866190D02*
X110532238Y-134532857D01*
X110532238Y-134532857D02*
X110532238Y-134675714D01*
X110532238Y-134675714D02*
X110579857Y-134770952D01*
X110579857Y-134770952D02*
X110627476Y-134818571D01*
X110627476Y-134818571D02*
X110722714Y-134866190D01*
X110722714Y-134866190D02*
X110960809Y-134866190D01*
X110960809Y-134866190D02*
X111056047Y-134818571D01*
X111056047Y-134818571D02*
X111103667Y-134770952D01*
X111103667Y-134770952D02*
X111151286Y-134675714D01*
X111151286Y-134675714D02*
X111151286Y-134390000D01*
X111151286Y-134390000D02*
X111103667Y-134294762D01*
X111103667Y-134294762D02*
X111056047Y-134247143D01*
X110151286Y-135151905D02*
X111151286Y-135485238D01*
X111151286Y-135485238D02*
X110151286Y-135818571D01*
X110151286Y-136056667D02*
X110151286Y-136675714D01*
X110151286Y-136675714D02*
X110532238Y-136342381D01*
X110532238Y-136342381D02*
X110532238Y-136485238D01*
X110532238Y-136485238D02*
X110579857Y-136580476D01*
X110579857Y-136580476D02*
X110627476Y-136628095D01*
X110627476Y-136628095D02*
X110722714Y-136675714D01*
X110722714Y-136675714D02*
X110960809Y-136675714D01*
X110960809Y-136675714D02*
X111056047Y-136628095D01*
X111056047Y-136628095D02*
X111103667Y-136580476D01*
X111103667Y-136580476D02*
X111151286Y-136485238D01*
X111151286Y-136485238D02*
X111151286Y-136199524D01*
X111151286Y-136199524D02*
X111103667Y-136104286D01*
X111103667Y-136104286D02*
X111056047Y-136056667D01*
X104796000Y-103986295D02*
X104843619Y-104129152D01*
X104843619Y-104129152D02*
X104843619Y-104367247D01*
X104843619Y-104367247D02*
X104796000Y-104462485D01*
X104796000Y-104462485D02*
X104748380Y-104510104D01*
X104748380Y-104510104D02*
X104653142Y-104557723D01*
X104653142Y-104557723D02*
X104557904Y-104557723D01*
X104557904Y-104557723D02*
X104462666Y-104510104D01*
X104462666Y-104510104D02*
X104415047Y-104462485D01*
X104415047Y-104462485D02*
X104367428Y-104367247D01*
X104367428Y-104367247D02*
X104319809Y-104176771D01*
X104319809Y-104176771D02*
X104272190Y-104081533D01*
X104272190Y-104081533D02*
X104224571Y-104033914D01*
X104224571Y-104033914D02*
X104129333Y-103986295D01*
X104129333Y-103986295D02*
X104034095Y-103986295D01*
X104034095Y-103986295D02*
X103938857Y-104033914D01*
X103938857Y-104033914D02*
X103891238Y-104081533D01*
X103891238Y-104081533D02*
X103843619Y-104176771D01*
X103843619Y-104176771D02*
X103843619Y-104414866D01*
X103843619Y-104414866D02*
X103891238Y-104557723D01*
X103843619Y-104891057D02*
X104843619Y-105129152D01*
X104843619Y-105129152D02*
X104129333Y-105319628D01*
X104129333Y-105319628D02*
X104843619Y-105510104D01*
X104843619Y-105510104D02*
X103843619Y-105748200D01*
X104748380Y-106700580D02*
X104796000Y-106652961D01*
X104796000Y-106652961D02*
X104843619Y-106510104D01*
X104843619Y-106510104D02*
X104843619Y-106414866D01*
X104843619Y-106414866D02*
X104796000Y-106272009D01*
X104796000Y-106272009D02*
X104700761Y-106176771D01*
X104700761Y-106176771D02*
X104605523Y-106129152D01*
X104605523Y-106129152D02*
X104415047Y-106081533D01*
X104415047Y-106081533D02*
X104272190Y-106081533D01*
X104272190Y-106081533D02*
X104081714Y-106129152D01*
X104081714Y-106129152D02*
X103986476Y-106176771D01*
X103986476Y-106176771D02*
X103891238Y-106272009D01*
X103891238Y-106272009D02*
X103843619Y-106414866D01*
X103843619Y-106414866D02*
X103843619Y-106510104D01*
X103843619Y-106510104D02*
X103891238Y-106652961D01*
X103891238Y-106652961D02*
X103938857Y-106700580D01*
X104843619Y-107605342D02*
X104843619Y-107129152D01*
X104843619Y-107129152D02*
X103843619Y-107129152D01*
X104843619Y-107938676D02*
X103843619Y-107938676D01*
X104843619Y-108510104D02*
X104272190Y-108081533D01*
X103843619Y-108510104D02*
X104415047Y-107938676D01*
D14*
X162090489Y-136576297D02*
X162695251Y-136576297D01*
X162695251Y-136576297D02*
X162695251Y-135306297D01*
X161183346Y-136515821D02*
X161304298Y-136576297D01*
X161304298Y-136576297D02*
X161546203Y-136576297D01*
X161546203Y-136576297D02*
X161667156Y-136515821D01*
X161667156Y-136515821D02*
X161727632Y-136394868D01*
X161727632Y-136394868D02*
X161727632Y-135911059D01*
X161727632Y-135911059D02*
X161667156Y-135790106D01*
X161667156Y-135790106D02*
X161546203Y-135729630D01*
X161546203Y-135729630D02*
X161304298Y-135729630D01*
X161304298Y-135729630D02*
X161183346Y-135790106D01*
X161183346Y-135790106D02*
X161122870Y-135911059D01*
X161122870Y-135911059D02*
X161122870Y-136032011D01*
X161122870Y-136032011D02*
X161727632Y-136152963D01*
X160094775Y-136515821D02*
X160215727Y-136576297D01*
X160215727Y-136576297D02*
X160457632Y-136576297D01*
X160457632Y-136576297D02*
X160578585Y-136515821D01*
X160578585Y-136515821D02*
X160639061Y-136394868D01*
X160639061Y-136394868D02*
X160639061Y-135911059D01*
X160639061Y-135911059D02*
X160578585Y-135790106D01*
X160578585Y-135790106D02*
X160457632Y-135729630D01*
X160457632Y-135729630D02*
X160215727Y-135729630D01*
X160215727Y-135729630D02*
X160094775Y-135790106D01*
X160094775Y-135790106D02*
X160034299Y-135911059D01*
X160034299Y-135911059D02*
X160034299Y-136032011D01*
X160034299Y-136032011D02*
X160639061Y-136152963D01*
X159490014Y-136576297D02*
X159490014Y-135729630D01*
X159490014Y-135850582D02*
X159429537Y-135790106D01*
X159429537Y-135790106D02*
X159308585Y-135729630D01*
X159308585Y-135729630D02*
X159127156Y-135729630D01*
X159127156Y-135729630D02*
X159006204Y-135790106D01*
X159006204Y-135790106D02*
X158945728Y-135911059D01*
X158945728Y-135911059D02*
X158945728Y-136576297D01*
X158945728Y-135911059D02*
X158885252Y-135790106D01*
X158885252Y-135790106D02*
X158764299Y-135729630D01*
X158764299Y-135729630D02*
X158582871Y-135729630D01*
X158582871Y-135729630D02*
X158461918Y-135790106D01*
X158461918Y-135790106D02*
X158401442Y-135911059D01*
X158401442Y-135911059D02*
X158401442Y-136576297D01*
X157252395Y-136576297D02*
X157252395Y-135911059D01*
X157252395Y-135911059D02*
X157312871Y-135790106D01*
X157312871Y-135790106D02*
X157433823Y-135729630D01*
X157433823Y-135729630D02*
X157675728Y-135729630D01*
X157675728Y-135729630D02*
X157796681Y-135790106D01*
X157252395Y-136515821D02*
X157373347Y-136576297D01*
X157373347Y-136576297D02*
X157675728Y-136576297D01*
X157675728Y-136576297D02*
X157796681Y-136515821D01*
X157796681Y-136515821D02*
X157857157Y-136394868D01*
X157857157Y-136394868D02*
X157857157Y-136273916D01*
X157857157Y-136273916D02*
X157796681Y-136152963D01*
X157796681Y-136152963D02*
X157675728Y-136092487D01*
X157675728Y-136092487D02*
X157373347Y-136092487D01*
X157373347Y-136092487D02*
X157252395Y-136032011D01*
X156647633Y-135729630D02*
X156647633Y-136576297D01*
X156647633Y-135850582D02*
X156587156Y-135790106D01*
X156587156Y-135790106D02*
X156466204Y-135729630D01*
X156466204Y-135729630D02*
X156284775Y-135729630D01*
X156284775Y-135729630D02*
X156163823Y-135790106D01*
X156163823Y-135790106D02*
X156103347Y-135911059D01*
X156103347Y-135911059D02*
X156103347Y-136576297D01*
X153865727Y-135366773D02*
X153986680Y-135306297D01*
X153986680Y-135306297D02*
X154168108Y-135306297D01*
X154168108Y-135306297D02*
X154349537Y-135366773D01*
X154349537Y-135366773D02*
X154470489Y-135487725D01*
X154470489Y-135487725D02*
X154530966Y-135608678D01*
X154530966Y-135608678D02*
X154591442Y-135850582D01*
X154591442Y-135850582D02*
X154591442Y-136032011D01*
X154591442Y-136032011D02*
X154530966Y-136273916D01*
X154530966Y-136273916D02*
X154470489Y-136394868D01*
X154470489Y-136394868D02*
X154349537Y-136515821D01*
X154349537Y-136515821D02*
X154168108Y-136576297D01*
X154168108Y-136576297D02*
X154047156Y-136576297D01*
X154047156Y-136576297D02*
X153865727Y-136515821D01*
X153865727Y-136515821D02*
X153805251Y-136455344D01*
X153805251Y-136455344D02*
X153805251Y-136032011D01*
X153805251Y-136032011D02*
X154047156Y-136032011D01*
X152777156Y-136515821D02*
X152898108Y-136576297D01*
X152898108Y-136576297D02*
X153140013Y-136576297D01*
X153140013Y-136576297D02*
X153260966Y-136515821D01*
X153260966Y-136515821D02*
X153321442Y-136394868D01*
X153321442Y-136394868D02*
X153321442Y-135911059D01*
X153321442Y-135911059D02*
X153260966Y-135790106D01*
X153260966Y-135790106D02*
X153140013Y-135729630D01*
X153140013Y-135729630D02*
X152898108Y-135729630D01*
X152898108Y-135729630D02*
X152777156Y-135790106D01*
X152777156Y-135790106D02*
X152716680Y-135911059D01*
X152716680Y-135911059D02*
X152716680Y-136032011D01*
X152716680Y-136032011D02*
X153321442Y-136152963D01*
X151990966Y-136576297D02*
X152111918Y-136515821D01*
X152111918Y-136515821D02*
X152172395Y-136455344D01*
X152172395Y-136455344D02*
X152232871Y-136334392D01*
X152232871Y-136334392D02*
X152232871Y-135971535D01*
X152232871Y-135971535D02*
X152172395Y-135850582D01*
X152172395Y-135850582D02*
X152111918Y-135790106D01*
X152111918Y-135790106D02*
X151990966Y-135729630D01*
X151990966Y-135729630D02*
X151809537Y-135729630D01*
X151809537Y-135729630D02*
X151688585Y-135790106D01*
X151688585Y-135790106D02*
X151628109Y-135850582D01*
X151628109Y-135850582D02*
X151567633Y-135971535D01*
X151567633Y-135971535D02*
X151567633Y-136334392D01*
X151567633Y-136334392D02*
X151628109Y-136455344D01*
X151628109Y-136455344D02*
X151688585Y-136515821D01*
X151688585Y-136515821D02*
X151809537Y-136576297D01*
X151809537Y-136576297D02*
X151990966Y-136576297D01*
X151023347Y-135729630D02*
X151023347Y-136999630D01*
X151023347Y-135790106D02*
X150902394Y-135729630D01*
X150902394Y-135729630D02*
X150660489Y-135729630D01*
X150660489Y-135729630D02*
X150539537Y-135790106D01*
X150539537Y-135790106D02*
X150479061Y-135850582D01*
X150479061Y-135850582D02*
X150418585Y-135971535D01*
X150418585Y-135971535D02*
X150418585Y-136334392D01*
X150418585Y-136334392D02*
X150479061Y-136455344D01*
X150479061Y-136455344D02*
X150539537Y-136515821D01*
X150539537Y-136515821D02*
X150660489Y-136576297D01*
X150660489Y-136576297D02*
X150902394Y-136576297D01*
X150902394Y-136576297D02*
X151023347Y-136515821D01*
X149874299Y-136576297D02*
X149874299Y-135306297D01*
X149330013Y-136576297D02*
X149330013Y-135911059D01*
X149330013Y-135911059D02*
X149390489Y-135790106D01*
X149390489Y-135790106D02*
X149511441Y-135729630D01*
X149511441Y-135729630D02*
X149692870Y-135729630D01*
X149692870Y-135729630D02*
X149813822Y-135790106D01*
X149813822Y-135790106D02*
X149874299Y-135850582D01*
X148846203Y-135729630D02*
X148543822Y-136576297D01*
X148241441Y-135729630D02*
X148543822Y-136576297D01*
X148543822Y-136576297D02*
X148664774Y-136878678D01*
X148664774Y-136878678D02*
X148725251Y-136939154D01*
X148725251Y-136939154D02*
X148846203Y-136999630D01*
X147818108Y-136515821D02*
X147697155Y-136576297D01*
X147697155Y-136576297D02*
X147455251Y-136576297D01*
X147455251Y-136576297D02*
X147334298Y-136515821D01*
X147334298Y-136515821D02*
X147273822Y-136394868D01*
X147273822Y-136394868D02*
X147273822Y-136334392D01*
X147273822Y-136334392D02*
X147334298Y-136213440D01*
X147334298Y-136213440D02*
X147455251Y-136152963D01*
X147455251Y-136152963D02*
X147636679Y-136152963D01*
X147636679Y-136152963D02*
X147757632Y-136092487D01*
X147757632Y-136092487D02*
X147818108Y-135971535D01*
X147818108Y-135971535D02*
X147818108Y-135911059D01*
X147818108Y-135911059D02*
X147757632Y-135790106D01*
X147757632Y-135790106D02*
X147636679Y-135729630D01*
X147636679Y-135729630D02*
X147455251Y-135729630D01*
X147455251Y-135729630D02*
X147334298Y-135790106D01*
X146729537Y-136576297D02*
X146729537Y-135729630D01*
X146729537Y-135306297D02*
X146790013Y-135366773D01*
X146790013Y-135366773D02*
X146729537Y-135427249D01*
X146729537Y-135427249D02*
X146669060Y-135366773D01*
X146669060Y-135366773D02*
X146729537Y-135306297D01*
X146729537Y-135306297D02*
X146729537Y-135427249D01*
X145580489Y-136515821D02*
X145701441Y-136576297D01*
X145701441Y-136576297D02*
X145943346Y-136576297D01*
X145943346Y-136576297D02*
X146064298Y-136515821D01*
X146064298Y-136515821D02*
X146124775Y-136455344D01*
X146124775Y-136455344D02*
X146185251Y-136334392D01*
X146185251Y-136334392D02*
X146185251Y-135971535D01*
X146185251Y-135971535D02*
X146124775Y-135850582D01*
X146124775Y-135850582D02*
X146064298Y-135790106D01*
X146064298Y-135790106D02*
X145943346Y-135729630D01*
X145943346Y-135729630D02*
X145701441Y-135729630D01*
X145701441Y-135729630D02*
X145580489Y-135790106D01*
X144491918Y-136576297D02*
X144491918Y-135911059D01*
X144491918Y-135911059D02*
X144552394Y-135790106D01*
X144552394Y-135790106D02*
X144673346Y-135729630D01*
X144673346Y-135729630D02*
X144915251Y-135729630D01*
X144915251Y-135729630D02*
X145036204Y-135790106D01*
X144491918Y-136515821D02*
X144612870Y-136576297D01*
X144612870Y-136576297D02*
X144915251Y-136576297D01*
X144915251Y-136576297D02*
X145036204Y-136515821D01*
X145036204Y-136515821D02*
X145096680Y-136394868D01*
X145096680Y-136394868D02*
X145096680Y-136273916D01*
X145096680Y-136273916D02*
X145036204Y-136152963D01*
X145036204Y-136152963D02*
X144915251Y-136092487D01*
X144915251Y-136092487D02*
X144612870Y-136092487D01*
X144612870Y-136092487D02*
X144491918Y-136032011D01*
X143705727Y-136576297D02*
X143826679Y-136515821D01*
X143826679Y-136515821D02*
X143887156Y-136394868D01*
X143887156Y-136394868D02*
X143887156Y-135306297D01*
X141649537Y-136576297D02*
X142254299Y-136576297D01*
X142254299Y-136576297D02*
X142254299Y-135306297D01*
X140621442Y-136576297D02*
X141226204Y-136576297D01*
X141226204Y-136576297D02*
X141226204Y-135306297D01*
X139472394Y-136455344D02*
X139532870Y-136515821D01*
X139532870Y-136515821D02*
X139714299Y-136576297D01*
X139714299Y-136576297D02*
X139835251Y-136576297D01*
X139835251Y-136576297D02*
X140016680Y-136515821D01*
X140016680Y-136515821D02*
X140137632Y-136394868D01*
X140137632Y-136394868D02*
X140198109Y-136273916D01*
X140198109Y-136273916D02*
X140258585Y-136032011D01*
X140258585Y-136032011D02*
X140258585Y-135850582D01*
X140258585Y-135850582D02*
X140198109Y-135608678D01*
X140198109Y-135608678D02*
X140137632Y-135487725D01*
X140137632Y-135487725D02*
X140016680Y-135366773D01*
X140016680Y-135366773D02*
X139835251Y-135306297D01*
X139835251Y-135306297D02*
X139714299Y-135306297D01*
X139714299Y-135306297D02*
X139532870Y-135366773D01*
X139532870Y-135366773D02*
X139472394Y-135427249D01*
X162453346Y-137350926D02*
X162211441Y-137350926D01*
X162211441Y-137350926D02*
X162090489Y-137411402D01*
X162090489Y-137411402D02*
X161969536Y-137532354D01*
X161969536Y-137532354D02*
X161909060Y-137774259D01*
X161909060Y-137774259D02*
X161909060Y-138197592D01*
X161909060Y-138197592D02*
X161969536Y-138439497D01*
X161969536Y-138439497D02*
X162090489Y-138560450D01*
X162090489Y-138560450D02*
X162211441Y-138620926D01*
X162211441Y-138620926D02*
X162453346Y-138620926D01*
X162453346Y-138620926D02*
X162574298Y-138560450D01*
X162574298Y-138560450D02*
X162695251Y-138439497D01*
X162695251Y-138439497D02*
X162755727Y-138197592D01*
X162755727Y-138197592D02*
X162755727Y-137774259D01*
X162755727Y-137774259D02*
X162695251Y-137532354D01*
X162695251Y-137532354D02*
X162574298Y-137411402D01*
X162574298Y-137411402D02*
X162453346Y-137350926D01*
X161364775Y-138620926D02*
X161364775Y-137774259D01*
X161364775Y-138016164D02*
X161304298Y-137895211D01*
X161304298Y-137895211D02*
X161243822Y-137834735D01*
X161243822Y-137834735D02*
X161122870Y-137774259D01*
X161122870Y-137774259D02*
X161001917Y-137774259D01*
X160578585Y-138620926D02*
X160578585Y-137774259D01*
X160578585Y-137350926D02*
X160639061Y-137411402D01*
X160639061Y-137411402D02*
X160578585Y-137471878D01*
X160578585Y-137471878D02*
X160518108Y-137411402D01*
X160518108Y-137411402D02*
X160578585Y-137350926D01*
X160578585Y-137350926D02*
X160578585Y-137471878D01*
X159490013Y-138560450D02*
X159610965Y-138620926D01*
X159610965Y-138620926D02*
X159852870Y-138620926D01*
X159852870Y-138620926D02*
X159973823Y-138560450D01*
X159973823Y-138560450D02*
X160034299Y-138439497D01*
X160034299Y-138439497D02*
X160034299Y-137955688D01*
X160034299Y-137955688D02*
X159973823Y-137834735D01*
X159973823Y-137834735D02*
X159852870Y-137774259D01*
X159852870Y-137774259D02*
X159610965Y-137774259D01*
X159610965Y-137774259D02*
X159490013Y-137834735D01*
X159490013Y-137834735D02*
X159429537Y-137955688D01*
X159429537Y-137955688D02*
X159429537Y-138076640D01*
X159429537Y-138076640D02*
X160034299Y-138197592D01*
X158885252Y-137774259D02*
X158885252Y-138620926D01*
X158885252Y-137895211D02*
X158824775Y-137834735D01*
X158824775Y-137834735D02*
X158703823Y-137774259D01*
X158703823Y-137774259D02*
X158522394Y-137774259D01*
X158522394Y-137774259D02*
X158401442Y-137834735D01*
X158401442Y-137834735D02*
X158340966Y-137955688D01*
X158340966Y-137955688D02*
X158340966Y-138620926D01*
X157917632Y-137774259D02*
X157433823Y-137774259D01*
X157736204Y-137350926D02*
X157736204Y-138439497D01*
X157736204Y-138439497D02*
X157675727Y-138560450D01*
X157675727Y-138560450D02*
X157554775Y-138620926D01*
X157554775Y-138620926D02*
X157433823Y-138620926D01*
X156466204Y-138620926D02*
X156466204Y-137955688D01*
X156466204Y-137955688D02*
X156526680Y-137834735D01*
X156526680Y-137834735D02*
X156647632Y-137774259D01*
X156647632Y-137774259D02*
X156889537Y-137774259D01*
X156889537Y-137774259D02*
X157010490Y-137834735D01*
X156466204Y-138560450D02*
X156587156Y-138620926D01*
X156587156Y-138620926D02*
X156889537Y-138620926D01*
X156889537Y-138620926D02*
X157010490Y-138560450D01*
X157010490Y-138560450D02*
X157070966Y-138439497D01*
X157070966Y-138439497D02*
X157070966Y-138318545D01*
X157070966Y-138318545D02*
X157010490Y-138197592D01*
X157010490Y-138197592D02*
X156889537Y-138137116D01*
X156889537Y-138137116D02*
X156587156Y-138137116D01*
X156587156Y-138137116D02*
X156466204Y-138076640D01*
X156042870Y-137774259D02*
X155559061Y-137774259D01*
X155861442Y-137350926D02*
X155861442Y-138439497D01*
X155861442Y-138439497D02*
X155800965Y-138560450D01*
X155800965Y-138560450D02*
X155680013Y-138620926D01*
X155680013Y-138620926D02*
X155559061Y-138620926D01*
X155135728Y-138620926D02*
X155135728Y-137774259D01*
X155135728Y-137350926D02*
X155196204Y-137411402D01*
X155196204Y-137411402D02*
X155135728Y-137471878D01*
X155135728Y-137471878D02*
X155075251Y-137411402D01*
X155075251Y-137411402D02*
X155135728Y-137350926D01*
X155135728Y-137350926D02*
X155135728Y-137471878D01*
X154349537Y-138620926D02*
X154470489Y-138560450D01*
X154470489Y-138560450D02*
X154530966Y-138499973D01*
X154530966Y-138499973D02*
X154591442Y-138379021D01*
X154591442Y-138379021D02*
X154591442Y-138016164D01*
X154591442Y-138016164D02*
X154530966Y-137895211D01*
X154530966Y-137895211D02*
X154470489Y-137834735D01*
X154470489Y-137834735D02*
X154349537Y-137774259D01*
X154349537Y-137774259D02*
X154168108Y-137774259D01*
X154168108Y-137774259D02*
X154047156Y-137834735D01*
X154047156Y-137834735D02*
X153986680Y-137895211D01*
X153986680Y-137895211D02*
X153926204Y-138016164D01*
X153926204Y-138016164D02*
X153926204Y-138379021D01*
X153926204Y-138379021D02*
X153986680Y-138499973D01*
X153986680Y-138499973D02*
X154047156Y-138560450D01*
X154047156Y-138560450D02*
X154168108Y-138620926D01*
X154168108Y-138620926D02*
X154349537Y-138620926D01*
X153381918Y-137774259D02*
X153381918Y-138620926D01*
X153381918Y-137895211D02*
X153321441Y-137834735D01*
X153321441Y-137834735D02*
X153200489Y-137774259D01*
X153200489Y-137774259D02*
X153019060Y-137774259D01*
X153019060Y-137774259D02*
X152898108Y-137834735D01*
X152898108Y-137834735D02*
X152837632Y-137955688D01*
X152837632Y-137955688D02*
X152837632Y-138620926D01*
X151265251Y-138620926D02*
X151265251Y-137350926D01*
X151265251Y-137350926D02*
X150781441Y-137350926D01*
X150781441Y-137350926D02*
X150660489Y-137411402D01*
X150660489Y-137411402D02*
X150600012Y-137471878D01*
X150600012Y-137471878D02*
X150539536Y-137592830D01*
X150539536Y-137592830D02*
X150539536Y-137774259D01*
X150539536Y-137774259D02*
X150600012Y-137895211D01*
X150600012Y-137895211D02*
X150660489Y-137955688D01*
X150660489Y-137955688D02*
X150781441Y-138016164D01*
X150781441Y-138016164D02*
X151265251Y-138016164D01*
X149450965Y-138620926D02*
X149450965Y-137955688D01*
X149450965Y-137955688D02*
X149511441Y-137834735D01*
X149511441Y-137834735D02*
X149632393Y-137774259D01*
X149632393Y-137774259D02*
X149874298Y-137774259D01*
X149874298Y-137774259D02*
X149995251Y-137834735D01*
X149450965Y-138560450D02*
X149571917Y-138620926D01*
X149571917Y-138620926D02*
X149874298Y-138620926D01*
X149874298Y-138620926D02*
X149995251Y-138560450D01*
X149995251Y-138560450D02*
X150055727Y-138439497D01*
X150055727Y-138439497D02*
X150055727Y-138318545D01*
X150055727Y-138318545D02*
X149995251Y-138197592D01*
X149995251Y-138197592D02*
X149874298Y-138137116D01*
X149874298Y-138137116D02*
X149571917Y-138137116D01*
X149571917Y-138137116D02*
X149450965Y-138076640D01*
X148301917Y-138620926D02*
X148301917Y-137350926D01*
X148301917Y-138560450D02*
X148422869Y-138620926D01*
X148422869Y-138620926D02*
X148664774Y-138620926D01*
X148664774Y-138620926D02*
X148785726Y-138560450D01*
X148785726Y-138560450D02*
X148846203Y-138499973D01*
X148846203Y-138499973D02*
X148906679Y-138379021D01*
X148906679Y-138379021D02*
X148906679Y-138016164D01*
X148906679Y-138016164D02*
X148846203Y-137895211D01*
X148846203Y-137895211D02*
X148785726Y-137834735D01*
X148785726Y-137834735D02*
X148664774Y-137774259D01*
X148664774Y-137774259D02*
X148422869Y-137774259D01*
X148422869Y-137774259D02*
X148301917Y-137834735D01*
X147152869Y-138620926D02*
X147152869Y-137350926D01*
X147152869Y-138560450D02*
X147273821Y-138620926D01*
X147273821Y-138620926D02*
X147515726Y-138620926D01*
X147515726Y-138620926D02*
X147636678Y-138560450D01*
X147636678Y-138560450D02*
X147697155Y-138499973D01*
X147697155Y-138499973D02*
X147757631Y-138379021D01*
X147757631Y-138379021D02*
X147757631Y-138016164D01*
X147757631Y-138016164D02*
X147697155Y-137895211D01*
X147697155Y-137895211D02*
X147636678Y-137834735D01*
X147636678Y-137834735D02*
X147515726Y-137774259D01*
X147515726Y-137774259D02*
X147273821Y-137774259D01*
X147273821Y-137774259D02*
X147152869Y-137834735D01*
X146366678Y-138620926D02*
X146487630Y-138560450D01*
X146487630Y-138560450D02*
X146548107Y-138439497D01*
X146548107Y-138439497D02*
X146548107Y-137350926D01*
X145399059Y-138560450D02*
X145520011Y-138620926D01*
X145520011Y-138620926D02*
X145761916Y-138620926D01*
X145761916Y-138620926D02*
X145882869Y-138560450D01*
X145882869Y-138560450D02*
X145943345Y-138439497D01*
X145943345Y-138439497D02*
X145943345Y-137955688D01*
X145943345Y-137955688D02*
X145882869Y-137834735D01*
X145882869Y-137834735D02*
X145761916Y-137774259D01*
X145761916Y-137774259D02*
X145520011Y-137774259D01*
X145520011Y-137774259D02*
X145399059Y-137834735D01*
X145399059Y-137834735D02*
X145338583Y-137955688D01*
X145338583Y-137955688D02*
X145338583Y-138076640D01*
X145338583Y-138076640D02*
X145943345Y-138197592D01*
X143826679Y-138620926D02*
X143826679Y-137350926D01*
X143826679Y-137350926D02*
X143342869Y-137350926D01*
X143342869Y-137350926D02*
X143221917Y-137411402D01*
X143221917Y-137411402D02*
X143161440Y-137471878D01*
X143161440Y-137471878D02*
X143100964Y-137592830D01*
X143100964Y-137592830D02*
X143100964Y-137774259D01*
X143100964Y-137774259D02*
X143161440Y-137895211D01*
X143161440Y-137895211D02*
X143221917Y-137955688D01*
X143221917Y-137955688D02*
X143342869Y-138016164D01*
X143342869Y-138016164D02*
X143826679Y-138016164D01*
X141830964Y-138499973D02*
X141891440Y-138560450D01*
X141891440Y-138560450D02*
X142072869Y-138620926D01*
X142072869Y-138620926D02*
X142193821Y-138620926D01*
X142193821Y-138620926D02*
X142375250Y-138560450D01*
X142375250Y-138560450D02*
X142496202Y-138439497D01*
X142496202Y-138439497D02*
X142556679Y-138318545D01*
X142556679Y-138318545D02*
X142617155Y-138076640D01*
X142617155Y-138076640D02*
X142617155Y-137895211D01*
X142617155Y-137895211D02*
X142556679Y-137653307D01*
X142556679Y-137653307D02*
X142496202Y-137532354D01*
X142496202Y-137532354D02*
X142375250Y-137411402D01*
X142375250Y-137411402D02*
X142193821Y-137350926D01*
X142193821Y-137350926D02*
X142072869Y-137350926D01*
X142072869Y-137350926D02*
X141891440Y-137411402D01*
X141891440Y-137411402D02*
X141830964Y-137471878D01*
X140863345Y-137955688D02*
X140681917Y-138016164D01*
X140681917Y-138016164D02*
X140621440Y-138076640D01*
X140621440Y-138076640D02*
X140560964Y-138197592D01*
X140560964Y-138197592D02*
X140560964Y-138379021D01*
X140560964Y-138379021D02*
X140621440Y-138499973D01*
X140621440Y-138499973D02*
X140681917Y-138560450D01*
X140681917Y-138560450D02*
X140802869Y-138620926D01*
X140802869Y-138620926D02*
X141286679Y-138620926D01*
X141286679Y-138620926D02*
X141286679Y-137350926D01*
X141286679Y-137350926D02*
X140863345Y-137350926D01*
X140863345Y-137350926D02*
X140742393Y-137411402D01*
X140742393Y-137411402D02*
X140681917Y-137471878D01*
X140681917Y-137471878D02*
X140621440Y-137592830D01*
X140621440Y-137592830D02*
X140621440Y-137713783D01*
X140621440Y-137713783D02*
X140681917Y-137834735D01*
X140681917Y-137834735D02*
X140742393Y-137895211D01*
X140742393Y-137895211D02*
X140863345Y-137955688D01*
X140863345Y-137955688D02*
X141286679Y-137955688D01*
X161969536Y-140665555D02*
X162392870Y-140060793D01*
X162695251Y-140665555D02*
X162695251Y-139395555D01*
X162695251Y-139395555D02*
X162211441Y-139395555D01*
X162211441Y-139395555D02*
X162090489Y-139456031D01*
X162090489Y-139456031D02*
X162030012Y-139516507D01*
X162030012Y-139516507D02*
X161969536Y-139637459D01*
X161969536Y-139637459D02*
X161969536Y-139818888D01*
X161969536Y-139818888D02*
X162030012Y-139939840D01*
X162030012Y-139939840D02*
X162090489Y-140000317D01*
X162090489Y-140000317D02*
X162211441Y-140060793D01*
X162211441Y-140060793D02*
X162695251Y-140060793D01*
X160941441Y-140605079D02*
X161062393Y-140665555D01*
X161062393Y-140665555D02*
X161304298Y-140665555D01*
X161304298Y-140665555D02*
X161425251Y-140605079D01*
X161425251Y-140605079D02*
X161485727Y-140484126D01*
X161485727Y-140484126D02*
X161485727Y-140000317D01*
X161485727Y-140000317D02*
X161425251Y-139879364D01*
X161425251Y-139879364D02*
X161304298Y-139818888D01*
X161304298Y-139818888D02*
X161062393Y-139818888D01*
X161062393Y-139818888D02*
X160941441Y-139879364D01*
X160941441Y-139879364D02*
X160880965Y-140000317D01*
X160880965Y-140000317D02*
X160880965Y-140121269D01*
X160880965Y-140121269D02*
X161485727Y-140242221D01*
X160457632Y-139818888D02*
X160155251Y-140665555D01*
X160155251Y-140665555D02*
X159852870Y-139818888D01*
X158461918Y-139516507D02*
X158401442Y-139456031D01*
X158401442Y-139456031D02*
X158280489Y-139395555D01*
X158280489Y-139395555D02*
X157978108Y-139395555D01*
X157978108Y-139395555D02*
X157857156Y-139456031D01*
X157857156Y-139456031D02*
X157796680Y-139516507D01*
X157796680Y-139516507D02*
X157736203Y-139637459D01*
X157736203Y-139637459D02*
X157736203Y-139758412D01*
X157736203Y-139758412D02*
X157796680Y-139939840D01*
X157796680Y-139939840D02*
X158522394Y-140665555D01*
X158522394Y-140665555D02*
X157736203Y-140665555D01*
X157191918Y-140544602D02*
X157131441Y-140605079D01*
X157131441Y-140605079D02*
X157191918Y-140665555D01*
X157191918Y-140665555D02*
X157252394Y-140605079D01*
X157252394Y-140605079D02*
X157191918Y-140544602D01*
X157191918Y-140544602D02*
X157191918Y-140665555D01*
X156345251Y-139395555D02*
X156224298Y-139395555D01*
X156224298Y-139395555D02*
X156103346Y-139456031D01*
X156103346Y-139456031D02*
X156042870Y-139516507D01*
X156042870Y-139516507D02*
X155982394Y-139637459D01*
X155982394Y-139637459D02*
X155921917Y-139879364D01*
X155921917Y-139879364D02*
X155921917Y-140181745D01*
X155921917Y-140181745D02*
X155982394Y-140423650D01*
X155982394Y-140423650D02*
X156042870Y-140544602D01*
X156042870Y-140544602D02*
X156103346Y-140605079D01*
X156103346Y-140605079D02*
X156224298Y-140665555D01*
X156224298Y-140665555D02*
X156345251Y-140665555D01*
X156345251Y-140665555D02*
X156466203Y-140605079D01*
X156466203Y-140605079D02*
X156526679Y-140544602D01*
X156526679Y-140544602D02*
X156587156Y-140423650D01*
X156587156Y-140423650D02*
X156647632Y-140181745D01*
X156647632Y-140181745D02*
X156647632Y-139879364D01*
X156647632Y-139879364D02*
X156587156Y-139637459D01*
X156587156Y-139637459D02*
X156526679Y-139516507D01*
X156526679Y-139516507D02*
X156466203Y-139456031D01*
X156466203Y-139456031D02*
X156345251Y-139395555D01*
D11*
X107336000Y-103976753D02*
X107383619Y-104119610D01*
X107383619Y-104119610D02*
X107383619Y-104357705D01*
X107383619Y-104357705D02*
X107336000Y-104452943D01*
X107336000Y-104452943D02*
X107288380Y-104500562D01*
X107288380Y-104500562D02*
X107193142Y-104548181D01*
X107193142Y-104548181D02*
X107097904Y-104548181D01*
X107097904Y-104548181D02*
X107002666Y-104500562D01*
X107002666Y-104500562D02*
X106955047Y-104452943D01*
X106955047Y-104452943D02*
X106907428Y-104357705D01*
X106907428Y-104357705D02*
X106859809Y-104167229D01*
X106859809Y-104167229D02*
X106812190Y-104071991D01*
X106812190Y-104071991D02*
X106764571Y-104024372D01*
X106764571Y-104024372D02*
X106669333Y-103976753D01*
X106669333Y-103976753D02*
X106574095Y-103976753D01*
X106574095Y-103976753D02*
X106478857Y-104024372D01*
X106478857Y-104024372D02*
X106431238Y-104071991D01*
X106431238Y-104071991D02*
X106383619Y-104167229D01*
X106383619Y-104167229D02*
X106383619Y-104405324D01*
X106383619Y-104405324D02*
X106431238Y-104548181D01*
X106383619Y-104881515D02*
X107383619Y-105119610D01*
X107383619Y-105119610D02*
X106669333Y-105310086D01*
X106669333Y-105310086D02*
X107383619Y-105500562D01*
X107383619Y-105500562D02*
X106383619Y-105738658D01*
X107383619Y-106119610D02*
X106383619Y-106119610D01*
X106383619Y-106119610D02*
X106383619Y-106357705D01*
X106383619Y-106357705D02*
X106431238Y-106500562D01*
X106431238Y-106500562D02*
X106526476Y-106595800D01*
X106526476Y-106595800D02*
X106621714Y-106643419D01*
X106621714Y-106643419D02*
X106812190Y-106691038D01*
X106812190Y-106691038D02*
X106955047Y-106691038D01*
X106955047Y-106691038D02*
X107145523Y-106643419D01*
X107145523Y-106643419D02*
X107240761Y-106595800D01*
X107240761Y-106595800D02*
X107336000Y-106500562D01*
X107336000Y-106500562D02*
X107383619Y-106357705D01*
X107383619Y-106357705D02*
X107383619Y-106119610D01*
X107383619Y-107119610D02*
X106383619Y-107119610D01*
X106383619Y-107786276D02*
X106383619Y-107976752D01*
X106383619Y-107976752D02*
X106431238Y-108071990D01*
X106431238Y-108071990D02*
X106526476Y-108167228D01*
X106526476Y-108167228D02*
X106716952Y-108214847D01*
X106716952Y-108214847D02*
X107050285Y-108214847D01*
X107050285Y-108214847D02*
X107240761Y-108167228D01*
X107240761Y-108167228D02*
X107336000Y-108071990D01*
X107336000Y-108071990D02*
X107383619Y-107976752D01*
X107383619Y-107976752D02*
X107383619Y-107786276D01*
X107383619Y-107786276D02*
X107336000Y-107691038D01*
X107336000Y-107691038D02*
X107240761Y-107595800D01*
X107240761Y-107595800D02*
X107050285Y-107548181D01*
X107050285Y-107548181D02*
X106716952Y-107548181D01*
X106716952Y-107548181D02*
X106526476Y-107595800D01*
X106526476Y-107595800D02*
X106431238Y-107691038D01*
X106431238Y-107691038D02*
X106383619Y-107786276D01*
X100340476Y-136469428D02*
X100388095Y-136612285D01*
X100388095Y-136612285D02*
X100435714Y-136659904D01*
X100435714Y-136659904D02*
X100530952Y-136707523D01*
X100530952Y-136707523D02*
X100673809Y-136707523D01*
X100673809Y-136707523D02*
X100769047Y-136659904D01*
X100769047Y-136659904D02*
X100816667Y-136612285D01*
X100816667Y-136612285D02*
X100864286Y-136517047D01*
X100864286Y-136517047D02*
X100864286Y-136136095D01*
X100864286Y-136136095D02*
X99864286Y-136136095D01*
X99864286Y-136136095D02*
X99864286Y-136469428D01*
X99864286Y-136469428D02*
X99911905Y-136564666D01*
X99911905Y-136564666D02*
X99959524Y-136612285D01*
X99959524Y-136612285D02*
X100054762Y-136659904D01*
X100054762Y-136659904D02*
X100150000Y-136659904D01*
X100150000Y-136659904D02*
X100245238Y-136612285D01*
X100245238Y-136612285D02*
X100292857Y-136564666D01*
X100292857Y-136564666D02*
X100340476Y-136469428D01*
X100340476Y-136469428D02*
X100340476Y-136136095D01*
X104737905Y-134612286D02*
X104690286Y-134517048D01*
X104690286Y-134517048D02*
X104690286Y-134374191D01*
X104690286Y-134374191D02*
X104737905Y-134231334D01*
X104737905Y-134231334D02*
X104833143Y-134136096D01*
X104833143Y-134136096D02*
X104928381Y-134088477D01*
X104928381Y-134088477D02*
X105118857Y-134040858D01*
X105118857Y-134040858D02*
X105261714Y-134040858D01*
X105261714Y-134040858D02*
X105452190Y-134088477D01*
X105452190Y-134088477D02*
X105547428Y-134136096D01*
X105547428Y-134136096D02*
X105642667Y-134231334D01*
X105642667Y-134231334D02*
X105690286Y-134374191D01*
X105690286Y-134374191D02*
X105690286Y-134469429D01*
X105690286Y-134469429D02*
X105642667Y-134612286D01*
X105642667Y-134612286D02*
X105595047Y-134659905D01*
X105595047Y-134659905D02*
X105261714Y-134659905D01*
X105261714Y-134659905D02*
X105261714Y-134469429D01*
X105690286Y-135088477D02*
X104690286Y-135088477D01*
X104690286Y-135088477D02*
X105690286Y-135659905D01*
X105690286Y-135659905D02*
X104690286Y-135659905D01*
X105690286Y-136136096D02*
X104690286Y-136136096D01*
X104690286Y-136136096D02*
X104690286Y-136374191D01*
X104690286Y-136374191D02*
X104737905Y-136517048D01*
X104737905Y-136517048D02*
X104833143Y-136612286D01*
X104833143Y-136612286D02*
X104928381Y-136659905D01*
X104928381Y-136659905D02*
X105118857Y-136707524D01*
X105118857Y-136707524D02*
X105261714Y-136707524D01*
X105261714Y-136707524D02*
X105452190Y-136659905D01*
X105452190Y-136659905D02*
X105547428Y-136612286D01*
X105547428Y-136612286D02*
X105642667Y-136517048D01*
X105642667Y-136517048D02*
X105690286Y-136374191D01*
X105690286Y-136374191D02*
X105690286Y-136136096D01*
D13*
X107538762Y-100520016D02*
X107538762Y-99250016D01*
X106994476Y-100459540D02*
X106813047Y-100520016D01*
X106813047Y-100520016D02*
X106510666Y-100520016D01*
X106510666Y-100520016D02*
X106389714Y-100459540D01*
X106389714Y-100459540D02*
X106329238Y-100399063D01*
X106329238Y-100399063D02*
X106268761Y-100278111D01*
X106268761Y-100278111D02*
X106268761Y-100157159D01*
X106268761Y-100157159D02*
X106329238Y-100036206D01*
X106329238Y-100036206D02*
X106389714Y-99975730D01*
X106389714Y-99975730D02*
X106510666Y-99915254D01*
X106510666Y-99915254D02*
X106752571Y-99854778D01*
X106752571Y-99854778D02*
X106873523Y-99794301D01*
X106873523Y-99794301D02*
X106934000Y-99733825D01*
X106934000Y-99733825D02*
X106994476Y-99612873D01*
X106994476Y-99612873D02*
X106994476Y-99491920D01*
X106994476Y-99491920D02*
X106934000Y-99370968D01*
X106934000Y-99370968D02*
X106873523Y-99310492D01*
X106873523Y-99310492D02*
X106752571Y-99250016D01*
X106752571Y-99250016D02*
X106450190Y-99250016D01*
X106450190Y-99250016D02*
X106268761Y-99310492D01*
X104998761Y-100399063D02*
X105059237Y-100459540D01*
X105059237Y-100459540D02*
X105240666Y-100520016D01*
X105240666Y-100520016D02*
X105361618Y-100520016D01*
X105361618Y-100520016D02*
X105543047Y-100459540D01*
X105543047Y-100459540D02*
X105663999Y-100338587D01*
X105663999Y-100338587D02*
X105724476Y-100217635D01*
X105724476Y-100217635D02*
X105784952Y-99975730D01*
X105784952Y-99975730D02*
X105784952Y-99794301D01*
X105784952Y-99794301D02*
X105724476Y-99552397D01*
X105724476Y-99552397D02*
X105663999Y-99431444D01*
X105663999Y-99431444D02*
X105543047Y-99310492D01*
X105543047Y-99310492D02*
X105361618Y-99250016D01*
X105361618Y-99250016D02*
X105240666Y-99250016D01*
X105240666Y-99250016D02*
X105059237Y-99310492D01*
X105059237Y-99310492D02*
X104998761Y-99370968D01*
X104454476Y-100520016D02*
X104454476Y-99250016D01*
X104454476Y-99250016D02*
X103970666Y-99250016D01*
X103970666Y-99250016D02*
X103849714Y-99310492D01*
X103849714Y-99310492D02*
X103789237Y-99370968D01*
X103789237Y-99370968D02*
X103728761Y-99491920D01*
X103728761Y-99491920D02*
X103728761Y-99673349D01*
X103728761Y-99673349D02*
X103789237Y-99794301D01*
X103789237Y-99794301D02*
X103849714Y-99854778D01*
X103849714Y-99854778D02*
X103970666Y-99915254D01*
X103970666Y-99915254D02*
X104454476Y-99915254D01*
X87780761Y-129730016D02*
X87780761Y-128460016D01*
X87780761Y-128460016D02*
X87296951Y-128460016D01*
X87296951Y-128460016D02*
X87175999Y-128520492D01*
X87175999Y-128520492D02*
X87115522Y-128580968D01*
X87115522Y-128580968D02*
X87055046Y-128701920D01*
X87055046Y-128701920D02*
X87055046Y-128883349D01*
X87055046Y-128883349D02*
X87115522Y-129004301D01*
X87115522Y-129004301D02*
X87175999Y-129064778D01*
X87175999Y-129064778D02*
X87296951Y-129125254D01*
X87296951Y-129125254D02*
X87780761Y-129125254D01*
X86329332Y-129730016D02*
X86450284Y-129669540D01*
X86450284Y-129669540D02*
X86510761Y-129609063D01*
X86510761Y-129609063D02*
X86571237Y-129488111D01*
X86571237Y-129488111D02*
X86571237Y-129125254D01*
X86571237Y-129125254D02*
X86510761Y-129004301D01*
X86510761Y-129004301D02*
X86450284Y-128943825D01*
X86450284Y-128943825D02*
X86329332Y-128883349D01*
X86329332Y-128883349D02*
X86147903Y-128883349D01*
X86147903Y-128883349D02*
X86026951Y-128943825D01*
X86026951Y-128943825D02*
X85966475Y-129004301D01*
X85966475Y-129004301D02*
X85905999Y-129125254D01*
X85905999Y-129125254D02*
X85905999Y-129488111D01*
X85905999Y-129488111D02*
X85966475Y-129609063D01*
X85966475Y-129609063D02*
X86026951Y-129669540D01*
X86026951Y-129669540D02*
X86147903Y-129730016D01*
X86147903Y-129730016D02*
X86329332Y-129730016D01*
X85482665Y-128883349D02*
X85240760Y-129730016D01*
X85240760Y-129730016D02*
X84998855Y-129125254D01*
X84998855Y-129125254D02*
X84756951Y-129730016D01*
X84756951Y-129730016D02*
X84515046Y-128883349D01*
X83547427Y-129669540D02*
X83668379Y-129730016D01*
X83668379Y-129730016D02*
X83910284Y-129730016D01*
X83910284Y-129730016D02*
X84031237Y-129669540D01*
X84031237Y-129669540D02*
X84091713Y-129548587D01*
X84091713Y-129548587D02*
X84091713Y-129064778D01*
X84091713Y-129064778D02*
X84031237Y-128943825D01*
X84031237Y-128943825D02*
X83910284Y-128883349D01*
X83910284Y-128883349D02*
X83668379Y-128883349D01*
X83668379Y-128883349D02*
X83547427Y-128943825D01*
X83547427Y-128943825D02*
X83486951Y-129064778D01*
X83486951Y-129064778D02*
X83486951Y-129185730D01*
X83486951Y-129185730D02*
X84091713Y-129306682D01*
X82942666Y-129730016D02*
X82942666Y-128883349D01*
X82942666Y-129125254D02*
X82882189Y-129004301D01*
X82882189Y-129004301D02*
X82821713Y-128943825D01*
X82821713Y-128943825D02*
X82700761Y-128883349D01*
X82700761Y-128883349D02*
X82579808Y-128883349D01*
D11*
X108923619Y-104044905D02*
X108923619Y-104663952D01*
X108923619Y-104663952D02*
X109304571Y-104330619D01*
X109304571Y-104330619D02*
X109304571Y-104473476D01*
X109304571Y-104473476D02*
X109352190Y-104568714D01*
X109352190Y-104568714D02*
X109399809Y-104616333D01*
X109399809Y-104616333D02*
X109495047Y-104663952D01*
X109495047Y-104663952D02*
X109733142Y-104663952D01*
X109733142Y-104663952D02*
X109828380Y-104616333D01*
X109828380Y-104616333D02*
X109876000Y-104568714D01*
X109876000Y-104568714D02*
X109923619Y-104473476D01*
X109923619Y-104473476D02*
X109923619Y-104187762D01*
X109923619Y-104187762D02*
X109876000Y-104092524D01*
X109876000Y-104092524D02*
X109828380Y-104044905D01*
X108923619Y-104949667D02*
X109923619Y-105283000D01*
X109923619Y-105283000D02*
X108923619Y-105616333D01*
X108923619Y-105854429D02*
X108923619Y-106473476D01*
X108923619Y-106473476D02*
X109304571Y-106140143D01*
X109304571Y-106140143D02*
X109304571Y-106283000D01*
X109304571Y-106283000D02*
X109352190Y-106378238D01*
X109352190Y-106378238D02*
X109399809Y-106425857D01*
X109399809Y-106425857D02*
X109495047Y-106473476D01*
X109495047Y-106473476D02*
X109733142Y-106473476D01*
X109733142Y-106473476D02*
X109828380Y-106425857D01*
X109828380Y-106425857D02*
X109876000Y-106378238D01*
X109876000Y-106378238D02*
X109923619Y-106283000D01*
X109923619Y-106283000D02*
X109923619Y-105997286D01*
X109923619Y-105997286D02*
X109876000Y-105902048D01*
X109876000Y-105902048D02*
X109828380Y-105854429D01*
X112759953Y-135723333D02*
X112283762Y-135390000D01*
X112759953Y-135151905D02*
X111759953Y-135151905D01*
X111759953Y-135151905D02*
X111759953Y-135532857D01*
X111759953Y-135532857D02*
X111807572Y-135628095D01*
X111807572Y-135628095D02*
X111855191Y-135675714D01*
X111855191Y-135675714D02*
X111950429Y-135723333D01*
X111950429Y-135723333D02*
X112093286Y-135723333D01*
X112093286Y-135723333D02*
X112188524Y-135675714D01*
X112188524Y-135675714D02*
X112236143Y-135628095D01*
X112236143Y-135628095D02*
X112283762Y-135532857D01*
X112283762Y-135532857D02*
X112283762Y-135151905D01*
X111759953Y-136056667D02*
X112759953Y-136723333D01*
X111759953Y-136723333D02*
X112759953Y-136056667D01*
D13*
X95957142Y-129669540D02*
X95775713Y-129730016D01*
X95775713Y-129730016D02*
X95473332Y-129730016D01*
X95473332Y-129730016D02*
X95352380Y-129669540D01*
X95352380Y-129669540D02*
X95291904Y-129609063D01*
X95291904Y-129609063D02*
X95231427Y-129488111D01*
X95231427Y-129488111D02*
X95231427Y-129367159D01*
X95231427Y-129367159D02*
X95291904Y-129246206D01*
X95291904Y-129246206D02*
X95352380Y-129185730D01*
X95352380Y-129185730D02*
X95473332Y-129125254D01*
X95473332Y-129125254D02*
X95715237Y-129064778D01*
X95715237Y-129064778D02*
X95836189Y-129004301D01*
X95836189Y-129004301D02*
X95896666Y-128943825D01*
X95896666Y-128943825D02*
X95957142Y-128822873D01*
X95957142Y-128822873D02*
X95957142Y-128701920D01*
X95957142Y-128701920D02*
X95896666Y-128580968D01*
X95896666Y-128580968D02*
X95836189Y-128520492D01*
X95836189Y-128520492D02*
X95715237Y-128460016D01*
X95715237Y-128460016D02*
X95412856Y-128460016D01*
X95412856Y-128460016D02*
X95231427Y-128520492D01*
X94808094Y-128883349D02*
X94566189Y-129730016D01*
X94566189Y-129730016D02*
X94324284Y-129125254D01*
X94324284Y-129125254D02*
X94082380Y-129730016D01*
X94082380Y-129730016D02*
X93840475Y-128883349D01*
X93356666Y-129730016D02*
X93356666Y-128883349D01*
X93356666Y-128460016D02*
X93417142Y-128520492D01*
X93417142Y-128520492D02*
X93356666Y-128580968D01*
X93356666Y-128580968D02*
X93296189Y-128520492D01*
X93296189Y-128520492D02*
X93356666Y-128460016D01*
X93356666Y-128460016D02*
X93356666Y-128580968D01*
X92933332Y-128883349D02*
X92449523Y-128883349D01*
X92751904Y-128460016D02*
X92751904Y-129548587D01*
X92751904Y-129548587D02*
X92691427Y-129669540D01*
X92691427Y-129669540D02*
X92570475Y-129730016D01*
X92570475Y-129730016D02*
X92449523Y-129730016D01*
X91481904Y-129669540D02*
X91602856Y-129730016D01*
X91602856Y-129730016D02*
X91844761Y-129730016D01*
X91844761Y-129730016D02*
X91965713Y-129669540D01*
X91965713Y-129669540D02*
X92026190Y-129609063D01*
X92026190Y-129609063D02*
X92086666Y-129488111D01*
X92086666Y-129488111D02*
X92086666Y-129125254D01*
X92086666Y-129125254D02*
X92026190Y-129004301D01*
X92026190Y-129004301D02*
X91965713Y-128943825D01*
X91965713Y-128943825D02*
X91844761Y-128883349D01*
X91844761Y-128883349D02*
X91602856Y-128883349D01*
X91602856Y-128883349D02*
X91481904Y-128943825D01*
X90937619Y-129730016D02*
X90937619Y-128460016D01*
X90393333Y-129730016D02*
X90393333Y-129064778D01*
X90393333Y-129064778D02*
X90453809Y-128943825D01*
X90453809Y-128943825D02*
X90574761Y-128883349D01*
X90574761Y-128883349D02*
X90756190Y-128883349D01*
X90756190Y-128883349D02*
X90877142Y-128943825D01*
X90877142Y-128943825D02*
X90937619Y-129004301D01*
X82667016Y-135732761D02*
X83937016Y-136156094D01*
X83937016Y-136156094D02*
X82667016Y-136579428D01*
X83937016Y-137002760D02*
X83090349Y-137002760D01*
X82667016Y-137002760D02*
X82727492Y-136942284D01*
X82727492Y-136942284D02*
X82787968Y-137002760D01*
X82787968Y-137002760D02*
X82727492Y-137063237D01*
X82727492Y-137063237D02*
X82667016Y-137002760D01*
X82667016Y-137002760D02*
X82787968Y-137002760D01*
X83090349Y-137607522D02*
X83937016Y-137607522D01*
X83211301Y-137607522D02*
X83150825Y-137667999D01*
X83150825Y-137667999D02*
X83090349Y-137788951D01*
X83090349Y-137788951D02*
X83090349Y-137970380D01*
X83090349Y-137970380D02*
X83150825Y-138091332D01*
X83150825Y-138091332D02*
X83271778Y-138151808D01*
X83271778Y-138151808D02*
X83937016Y-138151808D01*
D11*
X113368619Y-135247142D02*
X113368619Y-135818570D01*
X114368619Y-135532856D02*
X113368619Y-135532856D01*
X113368619Y-136056666D02*
X114368619Y-136723332D01*
X113368619Y-136723332D02*
X114368619Y-136056666D01*
X101351238Y-104521095D02*
X101303619Y-104425857D01*
X101303619Y-104425857D02*
X101303619Y-104283000D01*
X101303619Y-104283000D02*
X101351238Y-104140143D01*
X101351238Y-104140143D02*
X101446476Y-104044905D01*
X101446476Y-104044905D02*
X101541714Y-103997286D01*
X101541714Y-103997286D02*
X101732190Y-103949667D01*
X101732190Y-103949667D02*
X101875047Y-103949667D01*
X101875047Y-103949667D02*
X102065523Y-103997286D01*
X102065523Y-103997286D02*
X102160761Y-104044905D01*
X102160761Y-104044905D02*
X102256000Y-104140143D01*
X102256000Y-104140143D02*
X102303619Y-104283000D01*
X102303619Y-104283000D02*
X102303619Y-104378238D01*
X102303619Y-104378238D02*
X102256000Y-104521095D01*
X102256000Y-104521095D02*
X102208380Y-104568714D01*
X102208380Y-104568714D02*
X101875047Y-104568714D01*
X101875047Y-104568714D02*
X101875047Y-104378238D01*
X102303619Y-104997286D02*
X101303619Y-104997286D01*
X101303619Y-104997286D02*
X102303619Y-105568714D01*
X102303619Y-105568714D02*
X101303619Y-105568714D01*
X102303619Y-106044905D02*
X101303619Y-106044905D01*
X101303619Y-106044905D02*
X101303619Y-106283000D01*
X101303619Y-106283000D02*
X101351238Y-106425857D01*
X101351238Y-106425857D02*
X101446476Y-106521095D01*
X101446476Y-106521095D02*
X101541714Y-106568714D01*
X101541714Y-106568714D02*
X101732190Y-106616333D01*
X101732190Y-106616333D02*
X101875047Y-106616333D01*
X101875047Y-106616333D02*
X102065523Y-106568714D01*
X102065523Y-106568714D02*
X102160761Y-106521095D01*
X102160761Y-106521095D02*
X102256000Y-106425857D01*
X102256000Y-106425857D02*
X102303619Y-106283000D01*
X102303619Y-106283000D02*
X102303619Y-106044905D01*
D15*
%TO.C,J2*%
X108053405Y-139547600D02*
G75*
G02*
X107694195Y-139547600I-179605J0D01*
G01*
X107694195Y-139547600D02*
G75*
G02*
X108053405Y-139547600I179605J0D01*
G01*
%TO.C,J3*%
X118467405Y-139547600D02*
G75*
G02*
X118108195Y-139547600I-179605J0D01*
G01*
X118108195Y-139547600D02*
G75*
G02*
X118467405Y-139547600I179605J0D01*
G01*
D16*
%TO.C,G\u002A\u002A\u002A*%
X168420359Y-134529631D02*
X168859130Y-134610267D01*
X169281717Y-134736920D01*
X169684993Y-134907553D01*
X170065832Y-135120129D01*
X170421108Y-135372613D01*
X170747695Y-135662968D01*
X171042467Y-135989158D01*
X171302297Y-136349147D01*
X171524059Y-136740900D01*
X171537952Y-136769209D01*
X171623422Y-136955546D01*
X171701449Y-137145593D01*
X171767626Y-137327375D01*
X171817550Y-137488919D01*
X171846815Y-137618250D01*
X171862893Y-137718800D01*
X168097200Y-137718800D01*
X168097200Y-137923953D01*
X168096884Y-137987667D01*
X168093192Y-138069332D01*
X168082206Y-138122845D01*
X168060077Y-138162690D01*
X168022954Y-138203353D01*
X167977838Y-138242776D01*
X167916118Y-138270549D01*
X167830500Y-138277600D01*
X167764159Y-138274024D01*
X167698620Y-138252701D01*
X167638047Y-138203353D01*
X167615103Y-138179535D01*
X167586884Y-138141115D01*
X167571494Y-138095368D01*
X167565082Y-138027810D01*
X167563800Y-137923953D01*
X167563800Y-137718800D01*
X163927564Y-137718800D01*
X163944496Y-137636250D01*
X163953710Y-137596102D01*
X163988080Y-137474289D01*
X164036042Y-137326108D01*
X164092545Y-137165613D01*
X164152539Y-137006854D01*
X164210973Y-136863881D01*
X164262796Y-136750748D01*
X164395060Y-136506863D01*
X164643169Y-136131247D01*
X164926242Y-135789743D01*
X165241237Y-135484143D01*
X165585112Y-135216237D01*
X165954825Y-134987816D01*
X166347335Y-134800671D01*
X166759600Y-134656592D01*
X167188579Y-134557371D01*
X167631229Y-134504798D01*
X168084509Y-134500665D01*
X168420359Y-134529631D01*
G36*
X168420359Y-134529631D02*
G01*
X168859130Y-134610267D01*
X169281717Y-134736920D01*
X169684993Y-134907553D01*
X170065832Y-135120129D01*
X170421108Y-135372613D01*
X170747695Y-135662968D01*
X171042467Y-135989158D01*
X171302297Y-136349147D01*
X171524059Y-136740900D01*
X171537952Y-136769209D01*
X171623422Y-136955546D01*
X171701449Y-137145593D01*
X171767626Y-137327375D01*
X171817550Y-137488919D01*
X171846815Y-137618250D01*
X171862893Y-137718800D01*
X168097200Y-137718800D01*
X168097200Y-137923953D01*
X168096884Y-137987667D01*
X168093192Y-138069332D01*
X168082206Y-138122845D01*
X168060077Y-138162690D01*
X168022954Y-138203353D01*
X167977838Y-138242776D01*
X167916118Y-138270549D01*
X167830500Y-138277600D01*
X167764159Y-138274024D01*
X167698620Y-138252701D01*
X167638047Y-138203353D01*
X167615103Y-138179535D01*
X167586884Y-138141115D01*
X167571494Y-138095368D01*
X167565082Y-138027810D01*
X167563800Y-137923953D01*
X167563800Y-137718800D01*
X163927564Y-137718800D01*
X163944496Y-137636250D01*
X163953710Y-137596102D01*
X163988080Y-137474289D01*
X164036042Y-137326108D01*
X164092545Y-137165613D01*
X164152539Y-137006854D01*
X164210973Y-136863881D01*
X164262796Y-136750748D01*
X164395060Y-136506863D01*
X164643169Y-136131247D01*
X164926242Y-135789743D01*
X165241237Y-135484143D01*
X165585112Y-135216237D01*
X165954825Y-134987816D01*
X166347335Y-134800671D01*
X166759600Y-134656592D01*
X167188579Y-134557371D01*
X167631229Y-134504798D01*
X168084509Y-134500665D01*
X168420359Y-134529631D01*
G37*
X171878281Y-139391800D02*
X171820170Y-139628608D01*
X171741876Y-139874503D01*
X171740281Y-139879513D01*
X171733924Y-139897638D01*
X171560547Y-140313299D01*
X171343834Y-140704922D01*
X171086638Y-141069259D01*
X170791814Y-141403067D01*
X170462214Y-141703098D01*
X170100692Y-141966108D01*
X169710100Y-142188851D01*
X169524913Y-142276235D01*
X169146569Y-142422315D01*
X168760320Y-142526261D01*
X168351200Y-142592520D01*
X168325192Y-142595410D01*
X167915231Y-142616435D01*
X167497373Y-142594202D01*
X167080713Y-142530528D01*
X166674349Y-142427227D01*
X166287374Y-142286115D01*
X165928886Y-142109008D01*
X165645322Y-141932731D01*
X165282023Y-141657772D01*
X164955253Y-141350073D01*
X164666670Y-141012473D01*
X164417933Y-140647811D01*
X164210701Y-140258925D01*
X164048345Y-139852935D01*
X164884484Y-139852935D01*
X164885290Y-139900618D01*
X164901795Y-139962916D01*
X164937210Y-140049632D01*
X164994750Y-140170574D01*
X165035329Y-140250607D01*
X165199208Y-140530261D01*
X165387103Y-140782464D01*
X165612038Y-141025249D01*
X165869907Y-141253629D01*
X166196218Y-141480715D01*
X166547814Y-141664145D01*
X166922849Y-141802976D01*
X167319478Y-141896269D01*
X167385853Y-141906244D01*
X167576602Y-141923845D01*
X167790587Y-141931405D01*
X168009542Y-141928959D01*
X168215202Y-141916542D01*
X168389300Y-141894191D01*
X168760005Y-141804849D01*
X169128499Y-141668176D01*
X169475998Y-141489587D01*
X169797508Y-141272053D01*
X170088033Y-141018546D01*
X170342580Y-140732038D01*
X170420205Y-140627846D01*
X170535250Y-140457484D01*
X170638399Y-140286124D01*
X170722127Y-140126539D01*
X170778909Y-139991499D01*
X170798883Y-139930677D01*
X170809976Y-139874503D01*
X170802863Y-139827627D01*
X170777395Y-139768130D01*
X170772910Y-139759010D01*
X170699502Y-139664695D01*
X170599780Y-139612625D01*
X170479671Y-139606026D01*
X170438785Y-139612551D01*
X170386066Y-139628662D01*
X170342093Y-139658764D01*
X170299239Y-139710833D01*
X170249875Y-139792847D01*
X170186374Y-139912785D01*
X170003956Y-140221967D01*
X169793872Y-140492852D01*
X169551925Y-140729334D01*
X169272918Y-140937239D01*
X169075611Y-141055272D01*
X168768941Y-141196089D01*
X168446053Y-141293170D01*
X168097831Y-141349717D01*
X168021699Y-141356361D01*
X167670025Y-141357109D01*
X167324986Y-141310194D01*
X166991118Y-141218187D01*
X166672953Y-141083659D01*
X166375026Y-140909182D01*
X166101872Y-140697326D01*
X165858024Y-140450663D01*
X165648016Y-140171764D01*
X165476382Y-139863199D01*
X165428445Y-139771080D01*
X165355378Y-139672056D01*
X165276477Y-139616041D01*
X165186670Y-139598400D01*
X165122220Y-139603122D01*
X165011969Y-139642688D01*
X164933260Y-139722049D01*
X164886660Y-139840746D01*
X164884484Y-139852935D01*
X164048345Y-139852935D01*
X164046633Y-139848653D01*
X163927388Y-139419833D01*
X163920603Y-139378382D01*
X166274124Y-139378382D01*
X166288168Y-139504556D01*
X166344906Y-139645644D01*
X166488295Y-139870167D01*
X166679908Y-140084781D01*
X166903138Y-140264039D01*
X167152434Y-140403545D01*
X167422244Y-140498901D01*
X167598828Y-140534810D01*
X167885048Y-140552598D01*
X168167613Y-140521016D01*
X168442879Y-140440922D01*
X168707203Y-140313169D01*
X168956942Y-140138614D01*
X168970566Y-140127124D01*
X169071748Y-140025880D01*
X169178265Y-139896474D01*
X169277595Y-139755185D01*
X169357213Y-139618294D01*
X169400814Y-139507725D01*
X169416100Y-139382155D01*
X169389355Y-139275288D01*
X169322116Y-139192342D01*
X169215919Y-139138534D01*
X169120197Y-139125174D01*
X169017977Y-139153293D01*
X168927169Y-139229932D01*
X168846500Y-139355842D01*
X168845717Y-139357392D01*
X168752149Y-139504611D01*
X168627998Y-139647015D01*
X168487916Y-139769872D01*
X168346555Y-139858452D01*
X168218778Y-139911593D01*
X167993359Y-139965480D01*
X167768327Y-139972333D01*
X167549486Y-139934057D01*
X167342640Y-139852557D01*
X167153595Y-139729741D01*
X166988156Y-139567513D01*
X166852126Y-139367781D01*
X166836386Y-139339856D01*
X166754063Y-139221712D01*
X166669442Y-139150646D01*
X166577550Y-139123634D01*
X166473415Y-139137655D01*
X166369307Y-139189780D01*
X166301571Y-139271874D01*
X166274124Y-139378382D01*
X163920603Y-139378382D01*
X163854624Y-138975304D01*
X163830000Y-138517903D01*
X163830000Y-138303000D01*
X167017788Y-138303000D01*
X167079255Y-138418867D01*
X167148561Y-138526205D01*
X167284337Y-138664718D01*
X167449516Y-138770514D01*
X167634702Y-138838055D01*
X167830500Y-138861799D01*
X167961238Y-138851192D01*
X168151037Y-138797747D01*
X168323986Y-138704184D01*
X168470687Y-138576044D01*
X168581746Y-138418867D01*
X168643213Y-138303000D01*
X171965115Y-138303000D01*
X171950407Y-138715750D01*
X171941987Y-138889454D01*
X171917818Y-139151333D01*
X171879866Y-139382155D01*
X171878281Y-139391800D01*
G36*
X171878281Y-139391800D02*
G01*
X171820170Y-139628608D01*
X171741876Y-139874503D01*
X171740281Y-139879513D01*
X171733924Y-139897638D01*
X171560547Y-140313299D01*
X171343834Y-140704922D01*
X171086638Y-141069259D01*
X170791814Y-141403067D01*
X170462214Y-141703098D01*
X170100692Y-141966108D01*
X169710100Y-142188851D01*
X169524913Y-142276235D01*
X169146569Y-142422315D01*
X168760320Y-142526261D01*
X168351200Y-142592520D01*
X168325192Y-142595410D01*
X167915231Y-142616435D01*
X167497373Y-142594202D01*
X167080713Y-142530528D01*
X166674349Y-142427227D01*
X166287374Y-142286115D01*
X165928886Y-142109008D01*
X165645322Y-141932731D01*
X165282023Y-141657772D01*
X164955253Y-141350073D01*
X164666670Y-141012473D01*
X164417933Y-140647811D01*
X164210701Y-140258925D01*
X164048345Y-139852935D01*
X164884484Y-139852935D01*
X164885290Y-139900618D01*
X164901795Y-139962916D01*
X164937210Y-140049632D01*
X164994750Y-140170574D01*
X165035329Y-140250607D01*
X165199208Y-140530261D01*
X165387103Y-140782464D01*
X165612038Y-141025249D01*
X165869907Y-141253629D01*
X166196218Y-141480715D01*
X166547814Y-141664145D01*
X166922849Y-141802976D01*
X167319478Y-141896269D01*
X167385853Y-141906244D01*
X167576602Y-141923845D01*
X167790587Y-141931405D01*
X168009542Y-141928959D01*
X168215202Y-141916542D01*
X168389300Y-141894191D01*
X168760005Y-141804849D01*
X169128499Y-141668176D01*
X169475998Y-141489587D01*
X169797508Y-141272053D01*
X170088033Y-141018546D01*
X170342580Y-140732038D01*
X170420205Y-140627846D01*
X170535250Y-140457484D01*
X170638399Y-140286124D01*
X170722127Y-140126539D01*
X170778909Y-139991499D01*
X170798883Y-139930677D01*
X170809976Y-139874503D01*
X170802863Y-139827627D01*
X170777395Y-139768130D01*
X170772910Y-139759010D01*
X170699502Y-139664695D01*
X170599780Y-139612625D01*
X170479671Y-139606026D01*
X170438785Y-139612551D01*
X170386066Y-139628662D01*
X170342093Y-139658764D01*
X170299239Y-139710833D01*
X170249875Y-139792847D01*
X170186374Y-139912785D01*
X170003956Y-140221967D01*
X169793872Y-140492852D01*
X169551925Y-140729334D01*
X169272918Y-140937239D01*
X169075611Y-141055272D01*
X168768941Y-141196089D01*
X168446053Y-141293170D01*
X168097831Y-141349717D01*
X168021699Y-141356361D01*
X167670025Y-141357109D01*
X167324986Y-141310194D01*
X166991118Y-141218187D01*
X166672953Y-141083659D01*
X166375026Y-140909182D01*
X166101872Y-140697326D01*
X165858024Y-140450663D01*
X165648016Y-140171764D01*
X165476382Y-139863199D01*
X165428445Y-139771080D01*
X165355378Y-139672056D01*
X165276477Y-139616041D01*
X165186670Y-139598400D01*
X165122220Y-139603122D01*
X165011969Y-139642688D01*
X164933260Y-139722049D01*
X164886660Y-139840746D01*
X164884484Y-139852935D01*
X164048345Y-139852935D01*
X164046633Y-139848653D01*
X163927388Y-139419833D01*
X163920603Y-139378382D01*
X166274124Y-139378382D01*
X166288168Y-139504556D01*
X166344906Y-139645644D01*
X166488295Y-139870167D01*
X166679908Y-140084781D01*
X166903138Y-140264039D01*
X167152434Y-140403545D01*
X167422244Y-140498901D01*
X167598828Y-140534810D01*
X167885048Y-140552598D01*
X168167613Y-140521016D01*
X168442879Y-140440922D01*
X168707203Y-140313169D01*
X168956942Y-140138614D01*
X168970566Y-140127124D01*
X169071748Y-140025880D01*
X169178265Y-139896474D01*
X169277595Y-139755185D01*
X169357213Y-139618294D01*
X169400814Y-139507725D01*
X169416100Y-139382155D01*
X169389355Y-139275288D01*
X169322116Y-139192342D01*
X169215919Y-139138534D01*
X169120197Y-139125174D01*
X169017977Y-139153293D01*
X168927169Y-139229932D01*
X168846500Y-139355842D01*
X168845717Y-139357392D01*
X168752149Y-139504611D01*
X168627998Y-139647015D01*
X168487916Y-139769872D01*
X168346555Y-139858452D01*
X168218778Y-139911593D01*
X167993359Y-139965480D01*
X167768327Y-139972333D01*
X167549486Y-139934057D01*
X167342640Y-139852557D01*
X167153595Y-139729741D01*
X166988156Y-139567513D01*
X166852126Y-139367781D01*
X166836386Y-139339856D01*
X166754063Y-139221712D01*
X166669442Y-139150646D01*
X166577550Y-139123634D01*
X166473415Y-139137655D01*
X166369307Y-139189780D01*
X166301571Y-139271874D01*
X166274124Y-139378382D01*
X163920603Y-139378382D01*
X163854624Y-138975304D01*
X163830000Y-138517903D01*
X163830000Y-138303000D01*
X167017788Y-138303000D01*
X167079255Y-138418867D01*
X167148561Y-138526205D01*
X167284337Y-138664718D01*
X167449516Y-138770514D01*
X167634702Y-138838055D01*
X167830500Y-138861799D01*
X167961238Y-138851192D01*
X168151037Y-138797747D01*
X168323986Y-138704184D01*
X168470687Y-138576044D01*
X168581746Y-138418867D01*
X168643213Y-138303000D01*
X171965115Y-138303000D01*
X171950407Y-138715750D01*
X171941987Y-138889454D01*
X171917818Y-139151333D01*
X171879866Y-139382155D01*
X171878281Y-139391800D01*
G37*
%TD*%
M02*
