%TF.GenerationSoftware,KiCad,Pcbnew,9.0.1*%
%TF.CreationDate,2025-06-03T12:38:30-05:00*%
%TF.ProjectId,Orientation_Paddle,4f726965-6e74-4617-9469-6f6e5f506164,2.0*%
%TF.SameCoordinates,Original*%
%TF.FileFunction,Copper,L2,Bot*%
%TF.FilePolarity,Positive*%
%FSLAX46Y46*%
G04 Gerber Fmt 4.6, Leading zero omitted, Abs format (unit mm)*
G04 Created by KiCad (PCBNEW 9.0.1) date 2025-06-03 12:38:30*
%MOMM*%
%LPD*%
G01*
G04 APERTURE LIST*
G04 Aperture macros list*
%AMRoundRect*
0 Rectangle with rounded corners*
0 $1 Rounding radius*
0 $2 $3 $4 $5 $6 $7 $8 $9 X,Y pos of 4 corners*
0 Add a 4 corners polygon primitive as box body*
4,1,4,$2,$3,$4,$5,$6,$7,$8,$9,$2,$3,0*
0 Add four circle primitives for the rounded corners*
1,1,$1+$1,$2,$3*
1,1,$1+$1,$4,$5*
1,1,$1+$1,$6,$7*
1,1,$1+$1,$8,$9*
0 Add four rect primitives between the rounded corners*
20,1,$1+$1,$2,$3,$4,$5,0*
20,1,$1+$1,$4,$5,$6,$7,0*
20,1,$1+$1,$6,$7,$8,$9,0*
20,1,$1+$1,$8,$9,$2,$3,0*%
G04 Aperture macros list end*
%TA.AperFunction,ComponentPad*%
%ADD10R,1.468000X1.468000*%
%TD*%
%TA.AperFunction,ComponentPad*%
%ADD11C,1.468000*%
%TD*%
%TA.AperFunction,ComponentPad*%
%ADD12RoundRect,0.249900X-0.800100X-0.800100X0.800100X-0.800100X0.800100X0.800100X-0.800100X0.800100X0*%
%TD*%
%TA.AperFunction,ComponentPad*%
%ADD13C,2.100000*%
%TD*%
%TA.AperFunction,WasherPad*%
%ADD14C,3.937000*%
%TD*%
%TA.AperFunction,ComponentPad*%
%ADD15C,2.032000*%
%TD*%
%TA.AperFunction,ComponentPad*%
%ADD16C,1.524000*%
%TD*%
%TA.AperFunction,ComponentPad*%
%ADD17R,1.700000X1.700000*%
%TD*%
%TA.AperFunction,ComponentPad*%
%ADD18O,1.700000X1.700000*%
%TD*%
%TA.AperFunction,ComponentPad*%
%ADD19R,1.350000X1.350000*%
%TD*%
%TA.AperFunction,ComponentPad*%
%ADD20O,1.350000X1.350000*%
%TD*%
%TA.AperFunction,ViaPad*%
%ADD21C,0.508000*%
%TD*%
%TA.AperFunction,Conductor*%
%ADD22C,0.508000*%
%TD*%
%TA.AperFunction,Conductor*%
%ADD23C,0.304800*%
%TD*%
G04 APERTURE END LIST*
D10*
%TO.P,PS1,1,+VIN*%
%TO.N,Net-(PS1-+VIN)*%
X89027000Y-103260000D03*
D11*
%TO.P,PS1,2,GND*%
%TO.N,GND*%
X91567000Y-103260000D03*
%TO.P,PS1,3,+VOUT*%
%TO.N,+3V3*%
X94107000Y-103260000D03*
%TD*%
D12*
%TO.P,J4,1,Pin_1*%
%TO.N,GND*%
X87416000Y-132185000D03*
D13*
%TO.P,J4,2,Pin_2*%
%TO.N,Net-(J4-Pin_2)*%
X83380000Y-132185000D03*
%TD*%
D14*
%TO.P,H4,*%
%TO.N,*%
X177800000Y-101600000D03*
%TD*%
D15*
%TO.P,J2,*%
%TO.N,*%
X98943546Y-138176000D03*
X106353546Y-138176000D03*
D16*
%TO.P,J2,1,Pin_1*%
%TO.N,GND*%
X104556946Y-139649200D03*
%TO.P,J2,2,Pin_2*%
%TO.N,Status_LED_R*%
X103286946Y-142189200D03*
%TO.P,J2,3,Pin_3*%
%TO.N,Status_LED_G*%
X102016946Y-139649200D03*
%TO.P,J2,4,Pin_4*%
%TO.N,Status_LED_B*%
X100746946Y-142189200D03*
%TD*%
D14*
%TO.P,H1,*%
%TO.N,*%
X76200000Y-139700000D03*
%TD*%
D15*
%TO.P,J3,*%
%TO.N,*%
X109357546Y-138176000D03*
X116767546Y-138176000D03*
D16*
%TO.P,J3,1,Pin_1*%
%TO.N,GND*%
X114970946Y-139649200D03*
%TO.P,J3,2,Pin_2*%
%TO.N,UART3_TX*%
X113700946Y-142189200D03*
%TO.P,J3,3,Pin_3*%
%TO.N,UART3_RX*%
X112430946Y-139649200D03*
%TO.P,J3,4,Pin_4*%
%TO.N,+3V3*%
X111160946Y-142189200D03*
%TD*%
D17*
%TO.P,J6,1,Pin_1*%
%TO.N,GND*%
X101864000Y-102235000D03*
D18*
%TO.P,J6,2,Pin_2*%
%TO.N,SWCLK*%
X104404000Y-102235000D03*
%TO.P,J6,3,Pin_3*%
%TO.N,SWDIO*%
X106944000Y-102235000D03*
%TO.P,J6,4,Pin_4*%
%TO.N,+3V3*%
X109484000Y-102235000D03*
%TD*%
D12*
%TO.P,J5,1,Pin_1*%
%TO.N,+BATT*%
X95290000Y-132185000D03*
D13*
%TO.P,J5,2,Pin_2*%
%TO.N,Net-(D1-K)*%
X91254000Y-132185000D03*
%TD*%
D14*
%TO.P,H2,*%
%TO.N,*%
X177800000Y-139700000D03*
%TD*%
D19*
%TO.P,U3,1,VCC*%
%TO.N,+3V3*%
X170049000Y-104044000D03*
D20*
%TO.P,U3,2,DOUT/DIO13*%
%TO.N,XBee_RX*%
X168049000Y-104044000D03*
%TO.P,U3,3,DIN/DIO13*%
%TO.N,XBee_TX*%
X166049000Y-104044000D03*
%TO.P,U3,4,DIO12/MISO*%
%TO.N,unconnected-(U3-DIO12{slash}MISO-Pad4)*%
X164049000Y-104044000D03*
%TO.P,U3,5,nRESET*%
%TO.N,unconnected-(U3-nRESET-Pad5)*%
X162049000Y-104044000D03*
%TO.P,U3,6,~{DIO10/PWM0}*%
%TO.N,Net-(U3-~{DIO10{slash}PWM0})*%
X160049000Y-104044000D03*
%TO.P,U3,7,DIO11/PWM1*%
%TO.N,unconnected-(U3-DIO11{slash}PWM1-Pad7)*%
X158049000Y-104044000D03*
%TO.P,U3,8,RSVD*%
%TO.N,unconnected-(U3-RSVD-Pad8)*%
X156049000Y-104044000D03*
%TO.P,U3,9,nDTR/DIO8*%
%TO.N,unconnected-(U3-nDTR{slash}DIO8-Pad9)*%
X154049000Y-104044000D03*
%TO.P,U3,10,GND*%
%TO.N,GND*%
X152049000Y-104044000D03*
%TO.P,U3,11,DIO3/MOSI*%
%TO.N,unconnected-(U3-DIO3{slash}MOSI-Pad11)*%
X152049000Y-126044000D03*
%TO.P,U3,12,nCTS/DIO7*%
%TO.N,unconnected-(U3-nCTS{slash}DIO7-Pad12)*%
X154049000Y-126044000D03*
%TO.P,U3,13,nSLEEP/DIO9*%
%TO.N,unconnected-(U3-nSLEEP{slash}DIO9-Pad13)*%
X156049000Y-126044000D03*
%TO.P,U3,14,VREF*%
%TO.N,unconnected-(U3-VREF-Pad14)*%
X158049000Y-126044000D03*
%TO.P,U3,15,Assoc/DIO5*%
%TO.N,Net-(U3-Assoc{slash}DIO5)*%
X160049000Y-126044000D03*
%TO.P,U3,16,nRTS/DIO6*%
%TO.N,unconnected-(U3-nRTS{slash}DIO6-Pad16)*%
X162049000Y-126044000D03*
%TO.P,U3,17,AD3/DIO3/nSSEL*%
%TO.N,Net-(U3-AD3{slash}DIO3{slash}nSSEL)*%
X164049000Y-126044000D03*
%TO.P,U3,18,AD2/DIO2/CLK*%
%TO.N,unconnected-(U3-AD2{slash}DIO2{slash}CLK-Pad18)*%
X166049000Y-126044000D03*
%TO.P,U3,19,AD1/DIO1/ATTN*%
%TO.N,unconnected-(U3-AD1{slash}DIO1{slash}ATTN-Pad19)*%
X168049000Y-126044000D03*
%TO.P,U3,20,AD0/DIO0*%
%TO.N,unconnected-(U3-AD0{slash}DIO0-Pad20)*%
X170049000Y-126044000D03*
%TD*%
D14*
%TO.P,H3,*%
%TO.N,*%
X76200000Y-101600000D03*
%TD*%
D17*
%TO.P,J7,1,Pin_1*%
%TO.N,GND*%
X97790000Y-124719000D03*
D18*
%TO.P,J7,2,Pin_2*%
%TO.N,Reset*%
X97790000Y-122179000D03*
%TD*%
D21*
%TO.N,+3V3*%
X106553000Y-111887000D03*
X155602000Y-136371000D03*
X115189000Y-126365000D03*
X120650000Y-138430000D03*
X133731000Y-137033000D03*
X94742000Y-125730000D03*
X112649000Y-109093000D03*
X139700000Y-121666000D03*
X114554000Y-113538000D03*
X137414000Y-132842000D03*
X127127000Y-137287000D03*
X139350750Y-112617250D03*
X151145000Y-137160000D03*
X116586000Y-122682000D03*
X112014000Y-105156000D03*
X103759000Y-121412000D03*
%TO.N,+BATT*%
X96139000Y-113538000D03*
%TO.N,Reset*%
X162645000Y-127325000D03*
X107823000Y-118110000D03*
%TO.N,SDA*%
X133096000Y-131191000D03*
X113164751Y-110622167D03*
%TO.N,SCL*%
X133623922Y-130795058D03*
X114046000Y-110058200D03*
%TO.N,UART3_TX*%
X112141000Y-124460000D03*
X110330669Y-133653017D03*
%TO.N,UART3_RX*%
X112699300Y-123901700D03*
X110871351Y-135127647D03*
%TO.N,SWCLK*%
X113665000Y-112395000D03*
%TO.N,SWDIO*%
X116605242Y-116133719D03*
%TO.N,SD_CS*%
X111598822Y-134273178D03*
X155702000Y-134239000D03*
%TO.N,SPI_MOSI*%
X155559000Y-135271000D03*
X115062000Y-134874501D03*
%TO.N,SPI_SCK*%
X155645000Y-137471000D03*
X113632042Y-135516134D03*
%TO.N,SPI_MISO*%
X114681000Y-135991601D03*
X155604000Y-139671000D03*
%TO.N,Status_LED_G*%
X109093000Y-118110000D03*
X107416597Y-123698000D03*
%TO.N,SD_CD*%
X122047000Y-119761000D03*
X134239000Y-132969000D03*
%TO.N,Status_LED_R*%
X109649808Y-118465097D03*
X108077000Y-123698000D03*
%TO.N,Status_LED_B*%
X110236000Y-117983000D03*
X106756194Y-123698000D03*
%TO.N,XBee_TX*%
X122682000Y-115717300D03*
%TO.N,XBee_RX*%
X122039789Y-115565525D03*
%TO.N,GPS_PPS*%
X122174000Y-118999000D03*
X112422479Y-118923297D03*
%TO.N,GPS_TX*%
X129834324Y-124772423D03*
X113538000Y-119940297D03*
%TO.N,GPS_RX*%
X130454399Y-125095000D03*
X113023085Y-119482097D03*
%TD*%
D22*
%TO.N,+BATT*%
X96139000Y-113538000D02*
X96139000Y-131336000D01*
X96139000Y-131336000D02*
X95290000Y-132185000D01*
D23*
%TO.N,Reset*%
X155372123Y-140230800D02*
X161739200Y-140230800D01*
X114912877Y-136551401D02*
X114939278Y-136525000D01*
X115139200Y-136525000D02*
X115316000Y-136348200D01*
X97790000Y-122179000D02*
X101645000Y-126034000D01*
X154628000Y-139486677D02*
X155372123Y-140230800D01*
X115316000Y-136348200D02*
X152718208Y-136348200D01*
X105345000Y-136525000D02*
X114422722Y-136525000D01*
X101645000Y-126034000D02*
X101645000Y-132825000D01*
X114939278Y-136525000D02*
X115139200Y-136525000D01*
X101645000Y-132825000D02*
X105345000Y-136525000D01*
X101859000Y-118110000D02*
X97790000Y-122179000D01*
X114449123Y-136551401D02*
X114912877Y-136551401D01*
X154628000Y-138257992D02*
X154628000Y-139486677D01*
X152718208Y-136348200D02*
X154628000Y-138257992D01*
X161739200Y-140230800D02*
X162645000Y-139325000D01*
X162645000Y-139325000D02*
X162645000Y-127325000D01*
X114422722Y-136525000D02*
X114449123Y-136551401D01*
X107823000Y-118110000D02*
X101859000Y-118110000D01*
%TO.N,SDA*%
X113169918Y-110627334D02*
X113844384Y-111301800D01*
X124824934Y-117678200D02*
X131470399Y-124323665D01*
X131470399Y-124323665D02*
X131470400Y-129565400D01*
X113164751Y-110622167D02*
X113169918Y-110617000D01*
X117164042Y-116402042D02*
X118440200Y-117678200D01*
X117164042Y-116366596D02*
X117164042Y-116402042D01*
X114616793Y-111301800D02*
X117063442Y-113748450D01*
X117164042Y-115900842D02*
X117165042Y-115901842D01*
X113844384Y-111301800D02*
X114616793Y-111301800D01*
X131470400Y-129565400D02*
X133096000Y-131191000D01*
X118440200Y-117678200D02*
X124824934Y-117678200D01*
X117063442Y-113749864D02*
X117164042Y-113850464D01*
X117165042Y-116365596D02*
X117164042Y-116366596D01*
X117063442Y-113748450D02*
X117063442Y-113749864D01*
X117165042Y-115901842D02*
X117165042Y-116365596D01*
X117164042Y-113850464D02*
X117164042Y-115900842D01*
X113169918Y-110617000D02*
X113169918Y-110627334D01*
%TO.N,SCL*%
X117623242Y-116213250D02*
X117623242Y-115712049D01*
X118629992Y-117220000D02*
X117623242Y-116213250D01*
X117622242Y-113660671D02*
X117521642Y-113560071D01*
X131928599Y-124133872D02*
X125014726Y-117220000D01*
X117622242Y-115711049D02*
X117622242Y-113660671D01*
X131928600Y-129099736D02*
X131928599Y-124133872D01*
X133623922Y-130795058D02*
X131928600Y-129099736D01*
X117521642Y-113560071D02*
X117521642Y-113558657D01*
X117521642Y-113558657D02*
X114806585Y-110843600D01*
X114806585Y-110843600D02*
X114272600Y-110843600D01*
X125014726Y-117220000D02*
X118629992Y-117220000D01*
X117623242Y-115712049D02*
X117622242Y-115711049D01*
X114046000Y-110617000D02*
X114046000Y-110058200D01*
X114272600Y-110843600D02*
X114046000Y-110617000D01*
%TO.N,UART3_TX*%
X112141000Y-131699000D02*
X112141000Y-124460000D01*
X110330669Y-133653017D02*
X110330669Y-133509331D01*
X110330669Y-133509331D02*
X112141000Y-131699000D01*
%TO.N,UART3_RX*%
X111258496Y-133229496D02*
X112599200Y-131888793D01*
X112599200Y-131888793D02*
X112599200Y-124841000D01*
X112599200Y-124841000D02*
X112699300Y-124740900D01*
X112699300Y-124740900D02*
X112699300Y-123901700D01*
X111258496Y-133515454D02*
X111258496Y-133229496D01*
X110871351Y-135127647D02*
X110871351Y-133902599D01*
X110871351Y-133902599D02*
X111258496Y-133515454D01*
%TO.N,SWCLK*%
X113665000Y-112395000D02*
X113382737Y-112395000D01*
X104404000Y-103416263D02*
X104404000Y-102235000D01*
X113382737Y-112395000D02*
X104404000Y-103416263D01*
%TO.N,SWDIO*%
X106944000Y-102235000D02*
X106944000Y-105309685D01*
X108703658Y-107069343D02*
X113394315Y-111760000D01*
X116605242Y-113938242D02*
X116605242Y-116133719D01*
X114427000Y-111760000D02*
X115697000Y-113030000D01*
X115697000Y-113030000D02*
X116605242Y-113938242D01*
X113792000Y-111760000D02*
X114427000Y-111760000D01*
X106944000Y-105309685D02*
X108703658Y-107069343D01*
X113394315Y-111760000D02*
X113792000Y-111760000D01*
%TO.N,SD_CS*%
X154432000Y-134239000D02*
X155702000Y-134239000D01*
X111598822Y-134273178D02*
X111633000Y-134239000D01*
X111633000Y-134239000D02*
X115217763Y-134239000D01*
X115217763Y-134239000D02*
X115497164Y-134518401D01*
X154152599Y-134518401D02*
X154432000Y-134239000D01*
X115497164Y-134518401D02*
X154152599Y-134518401D01*
%TO.N,SPI_MOSI*%
X154152601Y-134975601D02*
X154448000Y-135271000D01*
X154448000Y-135271000D02*
X155559000Y-135271000D01*
X115163100Y-134975601D02*
X154152601Y-134975601D01*
X115062000Y-134874501D02*
X115163100Y-134975601D01*
%TO.N,SPI_SCK*%
X113715375Y-135432801D02*
X153606801Y-135432801D01*
X153606801Y-135432801D02*
X155645000Y-137471000D01*
X113632042Y-135516134D02*
X113715375Y-135432801D01*
%TO.N,SPI_MISO*%
X152908000Y-135890000D02*
X155086200Y-138068200D01*
X114833399Y-135991601D02*
X114935000Y-135890000D01*
X155086200Y-139153200D02*
X155604000Y-139671000D01*
X155086200Y-138068200D02*
X155086200Y-139153200D01*
X114935000Y-135890000D02*
X152908000Y-135890000D01*
X114681000Y-135991601D02*
X114833399Y-135991601D01*
%TO.N,Status_LED_G*%
X109093000Y-119113008D02*
X107618800Y-120587208D01*
X107416597Y-123355395D02*
X107416597Y-123698000D01*
X107618800Y-123153193D02*
X107416597Y-123355395D01*
X107618800Y-120587208D02*
X107618800Y-123153193D01*
X109090008Y-118696974D02*
X109093000Y-118699966D01*
X109090008Y-118233220D02*
X109090008Y-118696974D01*
X109093000Y-118110000D02*
X109093000Y-118230228D01*
X109093000Y-118230228D02*
X109090008Y-118233220D01*
X109093000Y-118699966D02*
X109093000Y-119113008D01*
%TO.N,SD_CD*%
X127505757Y-121005601D02*
X123291600Y-121005600D01*
X131013199Y-124513043D02*
X127505757Y-121005601D01*
X134083737Y-132969000D02*
X131013199Y-129898462D01*
X123291600Y-121005600D02*
X122047000Y-119761000D01*
X134239000Y-132969000D02*
X134083737Y-132969000D01*
X131013199Y-129898462D02*
X131013199Y-124513043D01*
%TO.N,Status_LED_R*%
X109649808Y-118585325D02*
X109649808Y-119204192D01*
X108077000Y-120777000D02*
X108077000Y-123698000D01*
X109649808Y-119204192D02*
X108077000Y-120777000D01*
%TO.N,Status_LED_B*%
X108533200Y-119024816D02*
X107160600Y-120397416D01*
X107160600Y-122963400D02*
X106756194Y-123367806D01*
X107160600Y-120397416D02*
X107160600Y-122963400D01*
X109803200Y-117550200D02*
X108861123Y-117550200D01*
X108533200Y-117878123D02*
X108533200Y-119024816D01*
X108861123Y-117550200D02*
X108533200Y-117878123D01*
X106756194Y-123367806D02*
X106756194Y-123698000D01*
X110236000Y-117983000D02*
X109803200Y-117550200D01*
%TO.N,XBee_TX*%
X149160792Y-102693200D02*
X165685200Y-102693200D01*
X165685200Y-102693200D02*
X166049000Y-103057000D01*
X144476200Y-113981792D02*
X144476200Y-107377792D01*
X166049000Y-103057000D02*
X166049000Y-104044000D01*
X144476200Y-107377792D02*
X149160792Y-102693200D01*
X122682000Y-115717300D02*
X122782100Y-115617200D01*
X122782100Y-115617200D02*
X142840793Y-115617200D01*
X142840793Y-115617200D02*
X144476200Y-113981792D01*
%TO.N,XBee_RX*%
X144018000Y-113792000D02*
X144018000Y-107188000D01*
X168049000Y-102898000D02*
X168049000Y-104044000D01*
X142651000Y-115159000D02*
X144018000Y-113792000D01*
X122039789Y-115565525D02*
X122446314Y-115159000D01*
X122446314Y-115159000D02*
X142651000Y-115159000D01*
X144018000Y-107188000D02*
X148971000Y-102235000D01*
X167386000Y-102235000D02*
X168049000Y-102898000D01*
X148971000Y-102235000D02*
X167386000Y-102235000D01*
%TO.N,GPS_PPS*%
X112422479Y-118923297D02*
X122098297Y-118923297D01*
X122098297Y-118923297D02*
X122174000Y-118999000D01*
%TO.N,GPS_TX*%
X129834324Y-124630152D02*
X129834324Y-124772423D01*
X120686028Y-119839697D02*
X122768330Y-121922000D01*
X113538000Y-119940297D02*
X113638600Y-119839697D01*
X127126172Y-121922000D02*
X129834324Y-124630152D01*
X122768330Y-121922000D02*
X127126172Y-121922000D01*
X113638600Y-119839697D02*
X120686028Y-119839697D01*
%TO.N,GPS_RX*%
X113023085Y-119482097D02*
X113123685Y-119381497D01*
X120904000Y-119381497D02*
X120904000Y-119409677D01*
X113123685Y-119381497D02*
X120904000Y-119381497D01*
X127315964Y-121463800D02*
X130454399Y-124602235D01*
X130454399Y-124602235D02*
X130454399Y-125095000D01*
X122958122Y-121463800D02*
X127315964Y-121463800D01*
X120904000Y-119409677D02*
X122958122Y-121463800D01*
%TD*%
%TA.AperFunction,Conductor*%
%TO.N,+3V3*%
G36*
X177802896Y-97536634D02*
G01*
X178169112Y-97553565D01*
X178180700Y-97554639D01*
X178279428Y-97568410D01*
X178540913Y-97604886D01*
X178552324Y-97607020D01*
X178906361Y-97690288D01*
X178917548Y-97693471D01*
X179262390Y-97809050D01*
X179273222Y-97813247D01*
X179605946Y-97960158D01*
X179616336Y-97965332D01*
X179934061Y-98142304D01*
X179943954Y-98148429D01*
X180244010Y-98353971D01*
X180253276Y-98360968D01*
X180533087Y-98593321D01*
X180541687Y-98601162D01*
X180798836Y-98858311D01*
X180806677Y-98866911D01*
X181039027Y-99146719D01*
X181046029Y-99155991D01*
X181087176Y-99216058D01*
X181251568Y-99456041D01*
X181257694Y-99465936D01*
X181434659Y-99783649D01*
X181439847Y-99794067D01*
X181586748Y-100126765D01*
X181590952Y-100137618D01*
X181706526Y-100482447D01*
X181709711Y-100493640D01*
X181792976Y-100847658D01*
X181795115Y-100859098D01*
X181845360Y-101219296D01*
X181846434Y-101230885D01*
X181863364Y-101597057D01*
X181863498Y-101602876D01*
X181863498Y-139697077D01*
X181863364Y-139702896D01*
X181846432Y-140069112D01*
X181845358Y-140080701D01*
X181795113Y-140440899D01*
X181792974Y-140452339D01*
X181709710Y-140806357D01*
X181706525Y-140817551D01*
X181590950Y-141162380D01*
X181586746Y-141173232D01*
X181439846Y-141505931D01*
X181434658Y-141516349D01*
X181257693Y-141834061D01*
X181251567Y-141843956D01*
X181046034Y-142143998D01*
X181039020Y-142153286D01*
X180806676Y-142433086D01*
X180798835Y-142441686D01*
X180541686Y-142698835D01*
X180533086Y-142706676D01*
X180253286Y-142939020D01*
X180243998Y-142946034D01*
X179943956Y-143151567D01*
X179934061Y-143157693D01*
X179616349Y-143334658D01*
X179605931Y-143339846D01*
X179273232Y-143486746D01*
X179262380Y-143490950D01*
X178917551Y-143606525D01*
X178906357Y-143609710D01*
X178552339Y-143692974D01*
X178540899Y-143695113D01*
X178180701Y-143745358D01*
X178169112Y-143746432D01*
X177802896Y-143763364D01*
X177797077Y-143763498D01*
X76202921Y-143763498D01*
X76197102Y-143763364D01*
X75830886Y-143746432D01*
X75819298Y-143745358D01*
X75459099Y-143695113D01*
X75447658Y-143692974D01*
X75093641Y-143609709D01*
X75082448Y-143606524D01*
X74737619Y-143490950D01*
X74726766Y-143486746D01*
X74394068Y-143339845D01*
X74383650Y-143334657D01*
X74065937Y-143157692D01*
X74056042Y-143151566D01*
X73933542Y-143067652D01*
X73755992Y-142946027D01*
X73746720Y-142939025D01*
X73477583Y-142715537D01*
X73466918Y-142706681D01*
X73458317Y-142698840D01*
X73201157Y-142441679D01*
X73193317Y-142433079D01*
X73079276Y-142295745D01*
X72960970Y-142153275D01*
X72953973Y-142144009D01*
X72748431Y-141843953D01*
X72742306Y-141834060D01*
X72680625Y-141723321D01*
X72565339Y-141516344D01*
X72560156Y-141505936D01*
X72413248Y-141173221D01*
X72409052Y-141162389D01*
X72293473Y-140817548D01*
X72290289Y-140806357D01*
X72275659Y-140744155D01*
X72207021Y-140452323D01*
X72204887Y-140440912D01*
X72154641Y-140080701D01*
X72153567Y-140069113D01*
X72136634Y-139702853D01*
X72136500Y-139697034D01*
X72136500Y-139560893D01*
X73723000Y-139560893D01*
X73723000Y-139839106D01*
X73754150Y-140115570D01*
X73786379Y-140256774D01*
X73816057Y-140386802D01*
X73816059Y-140386808D01*
X73816058Y-140386808D01*
X73907937Y-140649382D01*
X73907948Y-140649409D01*
X74028653Y-140900055D01*
X74028658Y-140900064D01*
X74098854Y-141011779D01*
X74155902Y-141102571D01*
X74176675Y-141135630D01*
X74176678Y-141135634D01*
X74350129Y-141353137D01*
X74546862Y-141549870D01*
X74746649Y-141709193D01*
X74764373Y-141723327D01*
X74827474Y-141762976D01*
X74999935Y-141871341D01*
X74999944Y-141871346D01*
X75071557Y-141905833D01*
X75250600Y-141992056D01*
X75250616Y-141992061D01*
X75250617Y-141992062D01*
X75513191Y-142083941D01*
X75513194Y-142083941D01*
X75513198Y-142083943D01*
X75784433Y-142145850D01*
X75980469Y-142167938D01*
X76060893Y-142177000D01*
X76060895Y-142177000D01*
X76339107Y-142177000D01*
X76409318Y-142169088D01*
X76615567Y-142145850D01*
X76886802Y-142083943D01*
X77149400Y-141992056D01*
X77400060Y-141871344D01*
X77572531Y-141762973D01*
X81829500Y-141762973D01*
X81829500Y-142007027D01*
X81858354Y-142189199D01*
X81867680Y-142248080D01*
X81930584Y-142441679D01*
X81943096Y-142480185D01*
X82043326Y-142676898D01*
X82053896Y-142697642D01*
X82060460Y-142706676D01*
X82197345Y-142895083D01*
X82197347Y-142895085D01*
X82197349Y-142895088D01*
X82369911Y-143067650D01*
X82369914Y-143067652D01*
X82369917Y-143067655D01*
X82567361Y-143211106D01*
X82784815Y-143321904D01*
X83016924Y-143397321D01*
X83257973Y-143435500D01*
X83257976Y-143435500D01*
X83502024Y-143435500D01*
X83502027Y-143435500D01*
X83743076Y-143397321D01*
X83975185Y-143321904D01*
X84192639Y-143211106D01*
X84390083Y-143067655D01*
X84562655Y-142895083D01*
X84706106Y-142697639D01*
X84816904Y-142480185D01*
X84892321Y-142248076D01*
X84930500Y-142007027D01*
X84930500Y-141762973D01*
X85865500Y-141762973D01*
X85865500Y-142007027D01*
X85894354Y-142189199D01*
X85903680Y-142248080D01*
X85966584Y-142441679D01*
X85979096Y-142480185D01*
X86079326Y-142676898D01*
X86089896Y-142697642D01*
X86096460Y-142706676D01*
X86233345Y-142895083D01*
X86233347Y-142895085D01*
X86233349Y-142895088D01*
X86405911Y-143067650D01*
X86405914Y-143067652D01*
X86405917Y-143067655D01*
X86603361Y-143211106D01*
X86820815Y-143321904D01*
X87052924Y-143397321D01*
X87293973Y-143435500D01*
X87293976Y-143435500D01*
X87538024Y-143435500D01*
X87538027Y-143435500D01*
X87779076Y-143397321D01*
X88011185Y-143321904D01*
X88228639Y-143211106D01*
X88426083Y-143067655D01*
X88598655Y-142895083D01*
X88742106Y-142697639D01*
X88852904Y-142480185D01*
X88928321Y-142248076D01*
X88966500Y-142007027D01*
X88966500Y-141762973D01*
X89703500Y-141762973D01*
X89703500Y-142007027D01*
X89732354Y-142189199D01*
X89741680Y-142248080D01*
X89804584Y-142441679D01*
X89817096Y-142480185D01*
X89917326Y-142676898D01*
X89927896Y-142697642D01*
X89934460Y-142706676D01*
X90071345Y-142895083D01*
X90071347Y-142895085D01*
X90071349Y-142895088D01*
X90243911Y-143067650D01*
X90243914Y-143067652D01*
X90243917Y-143067655D01*
X90441361Y-143211106D01*
X90658815Y-143321904D01*
X90890924Y-143397321D01*
X91131973Y-143435500D01*
X91131976Y-143435500D01*
X91376024Y-143435500D01*
X91376027Y-143435500D01*
X91617076Y-143397321D01*
X91849185Y-143321904D01*
X92066639Y-143211106D01*
X92264083Y-143067655D01*
X92436655Y-142895083D01*
X92580106Y-142697639D01*
X92690904Y-142480185D01*
X92766321Y-142248076D01*
X92804500Y-142007027D01*
X92804500Y-141762973D01*
X93739500Y-141762973D01*
X93739500Y-142007027D01*
X93768354Y-142189199D01*
X93777680Y-142248080D01*
X93840584Y-142441679D01*
X93853096Y-142480185D01*
X93953326Y-142676898D01*
X93963896Y-142697642D01*
X93970460Y-142706676D01*
X94107345Y-142895083D01*
X94107347Y-142895085D01*
X94107349Y-142895088D01*
X94279911Y-143067650D01*
X94279914Y-143067652D01*
X94279917Y-143067655D01*
X94477361Y-143211106D01*
X94694815Y-143321904D01*
X94926924Y-143397321D01*
X95167973Y-143435500D01*
X95167976Y-143435500D01*
X95412024Y-143435500D01*
X95412027Y-143435500D01*
X95653076Y-143397321D01*
X95885185Y-143321904D01*
X96102639Y-143211106D01*
X96300083Y-143067655D01*
X96472655Y-142895083D01*
X96616106Y-142697639D01*
X96726904Y-142480185D01*
X96802321Y-142248076D01*
X96827483Y-142089209D01*
X99476446Y-142089209D01*
X99476446Y-142289191D01*
X99499946Y-142437561D01*
X99507731Y-142486715D01*
X99567205Y-142669757D01*
X99569527Y-142676903D01*
X99588932Y-142714987D01*
X99660318Y-142855090D01*
X99689377Y-142895085D01*
X99777863Y-143016875D01*
X99777865Y-143016877D01*
X99777867Y-143016880D01*
X99919265Y-143158278D01*
X99919268Y-143158280D01*
X99919271Y-143158283D01*
X99991971Y-143211103D01*
X100081055Y-143275827D01*
X100081059Y-143275829D01*
X100259243Y-143366619D01*
X100449430Y-143428414D01*
X100449431Y-143428414D01*
X100449436Y-143428416D01*
X100646955Y-143459700D01*
X100646958Y-143459700D01*
X100846934Y-143459700D01*
X100846937Y-143459700D01*
X101044456Y-143428416D01*
X101234649Y-143366619D01*
X101412833Y-143275829D01*
X101413424Y-143275400D01*
X101432064Y-143261857D01*
X101574621Y-143158283D01*
X101716029Y-143016875D01*
X101833575Y-142855087D01*
X101904680Y-142715535D01*
X101953427Y-142663922D01*
X102022342Y-142646856D01*
X102089544Y-142669757D01*
X102129210Y-142715534D01*
X102200317Y-142855087D01*
X102317863Y-143016875D01*
X102317865Y-143016877D01*
X102317867Y-143016880D01*
X102459265Y-143158278D01*
X102459268Y-143158280D01*
X102459271Y-143158283D01*
X102531971Y-143211103D01*
X102621055Y-143275827D01*
X102621059Y-143275829D01*
X102799243Y-143366619D01*
X102989430Y-143428414D01*
X102989431Y-143428414D01*
X102989436Y-143428416D01*
X103186955Y-143459700D01*
X103186958Y-143459700D01*
X103386934Y-143459700D01*
X103386937Y-143459700D01*
X103584456Y-143428416D01*
X103774649Y-143366619D01*
X103952833Y-143275829D01*
X103953424Y-143275400D01*
X103972064Y-143261857D01*
X104114621Y-143158283D01*
X104121338Y-143151566D01*
X104160445Y-143112460D01*
X104256024Y-143016880D01*
X104256029Y-143016875D01*
X104373575Y-142855087D01*
X104464365Y-142676903D01*
X104526162Y-142486710D01*
X104557446Y-142289191D01*
X104557446Y-142089252D01*
X109890946Y-142089252D01*
X109890946Y-142289147D01*
X109922219Y-142486597D01*
X109983989Y-142676706D01*
X109983992Y-142676712D01*
X110074745Y-142854824D01*
X110100568Y-142890366D01*
X110690994Y-142299940D01*
X110711235Y-142375477D01*
X110774770Y-142485523D01*
X110864623Y-142575376D01*
X110974669Y-142638911D01*
X111050204Y-142659150D01*
X110459777Y-143249577D01*
X110495319Y-143275399D01*
X110673433Y-143366153D01*
X110673439Y-143366156D01*
X110863550Y-143427926D01*
X110863546Y-143427926D01*
X111060998Y-143459200D01*
X111260894Y-143459200D01*
X111458343Y-143427926D01*
X111648452Y-143366156D01*
X111648458Y-143366153D01*
X111826572Y-143275400D01*
X111862112Y-143249577D01*
X111271686Y-142659151D01*
X111347223Y-142638911D01*
X111457269Y-142575376D01*
X111547122Y-142485523D01*
X111610657Y-142375477D01*
X111630897Y-142299940D01*
X112221323Y-142890366D01*
X112247147Y-142854824D01*
X112247148Y-142854822D01*
X112318398Y-142714987D01*
X112367146Y-142663371D01*
X112436061Y-142646305D01*
X112503262Y-142669205D01*
X112542930Y-142714984D01*
X112614317Y-142855087D01*
X112731863Y-143016875D01*
X112731865Y-143016877D01*
X112731867Y-143016880D01*
X112873265Y-143158278D01*
X112873268Y-143158280D01*
X112873271Y-143158283D01*
X112945971Y-143211103D01*
X113035055Y-143275827D01*
X113035059Y-143275829D01*
X113213243Y-143366619D01*
X113403430Y-143428414D01*
X113403431Y-143428414D01*
X113403436Y-143428416D01*
X113600955Y-143459700D01*
X113600958Y-143459700D01*
X113800934Y-143459700D01*
X113800937Y-143459700D01*
X113998456Y-143428416D01*
X114188649Y-143366619D01*
X114366833Y-143275829D01*
X114367424Y-143275400D01*
X114386064Y-143261857D01*
X114528621Y-143158283D01*
X114670029Y-143016875D01*
X114787575Y-142855087D01*
X114878365Y-142676903D01*
X114940162Y-142486710D01*
X114971446Y-142289191D01*
X114971446Y-142089209D01*
X114940162Y-141891690D01*
X114878365Y-141701497D01*
X114787709Y-141523576D01*
X114787573Y-141523309D01*
X114725878Y-141438395D01*
X114670029Y-141361525D01*
X114670026Y-141361522D01*
X114670024Y-141361519D01*
X114528626Y-141220121D01*
X114528623Y-141220119D01*
X114528621Y-141220117D01*
X114477374Y-141182883D01*
X114366836Y-141102572D01*
X114274410Y-141055479D01*
X114188649Y-141011781D01*
X114188646Y-141011780D01*
X114188644Y-141011779D01*
X113998459Y-140949985D01*
X113998463Y-140949985D01*
X113961689Y-140944160D01*
X113800937Y-140918700D01*
X113600955Y-140918700D01*
X113403436Y-140949984D01*
X113403430Y-140949985D01*
X113213247Y-141011779D01*
X113213241Y-141011782D01*
X113035055Y-141102572D01*
X112873268Y-141220119D01*
X112873265Y-141220121D01*
X112731867Y-141361519D01*
X112731865Y-141361522D01*
X112614318Y-141523310D01*
X112542932Y-141663413D01*
X112494183Y-141715028D01*
X112425268Y-141732094D01*
X112358067Y-141709193D01*
X112318398Y-141663413D01*
X112247145Y-141523573D01*
X112221323Y-141488031D01*
X111630896Y-142078458D01*
X111610657Y-142002923D01*
X111547122Y-141892877D01*
X111457269Y-141803024D01*
X111347223Y-141739489D01*
X111271686Y-141719248D01*
X111862112Y-141128822D01*
X111826570Y-141102999D01*
X111648458Y-141012246D01*
X111648452Y-141012243D01*
X111458341Y-140950473D01*
X111458345Y-140950473D01*
X111260894Y-140919200D01*
X111060998Y-140919200D01*
X110863548Y-140950473D01*
X110673439Y-141012243D01*
X110673433Y-141012246D01*
X110495322Y-141102998D01*
X110495321Y-141102999D01*
X110459778Y-141128822D01*
X110459778Y-141128823D01*
X111050204Y-141719249D01*
X110974669Y-141739489D01*
X110864623Y-141803024D01*
X110774770Y-141892877D01*
X110711235Y-142002923D01*
X110690995Y-142078458D01*
X110100569Y-141488032D01*
X110100568Y-141488032D01*
X110074745Y-141523575D01*
X110074744Y-141523576D01*
X109983992Y-141701687D01*
X109983989Y-141701693D01*
X109922219Y-141891802D01*
X109890946Y-142089252D01*
X104557446Y-142089252D01*
X104557446Y-142089209D01*
X104526162Y-141891690D01*
X104464365Y-141701497D01*
X104373709Y-141523576D01*
X104373573Y-141523309D01*
X104311878Y-141438395D01*
X104256029Y-141361525D01*
X104256026Y-141361522D01*
X104256024Y-141361519D01*
X104114626Y-141220121D01*
X104114623Y-141220119D01*
X104114621Y-141220117D01*
X104063374Y-141182883D01*
X103952836Y-141102572D01*
X103860410Y-141055479D01*
X103774649Y-141011781D01*
X103774646Y-141011780D01*
X103774644Y-141011779D01*
X103584459Y-140949985D01*
X103584463Y-140949985D01*
X103547689Y-140944160D01*
X103386937Y-140918700D01*
X103186955Y-140918700D01*
X102989436Y-140949984D01*
X102989430Y-140949985D01*
X102799247Y-141011779D01*
X102799241Y-141011782D01*
X102621055Y-141102572D01*
X102459268Y-141220119D01*
X102459265Y-141220121D01*
X102317867Y-141361519D01*
X102317865Y-141361522D01*
X102200318Y-141523310D01*
X102129213Y-141662862D01*
X102080464Y-141714477D01*
X102011549Y-141731543D01*
X101944348Y-141708642D01*
X101904679Y-141662862D01*
X101902972Y-141659511D01*
X101833575Y-141523313D01*
X101820945Y-141505930D01*
X101807941Y-141488031D01*
X101716029Y-141361525D01*
X101716026Y-141361522D01*
X101716024Y-141361519D01*
X101574626Y-141220121D01*
X101574623Y-141220119D01*
X101574621Y-141220117D01*
X101523374Y-141182883D01*
X101412836Y-141102572D01*
X101320410Y-141055479D01*
X101234649Y-141011781D01*
X101234646Y-141011780D01*
X101234644Y-141011779D01*
X101044459Y-140949985D01*
X101044463Y-140949985D01*
X101007689Y-140944160D01*
X100846937Y-140918700D01*
X100646955Y-140918700D01*
X100449436Y-140949984D01*
X100449430Y-140949985D01*
X100259247Y-141011779D01*
X100259241Y-141011782D01*
X100081055Y-141102572D01*
X99919268Y-141220119D01*
X99919265Y-141220121D01*
X99777867Y-141361519D01*
X99777865Y-141361522D01*
X99660318Y-141523309D01*
X99569528Y-141701495D01*
X99569525Y-141701501D01*
X99507731Y-141891684D01*
X99507730Y-141891689D01*
X99507730Y-141891690D01*
X99476446Y-142089209D01*
X96827483Y-142089209D01*
X96840500Y-142007027D01*
X96840500Y-141762973D01*
X96802321Y-141521924D01*
X96726904Y-141289815D01*
X96616106Y-141072361D01*
X96472655Y-140874917D01*
X96472652Y-140874914D01*
X96472650Y-140874911D01*
X96300088Y-140702349D01*
X96300085Y-140702347D01*
X96300083Y-140702345D01*
X96102639Y-140558894D01*
X95885185Y-140448096D01*
X95885182Y-140448095D01*
X95885180Y-140448094D01*
X95653080Y-140372680D01*
X95653078Y-140372679D01*
X95653076Y-140372679D01*
X95412027Y-140334500D01*
X95167973Y-140334500D01*
X94926924Y-140372679D01*
X94926922Y-140372679D01*
X94926919Y-140372680D01*
X94694819Y-140448094D01*
X94694813Y-140448097D01*
X94477357Y-140558896D01*
X94279914Y-140702347D01*
X94279911Y-140702349D01*
X94107349Y-140874911D01*
X94107347Y-140874914D01*
X93963896Y-141072357D01*
X93853097Y-141289813D01*
X93853094Y-141289819D01*
X93777680Y-141521919D01*
X93777679Y-141521922D01*
X93777679Y-141521924D01*
X93739500Y-141762973D01*
X92804500Y-141762973D01*
X92766321Y-141521924D01*
X92690904Y-141289815D01*
X92580106Y-141072361D01*
X92436655Y-140874917D01*
X92436652Y-140874914D01*
X92436650Y-140874911D01*
X92264088Y-140702349D01*
X92264085Y-140702347D01*
X92264083Y-140702345D01*
X92066639Y-140558894D01*
X91849185Y-140448096D01*
X91849182Y-140448095D01*
X91849180Y-140448094D01*
X91617080Y-140372680D01*
X91617078Y-140372679D01*
X91617076Y-140372679D01*
X91376027Y-140334500D01*
X91131973Y-140334500D01*
X90890924Y-140372679D01*
X90890922Y-140372679D01*
X90890919Y-140372680D01*
X90658819Y-140448094D01*
X90658813Y-140448097D01*
X90441357Y-140558896D01*
X90243914Y-140702347D01*
X90243911Y-140702349D01*
X90071349Y-140874911D01*
X90071347Y-140874914D01*
X89927896Y-141072357D01*
X89817097Y-141289813D01*
X89817094Y-141289819D01*
X89741680Y-141521919D01*
X89741679Y-141521922D01*
X89741679Y-141521924D01*
X89703500Y-141762973D01*
X88966500Y-141762973D01*
X88928321Y-141521924D01*
X88852904Y-141289815D01*
X88742106Y-141072361D01*
X88598655Y-140874917D01*
X88598652Y-140874914D01*
X88598650Y-140874911D01*
X88426088Y-140702349D01*
X88426085Y-140702347D01*
X88426083Y-140702345D01*
X88228639Y-140558894D01*
X88011185Y-140448096D01*
X88011182Y-140448095D01*
X88011180Y-140448094D01*
X87779080Y-140372680D01*
X87779078Y-140372679D01*
X87779076Y-140372679D01*
X87538027Y-140334500D01*
X87293973Y-140334500D01*
X87052924Y-140372679D01*
X87052922Y-140372679D01*
X87052919Y-140372680D01*
X86820819Y-140448094D01*
X86820813Y-140448097D01*
X86603357Y-140558896D01*
X86405914Y-140702347D01*
X86405911Y-140702349D01*
X86233349Y-140874911D01*
X86233347Y-140874914D01*
X86089896Y-141072357D01*
X85979097Y-141289813D01*
X85979094Y-141289819D01*
X85903680Y-141521919D01*
X85903679Y-141521922D01*
X85903679Y-141521924D01*
X85865500Y-141762973D01*
X84930500Y-141762973D01*
X84892321Y-141521924D01*
X84816904Y-141289815D01*
X84706106Y-141072361D01*
X84562655Y-140874917D01*
X84562652Y-140874914D01*
X84562650Y-140874911D01*
X84390088Y-140702349D01*
X84390085Y-140702347D01*
X84390083Y-140702345D01*
X84192639Y-140558894D01*
X83975185Y-140448096D01*
X83975182Y-140448095D01*
X83975180Y-140448094D01*
X83743080Y-140372680D01*
X83743078Y-140372679D01*
X83743076Y-140372679D01*
X83502027Y-140334500D01*
X83257973Y-140334500D01*
X83016924Y-140372679D01*
X83016922Y-140372679D01*
X83016919Y-140372680D01*
X82784819Y-140448094D01*
X82784813Y-140448097D01*
X82567357Y-140558896D01*
X82369914Y-140702347D01*
X82369911Y-140702349D01*
X82197349Y-140874911D01*
X82197347Y-140874914D01*
X82053896Y-141072357D01*
X81943097Y-141289813D01*
X81943094Y-141289819D01*
X81867680Y-141521919D01*
X81867679Y-141521922D01*
X81867679Y-141521924D01*
X81829500Y-141762973D01*
X77572531Y-141762973D01*
X77635627Y-141723327D01*
X77663542Y-141701065D01*
X77715651Y-141659511D01*
X77853137Y-141549870D01*
X78049870Y-141353137D01*
X78223321Y-141135634D01*
X78223327Y-141135627D01*
X78371344Y-140900060D01*
X78492056Y-140649400D01*
X78583943Y-140386802D01*
X78645850Y-140115567D01*
X78677000Y-139839105D01*
X78677000Y-139560895D01*
X78673856Y-139532995D01*
X78664346Y-139448585D01*
X78645850Y-139284433D01*
X78583943Y-139013198D01*
X78573484Y-138983309D01*
X78492062Y-138750617D01*
X78492061Y-138750616D01*
X78492056Y-138750600D01*
X78371344Y-138499940D01*
X78353650Y-138471781D01*
X78297791Y-138382881D01*
X78223327Y-138264373D01*
X78223321Y-138264365D01*
X78115874Y-138129630D01*
X78115872Y-138129628D01*
X78057171Y-138056019D01*
X97419046Y-138056019D01*
X97419046Y-138295981D01*
X97456387Y-138531746D01*
X97456585Y-138532993D01*
X97530576Y-138760714D01*
X97530736Y-138761205D01*
X97583170Y-138864111D01*
X97639678Y-138975015D01*
X97721877Y-139088151D01*
X97780723Y-139169145D01*
X97780725Y-139169147D01*
X97780727Y-139169150D01*
X97950395Y-139338818D01*
X97950398Y-139338820D01*
X97950401Y-139338823D01*
X98020968Y-139390093D01*
X98144530Y-139479867D01*
X98144534Y-139479869D01*
X98358341Y-139588810D01*
X98586558Y-139662962D01*
X98823565Y-139700500D01*
X98823568Y-139700500D01*
X99063524Y-139700500D01*
X99063527Y-139700500D01*
X99300534Y-139662962D01*
X99528751Y-139588810D01*
X99742558Y-139479869D01*
X99936691Y-139338823D01*
X100106369Y-139169145D01*
X100247415Y-138975012D01*
X100356356Y-138761205D01*
X100430508Y-138532988D01*
X100468046Y-138295981D01*
X100468046Y-138056019D01*
X100430508Y-137819012D01*
X100356356Y-137590795D01*
X100247415Y-137376988D01*
X100247414Y-137376986D01*
X100247413Y-137376984D01*
X100154126Y-137248587D01*
X100106369Y-137182855D01*
X100106366Y-137182852D01*
X100106364Y-137182849D01*
X99936696Y-137013181D01*
X99936693Y-137013179D01*
X99936691Y-137013177D01*
X99875198Y-136968499D01*
X99742561Y-136872132D01*
X99631657Y-136815624D01*
X99528751Y-136763190D01*
X99528748Y-136763189D01*
X99528746Y-136763188D01*
X99300539Y-136689039D01*
X99300535Y-136689038D01*
X99300534Y-136689038D01*
X99063527Y-136651500D01*
X98823565Y-136651500D01*
X98586558Y-136689038D01*
X98586552Y-136689039D01*
X98358345Y-136763188D01*
X98358339Y-136763191D01*
X98144530Y-136872132D01*
X97950398Y-137013179D01*
X97950395Y-137013181D01*
X97780727Y-137182849D01*
X97780725Y-137182852D01*
X97639678Y-137376984D01*
X97530737Y-137590793D01*
X97530734Y-137590799D01*
X97456585Y-137819006D01*
X97456584Y-137819011D01*
X97456584Y-137819012D01*
X97419046Y-138056019D01*
X78057171Y-138056019D01*
X78049863Y-138046855D01*
X77853137Y-137850129D01*
X77635634Y-137676678D01*
X77635630Y-137676675D01*
X77400064Y-137528658D01*
X77400055Y-137528653D01*
X77149409Y-137407948D01*
X77149404Y-137407946D01*
X77149400Y-137407944D01*
X77149394Y-137407941D01*
X77149382Y-137407937D01*
X76886808Y-137316058D01*
X76615570Y-137254150D01*
X76339107Y-137223000D01*
X76339105Y-137223000D01*
X76060895Y-137223000D01*
X76060893Y-137223000D01*
X75784429Y-137254150D01*
X75513191Y-137316058D01*
X75250617Y-137407937D01*
X75250590Y-137407948D01*
X74999944Y-137528653D01*
X74999935Y-137528658D01*
X74764369Y-137676675D01*
X74764365Y-137676678D01*
X74546862Y-137850129D01*
X74350129Y-138046862D01*
X74176678Y-138264365D01*
X74176675Y-138264369D01*
X74028658Y-138499935D01*
X74028653Y-138499944D01*
X73907948Y-138750590D01*
X73907937Y-138750617D01*
X73816058Y-139013191D01*
X73754150Y-139284429D01*
X73723000Y-139560893D01*
X72136500Y-139560893D01*
X72136500Y-132062343D01*
X81821500Y-132062343D01*
X81821500Y-132307657D01*
X81837602Y-132409321D01*
X81859876Y-132549952D01*
X81878679Y-132607821D01*
X81928095Y-132759907D01*
X81935682Y-132783255D01*
X81935685Y-132783263D01*
X82047051Y-133001832D01*
X82191244Y-133200296D01*
X82364703Y-133373755D01*
X82364706Y-133373757D01*
X82563168Y-133517949D01*
X82781744Y-133629318D01*
X83015050Y-133705124D01*
X83257343Y-133743500D01*
X83257346Y-133743500D01*
X83502654Y-133743500D01*
X83502657Y-133743500D01*
X83744950Y-133705124D01*
X83978256Y-133629318D01*
X84196832Y-133517949D01*
X84395294Y-133373757D01*
X84568757Y-133200294D01*
X84688383Y-133035644D01*
X85857499Y-133035644D01*
X85868111Y-133139503D01*
X85868112Y-133139506D01*
X85923877Y-133307796D01*
X85974766Y-133390299D01*
X86016949Y-133458689D01*
X86016954Y-133458695D01*
X86142304Y-133584045D01*
X86142310Y-133584050D01*
X86142311Y-133584051D01*
X86293204Y-133677123D01*
X86461494Y-133732888D01*
X86482268Y-133735010D01*
X86565356Y-133743500D01*
X86565364Y-133743500D01*
X88266644Y-133743500D01*
X88342177Y-133735782D01*
X88370506Y-133732888D01*
X88538796Y-133677123D01*
X88689689Y-133584051D01*
X88815051Y-133458689D01*
X88908123Y-133307796D01*
X88963888Y-133139506D01*
X88969147Y-133088032D01*
X88974500Y-133035644D01*
X88974500Y-132062343D01*
X89695500Y-132062343D01*
X89695500Y-132307657D01*
X89711602Y-132409321D01*
X89733876Y-132549952D01*
X89752679Y-132607821D01*
X89802095Y-132759907D01*
X89809682Y-132783255D01*
X89809685Y-132783263D01*
X89921051Y-133001832D01*
X90065244Y-133200296D01*
X90238703Y-133373755D01*
X90238706Y-133373757D01*
X90437168Y-133517949D01*
X90655744Y-133629318D01*
X90889050Y-133705124D01*
X91131343Y-133743500D01*
X91131346Y-133743500D01*
X91376654Y-133743500D01*
X91376657Y-133743500D01*
X91618950Y-133705124D01*
X91852256Y-133629318D01*
X92070832Y-133517949D01*
X92269294Y-133373757D01*
X92442757Y-133200294D01*
X92562383Y-133035644D01*
X93731499Y-133035644D01*
X93742111Y-133139503D01*
X93742112Y-133139506D01*
X93797877Y-133307796D01*
X93848766Y-133390299D01*
X93890949Y-133458689D01*
X93890954Y-133458695D01*
X94016304Y-133584045D01*
X94016310Y-133584050D01*
X94016311Y-133584051D01*
X94167204Y-133677123D01*
X94335494Y-133732888D01*
X94356268Y-133735010D01*
X94439356Y-133743500D01*
X94439364Y-133743500D01*
X96140644Y-133743500D01*
X96216177Y-133735782D01*
X96244506Y-133732888D01*
X96412796Y-133677123D01*
X96563689Y-133584051D01*
X96689051Y-133458689D01*
X96782123Y-133307796D01*
X96837888Y-133139506D01*
X96843147Y-133088032D01*
X96848500Y-133035644D01*
X96848500Y-131640685D01*
X96858091Y-131592467D01*
X96872197Y-131558413D01*
X96889629Y-131470776D01*
X96890282Y-131467495D01*
X96895517Y-131441177D01*
X96901500Y-131411100D01*
X96901500Y-126203500D01*
X96921502Y-126135379D01*
X96975158Y-126088886D01*
X97027500Y-126077500D01*
X98688632Y-126077500D01*
X98688638Y-126077500D01*
X98688645Y-126077499D01*
X98688649Y-126077499D01*
X98749196Y-126070990D01*
X98749199Y-126070989D01*
X98749201Y-126070989D01*
X98886204Y-126019889D01*
X99003261Y-125932261D01*
X99007531Y-125926557D01*
X99090887Y-125815207D01*
X99090887Y-125815206D01*
X99090889Y-125815204D01*
X99141989Y-125678201D01*
X99148500Y-125617638D01*
X99148500Y-124776343D01*
X99168502Y-124708222D01*
X99222158Y-124661729D01*
X99292432Y-124651625D01*
X99357012Y-124681119D01*
X99363595Y-124687248D01*
X100947195Y-126270848D01*
X100981221Y-126333160D01*
X100984100Y-126359943D01*
X100984100Y-132890095D01*
X101009498Y-133017777D01*
X101009500Y-133017782D01*
X101038598Y-133088032D01*
X101059318Y-133138054D01*
X101131645Y-133246299D01*
X102981248Y-135095902D01*
X104827234Y-136941887D01*
X104827244Y-136941898D01*
X104831644Y-136946298D01*
X104831645Y-136946299D01*
X104923701Y-137038355D01*
X105016308Y-137100233D01*
X105031946Y-137110682D01*
X105046634Y-137116766D01*
X105101915Y-137161311D01*
X105124338Y-137228674D01*
X105106782Y-137297466D01*
X105100355Y-137307235D01*
X105049678Y-137376986D01*
X104940737Y-137590793D01*
X104940734Y-137590799D01*
X104866585Y-137819006D01*
X104866584Y-137819011D01*
X104866584Y-137819012D01*
X104830497Y-138046862D01*
X104829046Y-138056022D01*
X104829046Y-138258432D01*
X104809044Y-138326553D01*
X104755388Y-138373046D01*
X104685114Y-138383150D01*
X104683337Y-138382881D01*
X104665367Y-138380035D01*
X104656937Y-138378700D01*
X104456955Y-138378700D01*
X104266981Y-138408789D01*
X104259430Y-138409985D01*
X104069247Y-138471779D01*
X104069241Y-138471782D01*
X103891055Y-138562572D01*
X103729268Y-138680119D01*
X103729265Y-138680121D01*
X103587867Y-138821519D01*
X103587865Y-138821522D01*
X103470318Y-138983310D01*
X103399213Y-139122862D01*
X103350464Y-139174477D01*
X103281549Y-139191543D01*
X103214348Y-139168642D01*
X103174679Y-139122862D01*
X103156993Y-139088151D01*
X103103575Y-138983313D01*
X102986029Y-138821525D01*
X102986026Y-138821522D01*
X102986024Y-138821519D01*
X102844626Y-138680121D01*
X102844623Y-138680119D01*
X102844621Y-138680117D01*
X102793374Y-138642883D01*
X102682836Y-138562572D01*
X102590410Y-138515479D01*
X102504649Y-138471781D01*
X102504646Y-138471780D01*
X102504644Y-138471779D01*
X102314459Y-138409985D01*
X102314463Y-138409985D01*
X102277689Y-138404160D01*
X102116937Y-138378700D01*
X101916955Y-138378700D01*
X101726981Y-138408789D01*
X101719430Y-138409985D01*
X101529247Y-138471779D01*
X101529241Y-138471782D01*
X101351055Y-138562572D01*
X101189268Y-138680119D01*
X101189265Y-138680121D01*
X101047867Y-138821519D01*
X101047865Y-138821522D01*
X100930318Y-138983309D01*
X100839528Y-139161495D01*
X100839525Y-139161501D01*
X100777731Y-139351684D01*
X100777730Y-139351689D01*
X100777730Y-139351690D01*
X100746446Y-139549209D01*
X100746446Y-139749191D01*
X100772031Y-139910727D01*
X100777731Y-139946715D01*
X100835309Y-140123922D01*
X100839527Y-140136903D01*
X100839528Y-140136904D01*
X100930318Y-140315090D01*
X100982421Y-140386802D01*
X101047863Y-140476875D01*
X101047865Y-140476877D01*
X101047867Y-140476880D01*
X101189265Y-140618278D01*
X101189268Y-140618280D01*
X101189271Y-140618283D01*
X101266141Y-140674132D01*
X101351055Y-140735827D01*
X101351059Y-140735829D01*
X101529243Y-140826619D01*
X101719430Y-140888414D01*
X101719431Y-140888414D01*
X101719436Y-140888416D01*
X101916955Y-140919700D01*
X101916958Y-140919700D01*
X102116934Y-140919700D01*
X102116937Y-140919700D01*
X102314456Y-140888416D01*
X102504649Y-140826619D01*
X102682833Y-140735829D01*
X102844621Y-140618283D01*
X102986029Y-140476875D01*
X103103575Y-140315087D01*
X103174680Y-140175535D01*
X103223427Y-140123922D01*
X103292342Y-140106856D01*
X103359544Y-140129757D01*
X103399210Y-140175534D01*
X103470317Y-140315087D01*
X103470319Y-140315090D01*
X103484421Y-140334500D01*
X103587863Y-140476875D01*
X103587865Y-140476877D01*
X103587867Y-140476880D01*
X103729265Y-140618278D01*
X103729268Y-140618280D01*
X103729271Y-140618283D01*
X103806141Y-140674132D01*
X103891055Y-140735827D01*
X103891059Y-140735829D01*
X104069243Y-140826619D01*
X104259430Y-140888414D01*
X104259431Y-140888414D01*
X104259436Y-140888416D01*
X104456955Y-140919700D01*
X104456958Y-140919700D01*
X104656934Y-140919700D01*
X104656937Y-140919700D01*
X104854456Y-140888416D01*
X105044649Y-140826619D01*
X105222833Y-140735829D01*
X105384621Y-140618283D01*
X105526029Y-140476875D01*
X105643575Y-140315087D01*
X105734365Y-140136903D01*
X105796162Y-139946710D01*
X105825633Y-139760632D01*
X105856046Y-139696481D01*
X105916314Y-139658954D01*
X105987303Y-139659968D01*
X105988971Y-139660497D01*
X105996558Y-139662962D01*
X106233565Y-139700500D01*
X106233568Y-139700500D01*
X106473524Y-139700500D01*
X106473527Y-139700500D01*
X106710534Y-139662962D01*
X106938751Y-139588810D01*
X107152558Y-139479869D01*
X107346691Y-139338823D01*
X107516369Y-139169145D01*
X107657415Y-138975012D01*
X107743280Y-138806491D01*
X107792027Y-138754879D01*
X107860942Y-138737813D01*
X107928144Y-138760714D01*
X107967810Y-138806491D01*
X108053677Y-138975012D01*
X108194723Y-139169145D01*
X108194725Y-139169147D01*
X108194727Y-139169150D01*
X108364395Y-139338818D01*
X108364398Y-139338820D01*
X108364401Y-139338823D01*
X108434968Y-139390093D01*
X108558530Y-139479867D01*
X108558534Y-139479869D01*
X108772341Y-139588810D01*
X109000558Y-139662962D01*
X109237565Y-139700500D01*
X109237568Y-139700500D01*
X109477524Y-139700500D01*
X109477527Y-139700500D01*
X109714534Y-139662962D01*
X109942751Y-139588810D01*
X110156558Y-139479869D01*
X110350691Y-139338823D01*
X110520369Y-139169145D01*
X110661415Y-138975012D01*
X110770356Y-138761205D01*
X110844508Y-138532988D01*
X110882046Y-138295981D01*
X110882046Y-138056019D01*
X110844508Y-137819012D01*
X110770356Y-137590795D01*
X110661415Y-137376988D01*
X110661411Y-137376982D01*
X110659167Y-137372577D01*
X110660319Y-137371990D01*
X110643334Y-137309205D01*
X110664788Y-137241527D01*
X110719426Y-137196193D01*
X110769305Y-137185900D01*
X114238887Y-137185900D01*
X114263468Y-137188321D01*
X114384024Y-137212300D01*
X114384027Y-137212300D01*
X114384030Y-137212301D01*
X114384031Y-137212301D01*
X114977969Y-137212301D01*
X114977970Y-137212301D01*
X115098525Y-137188320D01*
X115123107Y-137185900D01*
X115204292Y-137185900D01*
X115204293Y-137185900D01*
X115331977Y-137160502D01*
X115332602Y-137160242D01*
X115332954Y-137160204D01*
X115337907Y-137158703D01*
X115338191Y-137159641D01*
X115403190Y-137152644D01*
X115466681Y-137184415D01*
X115502917Y-137245468D01*
X115500392Y-137316419D01*
X115482772Y-137350704D01*
X115463680Y-137376982D01*
X115354737Y-137590793D01*
X115354734Y-137590799D01*
X115280585Y-137819006D01*
X115280584Y-137819011D01*
X115280584Y-137819012D01*
X115244497Y-138046862D01*
X115243046Y-138056022D01*
X115243046Y-138258432D01*
X115223044Y-138326553D01*
X115169388Y-138373046D01*
X115099114Y-138383150D01*
X115097337Y-138382881D01*
X115079367Y-138380035D01*
X115070937Y-138378700D01*
X114870955Y-138378700D01*
X114680981Y-138408789D01*
X114673430Y-138409985D01*
X114483247Y-138471779D01*
X114483241Y-138471782D01*
X114305055Y-138562572D01*
X114143268Y-138680119D01*
X114143265Y-138680121D01*
X114001867Y-138821519D01*
X114001865Y-138821522D01*
X113884318Y-138983310D01*
X113813213Y-139122862D01*
X113764464Y-139174477D01*
X113695549Y-139191543D01*
X113628348Y-139168642D01*
X113588679Y-139122862D01*
X113570993Y-139088151D01*
X113517575Y-138983313D01*
X113400029Y-138821525D01*
X113400026Y-138821522D01*
X113400024Y-138821519D01*
X113258626Y-138680121D01*
X113258623Y-138680119D01*
X113258621Y-138680117D01*
X113207374Y-138642883D01*
X113096836Y-138562572D01*
X113004410Y-138515479D01*
X112918649Y-138471781D01*
X112918646Y-138471780D01*
X112918644Y-138471779D01*
X112728459Y-138409985D01*
X112728463Y-138409985D01*
X112691689Y-138404160D01*
X112530937Y-138378700D01*
X112330955Y-138378700D01*
X112140981Y-138408789D01*
X112133430Y-138409985D01*
X111943247Y-138471779D01*
X111943241Y-138471782D01*
X111765055Y-138562572D01*
X111603268Y-138680119D01*
X111603265Y-138680121D01*
X111461867Y-138821519D01*
X111461865Y-138821522D01*
X111344318Y-138983309D01*
X111253528Y-139161495D01*
X111253525Y-139161501D01*
X111191731Y-139351684D01*
X111191730Y-139351689D01*
X111191730Y-139351690D01*
X111160446Y-139549209D01*
X111160446Y-139749191D01*
X111186031Y-139910727D01*
X111191731Y-139946715D01*
X111249309Y-140123922D01*
X111253527Y-140136903D01*
X111253528Y-140136904D01*
X111344318Y-140315090D01*
X111396421Y-140386802D01*
X111461863Y-140476875D01*
X111461865Y-140476877D01*
X111461867Y-140476880D01*
X111603265Y-140618278D01*
X111603268Y-140618280D01*
X111603271Y-140618283D01*
X111680141Y-140674132D01*
X111765055Y-140735827D01*
X111765059Y-140735829D01*
X111943243Y-140826619D01*
X112133430Y-140888414D01*
X112133431Y-140888414D01*
X112133436Y-140888416D01*
X112330955Y-140919700D01*
X112330958Y-140919700D01*
X112530934Y-140919700D01*
X112530937Y-140919700D01*
X112728456Y-140888416D01*
X112918649Y-140826619D01*
X113096833Y-140735829D01*
X113258621Y-140618283D01*
X113400029Y-140476875D01*
X113517575Y-140315087D01*
X113588680Y-140175535D01*
X113637427Y-140123922D01*
X113706342Y-140106856D01*
X113773544Y-140129757D01*
X113813210Y-140175534D01*
X113884317Y-140315087D01*
X113884319Y-140315090D01*
X113898421Y-140334500D01*
X114001863Y-140476875D01*
X114001865Y-140476877D01*
X114001867Y-140476880D01*
X114143265Y-140618278D01*
X114143268Y-140618280D01*
X114143271Y-140618283D01*
X114220141Y-140674132D01*
X114305055Y-140735827D01*
X114305059Y-140735829D01*
X114483243Y-140826619D01*
X114673430Y-140888414D01*
X114673431Y-140888414D01*
X114673436Y-140888416D01*
X114870955Y-140919700D01*
X114870958Y-140919700D01*
X115070934Y-140919700D01*
X115070937Y-140919700D01*
X115268456Y-140888416D01*
X115458649Y-140826619D01*
X115636833Y-140735829D01*
X115798621Y-140618283D01*
X115940029Y-140476875D01*
X116057575Y-140315087D01*
X116148365Y-140136903D01*
X116210162Y-139946710D01*
X116239633Y-139760632D01*
X116270046Y-139696481D01*
X116330314Y-139658954D01*
X116401303Y-139659968D01*
X116402971Y-139660497D01*
X116410558Y-139662962D01*
X116647565Y-139700500D01*
X116647568Y-139700500D01*
X116887524Y-139700500D01*
X116887527Y-139700500D01*
X117124534Y-139662962D01*
X117352751Y-139588810D01*
X117566558Y-139479869D01*
X117760691Y-139338823D01*
X117930369Y-139169145D01*
X118071415Y-138975012D01*
X118180356Y-138761205D01*
X118254508Y-138532988D01*
X118292046Y-138295981D01*
X118292046Y-138056019D01*
X118254508Y-137819012D01*
X118180356Y-137590795D01*
X118071415Y-137376988D01*
X117949480Y-137209159D01*
X117925623Y-137142294D01*
X117941703Y-137073142D01*
X117992617Y-137023662D01*
X118051417Y-137009100D01*
X152392264Y-137009100D01*
X152460385Y-137029102D01*
X152481359Y-137046005D01*
X153930195Y-138494841D01*
X153964221Y-138557153D01*
X153967100Y-138583936D01*
X153967100Y-139551772D01*
X153992498Y-139679454D01*
X153992500Y-139679459D01*
X154001215Y-139700500D01*
X154042318Y-139799731D01*
X154114645Y-139907976D01*
X154950824Y-140744155D01*
X155059069Y-140816482D01*
X155179346Y-140866302D01*
X155307030Y-140891700D01*
X155307031Y-140891700D01*
X161804292Y-140891700D01*
X161804293Y-140891700D01*
X161931977Y-140866302D01*
X162052254Y-140816482D01*
X162160499Y-140744155D01*
X163158355Y-139746299D01*
X163230682Y-139638054D01*
X163243125Y-139608014D01*
X163262644Y-139560893D01*
X175323000Y-139560893D01*
X175323000Y-139839106D01*
X175354150Y-140115570D01*
X175386379Y-140256774D01*
X175416057Y-140386802D01*
X175416059Y-140386808D01*
X175416058Y-140386808D01*
X175507937Y-140649382D01*
X175507948Y-140649409D01*
X175628653Y-140900055D01*
X175628658Y-140900064D01*
X175698854Y-141011779D01*
X175755902Y-141102571D01*
X175776675Y-141135630D01*
X175776678Y-141135634D01*
X175950129Y-141353137D01*
X176146862Y-141549870D01*
X176346649Y-141709193D01*
X176364373Y-141723327D01*
X176427474Y-141762976D01*
X176599935Y-141871341D01*
X176599944Y-141871346D01*
X176671557Y-141905833D01*
X176850600Y-141992056D01*
X176850616Y-141992061D01*
X176850617Y-141992062D01*
X177113191Y-142083941D01*
X177113194Y-142083941D01*
X177113198Y-142083943D01*
X177384433Y-142145850D01*
X177580469Y-142167938D01*
X177660893Y-142177000D01*
X177660895Y-142177000D01*
X177939107Y-142177000D01*
X178009318Y-142169088D01*
X178215567Y-142145850D01*
X178486802Y-142083943D01*
X178749400Y-141992056D01*
X179000060Y-141871344D01*
X179235627Y-141723327D01*
X179315650Y-141659511D01*
X179453137Y-141549870D01*
X179649870Y-141353137D01*
X179823321Y-141135634D01*
X179823327Y-141135627D01*
X179971344Y-140900060D01*
X180092056Y-140649400D01*
X180183943Y-140386802D01*
X180245850Y-140115567D01*
X180277000Y-139839105D01*
X180277000Y-139560895D01*
X180273856Y-139532995D01*
X180264346Y-139448585D01*
X180245850Y-139284433D01*
X180183943Y-139013198D01*
X180173484Y-138983309D01*
X180092062Y-138750617D01*
X180092061Y-138750616D01*
X180092056Y-138750600D01*
X179971344Y-138499940D01*
X179953650Y-138471781D01*
X179897791Y-138382881D01*
X179823327Y-138264373D01*
X179823321Y-138264365D01*
X179649870Y-138046862D01*
X179453137Y-137850129D01*
X179235634Y-137676678D01*
X179235630Y-137676675D01*
X179000064Y-137528658D01*
X179000055Y-137528653D01*
X178749409Y-137407948D01*
X178749404Y-137407946D01*
X178749400Y-137407944D01*
X178749394Y-137407941D01*
X178749382Y-137407937D01*
X178486808Y-137316058D01*
X178215570Y-137254150D01*
X177939107Y-137223000D01*
X177939105Y-137223000D01*
X177660895Y-137223000D01*
X177660893Y-137223000D01*
X177384429Y-137254150D01*
X177113191Y-137316058D01*
X176850617Y-137407937D01*
X176850590Y-137407948D01*
X176599944Y-137528653D01*
X176599935Y-137528658D01*
X176364369Y-137676675D01*
X176364365Y-137676678D01*
X176146862Y-137850129D01*
X175950129Y-138046862D01*
X175776678Y-138264365D01*
X175776675Y-138264369D01*
X175628658Y-138499935D01*
X175628653Y-138499944D01*
X175507948Y-138750590D01*
X175507937Y-138750617D01*
X175416058Y-139013191D01*
X175354150Y-139284429D01*
X175323000Y-139560893D01*
X163262644Y-139560893D01*
X163280501Y-139517783D01*
X163280501Y-139517780D01*
X163280503Y-139517777D01*
X163305900Y-139390093D01*
X163305900Y-139259906D01*
X163305900Y-127745462D01*
X163319227Y-127692261D01*
X163318349Y-127691897D01*
X163320716Y-127686181D01*
X163320718Y-127686179D01*
X163378197Y-127547413D01*
X163407500Y-127400100D01*
X163407500Y-127251025D01*
X163427502Y-127182904D01*
X163481158Y-127136411D01*
X163551432Y-127126307D01*
X163590704Y-127138760D01*
X163594694Y-127140793D01*
X163771863Y-127198359D01*
X163955856Y-127227500D01*
X163955858Y-127227500D01*
X164142142Y-127227500D01*
X164142144Y-127227500D01*
X164326137Y-127198359D01*
X164503306Y-127140793D01*
X164669289Y-127056220D01*
X164819999Y-126946724D01*
X164951724Y-126814999D01*
X164951729Y-126814991D01*
X164953186Y-126813287D01*
X164953909Y-126812814D01*
X164955225Y-126811499D01*
X164955501Y-126811775D01*
X165012635Y-126774476D01*
X165083630Y-126773966D01*
X165143630Y-126811920D01*
X165144814Y-126813287D01*
X165146282Y-126815006D01*
X165277999Y-126946723D01*
X165324991Y-126980864D01*
X165428711Y-127056220D01*
X165594694Y-127140793D01*
X165771863Y-127198359D01*
X165955856Y-127227500D01*
X165955858Y-127227500D01*
X166142142Y-127227500D01*
X166142144Y-127227500D01*
X166326137Y-127198359D01*
X166503306Y-127140793D01*
X166669289Y-127056220D01*
X166819999Y-126946724D01*
X166951724Y-126814999D01*
X166951729Y-126814991D01*
X166953186Y-126813287D01*
X166953909Y-126812814D01*
X166955225Y-126811499D01*
X166955501Y-126811775D01*
X167012635Y-126774476D01*
X167083630Y-126773966D01*
X167143630Y-126811920D01*
X167144814Y-126813287D01*
X167146282Y-126815006D01*
X167277999Y-126946723D01*
X167324991Y-126980864D01*
X167428711Y-127056220D01*
X167594694Y-127140793D01*
X167771863Y-127198359D01*
X167955856Y-127227500D01*
X167955858Y-127227500D01*
X168142142Y-127227500D01*
X168142144Y-127227500D01*
X168326137Y-127198359D01*
X168503306Y-127140793D01*
X168669289Y-127056220D01*
X168819999Y-126946724D01*
X168951724Y-126814999D01*
X168951729Y-126814991D01*
X168953186Y-126813287D01*
X168953909Y-126812814D01*
X168955225Y-126811499D01*
X168955501Y-126811775D01*
X169012635Y-126774476D01*
X169083630Y-126773966D01*
X169143630Y-126811920D01*
X169144814Y-126813287D01*
X169146282Y-126815006D01*
X169277999Y-126946723D01*
X169324991Y-126980864D01*
X169428711Y-127056220D01*
X169594694Y-127140793D01*
X169771863Y-127198359D01*
X169955856Y-127227500D01*
X169955858Y-127227500D01*
X170142142Y-127227500D01*
X170142144Y-127227500D01*
X170326137Y-127198359D01*
X170503306Y-127140793D01*
X170669289Y-127056220D01*
X170819999Y-126946724D01*
X170951724Y-126814999D01*
X171061220Y-126664289D01*
X171145793Y-126498306D01*
X171203359Y-126321137D01*
X171232500Y-126137144D01*
X171232500Y-125950856D01*
X171203359Y-125766863D01*
X171145793Y-125589694D01*
X171061220Y-125423711D01*
X170954267Y-125276501D01*
X170951723Y-125272999D01*
X170820000Y-125141276D01*
X170744644Y-125086528D01*
X170669289Y-125031780D01*
X170503306Y-124947207D01*
X170503305Y-124947206D01*
X170503302Y-124947205D01*
X170326141Y-124889642D01*
X170326139Y-124889641D01*
X170326137Y-124889641D01*
X170142144Y-124860500D01*
X169955856Y-124860500D01*
X169771863Y-124889641D01*
X169771861Y-124889641D01*
X169771858Y-124889642D01*
X169594697Y-124947205D01*
X169428712Y-125031779D01*
X169428711Y-125031780D01*
X169277999Y-125141276D01*
X169146277Y-125272998D01*
X169144807Y-125274720D01*
X169144084Y-125275191D01*
X169142775Y-125276501D01*
X169142499Y-125276225D01*
X169085354Y-125313526D01*
X169014360Y-125314030D01*
X168954363Y-125276070D01*
X168953193Y-125274720D01*
X168951722Y-125272998D01*
X168820000Y-125141276D01*
X168744644Y-125086528D01*
X168669289Y-125031780D01*
X168503306Y-124947207D01*
X168503305Y-124947206D01*
X168503302Y-124947205D01*
X168326141Y-124889642D01*
X168326139Y-124889641D01*
X168326137Y-124889641D01*
X168142144Y-124860500D01*
X167955856Y-124860500D01*
X167771863Y-124889641D01*
X167771861Y-124889641D01*
X167771858Y-124889642D01*
X167594697Y-124947205D01*
X167428712Y-125031779D01*
X167428711Y-125031780D01*
X167277999Y-125141276D01*
X167146277Y-125272998D01*
X167144807Y-125274720D01*
X167144084Y-125275191D01*
X167142775Y-125276501D01*
X167142499Y-125276225D01*
X167085354Y-125313526D01*
X167014360Y-125314030D01*
X166954363Y-125276070D01*
X166953193Y-125274720D01*
X166951722Y-125272998D01*
X166820000Y-125141276D01*
X166744644Y-125086528D01*
X166669289Y-125031780D01*
X166503306Y-124947207D01*
X166503305Y-124947206D01*
X166503302Y-124947205D01*
X166326141Y-124889642D01*
X166326139Y-124889641D01*
X166326137Y-124889641D01*
X166142144Y-124860500D01*
X165955856Y-124860500D01*
X165771863Y-124889641D01*
X165771861Y-124889641D01*
X165771858Y-124889642D01*
X165594697Y-124947205D01*
X165428712Y-125031779D01*
X165428711Y-125031780D01*
X165277999Y-125141276D01*
X165146277Y-125272998D01*
X165144807Y-125274720D01*
X165144084Y-125275191D01*
X165142775Y-125276501D01*
X165142499Y-125276225D01*
X165085354Y-125313526D01*
X165014360Y-125314030D01*
X164954363Y-125276070D01*
X164953193Y-125274720D01*
X164951722Y-125272998D01*
X164820000Y-125141276D01*
X164744644Y-125086528D01*
X164669289Y-125031780D01*
X164503306Y-124947207D01*
X164503305Y-124947206D01*
X164503302Y-124947205D01*
X164326141Y-124889642D01*
X164326139Y-124889641D01*
X164326137Y-124889641D01*
X164142144Y-124860500D01*
X163955856Y-124860500D01*
X163771863Y-124889641D01*
X163771861Y-124889641D01*
X163771858Y-124889642D01*
X163594697Y-124947205D01*
X163428712Y-125031779D01*
X163428711Y-125031780D01*
X163277999Y-125141276D01*
X163146277Y-125272998D01*
X163144807Y-125274720D01*
X163144084Y-125275191D01*
X163142775Y-125276501D01*
X163142499Y-125276225D01*
X163085354Y-125313526D01*
X163014360Y-125314030D01*
X162954363Y-125276070D01*
X162953193Y-125274720D01*
X162951722Y-125272998D01*
X162820000Y-125141276D01*
X162744644Y-125086528D01*
X162669289Y-125031780D01*
X162503306Y-124947207D01*
X162503305Y-124947206D01*
X162503302Y-124947205D01*
X162326141Y-124889642D01*
X162326139Y-124889641D01*
X162326137Y-124889641D01*
X162142144Y-124860500D01*
X161955856Y-124860500D01*
X161771863Y-124889641D01*
X161771861Y-124889641D01*
X161771858Y-124889642D01*
X161594697Y-124947205D01*
X161428712Y-125031779D01*
X161428711Y-125031780D01*
X161277999Y-125141276D01*
X161146277Y-125272998D01*
X161144807Y-125274720D01*
X161144084Y-125275191D01*
X161142775Y-125276501D01*
X161142499Y-125276225D01*
X161085354Y-125313526D01*
X161014360Y-125314030D01*
X160954363Y-125276070D01*
X160953193Y-125274720D01*
X160951722Y-125272998D01*
X160820000Y-125141276D01*
X160744644Y-125086528D01*
X160669289Y-125031780D01*
X160503306Y-124947207D01*
X160503305Y-124947206D01*
X160503302Y-124947205D01*
X160326141Y-124889642D01*
X160326139Y-124889641D01*
X160326137Y-124889641D01*
X160142144Y-124860500D01*
X159955856Y-124860500D01*
X159771863Y-124889641D01*
X159771861Y-124889641D01*
X159771858Y-124889642D01*
X159594697Y-124947205D01*
X159428712Y-125031779D01*
X159428711Y-125031780D01*
X159277999Y-125141276D01*
X159146277Y-125272998D01*
X159144807Y-125274720D01*
X159144084Y-125275191D01*
X159142775Y-125276501D01*
X159142499Y-125276225D01*
X159085354Y-125313526D01*
X159014360Y-125314030D01*
X158954363Y-125276070D01*
X158953193Y-125274720D01*
X158951722Y-125272998D01*
X158820000Y-125141276D01*
X158744644Y-125086528D01*
X158669289Y-125031780D01*
X158503306Y-124947207D01*
X158503305Y-124947206D01*
X158503302Y-124947205D01*
X158326141Y-124889642D01*
X158326139Y-124889641D01*
X158326137Y-124889641D01*
X158142144Y-124860500D01*
X157955856Y-124860500D01*
X157771863Y-124889641D01*
X157771861Y-124889641D01*
X157771858Y-124889642D01*
X157594697Y-124947205D01*
X157428712Y-125031779D01*
X157428711Y-125031780D01*
X157277999Y-125141276D01*
X157146277Y-125272998D01*
X157144807Y-125274720D01*
X157144084Y-125275191D01*
X157142775Y-125276501D01*
X157142499Y-125276225D01*
X157085354Y-125313526D01*
X157014360Y-125314030D01*
X156954363Y-125276070D01*
X156953193Y-125274720D01*
X156951722Y-125272998D01*
X156820000Y-125141276D01*
X156744644Y-125086528D01*
X156669289Y-125031780D01*
X156503306Y-124947207D01*
X156503305Y-124947206D01*
X156503302Y-124947205D01*
X156326141Y-124889642D01*
X156326139Y-124889641D01*
X156326137Y-124889641D01*
X156142144Y-124860500D01*
X155955856Y-124860500D01*
X155771863Y-124889641D01*
X155771861Y-124889641D01*
X155771858Y-124889642D01*
X155594697Y-124947205D01*
X155428712Y-125031779D01*
X155428711Y-125031780D01*
X155277999Y-125141276D01*
X155146277Y-125272998D01*
X155144807Y-125274720D01*
X155144084Y-125275191D01*
X155142775Y-125276501D01*
X155142499Y-125276225D01*
X155085354Y-125313526D01*
X155014360Y-125314030D01*
X154954363Y-125276070D01*
X154953193Y-125274720D01*
X154951722Y-125272998D01*
X154820000Y-125141276D01*
X154744644Y-125086528D01*
X154669289Y-125031780D01*
X154503306Y-124947207D01*
X154503305Y-124947206D01*
X154503302Y-124947205D01*
X154326141Y-124889642D01*
X154326139Y-124889641D01*
X154326137Y-124889641D01*
X154142144Y-124860500D01*
X153955856Y-124860500D01*
X153771863Y-124889641D01*
X153771861Y-124889641D01*
X153771858Y-124889642D01*
X153594697Y-124947205D01*
X153428712Y-125031779D01*
X153428711Y-125031780D01*
X153277999Y-125141276D01*
X153146277Y-125272998D01*
X153144807Y-125274720D01*
X153144084Y-125275191D01*
X153142775Y-125276501D01*
X153142499Y-125276225D01*
X153085354Y-125313526D01*
X153014360Y-125314030D01*
X152954363Y-125276070D01*
X152953193Y-125274720D01*
X152951722Y-125272998D01*
X152820000Y-125141276D01*
X152744644Y-125086528D01*
X152669289Y-125031780D01*
X152503306Y-124947207D01*
X152503305Y-124947206D01*
X152503302Y-124947205D01*
X152326141Y-124889642D01*
X152326139Y-124889641D01*
X152326137Y-124889641D01*
X152142144Y-124860500D01*
X151955856Y-124860500D01*
X151771863Y-124889641D01*
X151771861Y-124889641D01*
X151771858Y-124889642D01*
X151594697Y-124947205D01*
X151428712Y-125031779D01*
X151428711Y-125031780D01*
X151277999Y-125141276D01*
X151146276Y-125272999D01*
X151036780Y-125423711D01*
X151036779Y-125423712D01*
X150952205Y-125589697D01*
X150894642Y-125766858D01*
X150894641Y-125766861D01*
X150894641Y-125766863D01*
X150865500Y-125950856D01*
X150865500Y-126137144D01*
X150894641Y-126321137D01*
X150894642Y-126321141D01*
X150952205Y-126498302D01*
X150952206Y-126498305D01*
X150952207Y-126498306D01*
X151036780Y-126664289D01*
X151049000Y-126681108D01*
X151146276Y-126815000D01*
X151277999Y-126946723D01*
X151324991Y-126980864D01*
X151428711Y-127056220D01*
X151594694Y-127140793D01*
X151771863Y-127198359D01*
X151955856Y-127227500D01*
X151955858Y-127227500D01*
X152142142Y-127227500D01*
X152142144Y-127227500D01*
X152326137Y-127198359D01*
X152503306Y-127140793D01*
X152669289Y-127056220D01*
X152819999Y-126946724D01*
X152951724Y-126814999D01*
X152951729Y-126814991D01*
X152953186Y-126813287D01*
X152953909Y-126812814D01*
X152955225Y-126811499D01*
X152955501Y-126811775D01*
X153012635Y-126774476D01*
X153083630Y-126773966D01*
X153143630Y-126811920D01*
X153144814Y-126813287D01*
X153146282Y-126815006D01*
X153277999Y-126946723D01*
X153324991Y-126980864D01*
X153428711Y-127056220D01*
X153594694Y-127140793D01*
X153771863Y-127198359D01*
X153955856Y-127227500D01*
X153955858Y-127227500D01*
X154142142Y-127227500D01*
X154142144Y-127227500D01*
X154326137Y-127198359D01*
X154503306Y-127140793D01*
X154669289Y-127056220D01*
X154819999Y-126946724D01*
X154951724Y-126814999D01*
X154951729Y-126814991D01*
X154953186Y-126813287D01*
X154953909Y-126812814D01*
X154955225Y-126811499D01*
X154955501Y-126811775D01*
X155012635Y-126774476D01*
X155083630Y-126773966D01*
X155143630Y-126811920D01*
X155144814Y-126813287D01*
X155146282Y-126815006D01*
X155277999Y-126946723D01*
X155324991Y-126980864D01*
X155428711Y-127056220D01*
X155594694Y-127140793D01*
X155771863Y-127198359D01*
X155955856Y-127227500D01*
X155955858Y-127227500D01*
X156142142Y-127227500D01*
X156142144Y-127227500D01*
X156326137Y-127198359D01*
X156503306Y-127140793D01*
X156669289Y-127056220D01*
X156819999Y-126946724D01*
X156951724Y-126814999D01*
X156951729Y-126814991D01*
X156953186Y-126813287D01*
X156953909Y-126812814D01*
X156955225Y-126811499D01*
X156955501Y-126811775D01*
X157012635Y-126774476D01*
X157083630Y-126773966D01*
X157143630Y-126811920D01*
X157144814Y-126813287D01*
X157146282Y-126815006D01*
X157277999Y-126946723D01*
X157324991Y-126980864D01*
X157428711Y-127056220D01*
X157594694Y-127140793D01*
X157771863Y-127198359D01*
X157955856Y-127227500D01*
X157955858Y-127227500D01*
X158142142Y-127227500D01*
X158142144Y-127227500D01*
X158326137Y-127198359D01*
X158503306Y-127140793D01*
X158669289Y-127056220D01*
X158819999Y-126946724D01*
X158951724Y-126814999D01*
X158951729Y-126814991D01*
X158953186Y-126813287D01*
X158953909Y-126812814D01*
X158955225Y-126811499D01*
X158955501Y-126811775D01*
X159012635Y-126774476D01*
X159083630Y-126773966D01*
X159143630Y-126811920D01*
X159144814Y-126813287D01*
X159146282Y-126815006D01*
X159277999Y-126946723D01*
X159324991Y-126980864D01*
X159428711Y-127056220D01*
X159594694Y-127140793D01*
X159771863Y-127198359D01*
X159955856Y-127227500D01*
X159955858Y-127227500D01*
X160142142Y-127227500D01*
X160142144Y-127227500D01*
X160326137Y-127198359D01*
X160503306Y-127140793D01*
X160669289Y-127056220D01*
X160819999Y-126946724D01*
X160951724Y-126814999D01*
X160951729Y-126814991D01*
X160953186Y-126813287D01*
X160953909Y-126812814D01*
X160955225Y-126811499D01*
X160955501Y-126811775D01*
X161012635Y-126774476D01*
X161083630Y-126773966D01*
X161143630Y-126811920D01*
X161144814Y-126813287D01*
X161146282Y-126815006D01*
X161277999Y-126946723D01*
X161324991Y-126980864D01*
X161428711Y-127056220D01*
X161594694Y-127140793D01*
X161771863Y-127198359D01*
X161776202Y-127199046D01*
X161840355Y-127229451D01*
X161877888Y-127289716D01*
X161882500Y-127323495D01*
X161882500Y-127400103D01*
X161911803Y-127547413D01*
X161969282Y-127686179D01*
X161969283Y-127686180D01*
X161971651Y-127691897D01*
X161970772Y-127692261D01*
X161984100Y-127745462D01*
X161984100Y-138999056D01*
X161964098Y-139067177D01*
X161947195Y-139088151D01*
X161502351Y-139532995D01*
X161440039Y-139567021D01*
X161413256Y-139569900D01*
X156464733Y-139569900D01*
X156396612Y-139549898D01*
X156350119Y-139496242D01*
X156341154Y-139468482D01*
X156337197Y-139448587D01*
X156279718Y-139309821D01*
X156196272Y-139184935D01*
X156090065Y-139078728D01*
X155965179Y-138995282D01*
X155826413Y-138937803D01*
X155826412Y-138937802D01*
X155824882Y-138937169D01*
X155769601Y-138892621D01*
X155747180Y-138825257D01*
X155747100Y-138820760D01*
X155747100Y-138331534D01*
X155767102Y-138263413D01*
X155820758Y-138216920D01*
X155848516Y-138207955D01*
X155867413Y-138204197D01*
X156006179Y-138146718D01*
X156131065Y-138063272D01*
X156237272Y-137957065D01*
X156320718Y-137832179D01*
X156378197Y-137693413D01*
X156407500Y-137546100D01*
X156407500Y-137395900D01*
X156378197Y-137248587D01*
X156320718Y-137109821D01*
X156237272Y-136984935D01*
X156131065Y-136878728D01*
X156006179Y-136795282D01*
X155867413Y-136737803D01*
X155867410Y-136737802D01*
X155861695Y-136735435D01*
X155862057Y-136734559D01*
X155815014Y-136706360D01*
X155351005Y-136242351D01*
X155316979Y-136180039D01*
X155322044Y-136109224D01*
X155364591Y-136052388D01*
X155431111Y-136027577D01*
X155464685Y-136029678D01*
X155483894Y-136033499D01*
X155483900Y-136033500D01*
X155634100Y-136033500D01*
X155781413Y-136004197D01*
X155920179Y-135946718D01*
X156045065Y-135863272D01*
X156151272Y-135757065D01*
X156234718Y-135632179D01*
X156292197Y-135493413D01*
X156321500Y-135346100D01*
X156321500Y-135195900D01*
X156292197Y-135048587D01*
X156234718Y-134909821D01*
X156234716Y-134909818D01*
X156232349Y-134904103D01*
X156233682Y-134903550D01*
X156220684Y-134841147D01*
X156246083Y-134774849D01*
X156257171Y-134762165D01*
X156294272Y-134725065D01*
X156377718Y-134600179D01*
X156435197Y-134461413D01*
X156464500Y-134314100D01*
X156464500Y-134163900D01*
X156435197Y-134016587D01*
X156377718Y-133877821D01*
X156294272Y-133752935D01*
X156188065Y-133646728D01*
X156063179Y-133563282D01*
X155924414Y-133505803D01*
X155777103Y-133476500D01*
X155777100Y-133476500D01*
X155626900Y-133476500D01*
X155626896Y-133476500D01*
X155479585Y-133505803D01*
X155479584Y-133505804D01*
X155450266Y-133517948D01*
X155340821Y-133563282D01*
X155340819Y-133563283D01*
X155335103Y-133565651D01*
X155334739Y-133564773D01*
X155281537Y-133578100D01*
X154366901Y-133578100D01*
X154239216Y-133603498D01*
X154118950Y-133653315D01*
X154118946Y-133653317D01*
X154010705Y-133725642D01*
X154010698Y-133725647D01*
X153915750Y-133820596D01*
X153853438Y-133854622D01*
X153826655Y-133857501D01*
X134697093Y-133857501D01*
X134628972Y-133837499D01*
X134582479Y-133783843D01*
X134572375Y-133713569D01*
X134601869Y-133648989D01*
X134627091Y-133626736D01*
X134725065Y-133561272D01*
X134831272Y-133455065D01*
X134914718Y-133330179D01*
X134972197Y-133191413D01*
X135001500Y-133044100D01*
X135001500Y-132893900D01*
X134972197Y-132746587D01*
X134914718Y-132607821D01*
X134831272Y-132482935D01*
X134725065Y-132376728D01*
X134600179Y-132293282D01*
X134461414Y-132235803D01*
X134314103Y-132206500D01*
X134314100Y-132206500D01*
X134308081Y-132206500D01*
X134239960Y-132186498D01*
X134218986Y-132169595D01*
X133788828Y-131739437D01*
X133754802Y-131677125D01*
X133759867Y-131606310D01*
X133802414Y-131549474D01*
X133841355Y-131529765D01*
X133846324Y-131528257D01*
X133846335Y-131528255D01*
X133985101Y-131470776D01*
X134109987Y-131387330D01*
X134216194Y-131281123D01*
X134299640Y-131156237D01*
X134357119Y-131017471D01*
X134386422Y-130870158D01*
X134386422Y-130719958D01*
X134357119Y-130572645D01*
X134299640Y-130433879D01*
X134216194Y-130308993D01*
X134109987Y-130202786D01*
X133985101Y-130119340D01*
X133846335Y-130061861D01*
X133846332Y-130061860D01*
X133840617Y-130059493D01*
X133840979Y-130058618D01*
X133793934Y-130030417D01*
X132626404Y-128862887D01*
X132592378Y-128800575D01*
X132589499Y-128773792D01*
X132589499Y-124068779D01*
X132589498Y-124068776D01*
X132588288Y-124062692D01*
X132588287Y-124062691D01*
X132587589Y-124059179D01*
X132564101Y-123941095D01*
X132548059Y-123902366D01*
X132514281Y-123820818D01*
X132441954Y-123712573D01*
X132349898Y-123620517D01*
X132349897Y-123620516D01*
X132346736Y-123617355D01*
X132346721Y-123617341D01*
X125436027Y-116706647D01*
X125436025Y-116706645D01*
X125327780Y-116634318D01*
X125292692Y-116619784D01*
X125207508Y-116584500D01*
X125207503Y-116584498D01*
X125079821Y-116559100D01*
X125079819Y-116559100D01*
X123209986Y-116559100D01*
X123178160Y-116549755D01*
X123146007Y-116541648D01*
X123144284Y-116539808D01*
X123141865Y-116539098D01*
X123120144Y-116514031D01*
X123097478Y-116489827D01*
X123097023Y-116487347D01*
X123095372Y-116485442D01*
X123090651Y-116452609D01*
X123084669Y-116419995D01*
X123085626Y-116417663D01*
X123085268Y-116415168D01*
X123099043Y-116385004D01*
X123111648Y-116354324D01*
X123114070Y-116352102D01*
X123114762Y-116350588D01*
X123137825Y-116329810D01*
X123138886Y-116329068D01*
X123168065Y-116309572D01*
X123171013Y-116306623D01*
X123179335Y-116300810D01*
X123208536Y-116290996D01*
X123236899Y-116278948D01*
X123245954Y-116278421D01*
X123246633Y-116278194D01*
X123247240Y-116278347D01*
X123251496Y-116278100D01*
X142905887Y-116278100D01*
X143033570Y-116252702D01*
X143153847Y-116202882D01*
X143193176Y-116176603D01*
X143262092Y-116130555D01*
X143354148Y-116038499D01*
X143354149Y-116038496D01*
X143361325Y-116031321D01*
X143361331Y-116031313D01*
X144887123Y-114505520D01*
X144887128Y-114505517D01*
X144897497Y-114495147D01*
X144897499Y-114495147D01*
X144989555Y-114403091D01*
X145061882Y-114294846D01*
X145111702Y-114174569D01*
X145111915Y-114173500D01*
X145137100Y-114046886D01*
X145137100Y-113916699D01*
X145137100Y-107703736D01*
X145157102Y-107635615D01*
X145174005Y-107614641D01*
X149397641Y-103391005D01*
X149459953Y-103356979D01*
X149486736Y-103354100D01*
X150866635Y-103354100D01*
X150934756Y-103374102D01*
X150981249Y-103427758D01*
X150991353Y-103498032D01*
X150978902Y-103537303D01*
X150952205Y-103589697D01*
X150894642Y-103766858D01*
X150894641Y-103766861D01*
X150894641Y-103766863D01*
X150865500Y-103950856D01*
X150865500Y-104137144D01*
X150889727Y-104290108D01*
X150894642Y-104321141D01*
X150952205Y-104498302D01*
X150952206Y-104498305D01*
X150952207Y-104498306D01*
X151036780Y-104664289D01*
X151049000Y-104681108D01*
X151146276Y-104815000D01*
X151277999Y-104946723D01*
X151324991Y-104980864D01*
X151428711Y-105056220D01*
X151594694Y-105140793D01*
X151771863Y-105198359D01*
X151955856Y-105227500D01*
X151955858Y-105227500D01*
X152142142Y-105227500D01*
X152142144Y-105227500D01*
X152326137Y-105198359D01*
X152503306Y-105140793D01*
X152669289Y-105056220D01*
X152819999Y-104946724D01*
X152951724Y-104814999D01*
X152951729Y-104814991D01*
X152953186Y-104813287D01*
X152953909Y-104812814D01*
X152955225Y-104811499D01*
X152955501Y-104811775D01*
X153012635Y-104774476D01*
X153083630Y-104773966D01*
X153143630Y-104811920D01*
X153144814Y-104813287D01*
X153146282Y-104815006D01*
X153277999Y-104946723D01*
X153324991Y-104980864D01*
X153428711Y-105056220D01*
X153594694Y-105140793D01*
X153771863Y-105198359D01*
X153955856Y-105227500D01*
X153955858Y-105227500D01*
X154142142Y-105227500D01*
X154142144Y-105227500D01*
X154326137Y-105198359D01*
X154503306Y-105140793D01*
X154669289Y-105056220D01*
X154819999Y-104946724D01*
X154951724Y-104814999D01*
X154951729Y-104814991D01*
X154953186Y-104813287D01*
X154953909Y-104812814D01*
X154955225Y-104811499D01*
X154955501Y-104811775D01*
X155012635Y-104774476D01*
X155083630Y-104773966D01*
X155143630Y-104811920D01*
X155144814Y-104813287D01*
X155146282Y-104815006D01*
X155277999Y-104946723D01*
X155324991Y-104980864D01*
X155428711Y-105056220D01*
X155594694Y-105140793D01*
X155771863Y-105198359D01*
X155955856Y-105227500D01*
X155955858Y-105227500D01*
X156142142Y-105227500D01*
X156142144Y-105227500D01*
X156326137Y-105198359D01*
X156503306Y-105140793D01*
X156669289Y-105056220D01*
X156819999Y-104946724D01*
X156951724Y-104814999D01*
X156951729Y-104814991D01*
X156953186Y-104813287D01*
X156953909Y-104812814D01*
X156955225Y-104811499D01*
X156955501Y-104811775D01*
X157012635Y-104774476D01*
X157083630Y-104773966D01*
X157143630Y-104811920D01*
X157144814Y-104813287D01*
X157146282Y-104815006D01*
X157277999Y-104946723D01*
X157324991Y-104980864D01*
X157428711Y-105056220D01*
X157594694Y-105140793D01*
X157771863Y-105198359D01*
X157955856Y-105227500D01*
X157955858Y-105227500D01*
X158142142Y-105227500D01*
X158142144Y-105227500D01*
X158326137Y-105198359D01*
X158503306Y-105140793D01*
X158669289Y-105056220D01*
X158819999Y-104946724D01*
X158951724Y-104814999D01*
X158951729Y-104814991D01*
X158953186Y-104813287D01*
X158953909Y-104812814D01*
X158955225Y-104811499D01*
X158955501Y-104811775D01*
X159012635Y-104774476D01*
X159083630Y-104773966D01*
X159143630Y-104811920D01*
X159144814Y-104813287D01*
X159146282Y-104815006D01*
X159277999Y-104946723D01*
X159324991Y-104980864D01*
X159428711Y-105056220D01*
X159594694Y-105140793D01*
X159771863Y-105198359D01*
X159955856Y-105227500D01*
X159955858Y-105227500D01*
X160142142Y-105227500D01*
X160142144Y-105227500D01*
X160326137Y-105198359D01*
X160503306Y-105140793D01*
X160669289Y-105056220D01*
X160819999Y-104946724D01*
X160951724Y-104814999D01*
X160951729Y-104814991D01*
X160953186Y-104813287D01*
X160953909Y-104812814D01*
X160955225Y-104811499D01*
X160955501Y-104811775D01*
X161012635Y-104774476D01*
X161083630Y-104773966D01*
X161143630Y-104811920D01*
X161144814Y-104813287D01*
X161146282Y-104815006D01*
X161277999Y-104946723D01*
X161324991Y-104980864D01*
X161428711Y-105056220D01*
X161594694Y-105140793D01*
X161771863Y-105198359D01*
X161955856Y-105227500D01*
X161955858Y-105227500D01*
X162142142Y-105227500D01*
X162142144Y-105227500D01*
X162326137Y-105198359D01*
X162503306Y-105140793D01*
X162669289Y-105056220D01*
X162819999Y-104946724D01*
X162951724Y-104814999D01*
X162951729Y-104814991D01*
X162953186Y-104813287D01*
X162953909Y-104812814D01*
X162955225Y-104811499D01*
X162955501Y-104811775D01*
X163012635Y-104774476D01*
X163083630Y-104773966D01*
X163143630Y-104811920D01*
X163144814Y-104813287D01*
X163146282Y-104815006D01*
X163277999Y-104946723D01*
X163324991Y-104980864D01*
X163428711Y-105056220D01*
X163594694Y-105140793D01*
X163771863Y-105198359D01*
X163955856Y-105227500D01*
X163955858Y-105227500D01*
X164142142Y-105227500D01*
X164142144Y-105227500D01*
X164326137Y-105198359D01*
X164503306Y-105140793D01*
X164669289Y-105056220D01*
X164819999Y-104946724D01*
X164951724Y-104814999D01*
X164951729Y-104814991D01*
X164953186Y-104813287D01*
X164953909Y-104812814D01*
X164955225Y-104811499D01*
X164955501Y-104811775D01*
X165012635Y-104774476D01*
X165083630Y-104773966D01*
X165143630Y-104811920D01*
X165144814Y-104813287D01*
X165146282Y-104815006D01*
X165277999Y-104946723D01*
X165324991Y-104980864D01*
X165428711Y-105056220D01*
X165594694Y-105140793D01*
X165771863Y-105198359D01*
X165955856Y-105227500D01*
X165955858Y-105227500D01*
X166142142Y-105227500D01*
X166142144Y-105227500D01*
X166326137Y-105198359D01*
X166503306Y-105140793D01*
X166669289Y-105056220D01*
X166819999Y-104946724D01*
X166951724Y-104814999D01*
X166951729Y-104814991D01*
X166953186Y-104813287D01*
X166953909Y-104812814D01*
X166955225Y-104811499D01*
X166955501Y-104811775D01*
X167012635Y-104774476D01*
X167083630Y-104773966D01*
X167143630Y-104811920D01*
X167144814Y-104813287D01*
X167146282Y-104815006D01*
X167277999Y-104946723D01*
X167324991Y-104980864D01*
X167428711Y-105056220D01*
X167594694Y-105140793D01*
X167771863Y-105198359D01*
X167955856Y-105227500D01*
X167955858Y-105227500D01*
X168142142Y-105227500D01*
X168142144Y-105227500D01*
X168326137Y-105198359D01*
X168503306Y-105140793D01*
X168669289Y-105056220D01*
X168777740Y-104977425D01*
X168844606Y-104953568D01*
X168913758Y-104969649D01*
X168952667Y-105003853D01*
X169011097Y-105081905D01*
X169128034Y-105169444D01*
X169264906Y-105220494D01*
X169325402Y-105226999D01*
X169325415Y-105227000D01*
X169795000Y-105227000D01*
X169795000Y-104355686D01*
X169803394Y-104364080D01*
X169894606Y-104416741D01*
X169996339Y-104444000D01*
X170101661Y-104444000D01*
X170203394Y-104416741D01*
X170294606Y-104364080D01*
X170303000Y-104355686D01*
X170303000Y-105227000D01*
X170772585Y-105227000D01*
X170772597Y-105226999D01*
X170833093Y-105220494D01*
X170969964Y-105169444D01*
X170969965Y-105169444D01*
X171086904Y-105081904D01*
X171174444Y-104964965D01*
X171174444Y-104964964D01*
X171225494Y-104828093D01*
X171231999Y-104767597D01*
X171232000Y-104767585D01*
X171232000Y-104298000D01*
X170360686Y-104298000D01*
X170369080Y-104289606D01*
X170421741Y-104198394D01*
X170449000Y-104096661D01*
X170449000Y-103991339D01*
X170421741Y-103889606D01*
X170369080Y-103798394D01*
X170360686Y-103790000D01*
X171232000Y-103790000D01*
X171232000Y-103320414D01*
X171231999Y-103320402D01*
X171225494Y-103259906D01*
X171174444Y-103123035D01*
X171174444Y-103123034D01*
X171086904Y-103006095D01*
X170969965Y-102918555D01*
X170833093Y-102867505D01*
X170772597Y-102861000D01*
X170303000Y-102861000D01*
X170303000Y-103732314D01*
X170294606Y-103723920D01*
X170203394Y-103671259D01*
X170101661Y-103644000D01*
X169996339Y-103644000D01*
X169894606Y-103671259D01*
X169803394Y-103723920D01*
X169795000Y-103732314D01*
X169795000Y-102861000D01*
X169325402Y-102861000D01*
X169264906Y-102867505D01*
X169128035Y-102918555D01*
X169128034Y-102918555D01*
X169011094Y-103006096D01*
X168952666Y-103084146D01*
X168946026Y-103089116D01*
X168942155Y-103096453D01*
X168918017Y-103110082D01*
X168895830Y-103126692D01*
X168887556Y-103127283D01*
X168880334Y-103131362D01*
X168852661Y-103129778D01*
X168825014Y-103131756D01*
X168815909Y-103127676D01*
X168809453Y-103127307D01*
X168777735Y-103110570D01*
X168777063Y-103110082D01*
X168770452Y-103105278D01*
X168761836Y-103099018D01*
X168718484Y-103042794D01*
X168709900Y-102997084D01*
X168709900Y-102832909D01*
X168709900Y-102832907D01*
X168707468Y-102820682D01*
X168699982Y-102783044D01*
X168684505Y-102705229D01*
X168684504Y-102705228D01*
X168684503Y-102705227D01*
X168684503Y-102705223D01*
X168634682Y-102584946D01*
X168562355Y-102476701D01*
X167807299Y-101721645D01*
X167699054Y-101649318D01*
X167578782Y-101599500D01*
X167578777Y-101599498D01*
X167485475Y-101580939D01*
X167451095Y-101574100D01*
X167451093Y-101574100D01*
X149036094Y-101574100D01*
X148905907Y-101574100D01*
X148905904Y-101574100D01*
X148778222Y-101599498D01*
X148778217Y-101599500D01*
X148657945Y-101649318D01*
X148549705Y-101721642D01*
X148549698Y-101721647D01*
X143504647Y-106766698D01*
X143504642Y-106766705D01*
X143432318Y-106874945D01*
X143382500Y-106995217D01*
X143382498Y-106995222D01*
X143357100Y-107122904D01*
X143357100Y-113466056D01*
X143337098Y-113534177D01*
X143320195Y-113555151D01*
X142414151Y-114461195D01*
X142351839Y-114495221D01*
X142325056Y-114498100D01*
X122381216Y-114498100D01*
X122253536Y-114523498D01*
X122253533Y-114523499D01*
X122133259Y-114573318D01*
X122025019Y-114645642D01*
X122025012Y-114645647D01*
X121932959Y-114737700D01*
X121932959Y-114737701D01*
X121932957Y-114737703D01*
X121869774Y-114800886D01*
X121822731Y-114829085D01*
X121823094Y-114829960D01*
X121817378Y-114832327D01*
X121817376Y-114832328D01*
X121745307Y-114862179D01*
X121678609Y-114889807D01*
X121553728Y-114973250D01*
X121553721Y-114973255D01*
X121447519Y-115079457D01*
X121447514Y-115079464D01*
X121364072Y-115204344D01*
X121306593Y-115343109D01*
X121306592Y-115343110D01*
X121277289Y-115490421D01*
X121277289Y-115640628D01*
X121303529Y-115772540D01*
X121306592Y-115787938D01*
X121364071Y-115926704D01*
X121447517Y-116051590D01*
X121553724Y-116157797D01*
X121678610Y-116241243D01*
X121817376Y-116298722D01*
X121871666Y-116309521D01*
X121934576Y-116342429D01*
X121969707Y-116404124D01*
X121965906Y-116475019D01*
X121924381Y-116532605D01*
X121858314Y-116558599D01*
X121847084Y-116559100D01*
X118955936Y-116559100D01*
X118887815Y-116539098D01*
X118866841Y-116522195D01*
X118321047Y-115976401D01*
X118287021Y-115914089D01*
X118284142Y-115887306D01*
X118284142Y-115646959D01*
X118283748Y-115642958D01*
X118283142Y-115630611D01*
X118283142Y-113595579D01*
X118283141Y-113595575D01*
X118257744Y-113467894D01*
X118207924Y-113347617D01*
X118135597Y-113239372D01*
X118045847Y-113149622D01*
X118045266Y-113149038D01*
X118037635Y-113141307D01*
X118034997Y-113137358D01*
X117942941Y-113045302D01*
X117942938Y-113045300D01*
X115227884Y-110330245D01*
X115119639Y-110257918D01*
X114999362Y-110208098D01*
X114930001Y-110194301D01*
X114909917Y-110190306D01*
X114847008Y-110157398D01*
X114811877Y-110095702D01*
X114808500Y-110066727D01*
X114808500Y-109983099D01*
X114808499Y-109983096D01*
X114779197Y-109835787D01*
X114721718Y-109697021D01*
X114638272Y-109572135D01*
X114532065Y-109465928D01*
X114407179Y-109382482D01*
X114268414Y-109325003D01*
X114121103Y-109295700D01*
X114121100Y-109295700D01*
X113970900Y-109295700D01*
X113970896Y-109295700D01*
X113823585Y-109325003D01*
X113823584Y-109325004D01*
X113684819Y-109382483D01*
X113559939Y-109465925D01*
X113559932Y-109465930D01*
X113453730Y-109572132D01*
X113453725Y-109572139D01*
X113370282Y-109697021D01*
X113335130Y-109781885D01*
X113290581Y-109837166D01*
X113223218Y-109859587D01*
X113218721Y-109859667D01*
X113089647Y-109859667D01*
X112942336Y-109888970D01*
X112942335Y-109888971D01*
X112803571Y-109946449D01*
X112716813Y-110004419D01*
X112649060Y-110025633D01*
X112580593Y-110006849D01*
X112557717Y-109988748D01*
X109120568Y-106551598D01*
X109120545Y-106551577D01*
X107719183Y-105150214D01*
X107641805Y-105072836D01*
X107638785Y-105067306D01*
X125930500Y-105067306D01*
X125930500Y-105067309D01*
X125930500Y-105244691D01*
X125965106Y-105418666D01*
X126032987Y-105582547D01*
X126078293Y-105650352D01*
X126131535Y-105730034D01*
X126131540Y-105730040D01*
X126256959Y-105855459D01*
X126256965Y-105855464D01*
X126404453Y-105954013D01*
X126568334Y-106021894D01*
X126742309Y-106056500D01*
X126742310Y-106056500D01*
X126919690Y-106056500D01*
X126919691Y-106056500D01*
X127093666Y-106021894D01*
X127257547Y-105954013D01*
X127405035Y-105855464D01*
X127530464Y-105730035D01*
X127629013Y-105582547D01*
X127696894Y-105418666D01*
X127731500Y-105244691D01*
X127731500Y-105079617D01*
X133505500Y-105079617D01*
X133505500Y-105232382D01*
X133507949Y-105244693D01*
X133535302Y-105382205D01*
X133593761Y-105523337D01*
X133633324Y-105582547D01*
X133678629Y-105650351D01*
X133678634Y-105650357D01*
X133786642Y-105758365D01*
X133786648Y-105758370D01*
X133913663Y-105843239D01*
X134054795Y-105901698D01*
X134204620Y-105931500D01*
X134204621Y-105931500D01*
X134357379Y-105931500D01*
X134357380Y-105931500D01*
X134507205Y-105901698D01*
X134648337Y-105843239D01*
X134775352Y-105758370D01*
X134883370Y-105650352D01*
X134968239Y-105523337D01*
X135026698Y-105382205D01*
X135056500Y-105232380D01*
X135056500Y-105079620D01*
X135026698Y-104929795D01*
X134968239Y-104788663D01*
X134883370Y-104661648D01*
X134883365Y-104661642D01*
X134775357Y-104553634D01*
X134775351Y-104553629D01*
X134733205Y-104525468D01*
X134648337Y-104468761D01*
X134510020Y-104411468D01*
X134507210Y-104410304D01*
X134507205Y-104410302D01*
X134357382Y-104380500D01*
X134357380Y-104380500D01*
X134204620Y-104380500D01*
X134204617Y-104380500D01*
X134054794Y-104410302D01*
X134054789Y-104410304D01*
X133913663Y-104468761D01*
X133786648Y-104553629D01*
X133786642Y-104553634D01*
X133678634Y-104661642D01*
X133678629Y-104661648D01*
X133593761Y-104788663D01*
X133535304Y-104929789D01*
X133535302Y-104929794D01*
X133505500Y-105079617D01*
X127731500Y-105079617D01*
X127731500Y-105067309D01*
X127696894Y-104893334D01*
X127629013Y-104729453D01*
X127530464Y-104581965D01*
X127530459Y-104581959D01*
X127405040Y-104456540D01*
X127405034Y-104456535D01*
X127336898Y-104411008D01*
X127257547Y-104357987D01*
X127093666Y-104290106D01*
X127091152Y-104289606D01*
X126919693Y-104255500D01*
X126919691Y-104255500D01*
X126742309Y-104255500D01*
X126742306Y-104255500D01*
X126568333Y-104290106D01*
X126568328Y-104290108D01*
X126404453Y-104357987D01*
X126256965Y-104456535D01*
X126256959Y-104456540D01*
X126131540Y-104581959D01*
X126131535Y-104581965D01*
X126032987Y-104729453D01*
X125965108Y-104893328D01*
X125965106Y-104893333D01*
X125930500Y-105067306D01*
X107638785Y-105067306D01*
X107607779Y-105010524D01*
X107604900Y-104983741D01*
X107604900Y-103498227D01*
X107624902Y-103430106D01*
X107656839Y-103396291D01*
X107660030Y-103393971D01*
X107829004Y-103271206D01*
X107980206Y-103120004D01*
X108105894Y-102947009D01*
X108105902Y-102946992D01*
X108106854Y-102945441D01*
X108107377Y-102944967D01*
X108108804Y-102943004D01*
X108109216Y-102943303D01*
X108159497Y-102897804D01*
X108229537Y-102886189D01*
X108294738Y-102914285D01*
X108319484Y-102942843D01*
X108319624Y-102942742D01*
X108320801Y-102944362D01*
X108321729Y-102945433D01*
X108322535Y-102946749D01*
X108448177Y-103119679D01*
X108599320Y-103270822D01*
X108772249Y-103396463D01*
X108962707Y-103493506D01*
X108962713Y-103493509D01*
X109165998Y-103559560D01*
X109230000Y-103569696D01*
X109230000Y-102665702D01*
X109291007Y-102700925D01*
X109418174Y-102735000D01*
X109549826Y-102735000D01*
X109676993Y-102700925D01*
X109738000Y-102665702D01*
X109738000Y-103569696D01*
X109802001Y-103559560D01*
X110005286Y-103493509D01*
X110005292Y-103493506D01*
X110195750Y-103396463D01*
X110368679Y-103270822D01*
X110519822Y-103119679D01*
X110645463Y-102946750D01*
X110742506Y-102756292D01*
X110742509Y-102756286D01*
X110808559Y-102553004D01*
X110818698Y-102489000D01*
X109914703Y-102489000D01*
X109949925Y-102427993D01*
X109984000Y-102300826D01*
X109984000Y-102169174D01*
X109949925Y-102042007D01*
X109914703Y-101981000D01*
X110818697Y-101981000D01*
X110808559Y-101916995D01*
X110742509Y-101713713D01*
X110742506Y-101713707D01*
X110645463Y-101523249D01*
X110600158Y-101460893D01*
X175323000Y-101460893D01*
X175323000Y-101739106D01*
X175354150Y-102015570D01*
X175375368Y-102108530D01*
X175416057Y-102286802D01*
X175416059Y-102286808D01*
X175416058Y-102286808D01*
X175507937Y-102549382D01*
X175507948Y-102549409D01*
X175628653Y-102800055D01*
X175628658Y-102800064D01*
X175776675Y-103035630D01*
X175776678Y-103035634D01*
X175950129Y-103253137D01*
X176146862Y-103449870D01*
X176359210Y-103619210D01*
X176364373Y-103623327D01*
X176508651Y-103713983D01*
X176592808Y-103766863D01*
X176599940Y-103771344D01*
X176850600Y-103892056D01*
X176850616Y-103892061D01*
X176850617Y-103892062D01*
X177113191Y-103983941D01*
X177113194Y-103983941D01*
X177113198Y-103983943D01*
X177384433Y-104045850D01*
X177580469Y-104067938D01*
X177660893Y-104077000D01*
X177660895Y-104077000D01*
X177939107Y-104077000D01*
X178009318Y-104069088D01*
X178215567Y-104045850D01*
X178486802Y-103983943D01*
X178749400Y-103892056D01*
X179000060Y-103771344D01*
X179235627Y-103623327D01*
X179321649Y-103554727D01*
X179453137Y-103449870D01*
X179649870Y-103253137D01*
X179765794Y-103107771D01*
X179823327Y-103035627D01*
X179971344Y-102800060D01*
X180092056Y-102549400D01*
X180183943Y-102286802D01*
X180245850Y-102015567D01*
X180277000Y-101739105D01*
X180277000Y-101460895D01*
X180245850Y-101184433D01*
X180183943Y-100913198D01*
X180182807Y-100909952D01*
X180092062Y-100650617D01*
X180092061Y-100650616D01*
X180092056Y-100650600D01*
X179971344Y-100399940D01*
X179823327Y-100164373D01*
X179801991Y-100137618D01*
X179649870Y-99946862D01*
X179453137Y-99750129D01*
X179235634Y-99576678D01*
X179235630Y-99576675D01*
X179000064Y-99428658D01*
X179000055Y-99428653D01*
X178749409Y-99307948D01*
X178749404Y-99307946D01*
X178749400Y-99307944D01*
X178749394Y-99307941D01*
X178749382Y-99307937D01*
X178486808Y-99216058D01*
X178215570Y-99154150D01*
X177939107Y-99123000D01*
X177939105Y-99123000D01*
X177660895Y-99123000D01*
X177660893Y-99123000D01*
X177384429Y-99154150D01*
X177113191Y-99216058D01*
X176850617Y-99307937D01*
X176850590Y-99307948D01*
X176599944Y-99428653D01*
X176599935Y-99428658D01*
X176364369Y-99576675D01*
X176364365Y-99576678D01*
X176146862Y-99750129D01*
X175950129Y-99946862D01*
X175776678Y-100164365D01*
X175776675Y-100164369D01*
X175628658Y-100399935D01*
X175628653Y-100399944D01*
X175507948Y-100650590D01*
X175507937Y-100650617D01*
X175416058Y-100913191D01*
X175354150Y-101184429D01*
X175323000Y-101460893D01*
X110600158Y-101460893D01*
X110519822Y-101350320D01*
X110368679Y-101199177D01*
X110195750Y-101073536D01*
X110005292Y-100976493D01*
X110005286Y-100976490D01*
X109802004Y-100910440D01*
X109738000Y-100900302D01*
X109738000Y-101804297D01*
X109676993Y-101769075D01*
X109549826Y-101735000D01*
X109418174Y-101735000D01*
X109291007Y-101769075D01*
X109230000Y-101804297D01*
X109230000Y-100900302D01*
X109165995Y-100910440D01*
X108962713Y-100976490D01*
X108962707Y-100976493D01*
X108772249Y-101073536D01*
X108599320Y-101199177D01*
X108448177Y-101350320D01*
X108322532Y-101523255D01*
X108321724Y-101524574D01*
X108321286Y-101524969D01*
X108319624Y-101527258D01*
X108319143Y-101526908D01*
X108269075Y-101572203D01*
X108199033Y-101583807D01*
X108133836Y-101555702D01*
X108108901Y-101526924D01*
X108108804Y-101526996D01*
X108107975Y-101525855D01*
X108106859Y-101524567D01*
X108105899Y-101523001D01*
X108105894Y-101522991D01*
X107980206Y-101349996D01*
X107980203Y-101349993D01*
X107980201Y-101349990D01*
X107829009Y-101198798D01*
X107829006Y-101198796D01*
X107829004Y-101198794D01*
X107656009Y-101073106D01*
X107465483Y-100976028D01*
X107465480Y-100976027D01*
X107465478Y-100976026D01*
X107262120Y-100909952D01*
X107262123Y-100909952D01*
X107201195Y-100900302D01*
X107050916Y-100876500D01*
X106837084Y-100876500D01*
X106625884Y-100909951D01*
X106625878Y-100909952D01*
X106422521Y-100976026D01*
X106422515Y-100976029D01*
X106231987Y-101073108D01*
X106058993Y-101198796D01*
X106058990Y-101198798D01*
X105907798Y-101349990D01*
X105907796Y-101349993D01*
X105782108Y-101522987D01*
X105781434Y-101524088D01*
X105781068Y-101524418D01*
X105779196Y-101526996D01*
X105778654Y-101526602D01*
X105728787Y-101571721D01*
X105658745Y-101583328D01*
X105593547Y-101555226D01*
X105568976Y-101526870D01*
X105568804Y-101526996D01*
X105567341Y-101524982D01*
X105566566Y-101524088D01*
X105565896Y-101522996D01*
X105565894Y-101522991D01*
X105440206Y-101349996D01*
X105440203Y-101349993D01*
X105440201Y-101349990D01*
X105289009Y-101198798D01*
X105289006Y-101198796D01*
X105289004Y-101198794D01*
X105116009Y-101073106D01*
X104925483Y-100976028D01*
X104925480Y-100976027D01*
X104925478Y-100976026D01*
X104722120Y-100909952D01*
X104722123Y-100909952D01*
X104661195Y-100900302D01*
X104510916Y-100876500D01*
X104297084Y-100876500D01*
X104085884Y-100909951D01*
X104085878Y-100909952D01*
X103882521Y-100976026D01*
X103882515Y-100976029D01*
X103691987Y-101073108D01*
X103518995Y-101198794D01*
X103416018Y-101301771D01*
X103353706Y-101335796D01*
X103282890Y-101330730D01*
X103226054Y-101288184D01*
X103208871Y-101256715D01*
X103164889Y-101138796D01*
X103164886Y-101138792D01*
X103164886Y-101138791D01*
X103077261Y-101021738D01*
X102960207Y-100934112D01*
X102960202Y-100934110D01*
X102823204Y-100883011D01*
X102823196Y-100883009D01*
X102762649Y-100876500D01*
X102762638Y-100876500D01*
X100965362Y-100876500D01*
X100965350Y-100876500D01*
X100904803Y-100883009D01*
X100904795Y-100883011D01*
X100767797Y-100934110D01*
X100767792Y-100934112D01*
X100650738Y-101021738D01*
X100563112Y-101138792D01*
X100563110Y-101138797D01*
X100512011Y-101275795D01*
X100512009Y-101275803D01*
X100505500Y-101336350D01*
X100505500Y-103133649D01*
X100512009Y-103194196D01*
X100512011Y-103194204D01*
X100563110Y-103331202D01*
X100563112Y-103331207D01*
X100650738Y-103448261D01*
X100767792Y-103535887D01*
X100767794Y-103535888D01*
X100767796Y-103535889D01*
X100808184Y-103550953D01*
X100904795Y-103586988D01*
X100904803Y-103586990D01*
X100965350Y-103593499D01*
X100965355Y-103593499D01*
X100965362Y-103593500D01*
X100965368Y-103593500D01*
X102762632Y-103593500D01*
X102762638Y-103593500D01*
X102762645Y-103593499D01*
X102762649Y-103593499D01*
X102823196Y-103586990D01*
X102823199Y-103586989D01*
X102823201Y-103586989D01*
X102960204Y-103535889D01*
X103010515Y-103498227D01*
X103077261Y-103448261D01*
X103164887Y-103331207D01*
X103164887Y-103331206D01*
X103164889Y-103331204D01*
X103208869Y-103213288D01*
X103251414Y-103156456D01*
X103317934Y-103131645D01*
X103387308Y-103146736D01*
X103416018Y-103168229D01*
X103518990Y-103271201D01*
X103518993Y-103271203D01*
X103518996Y-103271206D01*
X103620187Y-103344726D01*
X103692293Y-103397114D01*
X103735647Y-103453336D01*
X103740949Y-103475471D01*
X103741892Y-103475284D01*
X103768498Y-103609040D01*
X103768500Y-103609045D01*
X103774413Y-103623321D01*
X103818318Y-103729317D01*
X103890645Y-103837562D01*
X112961438Y-112908355D01*
X113069683Y-112980682D01*
X113189960Y-113030503D01*
X113241804Y-113040814D01*
X113287227Y-113059630D01*
X113303817Y-113070716D01*
X113303819Y-113070717D01*
X113303821Y-113070718D01*
X113442587Y-113128197D01*
X113589900Y-113157500D01*
X113740100Y-113157500D01*
X113887413Y-113128197D01*
X114026179Y-113070718D01*
X114151065Y-112987272D01*
X114257272Y-112881065D01*
X114314625Y-112795228D01*
X114369098Y-112749704D01*
X114439541Y-112740855D01*
X114503586Y-112771495D01*
X114508483Y-112776137D01*
X115179239Y-113446892D01*
X115179244Y-113446898D01*
X115907437Y-114175090D01*
X115941462Y-114237403D01*
X115944342Y-114264186D01*
X115944342Y-115713256D01*
X115931015Y-115766458D01*
X115931893Y-115766822D01*
X115929525Y-115772538D01*
X115929524Y-115772540D01*
X115923145Y-115787940D01*
X115872046Y-115911303D01*
X115872045Y-115911304D01*
X115842742Y-116058615D01*
X115842742Y-116208822D01*
X115866454Y-116328025D01*
X115872045Y-116356132D01*
X115929524Y-116494898D01*
X116012970Y-116619784D01*
X116119177Y-116725991D01*
X116244063Y-116809437D01*
X116382829Y-116866916D01*
X116530142Y-116896219D01*
X116671375Y-116896219D01*
X116739496Y-116916221D01*
X116760470Y-116933124D01*
X117874648Y-118047302D01*
X117908674Y-118109614D01*
X117903609Y-118180429D01*
X117861062Y-118237265D01*
X117794542Y-118262076D01*
X117785553Y-118262397D01*
X112842942Y-118262397D01*
X112789739Y-118249070D01*
X112789376Y-118249948D01*
X112783659Y-118247580D01*
X112783658Y-118247579D01*
X112644893Y-118190100D01*
X112497582Y-118160797D01*
X112497579Y-118160797D01*
X112347379Y-118160797D01*
X112347375Y-118160797D01*
X112200064Y-118190100D01*
X112200063Y-118190101D01*
X112061298Y-118247580D01*
X111936418Y-118331022D01*
X111936411Y-118331027D01*
X111830209Y-118437229D01*
X111830204Y-118437236D01*
X111808936Y-118469067D01*
X111746761Y-118562118D01*
X111741312Y-118575274D01*
X111689283Y-118700881D01*
X111689282Y-118700882D01*
X111659979Y-118848193D01*
X111659979Y-118998400D01*
X111675038Y-119074103D01*
X111689282Y-119145710D01*
X111746761Y-119284476D01*
X111830207Y-119409362D01*
X111936414Y-119515569D01*
X112061300Y-119599015D01*
X112200066Y-119656494D01*
X112210222Y-119658514D01*
X112273132Y-119691420D01*
X112302050Y-119733872D01*
X112347367Y-119843276D01*
X112430813Y-119968162D01*
X112537020Y-120074369D01*
X112661906Y-120157815D01*
X112774949Y-120204639D01*
X112783732Y-120208277D01*
X112839013Y-120252825D01*
X112851923Y-120276468D01*
X112862280Y-120301473D01*
X112862281Y-120301474D01*
X112862282Y-120301476D01*
X112945728Y-120426362D01*
X113051935Y-120532569D01*
X113176821Y-120616015D01*
X113315587Y-120673494D01*
X113462900Y-120702797D01*
X113613100Y-120702797D01*
X113760413Y-120673494D01*
X113899179Y-120616015D01*
X114024065Y-120532569D01*
X114024075Y-120532558D01*
X114028169Y-120529200D01*
X114093515Y-120501445D01*
X114108106Y-120500597D01*
X120360084Y-120500597D01*
X120428205Y-120520599D01*
X120449178Y-120537501D01*
X122254974Y-122343298D01*
X122254975Y-122343299D01*
X122347031Y-122435355D01*
X122455276Y-122507682D01*
X122538371Y-122542101D01*
X122538373Y-122542102D01*
X122575544Y-122557499D01*
X122575547Y-122557500D01*
X122575552Y-122557502D01*
X122703236Y-122582900D01*
X122703237Y-122582900D01*
X126800228Y-122582900D01*
X126868349Y-122602902D01*
X126889323Y-122619805D01*
X129035004Y-124765485D01*
X129069029Y-124827797D01*
X129071302Y-124842231D01*
X129071822Y-124847518D01*
X129101127Y-124994836D01*
X129158606Y-125133602D01*
X129242052Y-125258488D01*
X129348259Y-125364695D01*
X129473145Y-125448141D01*
X129611911Y-125505620D01*
X129759224Y-125534923D01*
X129764666Y-125534923D01*
X129832787Y-125554925D01*
X129857507Y-125576930D01*
X129857750Y-125576688D01*
X129861923Y-125580861D01*
X129862060Y-125580983D01*
X129862126Y-125581063D01*
X129862127Y-125581065D01*
X129968334Y-125687272D01*
X130093220Y-125770718D01*
X130231986Y-125828197D01*
X130250880Y-125831955D01*
X130313790Y-125864862D01*
X130348922Y-125926557D01*
X130352299Y-125955534D01*
X130352299Y-129833369D01*
X130352299Y-129963555D01*
X130377697Y-130091239D01*
X130427517Y-130211516D01*
X130499844Y-130319761D01*
X133570382Y-133390299D01*
X133662438Y-133482355D01*
X133687026Y-133498784D01*
X133694557Y-133504229D01*
X133700645Y-133508982D01*
X133752935Y-133561272D01*
X133854775Y-133629319D01*
X133858447Y-133632186D01*
X133876534Y-133657399D01*
X133896437Y-133681213D01*
X133897035Y-133685974D01*
X133899832Y-133689873D01*
X133901417Y-133720863D01*
X133905285Y-133751656D01*
X133903213Y-133755984D01*
X133903459Y-133760777D01*
X133888039Y-133787701D01*
X133874644Y-133815700D01*
X133870560Y-133818222D01*
X133868176Y-133822386D01*
X133840642Y-133836702D01*
X133814242Y-133853011D01*
X133807545Y-133853912D01*
X133805186Y-133855140D01*
X133801174Y-133854771D01*
X133780907Y-133857501D01*
X115823108Y-133857501D01*
X115754987Y-133837499D01*
X115734013Y-133820596D01*
X115639064Y-133725647D01*
X115639062Y-133725645D01*
X115530817Y-133653318D01*
X115510055Y-133644718D01*
X115410545Y-133603500D01*
X115410540Y-133603498D01*
X115282858Y-133578100D01*
X115282856Y-133578100D01*
X112148736Y-133578100D01*
X112080615Y-133558098D01*
X112034122Y-133504442D01*
X112024018Y-133434168D01*
X112053512Y-133369588D01*
X112059628Y-133363017D01*
X113013318Y-132409326D01*
X113013325Y-132409321D01*
X113020496Y-132402149D01*
X113020499Y-132402148D01*
X113112555Y-132310092D01*
X113184882Y-132201847D01*
X113234702Y-132081570D01*
X113235678Y-132076659D01*
X113237163Y-132069200D01*
X113237163Y-132069197D01*
X113260099Y-131953890D01*
X113260100Y-131953887D01*
X113260100Y-125129414D01*
X113280102Y-125061293D01*
X113281338Y-125059408D01*
X113282470Y-125057712D01*
X113284982Y-125053954D01*
X113334802Y-124933677D01*
X113360200Y-124805993D01*
X113360200Y-124675806D01*
X113360200Y-124322162D01*
X113373527Y-124268961D01*
X113372649Y-124268597D01*
X113375016Y-124262881D01*
X113375018Y-124262879D01*
X113432497Y-124124113D01*
X113461800Y-123976800D01*
X113461800Y-123826600D01*
X113432497Y-123679287D01*
X113375018Y-123540521D01*
X113291572Y-123415635D01*
X113185365Y-123309428D01*
X113060479Y-123225982D01*
X112921714Y-123168503D01*
X112774403Y-123139200D01*
X112774400Y-123139200D01*
X112624200Y-123139200D01*
X112624196Y-123139200D01*
X112476885Y-123168503D01*
X112476884Y-123168504D01*
X112395595Y-123202175D01*
X112364137Y-123215206D01*
X112338119Y-123225983D01*
X112213239Y-123309425D01*
X112213232Y-123309430D01*
X112107030Y-123415632D01*
X112107025Y-123415639D01*
X112023581Y-123540521D01*
X112023579Y-123540525D01*
X111972157Y-123664668D01*
X111927609Y-123719949D01*
X111903968Y-123732857D01*
X111779825Y-123784279D01*
X111779821Y-123784281D01*
X111654939Y-123867725D01*
X111654932Y-123867730D01*
X111548730Y-123973932D01*
X111548725Y-123973939D01*
X111465283Y-124098819D01*
X111407804Y-124237584D01*
X111407803Y-124237585D01*
X111378500Y-124384896D01*
X111378500Y-124535103D01*
X111407803Y-124682413D01*
X111465282Y-124821179D01*
X111465283Y-124821180D01*
X111467651Y-124826897D01*
X111466772Y-124827261D01*
X111480100Y-124880462D01*
X111480100Y-131373056D01*
X111460098Y-131441177D01*
X111443195Y-131462151D01*
X109909372Y-132995973D01*
X109909371Y-132995975D01*
X109909370Y-132995976D01*
X109869710Y-133035636D01*
X109814561Y-133090784D01*
X109814529Y-133090818D01*
X109738399Y-133166949D01*
X109738398Y-133166950D01*
X109738397Y-133166952D01*
X109716119Y-133200294D01*
X109654952Y-133291836D01*
X109597473Y-133430601D01*
X109597472Y-133430602D01*
X109568169Y-133577913D01*
X109568169Y-133728120D01*
X109597472Y-133875430D01*
X109654951Y-134014196D01*
X109738397Y-134139082D01*
X109844604Y-134245289D01*
X109969490Y-134328735D01*
X110108256Y-134386214D01*
X110108980Y-134386358D01*
X110109030Y-134386368D01*
X110109396Y-134386559D01*
X110114175Y-134388009D01*
X110113900Y-134388915D01*
X110137612Y-134401318D01*
X110166963Y-134414723D01*
X110168848Y-134417656D01*
X110171940Y-134419274D01*
X110187906Y-134447311D01*
X110205347Y-134474449D01*
X110206017Y-134479115D01*
X110207073Y-134480968D01*
X110210451Y-134509947D01*
X110210451Y-134707184D01*
X110197124Y-134760386D01*
X110198002Y-134760750D01*
X110195634Y-134766466D01*
X110195633Y-134766468D01*
X110168790Y-134831272D01*
X110138155Y-134905231D01*
X110138154Y-134905232D01*
X110108851Y-135052543D01*
X110108851Y-135202750D01*
X110126947Y-135293721D01*
X110138154Y-135350060D01*
X110195633Y-135488826D01*
X110279079Y-135613712D01*
X110279081Y-135613714D01*
X110314372Y-135649005D01*
X110348398Y-135711317D01*
X110343333Y-135782132D01*
X110300786Y-135838968D01*
X110234266Y-135863779D01*
X110225277Y-135864100D01*
X105670943Y-135864100D01*
X105602822Y-135844098D01*
X105581848Y-135827195D01*
X102342805Y-132588151D01*
X102308779Y-132525839D01*
X102305900Y-132499056D01*
X102305900Y-125968909D01*
X102305899Y-125968904D01*
X102303038Y-125954521D01*
X102280502Y-125841223D01*
X102275106Y-125828197D01*
X102230682Y-125720946D01*
X102158355Y-125612701D01*
X102066299Y-125520645D01*
X102066298Y-125520644D01*
X102061898Y-125516244D01*
X102061887Y-125516234D01*
X99150562Y-122604908D01*
X99116536Y-122542596D01*
X99115208Y-122496110D01*
X99148500Y-122285916D01*
X99148500Y-122072084D01*
X99115208Y-121861891D01*
X99124307Y-121791485D01*
X99150559Y-121753093D01*
X102095849Y-118807805D01*
X102158161Y-118773779D01*
X102184944Y-118770900D01*
X107402537Y-118770900D01*
X107411217Y-118772650D01*
X107416676Y-118771696D01*
X107435456Y-118777539D01*
X107451377Y-118780751D01*
X107459497Y-118784165D01*
X107461821Y-118785718D01*
X107553483Y-118823685D01*
X107553971Y-118823891D01*
X107581224Y-118846094D01*
X107608631Y-118868180D01*
X107608741Y-118868513D01*
X107609013Y-118868734D01*
X107619931Y-118902133D01*
X107631051Y-118935544D01*
X107630964Y-118935883D01*
X107631073Y-118936216D01*
X107622200Y-118970218D01*
X107613492Y-119004335D01*
X107613199Y-119004711D01*
X107613147Y-119004913D01*
X107612781Y-119005249D01*
X107594227Y-119029135D01*
X106739301Y-119884061D01*
X106647247Y-119976114D01*
X106647242Y-119976121D01*
X106574918Y-120084361D01*
X106525100Y-120204633D01*
X106525098Y-120204638D01*
X106499700Y-120332320D01*
X106499700Y-122637454D01*
X106490916Y-122667369D01*
X106484288Y-122697839D01*
X106480473Y-122702934D01*
X106479698Y-122705575D01*
X106462796Y-122726549D01*
X106402796Y-122786548D01*
X106334895Y-122854450D01*
X106317172Y-122872174D01*
X106242837Y-122946509D01*
X106242836Y-122946511D01*
X106170512Y-123054751D01*
X106123395Y-123168504D01*
X106120692Y-123175029D01*
X106113396Y-123211710D01*
X106096803Y-123295122D01*
X106082093Y-123330669D01*
X106083393Y-123331364D01*
X106080477Y-123336817D01*
X106022998Y-123475584D01*
X106022997Y-123475585D01*
X105993694Y-123622896D01*
X105993694Y-123773103D01*
X106004336Y-123826600D01*
X106022997Y-123920413D01*
X106080476Y-124059179D01*
X106163922Y-124184065D01*
X106270129Y-124290272D01*
X106395015Y-124373718D01*
X106533781Y-124431197D01*
X106681094Y-124460500D01*
X106831294Y-124460500D01*
X106978607Y-124431197D01*
X107038176Y-124406521D01*
X107108765Y-124398932D01*
X107134604Y-124406518D01*
X107194184Y-124431197D01*
X107341497Y-124460500D01*
X107491697Y-124460500D01*
X107639010Y-124431197D01*
X107698579Y-124406521D01*
X107769168Y-124398932D01*
X107795007Y-124406518D01*
X107854587Y-124431197D01*
X108001900Y-124460500D01*
X108152100Y-124460500D01*
X108299413Y-124431197D01*
X108438179Y-124373718D01*
X108563065Y-124290272D01*
X108669272Y-124184065D01*
X108752718Y-124059179D01*
X108810197Y-123920413D01*
X108839500Y-123773100D01*
X108839500Y-123622900D01*
X108810197Y-123475587D01*
X108752718Y-123336821D01*
X108752716Y-123336818D01*
X108750349Y-123331103D01*
X108751226Y-123330739D01*
X108737900Y-123277537D01*
X108737900Y-121102942D01*
X108757902Y-121034821D01*
X108774800Y-121013852D01*
X110060731Y-119727920D01*
X110060736Y-119727917D01*
X110071105Y-119717547D01*
X110071107Y-119717547D01*
X110163163Y-119625491D01*
X110235490Y-119517246D01*
X110285310Y-119396969D01*
X110297543Y-119335468D01*
X110310708Y-119269286D01*
X110310708Y-119139099D01*
X110310708Y-118885560D01*
X110312612Y-118876316D01*
X110311625Y-118870384D01*
X110317981Y-118850249D01*
X110320967Y-118835759D01*
X110324181Y-118828287D01*
X110325526Y-118826276D01*
X110337863Y-118796489D01*
X110338179Y-118795757D01*
X110360330Y-118769022D01*
X110382058Y-118742060D01*
X110383006Y-118741657D01*
X110383477Y-118741089D01*
X110386921Y-118739994D01*
X110429337Y-118721980D01*
X110458413Y-118716197D01*
X110597179Y-118658718D01*
X110722065Y-118575272D01*
X110828272Y-118469065D01*
X110911718Y-118344179D01*
X110969197Y-118205413D01*
X110998500Y-118058100D01*
X110998500Y-117907900D01*
X110969197Y-117760587D01*
X110911718Y-117621821D01*
X110828272Y-117496935D01*
X110722065Y-117390728D01*
X110597179Y-117307282D01*
X110458413Y-117249803D01*
X110458410Y-117249802D01*
X110452695Y-117247435D01*
X110453057Y-117246559D01*
X110406014Y-117218360D01*
X110224501Y-117036847D01*
X110224499Y-117036845D01*
X110116254Y-116964518D01*
X109995979Y-116914699D01*
X109995977Y-116914698D01*
X109868295Y-116889300D01*
X109868293Y-116889300D01*
X108926216Y-116889300D01*
X108796029Y-116889300D01*
X108796025Y-116889300D01*
X108668345Y-116914698D01*
X108668342Y-116914699D01*
X108548068Y-116964518D01*
X108439828Y-117036842D01*
X108439821Y-117036847D01*
X108347768Y-117128901D01*
X108347765Y-117128902D01*
X108347766Y-117128903D01*
X108138452Y-117338215D01*
X108076140Y-117372240D01*
X108024776Y-117372697D01*
X107984905Y-117364767D01*
X107898103Y-117347500D01*
X107898100Y-117347500D01*
X107747900Y-117347500D01*
X107747896Y-117347500D01*
X107600585Y-117376803D01*
X107600584Y-117376804D01*
X107566976Y-117390725D01*
X107461821Y-117434282D01*
X107461819Y-117434283D01*
X107456103Y-117436651D01*
X107455739Y-117435773D01*
X107402537Y-117449100D01*
X101793904Y-117449100D01*
X101666222Y-117474498D01*
X101666217Y-117474500D01*
X101545945Y-117524318D01*
X101437705Y-117596642D01*
X101437698Y-117596647D01*
X98215907Y-120818437D01*
X98153595Y-120852463D01*
X98107105Y-120853790D01*
X97896916Y-120820500D01*
X97683084Y-120820500D01*
X97471884Y-120853951D01*
X97471878Y-120853952D01*
X97268521Y-120920026D01*
X97268515Y-120920029D01*
X97084703Y-121013686D01*
X97014926Y-121026790D01*
X96949141Y-121000090D01*
X96908235Y-120942062D01*
X96901500Y-120901419D01*
X96901500Y-113462899D01*
X96901499Y-113462896D01*
X96898317Y-113446898D01*
X96872197Y-113315587D01*
X96814718Y-113176821D01*
X96731272Y-113051935D01*
X96625065Y-112945728D01*
X96500179Y-112862282D01*
X96361414Y-112804803D01*
X96214103Y-112775500D01*
X96214100Y-112775500D01*
X96063900Y-112775500D01*
X96063896Y-112775500D01*
X95916585Y-112804803D01*
X95916584Y-112804804D01*
X95777819Y-112862283D01*
X95652939Y-112945725D01*
X95652932Y-112945730D01*
X95546730Y-113051932D01*
X95546725Y-113051939D01*
X95463283Y-113176819D01*
X95405804Y-113315584D01*
X95405803Y-113315585D01*
X95376500Y-113462896D01*
X95376500Y-130500500D01*
X95356498Y-130568621D01*
X95302842Y-130615114D01*
X95250500Y-130626500D01*
X94439356Y-130626500D01*
X94335496Y-130637111D01*
X94167204Y-130692877D01*
X94016310Y-130785949D01*
X94016304Y-130785954D01*
X93890954Y-130911304D01*
X93890949Y-130911310D01*
X93797877Y-131062204D01*
X93742111Y-131230496D01*
X93731500Y-131334355D01*
X93731500Y-133035644D01*
X93731499Y-133035644D01*
X92562383Y-133035644D01*
X92586949Y-133001832D01*
X92698318Y-132783256D01*
X92774124Y-132549950D01*
X92812500Y-132307657D01*
X92812500Y-132062343D01*
X92774124Y-131820050D01*
X92698318Y-131586744D01*
X92586949Y-131368168D01*
X92442757Y-131169706D01*
X92442755Y-131169703D01*
X92269296Y-130996244D01*
X92070832Y-130852051D01*
X91852263Y-130740685D01*
X91852258Y-130740683D01*
X91852256Y-130740682D01*
X91774487Y-130715413D01*
X91618952Y-130664876D01*
X91522032Y-130649525D01*
X91376657Y-130626500D01*
X91131343Y-130626500D01*
X91010196Y-130645688D01*
X90889047Y-130664876D01*
X90655744Y-130740682D01*
X90655736Y-130740685D01*
X90437167Y-130852051D01*
X90238703Y-130996244D01*
X90065244Y-131169703D01*
X89921051Y-131368167D01*
X89809685Y-131586736D01*
X89809682Y-131586744D01*
X89733876Y-131820047D01*
X89714688Y-131941196D01*
X89695500Y-132062343D01*
X88974500Y-132062343D01*
X88974500Y-131334355D01*
X88963888Y-131230496D01*
X88963888Y-131230494D01*
X88908123Y-131062204D01*
X88815051Y-130911311D01*
X88815050Y-130911310D01*
X88815045Y-130911304D01*
X88689695Y-130785954D01*
X88689689Y-130785949D01*
X88538796Y-130692877D01*
X88370506Y-130637112D01*
X88370503Y-130637111D01*
X88266644Y-130626500D01*
X88266636Y-130626500D01*
X86565364Y-130626500D01*
X86565356Y-130626500D01*
X86461496Y-130637111D01*
X86293204Y-130692877D01*
X86142310Y-130785949D01*
X86142304Y-130785954D01*
X86016954Y-130911304D01*
X86016949Y-130911310D01*
X85923877Y-131062204D01*
X85868111Y-131230496D01*
X85857500Y-131334355D01*
X85857500Y-133035644D01*
X85857499Y-133035644D01*
X84688383Y-133035644D01*
X84712949Y-133001832D01*
X84824318Y-132783256D01*
X84900124Y-132549950D01*
X84938500Y-132307657D01*
X84938500Y-132062343D01*
X84900124Y-131820050D01*
X84824318Y-131586744D01*
X84712949Y-131368168D01*
X84568757Y-131169706D01*
X84568755Y-131169703D01*
X84395296Y-130996244D01*
X84196832Y-130852051D01*
X83978263Y-130740685D01*
X83978258Y-130740683D01*
X83978256Y-130740682D01*
X83900487Y-130715413D01*
X83744952Y-130664876D01*
X83648032Y-130649525D01*
X83502657Y-130626500D01*
X83257343Y-130626500D01*
X83136196Y-130645688D01*
X83015047Y-130664876D01*
X82781744Y-130740682D01*
X82781736Y-130740685D01*
X82563167Y-130852051D01*
X82364703Y-130996244D01*
X82191244Y-131169703D01*
X82047051Y-131368167D01*
X81935685Y-131586736D01*
X81935682Y-131586744D01*
X81859876Y-131820047D01*
X81840688Y-131941196D01*
X81821500Y-132062343D01*
X72136500Y-132062343D01*
X72136500Y-101602920D01*
X72136634Y-101597101D01*
X72142932Y-101460893D01*
X73723000Y-101460893D01*
X73723000Y-101739106D01*
X73754150Y-102015570D01*
X73775368Y-102108530D01*
X73816057Y-102286802D01*
X73816059Y-102286808D01*
X73816058Y-102286808D01*
X73907937Y-102549382D01*
X73907948Y-102549409D01*
X74028653Y-102800055D01*
X74028658Y-102800064D01*
X74176675Y-103035630D01*
X74176678Y-103035634D01*
X74350129Y-103253137D01*
X74546862Y-103449870D01*
X74759210Y-103619210D01*
X74764373Y-103623327D01*
X74908651Y-103713983D01*
X74992808Y-103766863D01*
X74999940Y-103771344D01*
X75250600Y-103892056D01*
X75250616Y-103892061D01*
X75250617Y-103892062D01*
X75513191Y-103983941D01*
X75513194Y-103983941D01*
X75513198Y-103983943D01*
X75784433Y-104045850D01*
X75980469Y-104067938D01*
X76060893Y-104077000D01*
X76060895Y-104077000D01*
X76339107Y-104077000D01*
X76409318Y-104069088D01*
X76615567Y-104045850D01*
X76886802Y-103983943D01*
X77149400Y-103892056D01*
X77400060Y-103771344D01*
X77635627Y-103623327D01*
X77721649Y-103554727D01*
X77853137Y-103449870D01*
X78049870Y-103253137D01*
X78165794Y-103107771D01*
X78223327Y-103035627D01*
X78371344Y-102800060D01*
X78492056Y-102549400D01*
X78513191Y-102489000D01*
X78517268Y-102477350D01*
X87784500Y-102477350D01*
X87784500Y-104042649D01*
X87791009Y-104103196D01*
X87791011Y-104103204D01*
X87842110Y-104240202D01*
X87842112Y-104240207D01*
X87929738Y-104357261D01*
X88046792Y-104444887D01*
X88046794Y-104444888D01*
X88046796Y-104444889D01*
X88105875Y-104466924D01*
X88183795Y-104495988D01*
X88183803Y-104495990D01*
X88244350Y-104502499D01*
X88244355Y-104502499D01*
X88244362Y-104502500D01*
X88244368Y-104502500D01*
X89809632Y-104502500D01*
X89809638Y-104502500D01*
X89809645Y-104502499D01*
X89809649Y-104502499D01*
X89870196Y-104495990D01*
X89870199Y-104495989D01*
X89870201Y-104495989D01*
X90007204Y-104444889D01*
X90051847Y-104411470D01*
X90124261Y-104357261D01*
X90211887Y-104240207D01*
X90211887Y-104240206D01*
X90211889Y-104240204D01*
X90262989Y-104103201D01*
X90263693Y-104096661D01*
X90269499Y-104042649D01*
X90269500Y-104042632D01*
X90269500Y-103974784D01*
X90289502Y-103906663D01*
X90343158Y-103860170D01*
X90413432Y-103850066D01*
X90478012Y-103879560D01*
X90502936Y-103908954D01*
X90504323Y-103911218D01*
X90549896Y-103973944D01*
X90619274Y-104069434D01*
X90619276Y-104069436D01*
X90619278Y-104069439D01*
X90757560Y-104207721D01*
X90757563Y-104207723D01*
X90757566Y-104207726D01*
X90915788Y-104322681D01*
X91090046Y-104411470D01*
X91276047Y-104471905D01*
X91469213Y-104502500D01*
X91469216Y-104502500D01*
X91664784Y-104502500D01*
X91664787Y-104502500D01*
X91857953Y-104471905D01*
X92043954Y-104411470D01*
X92218212Y-104322681D01*
X92376434Y-104207726D01*
X92385766Y-104198394D01*
X92420946Y-104163215D01*
X92514721Y-104069439D01*
X92514726Y-104069434D01*
X92629681Y-103911212D01*
X92718470Y-103736954D01*
X92718475Y-103736936D01*
X92720363Y-103732382D01*
X92722228Y-103733154D01*
X92757464Y-103681580D01*
X92822850Y-103653918D01*
X92892811Y-103665997D01*
X92945136Y-103713983D01*
X92953561Y-103732414D01*
X92954100Y-103732191D01*
X92955994Y-103736764D01*
X93044745Y-103910948D01*
X93044746Y-103910949D01*
X93066667Y-103941121D01*
X93639171Y-103368617D01*
X93659711Y-103445273D01*
X93722904Y-103554727D01*
X93812273Y-103644096D01*
X93921727Y-103707289D01*
X93998381Y-103727828D01*
X93425877Y-104300331D01*
X93456050Y-104322253D01*
X93630235Y-104411005D01*
X93630241Y-104411008D01*
X93816160Y-104471416D01*
X93816156Y-104471416D01*
X94009255Y-104502000D01*
X94204745Y-104502000D01*
X94397841Y-104471416D01*
X94583758Y-104411008D01*
X94583764Y-104411005D01*
X94757951Y-104322252D01*
X94757953Y-104322251D01*
X94788121Y-104300332D01*
X94788122Y-104300331D01*
X94215619Y-103727828D01*
X94292273Y-103707289D01*
X94401727Y-103644096D01*
X94491096Y-103554727D01*
X94554289Y-103445273D01*
X94574828Y-103368619D01*
X95147331Y-103941122D01*
X95147332Y-103941121D01*
X95169251Y-103910953D01*
X95169252Y-103910951D01*
X95258005Y-103736764D01*
X95258008Y-103736758D01*
X95318416Y-103550841D01*
X95349000Y-103357744D01*
X95349000Y-103162255D01*
X95318416Y-102969158D01*
X95258008Y-102783241D01*
X95258005Y-102783235D01*
X95169253Y-102609050D01*
X95147331Y-102578877D01*
X94574828Y-103151380D01*
X94554289Y-103074727D01*
X94491096Y-102965273D01*
X94401727Y-102875904D01*
X94292273Y-102812711D01*
X94215618Y-102792171D01*
X94788121Y-102219667D01*
X94757949Y-102197746D01*
X94757948Y-102197745D01*
X94583764Y-102108994D01*
X94583758Y-102108991D01*
X94397839Y-102048583D01*
X94397843Y-102048583D01*
X94204745Y-102018000D01*
X94009255Y-102018000D01*
X93816158Y-102048583D01*
X93630241Y-102108991D01*
X93630235Y-102108994D01*
X93456053Y-102197744D01*
X93425876Y-102219667D01*
X93998380Y-102792171D01*
X93921727Y-102812711D01*
X93812273Y-102875904D01*
X93722904Y-102965273D01*
X93659711Y-103074727D01*
X93639171Y-103151380D01*
X93066667Y-102578876D01*
X93044744Y-102609053D01*
X92955994Y-102783235D01*
X92954100Y-102787809D01*
X92952202Y-102787023D01*
X92916973Y-102838490D01*
X92851562Y-102866094D01*
X92781611Y-102853952D01*
X92729329Y-102805920D01*
X92720880Y-102787403D01*
X92720363Y-102787618D01*
X92718474Y-102783059D01*
X92718470Y-102783046D01*
X92629681Y-102608788D01*
X92514726Y-102450566D01*
X92514723Y-102450563D01*
X92514721Y-102450560D01*
X92376439Y-102312278D01*
X92376436Y-102312276D01*
X92376434Y-102312274D01*
X92218800Y-102197746D01*
X92218215Y-102197321D01*
X92218214Y-102197320D01*
X92218212Y-102197319D01*
X92043954Y-102108530D01*
X92043951Y-102108529D01*
X92043949Y-102108528D01*
X91857957Y-102048096D01*
X91857955Y-102048095D01*
X91857953Y-102048095D01*
X91664787Y-102017500D01*
X91469213Y-102017500D01*
X91276047Y-102048095D01*
X91276045Y-102048095D01*
X91276042Y-102048096D01*
X91090050Y-102108528D01*
X91090044Y-102108531D01*
X90915784Y-102197321D01*
X90757563Y-102312276D01*
X90757560Y-102312278D01*
X90619278Y-102450560D01*
X90619276Y-102450563D01*
X90504316Y-102608791D01*
X90502931Y-102611052D01*
X90502180Y-102611730D01*
X90501409Y-102612793D01*
X90501185Y-102612630D01*
X90450282Y-102658683D01*
X90380241Y-102670288D01*
X90315044Y-102642183D01*
X90275391Y-102583292D01*
X90269500Y-102545215D01*
X90269500Y-102477367D01*
X90269499Y-102477350D01*
X90262990Y-102416803D01*
X90262988Y-102416795D01*
X90224004Y-102312278D01*
X90211889Y-102279796D01*
X90211888Y-102279794D01*
X90211887Y-102279792D01*
X90124261Y-102162738D01*
X90007207Y-102075112D01*
X90007202Y-102075110D01*
X89870204Y-102024011D01*
X89870196Y-102024009D01*
X89809649Y-102017500D01*
X89809638Y-102017500D01*
X88244362Y-102017500D01*
X88244350Y-102017500D01*
X88183803Y-102024009D01*
X88183795Y-102024011D01*
X88046797Y-102075110D01*
X88046792Y-102075112D01*
X87929738Y-102162738D01*
X87842112Y-102279792D01*
X87842110Y-102279797D01*
X87791011Y-102416795D01*
X87791009Y-102416803D01*
X87784500Y-102477350D01*
X78517268Y-102477350D01*
X78533006Y-102432373D01*
X78583941Y-102286808D01*
X78583941Y-102286807D01*
X78583943Y-102286802D01*
X78645850Y-102015567D01*
X78677000Y-101739105D01*
X78677000Y-101460895D01*
X78645850Y-101184433D01*
X78583943Y-100913198D01*
X78582807Y-100909952D01*
X78492062Y-100650617D01*
X78492061Y-100650616D01*
X78492056Y-100650600D01*
X78371344Y-100399940D01*
X78223327Y-100164373D01*
X78201991Y-100137618D01*
X78049870Y-99946862D01*
X77853137Y-99750129D01*
X77635634Y-99576678D01*
X77635630Y-99576675D01*
X77400064Y-99428658D01*
X77400055Y-99428653D01*
X77149409Y-99307948D01*
X77149404Y-99307946D01*
X77149400Y-99307944D01*
X77149394Y-99307941D01*
X77149382Y-99307937D01*
X76886808Y-99216058D01*
X76615570Y-99154150D01*
X76339107Y-99123000D01*
X76339105Y-99123000D01*
X76060895Y-99123000D01*
X76060893Y-99123000D01*
X75784429Y-99154150D01*
X75513191Y-99216058D01*
X75250617Y-99307937D01*
X75250590Y-99307948D01*
X74999944Y-99428653D01*
X74999935Y-99428658D01*
X74764369Y-99576675D01*
X74764365Y-99576678D01*
X74546862Y-99750129D01*
X74350129Y-99946862D01*
X74176678Y-100164365D01*
X74176675Y-100164369D01*
X74028658Y-100399935D01*
X74028653Y-100399944D01*
X73907948Y-100650590D01*
X73907937Y-100650617D01*
X73816058Y-100913191D01*
X73754150Y-101184429D01*
X73723000Y-101460893D01*
X72142932Y-101460893D01*
X72143364Y-101451541D01*
X72153565Y-101230886D01*
X72154639Y-101219298D01*
X72165868Y-101138797D01*
X72204887Y-100859081D01*
X72207019Y-100847678D01*
X72290289Y-100493631D01*
X72293472Y-100482446D01*
X72321124Y-100399944D01*
X72409050Y-100137607D01*
X72413247Y-100126776D01*
X72560158Y-99794053D01*
X72565333Y-99783662D01*
X72742311Y-99465926D01*
X72748423Y-99456053D01*
X72953980Y-99155977D01*
X72960961Y-99146732D01*
X73193330Y-98866901D01*
X73201151Y-98858323D01*
X73458323Y-98601151D01*
X73466901Y-98593330D01*
X73746732Y-98360961D01*
X73755977Y-98353980D01*
X74056053Y-98148423D01*
X74065926Y-98142311D01*
X74383662Y-97965333D01*
X74394053Y-97960158D01*
X74726776Y-97813247D01*
X74737607Y-97809050D01*
X75082455Y-97693469D01*
X75093631Y-97690289D01*
X75447678Y-97607019D01*
X75459081Y-97604887D01*
X75774816Y-97560843D01*
X75819298Y-97554639D01*
X75830886Y-97553565D01*
X76197102Y-97536634D01*
X76202921Y-97536500D01*
X76254851Y-97536500D01*
X177745147Y-97536500D01*
X177797077Y-97536500D01*
X177802896Y-97536634D01*
G37*
%TD.AperFunction*%
%TD*%
M02*
