%TF.GenerationSoftware,KiCad,Pcbnew,9.0.1*%
%TF.CreationDate,2025-06-03T12:38:30-05:00*%
%TF.ProjectId,Orientation_Paddle,4f726965-6e74-4617-9469-6f6e5f506164,2.0*%
%TF.SameCoordinates,Original*%
%TF.FileFunction,Paste,Top*%
%TF.FilePolarity,Positive*%
%FSLAX46Y46*%
G04 Gerber Fmt 4.6, Leading zero omitted, Abs format (unit mm)*
G04 Created by KiCad (PCBNEW 9.0.1) date 2025-06-03 12:38:30*
%MOMM*%
%LPD*%
G01*
G04 APERTURE LIST*
G04 Aperture macros list*
%AMRoundRect*
0 Rectangle with rounded corners*
0 $1 Rounding radius*
0 $2 $3 $4 $5 $6 $7 $8 $9 X,Y pos of 4 corners*
0 Add a 4 corners polygon primitive as box body*
4,1,4,$2,$3,$4,$5,$6,$7,$8,$9,$2,$3,0*
0 Add four circle primitives for the rounded corners*
1,1,$1+$1,$2,$3*
1,1,$1+$1,$4,$5*
1,1,$1+$1,$6,$7*
1,1,$1+$1,$8,$9*
0 Add four rect primitives between the rounded corners*
20,1,$1+$1,$2,$3,$4,$5,0*
20,1,$1+$1,$4,$5,$6,$7,0*
20,1,$1+$1,$6,$7,$8,$9,0*
20,1,$1+$1,$8,$9,$2,$3,0*%
G04 Aperture macros list end*
%ADD10RoundRect,0.218750X0.218750X0.256250X-0.218750X0.256250X-0.218750X-0.256250X0.218750X-0.256250X0*%
%ADD11RoundRect,0.075000X-0.662500X-0.075000X0.662500X-0.075000X0.662500X0.075000X-0.662500X0.075000X0*%
%ADD12RoundRect,0.075000X-0.075000X-0.662500X0.075000X-0.662500X0.075000X0.662500X-0.075000X0.662500X0*%
%ADD13R,2.184400X2.184400*%
%ADD14RoundRect,0.218750X-0.256250X0.218750X-0.256250X-0.218750X0.256250X-0.218750X0.256250X0.218750X0*%
%ADD15RoundRect,0.243750X0.456250X-0.243750X0.456250X0.243750X-0.456250X0.243750X-0.456250X-0.243750X0*%
%ADD16RoundRect,0.150000X0.150000X-0.587500X0.150000X0.587500X-0.150000X0.587500X-0.150000X-0.587500X0*%
%ADD17R,1.900000X0.400000*%
%ADD18RoundRect,0.218750X-0.218750X-0.256250X0.218750X-0.256250X0.218750X0.256250X-0.218750X0.256250X0*%
%ADD19RoundRect,0.218750X0.256250X-0.218750X0.256250X0.218750X-0.256250X0.218750X-0.256250X-0.218750X0*%
%ADD20RoundRect,0.150000X-0.587500X-0.150000X0.587500X-0.150000X0.587500X0.150000X-0.587500X0.150000X0*%
%ADD21RoundRect,0.250000X2.475000X-0.712500X2.475000X0.712500X-2.475000X0.712500X-2.475000X-0.712500X0*%
%ADD22RoundRect,0.243750X0.243750X0.456250X-0.243750X0.456250X-0.243750X-0.456250X0.243750X-0.456250X0*%
%ADD23R,4.500000X2.300000*%
%ADD24R,1.200000X1.800000*%
%ADD25R,0.600000X1.550000*%
%ADD26R,0.400000X0.400000*%
%ADD27RoundRect,0.250000X0.625000X-0.375000X0.625000X0.375000X-0.625000X0.375000X-0.625000X-0.375000X0*%
%ADD28R,2.150000X5.500000*%
%ADD29R,0.580000X0.720000*%
%ADD30R,0.720000X0.580000*%
%ADD31R,2.000000X0.700000*%
%ADD32R,1.400000X2.700000*%
%ADD33R,2.600000X1.000000*%
%ADD34R,2.600000X1.500000*%
%ADD35R,1.200000X1.200000*%
G04 APERTURE END LIST*
D10*
%TO.C,R6*%
X159029500Y-137795000D03*
X157454500Y-137795000D03*
%TD*%
D11*
%TO.C,U2*%
X106708500Y-115106000D03*
X106708500Y-115606000D03*
X106708500Y-116106000D03*
X106708500Y-116606000D03*
X106708500Y-117106000D03*
X106708500Y-117606000D03*
X106708500Y-118106000D03*
X106708500Y-118606000D03*
X106708500Y-119106000D03*
X106708500Y-119606000D03*
X106708500Y-120106000D03*
X106708500Y-120606000D03*
D12*
X108121000Y-122018500D03*
X108621000Y-122018500D03*
X109121000Y-122018500D03*
X109621000Y-122018500D03*
X110121000Y-122018500D03*
X110621000Y-122018500D03*
X111121000Y-122018500D03*
X111621000Y-122018500D03*
X112121000Y-122018500D03*
X112621000Y-122018500D03*
X113121000Y-122018500D03*
X113621000Y-122018500D03*
D11*
X115033500Y-120606000D03*
X115033500Y-120106000D03*
X115033500Y-119606000D03*
X115033500Y-119106000D03*
X115033500Y-118606000D03*
X115033500Y-118106000D03*
X115033500Y-117606000D03*
X115033500Y-117106000D03*
X115033500Y-116606000D03*
X115033500Y-116106000D03*
X115033500Y-115606000D03*
X115033500Y-115106000D03*
D12*
X113621000Y-113693500D03*
X113121000Y-113693500D03*
X112621000Y-113693500D03*
X112121000Y-113693500D03*
X111621000Y-113693500D03*
X111121000Y-113693500D03*
X110621000Y-113693500D03*
X110121000Y-113693500D03*
X109621000Y-113693500D03*
X109121000Y-113693500D03*
X108621000Y-113693500D03*
X108121000Y-113693500D03*
%TD*%
D13*
%TO.C,D2*%
X84683600Y-121031000D03*
X88392000Y-121031000D03*
%TD*%
D14*
%TO.C,R3*%
X115189000Y-105257500D03*
X115189000Y-106832500D03*
%TD*%
D10*
%TO.C,R10*%
X159029500Y-134747000D03*
X157454500Y-134747000D03*
%TD*%
D15*
%TO.C,D3*%
X167132000Y-139342000D03*
X167132000Y-137467000D03*
%TD*%
D16*
%TO.C,Q1*%
X82616000Y-117445000D03*
X84516000Y-117445000D03*
X83566000Y-115570000D03*
%TD*%
D17*
%TO.C,Y1*%
X102997000Y-116148000D03*
X102997000Y-117348000D03*
X102997000Y-118548000D03*
%TD*%
D18*
%TO.C,R9*%
X110083500Y-109220000D03*
X111658500Y-109220000D03*
%TD*%
D14*
%TO.C,R14*%
X167132000Y-134315000D03*
X167132000Y-135890000D03*
%TD*%
%TO.C,C13*%
X139700000Y-113639500D03*
X139700000Y-115214500D03*
%TD*%
D10*
%TO.C,R17*%
X159029500Y-140843000D03*
X157454500Y-140843000D03*
%TD*%
D19*
%TO.C,R15*%
X164084000Y-130200500D03*
X164084000Y-128625500D03*
%TD*%
D10*
%TO.C,R11*%
X113817500Y-126365000D03*
X112242500Y-126365000D03*
%TD*%
D19*
%TO.C,C3*%
X121920000Y-139979500D03*
X121920000Y-138404500D03*
%TD*%
D15*
%TO.C,D4*%
X163703000Y-139342000D03*
X163703000Y-137467000D03*
%TD*%
D20*
%TO.C,D1*%
X82677000Y-126604297D03*
X82677000Y-124704297D03*
X84552000Y-125654297D03*
%TD*%
D14*
%TO.C,C5*%
X115189000Y-122656500D03*
X115189000Y-124231500D03*
%TD*%
D19*
%TO.C,R16*%
X163703000Y-135890000D03*
X163703000Y-134315000D03*
%TD*%
D21*
%TO.C,F1*%
X78867000Y-122386500D03*
X78867000Y-115611500D03*
%TD*%
D14*
%TO.C,R1*%
X80772000Y-124932797D03*
X80772000Y-126507797D03*
%TD*%
D22*
%TO.C,C10*%
X170023000Y-101346000D03*
X168148000Y-101346000D03*
%TD*%
D14*
%TO.C,C9*%
X93257000Y-122623500D03*
X93257000Y-124198500D03*
%TD*%
D10*
%TO.C,C8*%
X106553000Y-113055500D03*
X104978000Y-113055500D03*
%TD*%
%TO.C,R8*%
X111658500Y-110744000D03*
X110083500Y-110744000D03*
%TD*%
D18*
%TO.C,R12*%
X112242500Y-127889000D03*
X113817500Y-127889000D03*
%TD*%
D19*
%TO.C,R5*%
X94781000Y-124198500D03*
X94781000Y-122623500D03*
%TD*%
D14*
%TO.C,R13*%
X138684000Y-132816500D03*
X138684000Y-134391500D03*
%TD*%
%TO.C,C15*%
X162560000Y-128625500D03*
X162560000Y-130200500D03*
%TD*%
D23*
%TO.C,BT1*%
X122581000Y-105156000D03*
X138981000Y-105156000D03*
%TD*%
D14*
%TO.C,R4*%
X113665000Y-105257500D03*
X113665000Y-106832500D03*
%TD*%
D18*
%TO.C,C6*%
X115671500Y-113538000D03*
X117246500Y-113538000D03*
%TD*%
D24*
%TO.C,J1*%
X137420000Y-142672000D03*
X131820000Y-142672000D03*
D25*
X133120000Y-138797000D03*
X134120000Y-138797000D03*
X135120000Y-138797000D03*
X136120000Y-138797000D03*
%TD*%
D10*
%TO.C,R7*%
X159029500Y-139319000D03*
X157454500Y-139319000D03*
%TD*%
%TO.C,C11*%
X169873000Y-99568000D03*
X168298000Y-99568000D03*
%TD*%
D26*
%TO.C,U1*%
X125947000Y-136468000D03*
X125947000Y-137268000D03*
X125947000Y-138068000D03*
X125947000Y-138868000D03*
X123547000Y-138868000D03*
X123547000Y-138068000D03*
X123547000Y-137268000D03*
X123547000Y-136468000D03*
%TD*%
D14*
%TO.C,C14*%
X139700000Y-123037500D03*
X139700000Y-124612500D03*
%TD*%
D27*
%TO.C,C2*%
X86995000Y-111519000D03*
X86995000Y-108719000D03*
%TD*%
D28*
%TO.C,L1*%
X93492000Y-110119000D03*
X89642000Y-110119000D03*
%TD*%
D27*
%TO.C,C1*%
X96139000Y-111519000D03*
X96139000Y-108719000D03*
%TD*%
D29*
%TO.C,U4*%
X134781000Y-113804000D03*
X133931000Y-113804000D03*
X132881000Y-113804000D03*
X132031000Y-113804000D03*
X130981000Y-113804000D03*
X130131000Y-113804000D03*
X129081000Y-113804000D03*
X128231000Y-113804000D03*
X127181000Y-113804000D03*
X126331000Y-113804000D03*
X134781000Y-114804000D03*
X133931000Y-114804000D03*
X132881000Y-114804000D03*
X132031000Y-114804000D03*
X130981000Y-114804000D03*
X130131000Y-114804000D03*
X129081000Y-114804000D03*
X128231000Y-114804000D03*
X127181000Y-114804000D03*
X126331000Y-114804000D03*
D30*
X137656000Y-116679000D03*
X136656000Y-116679000D03*
X124456000Y-116679000D03*
X123456000Y-116679000D03*
X137656000Y-117529000D03*
X136656000Y-117529000D03*
X124456000Y-117529000D03*
X123456000Y-117529000D03*
X137656000Y-118579000D03*
X136656000Y-118579000D03*
X124456000Y-118579000D03*
X123456000Y-118579000D03*
X137656000Y-119429000D03*
X136656000Y-119429000D03*
X124456000Y-119429000D03*
X123456000Y-119429000D03*
X137656000Y-120479000D03*
X136656000Y-120479000D03*
X124456000Y-120479000D03*
X123456000Y-120479000D03*
X137656000Y-121329000D03*
X136656000Y-121329000D03*
X124456000Y-121329000D03*
X123456000Y-121329000D03*
X137656000Y-122379000D03*
X136656000Y-122379000D03*
X124456000Y-122379000D03*
X123456000Y-122379000D03*
X137656000Y-123229000D03*
X136656000Y-123229000D03*
X124456000Y-123229000D03*
X123456000Y-123229000D03*
X137656000Y-124279000D03*
X136656000Y-124279000D03*
X124456000Y-124279000D03*
X123456000Y-124279000D03*
X137656000Y-125129000D03*
X136656000Y-125129000D03*
X124456000Y-125129000D03*
X123456000Y-125129000D03*
D29*
X134781000Y-127004000D03*
X133931000Y-127004000D03*
X132881000Y-127004000D03*
X132031000Y-127004000D03*
X130981000Y-127004000D03*
X130131000Y-127004000D03*
X129081000Y-127004000D03*
X128231000Y-127004000D03*
X127181000Y-127004000D03*
X126331000Y-127004000D03*
X134781000Y-128004000D03*
X133931000Y-128004000D03*
X132881000Y-128004000D03*
X132031000Y-128004000D03*
X130981000Y-128004000D03*
X130131000Y-128004000D03*
X129081000Y-128004000D03*
X128231000Y-128004000D03*
X127181000Y-128004000D03*
X126331000Y-128004000D03*
%TD*%
D10*
%TO.C,C16*%
X159029500Y-136271000D03*
X157454500Y-136271000D03*
%TD*%
D14*
%TO.C,R2*%
X100584000Y-116560500D03*
X100584000Y-118135500D03*
%TD*%
D10*
%TO.C,R18*%
X159029500Y-133223000D03*
X157454500Y-133223000D03*
%TD*%
%TO.C,C7*%
X103784500Y-120269000D03*
X102209500Y-120269000D03*
%TD*%
D14*
%TO.C,C4*%
X121920000Y-135356500D03*
X121920000Y-136931500D03*
%TD*%
%TO.C,C12*%
X171831000Y-99695000D03*
X171831000Y-101270000D03*
%TD*%
D31*
%TO.C,J9*%
X153797000Y-133071000D03*
X153797000Y-134171000D03*
X153797000Y-135271000D03*
X153797000Y-136371000D03*
X153797000Y-137471000D03*
X153797000Y-138571000D03*
X153797000Y-139671000D03*
X153797000Y-140771000D03*
D32*
X141097000Y-134471000D03*
D33*
X153297000Y-142871000D03*
D34*
X153297000Y-129521000D03*
D32*
X141097000Y-139371000D03*
D35*
X140997000Y-131421000D03*
%TD*%
M02*
