M48
; DRILL file {KiCad 9.0.1} date 2025-06-03T12:38:32-0500
; FORMAT={-:-/ absolute / inch / decimal}
; #@! TF.CreationDate,2025-06-03T12:38:32-05:00
; #@! TF.GenerationSoftware,Kicad,Pcbnew,9.0.1
; #@! TF.FileFunction,Plated,1,2,PTH
FMAT,2
INCH
; #@! TA.AperFunction,Plated,PTH,ViaDrill
T1C0.0100
; #@! TA.AperFunction,Plated,PTH,ComponentDrill
T2C0.0315
; #@! TA.AperFunction,Plated,PTH,ComponentDrill
T3C0.0378
; #@! TA.AperFunction,Plated,PTH,ComponentDrill
T4C0.0380
; #@! TA.AperFunction,Plated,PTH,ComponentDrill
T5C0.0394
; #@! TA.AperFunction,Plated,PTH,ComponentDrill
T6C0.0433
; #@! TA.AperFunction,Plated,PTH,ComponentDrill
T7C0.0590
%
G90
G05
T1
X3.73Y-4.95
X3.785Y-4.47
X4.085Y-4.78
X4.195Y-4.405
X4.203Y-4.87
X4.229Y-4.87
X4.245Y-4.65
X4.255Y-4.87
X4.295Y-4.65
X4.3169Y-4.664
X4.34Y-4.645
X4.3437Y-5.2619
X4.365Y-5.32
X4.3937Y-5.2863
X4.41Y-4.14
X4.415Y-4.9
X4.4261Y-4.682
X4.435Y-4.295
X4.437Y-4.878
X4.4497Y-4.704
X4.4553Y-4.3552
X4.47Y-4.7221
X4.4737Y-5.3353
X4.475Y-4.425
X4.49Y-4.333
X4.51Y-4.47
X4.515Y-5.354
X4.53Y-5.31
X4.535Y-4.975
X4.59Y-4.83
X4.5908Y-4.5722
X4.75Y-5.45
X4.8047Y-4.5498
X4.805Y-4.715
X4.81Y-4.685
X4.83Y-4.5558
X5.005Y-5.405
X5.1116Y-4.9123
X5.136Y-4.925
X5.24Y-5.165
X5.2608Y-5.1494
X5.265Y-5.395
X5.285Y-5.235
X5.41Y-5.23
X5.4863Y-4.4337
X5.5Y-4.79
X5.9506Y-5.4
X6.1244Y-5.3256
X6.1261Y-5.3689
X6.1261Y-5.4989
X6.1278Y-5.4122
X6.13Y-5.285
X6.4033Y-5.0128
T2
X5.9862Y-4.0962
X5.9862Y-4.9624
X6.0649Y-4.0962
X6.0649Y-4.9624
X6.1437Y-4.0962
X6.1437Y-4.9624
X6.2224Y-4.0962
X6.2224Y-4.9624
X6.3011Y-4.0962
X6.3011Y-4.9624
X6.3799Y-4.0962
X6.3799Y-4.9624
X6.4586Y-4.0962
X6.4586Y-4.9624
X6.5374Y-4.0962
X6.5374Y-4.9624
X6.6161Y-4.0962
X6.6161Y-4.9624
X6.6948Y-4.0962
X6.6948Y-4.9624
T3
X3.505Y-4.0654
X3.605Y-4.0654
X3.705Y-4.0654
T4
X3.9664Y-5.598
X4.0164Y-5.498
X4.0664Y-5.598
X4.1164Y-5.498
X4.3764Y-5.598
X4.4264Y-5.498
X4.4764Y-5.598
X4.5264Y-5.498
T5
X3.85Y-4.8102
X3.85Y-4.9102
X4.0104Y-4.025
X4.1104Y-4.025
X4.2104Y-4.025
X4.3104Y-4.025
T6
X3.2827Y-5.2041
X3.4416Y-5.2041
X3.5927Y-5.2041
X3.7516Y-5.2041
T7
X3.8954Y-5.44
X4.1871Y-5.44
X4.3054Y-5.44
X4.5971Y-5.44
M30
