%TF.GenerationSoftware,KiCad,Pcbnew,9.0.1*%
%TF.CreationDate,2025-07-04T09:36:57-05:00*%
%TF.ProjectId,Orientation_Paddle,4f726965-6e74-4617-9469-6f6e5f506164,2.1*%
%TF.SameCoordinates,Original*%
%TF.FileFunction,Legend,Bot*%
%TF.FilePolarity,Positive*%
%FSLAX46Y46*%
G04 Gerber Fmt 4.6, Leading zero omitted, Abs format (unit mm)*
G04 Created by KiCad (PCBNEW 9.0.1) date 2025-07-04 09:36:57*
%MOMM*%
%LPD*%
G01*
G04 APERTURE LIST*
%ADD10C,0.150000*%
%ADD11C,0.250000*%
%ADD12C,0.317500*%
%ADD13C,0.120000*%
G04 APERTURE END LIST*
D10*
X73963621Y-113666838D02*
X80313621Y-113666838D01*
X80313621Y-113666838D02*
X80313621Y-114428838D01*
X88187919Y-113666838D02*
X88187919Y-114428838D01*
X73909621Y-114428838D02*
X73909621Y-113666838D01*
X81837621Y-113666838D02*
X88187621Y-113666838D01*
X81837621Y-114428838D02*
X81837621Y-113666838D01*
D11*
X95868952Y-119951332D02*
X95392761Y-119617999D01*
X95868952Y-119379904D02*
X94868952Y-119379904D01*
X94868952Y-119379904D02*
X94868952Y-119760856D01*
X94868952Y-119760856D02*
X94916571Y-119856094D01*
X94916571Y-119856094D02*
X94964190Y-119903713D01*
X94964190Y-119903713D02*
X95059428Y-119951332D01*
X95059428Y-119951332D02*
X95202285Y-119951332D01*
X95202285Y-119951332D02*
X95297523Y-119903713D01*
X95297523Y-119903713D02*
X95345142Y-119856094D01*
X95345142Y-119856094D02*
X95392761Y-119760856D01*
X95392761Y-119760856D02*
X95392761Y-119379904D01*
X93307905Y-119903713D02*
X93260286Y-119808475D01*
X93260286Y-119808475D02*
X93260286Y-119665618D01*
X93260286Y-119665618D02*
X93307905Y-119522761D01*
X93307905Y-119522761D02*
X93403143Y-119427523D01*
X93403143Y-119427523D02*
X93498381Y-119379904D01*
X93498381Y-119379904D02*
X93688857Y-119332285D01*
X93688857Y-119332285D02*
X93831714Y-119332285D01*
X93831714Y-119332285D02*
X94022190Y-119379904D01*
X94022190Y-119379904D02*
X94117428Y-119427523D01*
X94117428Y-119427523D02*
X94212667Y-119522761D01*
X94212667Y-119522761D02*
X94260286Y-119665618D01*
X94260286Y-119665618D02*
X94260286Y-119760856D01*
X94260286Y-119760856D02*
X94212667Y-119903713D01*
X94212667Y-119903713D02*
X94165047Y-119951332D01*
X94165047Y-119951332D02*
X93831714Y-119951332D01*
X93831714Y-119951332D02*
X93831714Y-119760856D01*
X106812238Y-117824285D02*
X106764619Y-117729047D01*
X106764619Y-117729047D02*
X106764619Y-117586190D01*
X106764619Y-117586190D02*
X106812238Y-117443333D01*
X106812238Y-117443333D02*
X106907476Y-117348095D01*
X106907476Y-117348095D02*
X107002714Y-117300476D01*
X107002714Y-117300476D02*
X107193190Y-117252857D01*
X107193190Y-117252857D02*
X107336047Y-117252857D01*
X107336047Y-117252857D02*
X107526523Y-117300476D01*
X107526523Y-117300476D02*
X107621761Y-117348095D01*
X107621761Y-117348095D02*
X107717000Y-117443333D01*
X107717000Y-117443333D02*
X107764619Y-117586190D01*
X107764619Y-117586190D02*
X107764619Y-117681428D01*
X107764619Y-117681428D02*
X107717000Y-117824285D01*
X107717000Y-117824285D02*
X107669380Y-117871904D01*
X107669380Y-117871904D02*
X107336047Y-117871904D01*
X107336047Y-117871904D02*
X107336047Y-117681428D01*
X107764619Y-118300476D02*
X106764619Y-118300476D01*
X106764619Y-118300476D02*
X107764619Y-118871904D01*
X107764619Y-118871904D02*
X106764619Y-118871904D01*
X107764619Y-119348095D02*
X106764619Y-119348095D01*
X106764619Y-119348095D02*
X106764619Y-119586190D01*
X106764619Y-119586190D02*
X106812238Y-119729047D01*
X106812238Y-119729047D02*
X106907476Y-119824285D01*
X106907476Y-119824285D02*
X107002714Y-119871904D01*
X107002714Y-119871904D02*
X107193190Y-119919523D01*
X107193190Y-119919523D02*
X107336047Y-119919523D01*
X107336047Y-119919523D02*
X107526523Y-119871904D01*
X107526523Y-119871904D02*
X107621761Y-119824285D01*
X107621761Y-119824285D02*
X107717000Y-119729047D01*
X107717000Y-119729047D02*
X107764619Y-119586190D01*
X107764619Y-119586190D02*
X107764619Y-119348095D01*
D12*
X78532113Y-119557219D02*
X78471637Y-119436266D01*
X78471637Y-119436266D02*
X78471637Y-119254838D01*
X78471637Y-119254838D02*
X78532113Y-119073409D01*
X78532113Y-119073409D02*
X78653065Y-118952457D01*
X78653065Y-118952457D02*
X78774018Y-118891980D01*
X78774018Y-118891980D02*
X79015922Y-118831504D01*
X79015922Y-118831504D02*
X79197351Y-118831504D01*
X79197351Y-118831504D02*
X79439256Y-118891980D01*
X79439256Y-118891980D02*
X79560208Y-118952457D01*
X79560208Y-118952457D02*
X79681161Y-119073409D01*
X79681161Y-119073409D02*
X79741637Y-119254838D01*
X79741637Y-119254838D02*
X79741637Y-119375790D01*
X79741637Y-119375790D02*
X79681161Y-119557219D01*
X79681161Y-119557219D02*
X79620684Y-119617695D01*
X79620684Y-119617695D02*
X79197351Y-119617695D01*
X79197351Y-119617695D02*
X79197351Y-119375790D01*
X79741637Y-120161980D02*
X78471637Y-120161980D01*
X78471637Y-120161980D02*
X79741637Y-120887695D01*
X79741637Y-120887695D02*
X78471637Y-120887695D01*
X79741637Y-121492456D02*
X78471637Y-121492456D01*
X78471637Y-121492456D02*
X78471637Y-121794837D01*
X78471637Y-121794837D02*
X78532113Y-121976266D01*
X78532113Y-121976266D02*
X78653065Y-122097218D01*
X78653065Y-122097218D02*
X78774018Y-122157695D01*
X78774018Y-122157695D02*
X79015922Y-122218171D01*
X79015922Y-122218171D02*
X79197351Y-122218171D01*
X79197351Y-122218171D02*
X79439256Y-122157695D01*
X79439256Y-122157695D02*
X79560208Y-122097218D01*
X79560208Y-122097218D02*
X79681161Y-121976266D01*
X79681161Y-121976266D02*
X79741637Y-121794837D01*
X79741637Y-121794837D02*
X79741637Y-121492456D01*
D11*
X101938619Y-117490952D02*
X101938619Y-118109999D01*
X101938619Y-118109999D02*
X102319571Y-117776666D01*
X102319571Y-117776666D02*
X102319571Y-117919523D01*
X102319571Y-117919523D02*
X102367190Y-118014761D01*
X102367190Y-118014761D02*
X102414809Y-118062380D01*
X102414809Y-118062380D02*
X102510047Y-118109999D01*
X102510047Y-118109999D02*
X102748142Y-118109999D01*
X102748142Y-118109999D02*
X102843380Y-118062380D01*
X102843380Y-118062380D02*
X102891000Y-118014761D01*
X102891000Y-118014761D02*
X102938619Y-117919523D01*
X102938619Y-117919523D02*
X102938619Y-117633809D01*
X102938619Y-117633809D02*
X102891000Y-117538571D01*
X102891000Y-117538571D02*
X102843380Y-117490952D01*
X101938619Y-118395714D02*
X102938619Y-118729047D01*
X102938619Y-118729047D02*
X101938619Y-119062380D01*
X101938619Y-119300476D02*
X101938619Y-119919523D01*
X101938619Y-119919523D02*
X102319571Y-119586190D01*
X102319571Y-119586190D02*
X102319571Y-119729047D01*
X102319571Y-119729047D02*
X102367190Y-119824285D01*
X102367190Y-119824285D02*
X102414809Y-119871904D01*
X102414809Y-119871904D02*
X102510047Y-119919523D01*
X102510047Y-119919523D02*
X102748142Y-119919523D01*
X102748142Y-119919523D02*
X102843380Y-119871904D01*
X102843380Y-119871904D02*
X102891000Y-119824285D01*
X102891000Y-119824285D02*
X102938619Y-119729047D01*
X102938619Y-119729047D02*
X102938619Y-119443333D01*
X102938619Y-119443333D02*
X102891000Y-119348095D01*
X102891000Y-119348095D02*
X102843380Y-119300476D01*
X96541000Y-87476295D02*
X96588619Y-87619152D01*
X96588619Y-87619152D02*
X96588619Y-87857247D01*
X96588619Y-87857247D02*
X96541000Y-87952485D01*
X96541000Y-87952485D02*
X96493380Y-88000104D01*
X96493380Y-88000104D02*
X96398142Y-88047723D01*
X96398142Y-88047723D02*
X96302904Y-88047723D01*
X96302904Y-88047723D02*
X96207666Y-88000104D01*
X96207666Y-88000104D02*
X96160047Y-87952485D01*
X96160047Y-87952485D02*
X96112428Y-87857247D01*
X96112428Y-87857247D02*
X96064809Y-87666771D01*
X96064809Y-87666771D02*
X96017190Y-87571533D01*
X96017190Y-87571533D02*
X95969571Y-87523914D01*
X95969571Y-87523914D02*
X95874333Y-87476295D01*
X95874333Y-87476295D02*
X95779095Y-87476295D01*
X95779095Y-87476295D02*
X95683857Y-87523914D01*
X95683857Y-87523914D02*
X95636238Y-87571533D01*
X95636238Y-87571533D02*
X95588619Y-87666771D01*
X95588619Y-87666771D02*
X95588619Y-87904866D01*
X95588619Y-87904866D02*
X95636238Y-88047723D01*
X95588619Y-88381057D02*
X96588619Y-88619152D01*
X96588619Y-88619152D02*
X95874333Y-88809628D01*
X95874333Y-88809628D02*
X96588619Y-89000104D01*
X96588619Y-89000104D02*
X95588619Y-89238200D01*
X96493380Y-90190580D02*
X96541000Y-90142961D01*
X96541000Y-90142961D02*
X96588619Y-90000104D01*
X96588619Y-90000104D02*
X96588619Y-89904866D01*
X96588619Y-89904866D02*
X96541000Y-89762009D01*
X96541000Y-89762009D02*
X96445761Y-89666771D01*
X96445761Y-89666771D02*
X96350523Y-89619152D01*
X96350523Y-89619152D02*
X96160047Y-89571533D01*
X96160047Y-89571533D02*
X96017190Y-89571533D01*
X96017190Y-89571533D02*
X95826714Y-89619152D01*
X95826714Y-89619152D02*
X95731476Y-89666771D01*
X95731476Y-89666771D02*
X95636238Y-89762009D01*
X95636238Y-89762009D02*
X95588619Y-89904866D01*
X95588619Y-89904866D02*
X95588619Y-90000104D01*
X95588619Y-90000104D02*
X95636238Y-90142961D01*
X95636238Y-90142961D02*
X95683857Y-90190580D01*
X96588619Y-91095342D02*
X96588619Y-90619152D01*
X96588619Y-90619152D02*
X95588619Y-90619152D01*
X96588619Y-91428676D02*
X95588619Y-91428676D01*
X96588619Y-92000104D02*
X96017190Y-91571533D01*
X95588619Y-92000104D02*
X96160047Y-91428676D01*
X99081000Y-87466753D02*
X99128619Y-87609610D01*
X99128619Y-87609610D02*
X99128619Y-87847705D01*
X99128619Y-87847705D02*
X99081000Y-87942943D01*
X99081000Y-87942943D02*
X99033380Y-87990562D01*
X99033380Y-87990562D02*
X98938142Y-88038181D01*
X98938142Y-88038181D02*
X98842904Y-88038181D01*
X98842904Y-88038181D02*
X98747666Y-87990562D01*
X98747666Y-87990562D02*
X98700047Y-87942943D01*
X98700047Y-87942943D02*
X98652428Y-87847705D01*
X98652428Y-87847705D02*
X98604809Y-87657229D01*
X98604809Y-87657229D02*
X98557190Y-87561991D01*
X98557190Y-87561991D02*
X98509571Y-87514372D01*
X98509571Y-87514372D02*
X98414333Y-87466753D01*
X98414333Y-87466753D02*
X98319095Y-87466753D01*
X98319095Y-87466753D02*
X98223857Y-87514372D01*
X98223857Y-87514372D02*
X98176238Y-87561991D01*
X98176238Y-87561991D02*
X98128619Y-87657229D01*
X98128619Y-87657229D02*
X98128619Y-87895324D01*
X98128619Y-87895324D02*
X98176238Y-88038181D01*
X98128619Y-88371515D02*
X99128619Y-88609610D01*
X99128619Y-88609610D02*
X98414333Y-88800086D01*
X98414333Y-88800086D02*
X99128619Y-88990562D01*
X99128619Y-88990562D02*
X98128619Y-89228658D01*
X99128619Y-89609610D02*
X98128619Y-89609610D01*
X98128619Y-89609610D02*
X98128619Y-89847705D01*
X98128619Y-89847705D02*
X98176238Y-89990562D01*
X98176238Y-89990562D02*
X98271476Y-90085800D01*
X98271476Y-90085800D02*
X98366714Y-90133419D01*
X98366714Y-90133419D02*
X98557190Y-90181038D01*
X98557190Y-90181038D02*
X98700047Y-90181038D01*
X98700047Y-90181038D02*
X98890523Y-90133419D01*
X98890523Y-90133419D02*
X98985761Y-90085800D01*
X98985761Y-90085800D02*
X99081000Y-89990562D01*
X99081000Y-89990562D02*
X99128619Y-89847705D01*
X99128619Y-89847705D02*
X99128619Y-89609610D01*
X99128619Y-90609610D02*
X98128619Y-90609610D01*
X98128619Y-91276276D02*
X98128619Y-91466752D01*
X98128619Y-91466752D02*
X98176238Y-91561990D01*
X98176238Y-91561990D02*
X98271476Y-91657228D01*
X98271476Y-91657228D02*
X98461952Y-91704847D01*
X98461952Y-91704847D02*
X98795285Y-91704847D01*
X98795285Y-91704847D02*
X98985761Y-91657228D01*
X98985761Y-91657228D02*
X99081000Y-91561990D01*
X99081000Y-91561990D02*
X99128619Y-91466752D01*
X99128619Y-91466752D02*
X99128619Y-91276276D01*
X99128619Y-91276276D02*
X99081000Y-91181038D01*
X99081000Y-91181038D02*
X98985761Y-91085800D01*
X98985761Y-91085800D02*
X98795285Y-91038181D01*
X98795285Y-91038181D02*
X98461952Y-91038181D01*
X98461952Y-91038181D02*
X98271476Y-91085800D01*
X98271476Y-91085800D02*
X98176238Y-91181038D01*
X98176238Y-91181038D02*
X98128619Y-91276276D01*
X92127809Y-119713237D02*
X92175428Y-119856094D01*
X92175428Y-119856094D02*
X92223047Y-119903713D01*
X92223047Y-119903713D02*
X92318285Y-119951332D01*
X92318285Y-119951332D02*
X92461142Y-119951332D01*
X92461142Y-119951332D02*
X92556380Y-119903713D01*
X92556380Y-119903713D02*
X92604000Y-119856094D01*
X92604000Y-119856094D02*
X92651619Y-119760856D01*
X92651619Y-119760856D02*
X92651619Y-119379904D01*
X92651619Y-119379904D02*
X91651619Y-119379904D01*
X91651619Y-119379904D02*
X91651619Y-119713237D01*
X91651619Y-119713237D02*
X91699238Y-119808475D01*
X91699238Y-119808475D02*
X91746857Y-119856094D01*
X91746857Y-119856094D02*
X91842095Y-119903713D01*
X91842095Y-119903713D02*
X91937333Y-119903713D01*
X91937333Y-119903713D02*
X92032571Y-119856094D01*
X92032571Y-119856094D02*
X92080190Y-119808475D01*
X92080190Y-119808475D02*
X92127809Y-119713237D01*
X92127809Y-119713237D02*
X92127809Y-119379904D01*
X96525238Y-117856095D02*
X96477619Y-117760857D01*
X96477619Y-117760857D02*
X96477619Y-117618000D01*
X96477619Y-117618000D02*
X96525238Y-117475143D01*
X96525238Y-117475143D02*
X96620476Y-117379905D01*
X96620476Y-117379905D02*
X96715714Y-117332286D01*
X96715714Y-117332286D02*
X96906190Y-117284667D01*
X96906190Y-117284667D02*
X97049047Y-117284667D01*
X97049047Y-117284667D02*
X97239523Y-117332286D01*
X97239523Y-117332286D02*
X97334761Y-117379905D01*
X97334761Y-117379905D02*
X97430000Y-117475143D01*
X97430000Y-117475143D02*
X97477619Y-117618000D01*
X97477619Y-117618000D02*
X97477619Y-117713238D01*
X97477619Y-117713238D02*
X97430000Y-117856095D01*
X97430000Y-117856095D02*
X97382380Y-117903714D01*
X97382380Y-117903714D02*
X97049047Y-117903714D01*
X97049047Y-117903714D02*
X97049047Y-117713238D01*
X97477619Y-118332286D02*
X96477619Y-118332286D01*
X96477619Y-118332286D02*
X97477619Y-118903714D01*
X97477619Y-118903714D02*
X96477619Y-118903714D01*
X97477619Y-119379905D02*
X96477619Y-119379905D01*
X96477619Y-119379905D02*
X96477619Y-119618000D01*
X96477619Y-119618000D02*
X96525238Y-119760857D01*
X96525238Y-119760857D02*
X96620476Y-119856095D01*
X96620476Y-119856095D02*
X96715714Y-119903714D01*
X96715714Y-119903714D02*
X96906190Y-119951333D01*
X96906190Y-119951333D02*
X97049047Y-119951333D01*
X97049047Y-119951333D02*
X97239523Y-119903714D01*
X97239523Y-119903714D02*
X97334761Y-119856095D01*
X97334761Y-119856095D02*
X97430000Y-119760857D01*
X97430000Y-119760857D02*
X97477619Y-119618000D01*
X97477619Y-119618000D02*
X97477619Y-119379905D01*
D12*
X99283762Y-84010016D02*
X99283762Y-82740016D01*
X98739476Y-83949540D02*
X98558047Y-84010016D01*
X98558047Y-84010016D02*
X98255666Y-84010016D01*
X98255666Y-84010016D02*
X98134714Y-83949540D01*
X98134714Y-83949540D02*
X98074238Y-83889063D01*
X98074238Y-83889063D02*
X98013761Y-83768111D01*
X98013761Y-83768111D02*
X98013761Y-83647159D01*
X98013761Y-83647159D02*
X98074238Y-83526206D01*
X98074238Y-83526206D02*
X98134714Y-83465730D01*
X98134714Y-83465730D02*
X98255666Y-83405254D01*
X98255666Y-83405254D02*
X98497571Y-83344778D01*
X98497571Y-83344778D02*
X98618523Y-83284301D01*
X98618523Y-83284301D02*
X98679000Y-83223825D01*
X98679000Y-83223825D02*
X98739476Y-83102873D01*
X98739476Y-83102873D02*
X98739476Y-82981920D01*
X98739476Y-82981920D02*
X98679000Y-82860968D01*
X98679000Y-82860968D02*
X98618523Y-82800492D01*
X98618523Y-82800492D02*
X98497571Y-82740016D01*
X98497571Y-82740016D02*
X98195190Y-82740016D01*
X98195190Y-82740016D02*
X98013761Y-82800492D01*
X96743761Y-83889063D02*
X96804237Y-83949540D01*
X96804237Y-83949540D02*
X96985666Y-84010016D01*
X96985666Y-84010016D02*
X97106618Y-84010016D01*
X97106618Y-84010016D02*
X97288047Y-83949540D01*
X97288047Y-83949540D02*
X97408999Y-83828587D01*
X97408999Y-83828587D02*
X97469476Y-83707635D01*
X97469476Y-83707635D02*
X97529952Y-83465730D01*
X97529952Y-83465730D02*
X97529952Y-83284301D01*
X97529952Y-83284301D02*
X97469476Y-83042397D01*
X97469476Y-83042397D02*
X97408999Y-82921444D01*
X97408999Y-82921444D02*
X97288047Y-82800492D01*
X97288047Y-82800492D02*
X97106618Y-82740016D01*
X97106618Y-82740016D02*
X96985666Y-82740016D01*
X96985666Y-82740016D02*
X96804237Y-82800492D01*
X96804237Y-82800492D02*
X96743761Y-82860968D01*
X96199476Y-84010016D02*
X96199476Y-82740016D01*
X96199476Y-82740016D02*
X95715666Y-82740016D01*
X95715666Y-82740016D02*
X95594714Y-82800492D01*
X95594714Y-82800492D02*
X95534237Y-82860968D01*
X95534237Y-82860968D02*
X95473761Y-82981920D01*
X95473761Y-82981920D02*
X95473761Y-83163349D01*
X95473761Y-83163349D02*
X95534237Y-83284301D01*
X95534237Y-83284301D02*
X95594714Y-83344778D01*
X95594714Y-83344778D02*
X95715666Y-83405254D01*
X95715666Y-83405254D02*
X96199476Y-83405254D01*
X79521382Y-113221854D02*
X79521382Y-111951854D01*
X79521382Y-111951854D02*
X79037572Y-111951854D01*
X79037572Y-111951854D02*
X78916620Y-112012330D01*
X78916620Y-112012330D02*
X78856143Y-112072806D01*
X78856143Y-112072806D02*
X78795667Y-112193758D01*
X78795667Y-112193758D02*
X78795667Y-112375187D01*
X78795667Y-112375187D02*
X78856143Y-112496139D01*
X78856143Y-112496139D02*
X78916620Y-112556616D01*
X78916620Y-112556616D02*
X79037572Y-112617092D01*
X79037572Y-112617092D02*
X79521382Y-112617092D01*
X78069953Y-113221854D02*
X78190905Y-113161378D01*
X78190905Y-113161378D02*
X78251382Y-113100901D01*
X78251382Y-113100901D02*
X78311858Y-112979949D01*
X78311858Y-112979949D02*
X78311858Y-112617092D01*
X78311858Y-112617092D02*
X78251382Y-112496139D01*
X78251382Y-112496139D02*
X78190905Y-112435663D01*
X78190905Y-112435663D02*
X78069953Y-112375187D01*
X78069953Y-112375187D02*
X77888524Y-112375187D01*
X77888524Y-112375187D02*
X77767572Y-112435663D01*
X77767572Y-112435663D02*
X77707096Y-112496139D01*
X77707096Y-112496139D02*
X77646620Y-112617092D01*
X77646620Y-112617092D02*
X77646620Y-112979949D01*
X77646620Y-112979949D02*
X77707096Y-113100901D01*
X77707096Y-113100901D02*
X77767572Y-113161378D01*
X77767572Y-113161378D02*
X77888524Y-113221854D01*
X77888524Y-113221854D02*
X78069953Y-113221854D01*
X77223286Y-112375187D02*
X76981381Y-113221854D01*
X76981381Y-113221854D02*
X76739476Y-112617092D01*
X76739476Y-112617092D02*
X76497572Y-113221854D01*
X76497572Y-113221854D02*
X76255667Y-112375187D01*
X75288048Y-113161378D02*
X75409000Y-113221854D01*
X75409000Y-113221854D02*
X75650905Y-113221854D01*
X75650905Y-113221854D02*
X75771858Y-113161378D01*
X75771858Y-113161378D02*
X75832334Y-113040425D01*
X75832334Y-113040425D02*
X75832334Y-112556616D01*
X75832334Y-112556616D02*
X75771858Y-112435663D01*
X75771858Y-112435663D02*
X75650905Y-112375187D01*
X75650905Y-112375187D02*
X75409000Y-112375187D01*
X75409000Y-112375187D02*
X75288048Y-112435663D01*
X75288048Y-112435663D02*
X75227572Y-112556616D01*
X75227572Y-112556616D02*
X75227572Y-112677568D01*
X75227572Y-112677568D02*
X75832334Y-112798520D01*
X74683287Y-113221854D02*
X74683287Y-112375187D01*
X74683287Y-112617092D02*
X74622810Y-112496139D01*
X74622810Y-112496139D02*
X74562334Y-112435663D01*
X74562334Y-112435663D02*
X74441382Y-112375187D01*
X74441382Y-112375187D02*
X74320429Y-112375187D01*
D11*
X100668619Y-87534905D02*
X100668619Y-88153952D01*
X100668619Y-88153952D02*
X101049571Y-87820619D01*
X101049571Y-87820619D02*
X101049571Y-87963476D01*
X101049571Y-87963476D02*
X101097190Y-88058714D01*
X101097190Y-88058714D02*
X101144809Y-88106333D01*
X101144809Y-88106333D02*
X101240047Y-88153952D01*
X101240047Y-88153952D02*
X101478142Y-88153952D01*
X101478142Y-88153952D02*
X101573380Y-88106333D01*
X101573380Y-88106333D02*
X101621000Y-88058714D01*
X101621000Y-88058714D02*
X101668619Y-87963476D01*
X101668619Y-87963476D02*
X101668619Y-87677762D01*
X101668619Y-87677762D02*
X101621000Y-87582524D01*
X101621000Y-87582524D02*
X101573380Y-87534905D01*
X100668619Y-88439667D02*
X101668619Y-88773000D01*
X101668619Y-88773000D02*
X100668619Y-89106333D01*
X100668619Y-89344429D02*
X100668619Y-89963476D01*
X100668619Y-89963476D02*
X101049571Y-89630143D01*
X101049571Y-89630143D02*
X101049571Y-89773000D01*
X101049571Y-89773000D02*
X101097190Y-89868238D01*
X101097190Y-89868238D02*
X101144809Y-89915857D01*
X101144809Y-89915857D02*
X101240047Y-89963476D01*
X101240047Y-89963476D02*
X101478142Y-89963476D01*
X101478142Y-89963476D02*
X101573380Y-89915857D01*
X101573380Y-89915857D02*
X101621000Y-89868238D01*
X101621000Y-89868238D02*
X101668619Y-89773000D01*
X101668619Y-89773000D02*
X101668619Y-89487286D01*
X101668619Y-89487286D02*
X101621000Y-89392048D01*
X101621000Y-89392048D02*
X101573380Y-89344429D01*
X104547286Y-118967142D02*
X104071095Y-118633809D01*
X104547286Y-118395714D02*
X103547286Y-118395714D01*
X103547286Y-118395714D02*
X103547286Y-118776666D01*
X103547286Y-118776666D02*
X103594905Y-118871904D01*
X103594905Y-118871904D02*
X103642524Y-118919523D01*
X103642524Y-118919523D02*
X103737762Y-118967142D01*
X103737762Y-118967142D02*
X103880619Y-118967142D01*
X103880619Y-118967142D02*
X103975857Y-118919523D01*
X103975857Y-118919523D02*
X104023476Y-118871904D01*
X104023476Y-118871904D02*
X104071095Y-118776666D01*
X104071095Y-118776666D02*
X104071095Y-118395714D01*
X103547286Y-119300476D02*
X104547286Y-119967142D01*
X103547286Y-119967142D02*
X104547286Y-119300476D01*
D12*
X87697763Y-113161378D02*
X87516334Y-113221854D01*
X87516334Y-113221854D02*
X87213953Y-113221854D01*
X87213953Y-113221854D02*
X87093001Y-113161378D01*
X87093001Y-113161378D02*
X87032525Y-113100901D01*
X87032525Y-113100901D02*
X86972048Y-112979949D01*
X86972048Y-112979949D02*
X86972048Y-112858997D01*
X86972048Y-112858997D02*
X87032525Y-112738044D01*
X87032525Y-112738044D02*
X87093001Y-112677568D01*
X87093001Y-112677568D02*
X87213953Y-112617092D01*
X87213953Y-112617092D02*
X87455858Y-112556616D01*
X87455858Y-112556616D02*
X87576810Y-112496139D01*
X87576810Y-112496139D02*
X87637287Y-112435663D01*
X87637287Y-112435663D02*
X87697763Y-112314711D01*
X87697763Y-112314711D02*
X87697763Y-112193758D01*
X87697763Y-112193758D02*
X87637287Y-112072806D01*
X87637287Y-112072806D02*
X87576810Y-112012330D01*
X87576810Y-112012330D02*
X87455858Y-111951854D01*
X87455858Y-111951854D02*
X87153477Y-111951854D01*
X87153477Y-111951854D02*
X86972048Y-112012330D01*
X86548715Y-112375187D02*
X86306810Y-113221854D01*
X86306810Y-113221854D02*
X86064905Y-112617092D01*
X86064905Y-112617092D02*
X85823001Y-113221854D01*
X85823001Y-113221854D02*
X85581096Y-112375187D01*
X85097287Y-113221854D02*
X85097287Y-112375187D01*
X85097287Y-111951854D02*
X85157763Y-112012330D01*
X85157763Y-112012330D02*
X85097287Y-112072806D01*
X85097287Y-112072806D02*
X85036810Y-112012330D01*
X85036810Y-112012330D02*
X85097287Y-111951854D01*
X85097287Y-111951854D02*
X85097287Y-112072806D01*
X84673953Y-112375187D02*
X84190144Y-112375187D01*
X84492525Y-111951854D02*
X84492525Y-113040425D01*
X84492525Y-113040425D02*
X84432048Y-113161378D01*
X84432048Y-113161378D02*
X84311096Y-113221854D01*
X84311096Y-113221854D02*
X84190144Y-113221854D01*
X83222525Y-113161378D02*
X83343477Y-113221854D01*
X83343477Y-113221854D02*
X83585382Y-113221854D01*
X83585382Y-113221854D02*
X83706334Y-113161378D01*
X83706334Y-113161378D02*
X83766811Y-113100901D01*
X83766811Y-113100901D02*
X83827287Y-112979949D01*
X83827287Y-112979949D02*
X83827287Y-112617092D01*
X83827287Y-112617092D02*
X83766811Y-112496139D01*
X83766811Y-112496139D02*
X83706334Y-112435663D01*
X83706334Y-112435663D02*
X83585382Y-112375187D01*
X83585382Y-112375187D02*
X83343477Y-112375187D01*
X83343477Y-112375187D02*
X83222525Y-112435663D01*
X82678240Y-113221854D02*
X82678240Y-111951854D01*
X82133954Y-113221854D02*
X82133954Y-112556616D01*
X82133954Y-112556616D02*
X82194430Y-112435663D01*
X82194430Y-112435663D02*
X82315382Y-112375187D01*
X82315382Y-112375187D02*
X82496811Y-112375187D01*
X82496811Y-112375187D02*
X82617763Y-112435663D01*
X82617763Y-112435663D02*
X82678240Y-112496139D01*
X74407637Y-119224599D02*
X75677637Y-119647932D01*
X75677637Y-119647932D02*
X74407637Y-120071266D01*
X75677637Y-120494598D02*
X74830970Y-120494598D01*
X74407637Y-120494598D02*
X74468113Y-120434122D01*
X74468113Y-120434122D02*
X74528589Y-120494598D01*
X74528589Y-120494598D02*
X74468113Y-120555075D01*
X74468113Y-120555075D02*
X74407637Y-120494598D01*
X74407637Y-120494598D02*
X74528589Y-120494598D01*
X74830970Y-121099360D02*
X75677637Y-121099360D01*
X74951922Y-121099360D02*
X74891446Y-121159837D01*
X74891446Y-121159837D02*
X74830970Y-121280789D01*
X74830970Y-121280789D02*
X74830970Y-121462218D01*
X74830970Y-121462218D02*
X74891446Y-121583170D01*
X74891446Y-121583170D02*
X75012399Y-121643646D01*
X75012399Y-121643646D02*
X75677637Y-121643646D01*
D11*
X105155952Y-118490951D02*
X105155952Y-119062379D01*
X106155952Y-118776665D02*
X105155952Y-118776665D01*
X105155952Y-119300475D02*
X106155952Y-119967141D01*
X105155952Y-119967141D02*
X106155952Y-119300475D01*
X93096238Y-88011095D02*
X93048619Y-87915857D01*
X93048619Y-87915857D02*
X93048619Y-87773000D01*
X93048619Y-87773000D02*
X93096238Y-87630143D01*
X93096238Y-87630143D02*
X93191476Y-87534905D01*
X93191476Y-87534905D02*
X93286714Y-87487286D01*
X93286714Y-87487286D02*
X93477190Y-87439667D01*
X93477190Y-87439667D02*
X93620047Y-87439667D01*
X93620047Y-87439667D02*
X93810523Y-87487286D01*
X93810523Y-87487286D02*
X93905761Y-87534905D01*
X93905761Y-87534905D02*
X94001000Y-87630143D01*
X94001000Y-87630143D02*
X94048619Y-87773000D01*
X94048619Y-87773000D02*
X94048619Y-87868238D01*
X94048619Y-87868238D02*
X94001000Y-88011095D01*
X94001000Y-88011095D02*
X93953380Y-88058714D01*
X93953380Y-88058714D02*
X93620047Y-88058714D01*
X93620047Y-88058714D02*
X93620047Y-87868238D01*
X94048619Y-88487286D02*
X93048619Y-88487286D01*
X93048619Y-88487286D02*
X94048619Y-89058714D01*
X94048619Y-89058714D02*
X93048619Y-89058714D01*
X94048619Y-89534905D02*
X93048619Y-89534905D01*
X93048619Y-89534905D02*
X93048619Y-89773000D01*
X93048619Y-89773000D02*
X93096238Y-89915857D01*
X93096238Y-89915857D02*
X93191476Y-90011095D01*
X93191476Y-90011095D02*
X93286714Y-90058714D01*
X93286714Y-90058714D02*
X93477190Y-90106333D01*
X93477190Y-90106333D02*
X93620047Y-90106333D01*
X93620047Y-90106333D02*
X93810523Y-90058714D01*
X93810523Y-90058714D02*
X93905761Y-90011095D01*
X93905761Y-90011095D02*
X94001000Y-89915857D01*
X94001000Y-89915857D02*
X94048619Y-89773000D01*
X94048619Y-89773000D02*
X94048619Y-89534905D01*
D13*
%TO.C,J2*%
X99798405Y-123037600D02*
G75*
G02*
X99439195Y-123037600I-179605J0D01*
G01*
X99439195Y-123037600D02*
G75*
G02*
X99798405Y-123037600I179605J0D01*
G01*
%TO.C,J3*%
X110212405Y-123037600D02*
G75*
G02*
X109853195Y-123037600I-179605J0D01*
G01*
X109853195Y-123037600D02*
G75*
G02*
X110212405Y-123037600I179605J0D01*
G01*
%TD*%
M02*
