M48
; DRILL file {KiCad 9.0.1} date 2025-07-04T09:36:58-0500
; FORMAT={-:-/ absolute / inch / decimal}
; #@! TF.CreationDate,2025-07-04T09:36:58-05:00
; #@! TF.GenerationSoftware,Kicad,Pcbnew,9.0.1
; #@! TF.FileFunction,Plated,1,2,PTH
FMAT,2
INCH
; #@! TA.AperFunction,Plated,PTH,ViaDrill
T1C0.0100
; #@! TA.AperFunction,Plated,PTH,ComponentDrill
T2C0.0315
; #@! TA.AperFunction,Plated,PTH,ComponentDrill
T3C0.0378
; #@! TA.AperFunction,Plated,PTH,ComponentDrill
T4C0.0380
; #@! TA.AperFunction,Plated,PTH,ComponentDrill
T5C0.0394
; #@! TA.AperFunction,Plated,PTH,ComponentDrill
T6C0.0433
; #@! TA.AperFunction,Plated,PTH,ComponentDrill
T7C0.0590
%
G90
G05
T1
X3.405Y-4.3
X3.46Y-3.82
X3.76Y-4.13
X3.87Y-3.755
X3.878Y-4.22
X3.904Y-4.22
X3.92Y-4.0
X3.93Y-4.22
X3.97Y-4.0
X3.9919Y-4.014
X4.015Y-3.995
X4.0187Y-4.6119
X4.04Y-4.67
X4.0687Y-4.6363
X4.085Y-3.49
X4.09Y-4.25
X4.1011Y-4.032
X4.11Y-3.645
X4.112Y-4.228
X4.1247Y-4.054
X4.1303Y-3.7052
X4.145Y-4.0721
X4.1487Y-4.6853
X4.15Y-3.775
X4.165Y-3.683
X4.185Y-3.82
X4.19Y-4.704
X4.205Y-4.66
X4.21Y-4.325
X4.265Y-4.18
X4.2658Y-3.9222
X4.4213Y-4.122
X4.425Y-4.8
X4.4724Y-4.2638
X4.4797Y-3.8998
X4.505Y-3.9058
X4.5197Y-4.1024
X4.6176Y-4.0424
X4.68Y-4.755
X4.8031Y-4.422
X4.8106Y-4.2609
X4.823Y-4.745
X4.8738Y-4.5777
X4.8777Y-4.755
X4.8995Y-4.5739
X4.95Y-4.777
X5.035Y-4.722
X5.09Y-4.606
X5.14Y-4.48
X5.14Y-4.935
X5.25Y-4.585
X5.25Y-4.675
X5.25Y-4.827
X5.25Y-4.7671
X5.2572Y-4.8922
X5.285Y-4.625
X5.759Y-4.589
X5.76Y-4.635
X5.76Y-4.675
X5.76Y-4.845
X5.7622Y-4.8922
X5.7628Y-4.7622
X6.015Y-3.545
X6.015Y-4.22
X6.24Y-4.415
X6.6843Y-4.9387
X6.6889Y-4.9131
X6.7Y-3.29
X6.7Y-4.025
X7.0Y-3.5
X7.0Y-3.7
X7.0Y-3.9
X7.0Y-4.3
X7.0Y-4.5
X7.0Y-4.7
X7.2Y-3.5
X7.2Y-3.7
X7.2Y-3.9
X7.2Y-4.3
X7.2Y-4.5
X7.2Y-4.7
X7.4Y-3.5
X7.4Y-3.7
X7.4Y-4.5
X7.4Y-4.7
X7.45Y-3.95
X7.45Y-4.025
X7.45Y-4.1
X7.45Y-4.175
X7.45Y-4.25
X7.525Y-3.95
X7.525Y-4.025
X7.525Y-4.1
X7.525Y-4.175
X7.525Y-4.25
X7.6Y-3.5
X7.6Y-3.7
X7.6Y-3.95
X7.6Y-4.025
X7.6Y-4.1
X7.6Y-4.175
X7.6Y-4.25
X7.675Y-3.95
X7.675Y-4.025
X7.675Y-4.1
X7.675Y-4.175
X7.675Y-4.25
X7.75Y-3.95
X7.75Y-4.025
X7.75Y-4.1
X7.75Y-4.175
X7.75Y-4.25
X7.8Y-3.5
X7.8Y-3.7
X7.8Y-4.5
X7.8Y-4.7
X8.0Y-3.5
X8.0Y-3.7
X8.0Y-3.9
X8.0Y-4.3
X8.0Y-4.5
X8.0Y-4.7
X8.2Y-3.5
X8.2Y-3.7
X8.2Y-3.9
X8.2Y-4.3
X8.2Y-4.5
X8.2Y-4.7
T2
X5.6612Y-3.4462
X5.6612Y-4.3124
X5.7399Y-3.4462
X5.7399Y-4.3124
X5.8187Y-3.4462
X5.8187Y-4.3124
X5.8974Y-3.4462
X5.8974Y-4.3124
X5.9761Y-3.4462
X5.9761Y-4.3124
X6.0549Y-3.4462
X6.0549Y-4.3124
X6.1336Y-3.4462
X6.1336Y-4.3124
X6.2124Y-3.4462
X6.2124Y-4.3124
X6.2911Y-3.4462
X6.2911Y-4.3124
X6.3698Y-3.4462
X6.3698Y-4.3124
T3
X3.18Y-3.4154
X3.28Y-3.4154
X3.38Y-3.4154
T4
X3.6414Y-4.948
X3.6914Y-4.848
X3.7414Y-4.948
X3.7914Y-4.848
X4.0514Y-4.948
X4.1014Y-4.848
X4.1514Y-4.948
X4.2014Y-4.848
T5
X3.525Y-4.1602
X3.525Y-4.2602
X3.6854Y-3.375
X3.7854Y-3.375
X3.8854Y-3.375
X3.9854Y-3.375
T6
X2.9577Y-4.5541
X3.1166Y-4.5541
X3.2677Y-4.5541
X3.4266Y-4.5541
T7
X3.5704Y-4.79
X3.8621Y-4.79
X3.9804Y-4.79
X4.2721Y-4.79
M30
