%TF.GenerationSoftware,KiCad,Pcbnew,9.0.1*%
%TF.CreationDate,2025-07-04T09:36:57-05:00*%
%TF.ProjectId,Orientation_Paddle,4f726965-6e74-4617-9469-6f6e5f506164,2.1*%
%TF.SameCoordinates,Original*%
%TF.FileFunction,Paste,Top*%
%TF.FilePolarity,Positive*%
%FSLAX46Y46*%
G04 Gerber Fmt 4.6, Leading zero omitted, Abs format (unit mm)*
G04 Created by KiCad (PCBNEW 9.0.1) date 2025-07-04 09:36:57*
%MOMM*%
%LPD*%
G01*
G04 APERTURE LIST*
G04 Aperture macros list*
%AMRoundRect*
0 Rectangle with rounded corners*
0 $1 Rounding radius*
0 $2 $3 $4 $5 $6 $7 $8 $9 X,Y pos of 4 corners*
0 Add a 4 corners polygon primitive as box body*
4,1,4,$2,$3,$4,$5,$6,$7,$8,$9,$2,$3,0*
0 Add four circle primitives for the rounded corners*
1,1,$1+$1,$2,$3*
1,1,$1+$1,$4,$5*
1,1,$1+$1,$6,$7*
1,1,$1+$1,$8,$9*
0 Add four rect primitives between the rounded corners*
20,1,$1+$1,$2,$3,$4,$5,0*
20,1,$1+$1,$4,$5,$6,$7,0*
20,1,$1+$1,$6,$7,$8,$9,0*
20,1,$1+$1,$8,$9,$2,$3,0*%
G04 Aperture macros list end*
%ADD10RoundRect,0.218750X-0.218750X-0.256250X0.218750X-0.256250X0.218750X0.256250X-0.218750X0.256250X0*%
%ADD11RoundRect,0.218750X0.218750X0.256250X-0.218750X0.256250X-0.218750X-0.256250X0.218750X-0.256250X0*%
%ADD12RoundRect,0.075000X-0.662500X-0.075000X0.662500X-0.075000X0.662500X0.075000X-0.662500X0.075000X0*%
%ADD13RoundRect,0.075000X-0.075000X-0.662500X0.075000X-0.662500X0.075000X0.662500X-0.075000X0.662500X0*%
%ADD14R,2.184400X2.184400*%
%ADD15RoundRect,0.218750X-0.256250X0.218750X-0.256250X-0.218750X0.256250X-0.218750X0.256250X0.218750X0*%
%ADD16RoundRect,0.243750X0.456250X-0.243750X0.456250X0.243750X-0.456250X0.243750X-0.456250X-0.243750X0*%
%ADD17RoundRect,0.150000X0.150000X-0.587500X0.150000X0.587500X-0.150000X0.587500X-0.150000X-0.587500X0*%
%ADD18R,1.900000X0.400000*%
%ADD19RoundRect,0.218750X0.256250X-0.218750X0.256250X0.218750X-0.256250X0.218750X-0.256250X-0.218750X0*%
%ADD20RoundRect,0.150000X-0.587500X-0.150000X0.587500X-0.150000X0.587500X0.150000X-0.587500X0.150000X0*%
%ADD21RoundRect,0.250000X2.475000X-0.712500X2.475000X0.712500X-2.475000X0.712500X-2.475000X-0.712500X0*%
%ADD22RoundRect,0.243750X0.243750X0.456250X-0.243750X0.456250X-0.243750X-0.456250X0.243750X-0.456250X0*%
%ADD23R,4.500000X2.300000*%
%ADD24R,1.200000X1.800000*%
%ADD25R,0.600000X1.550000*%
%ADD26R,0.400000X0.400000*%
%ADD27RoundRect,0.250000X0.625000X-0.375000X0.625000X0.375000X-0.625000X0.375000X-0.625000X-0.375000X0*%
%ADD28R,2.150000X5.500000*%
%ADD29R,0.720000X0.580000*%
%ADD30R,0.580000X0.720000*%
%ADD31R,2.000000X0.700000*%
%ADD32R,1.400000X2.700000*%
%ADD33R,2.600000X1.000000*%
%ADD34R,2.600000X1.500000*%
%ADD35R,1.200000X1.200000*%
G04 APERTURE END LIST*
D10*
%TO.C,R6*%
X130530500Y-121085000D03*
X132105500Y-121085000D03*
%TD*%
D11*
%TO.C,R18*%
X193954500Y-123317000D03*
X192379500Y-123317000D03*
%TD*%
D12*
%TO.C,U2*%
X98453500Y-98596000D03*
X98453500Y-99096000D03*
X98453500Y-99596000D03*
X98453500Y-100096000D03*
X98453500Y-100596000D03*
X98453500Y-101096000D03*
X98453500Y-101596000D03*
X98453500Y-102096000D03*
X98453500Y-102596000D03*
X98453500Y-103096000D03*
X98453500Y-103596000D03*
X98453500Y-104096000D03*
D13*
X99866000Y-105508500D03*
X100366000Y-105508500D03*
X100866000Y-105508500D03*
X101366000Y-105508500D03*
X101866000Y-105508500D03*
X102366000Y-105508500D03*
X102866000Y-105508500D03*
X103366000Y-105508500D03*
X103866000Y-105508500D03*
X104366000Y-105508500D03*
X104866000Y-105508500D03*
X105366000Y-105508500D03*
D12*
X106778500Y-104096000D03*
X106778500Y-103596000D03*
X106778500Y-103096000D03*
X106778500Y-102596000D03*
X106778500Y-102096000D03*
X106778500Y-101596000D03*
X106778500Y-101096000D03*
X106778500Y-100596000D03*
X106778500Y-100096000D03*
X106778500Y-99596000D03*
X106778500Y-99096000D03*
X106778500Y-98596000D03*
D13*
X105366000Y-97183500D03*
X104866000Y-97183500D03*
X104366000Y-97183500D03*
X103866000Y-97183500D03*
X103366000Y-97183500D03*
X102866000Y-97183500D03*
X102366000Y-97183500D03*
X101866000Y-97183500D03*
X101366000Y-97183500D03*
X100866000Y-97183500D03*
X100366000Y-97183500D03*
X99866000Y-97183500D03*
%TD*%
D14*
%TO.C,D2*%
X76428600Y-104521000D03*
X80137000Y-104521000D03*
%TD*%
D15*
%TO.C,R3*%
X106934000Y-88747500D03*
X106934000Y-90322500D03*
%TD*%
D10*
%TO.C,R10*%
X130530500Y-118037000D03*
X132105500Y-118037000D03*
%TD*%
D16*
%TO.C,D3*%
X162814000Y-122832000D03*
X162814000Y-120957000D03*
%TD*%
D17*
%TO.C,Q1*%
X74361000Y-100935000D03*
X76261000Y-100935000D03*
X75311000Y-99060000D03*
%TD*%
D18*
%TO.C,Y1*%
X94742000Y-99638000D03*
X94742000Y-100838000D03*
X94742000Y-102038000D03*
%TD*%
D10*
%TO.C,R9*%
X101828500Y-92710000D03*
X103403500Y-92710000D03*
%TD*%
D19*
%TO.C,R15*%
X167513000Y-119405500D03*
X167513000Y-117830500D03*
%TD*%
D15*
%TO.C,R14*%
X162814000Y-117805000D03*
X162814000Y-119380000D03*
%TD*%
%TO.C,C13*%
X195834000Y-83540500D03*
X195834000Y-85115500D03*
%TD*%
D10*
%TO.C,R20*%
X130530500Y-124133000D03*
X132105500Y-124133000D03*
%TD*%
D19*
%TO.C,R16*%
X155829000Y-113690500D03*
X155829000Y-112115500D03*
%TD*%
D11*
%TO.C,R11*%
X105562500Y-109855000D03*
X103987500Y-109855000D03*
%TD*%
D19*
%TO.C,C3*%
X113665000Y-123469500D03*
X113665000Y-121894500D03*
%TD*%
D16*
%TO.C,D5*%
X159385000Y-122832000D03*
X159385000Y-120957000D03*
%TD*%
D20*
%TO.C,D1*%
X74422000Y-110094297D03*
X74422000Y-108194297D03*
X76297000Y-109144297D03*
%TD*%
D15*
%TO.C,C5*%
X106934000Y-106146500D03*
X106934000Y-107721500D03*
%TD*%
D19*
%TO.C,R17*%
X159385000Y-119380000D03*
X159385000Y-117805000D03*
%TD*%
D21*
%TO.C,F1*%
X70612000Y-105876500D03*
X70612000Y-99101500D03*
%TD*%
D15*
%TO.C,R1*%
X72517000Y-108422797D03*
X72517000Y-109997797D03*
%TD*%
D22*
%TO.C,C10*%
X161768000Y-84836000D03*
X159893000Y-84836000D03*
%TD*%
D15*
%TO.C,C9*%
X85002000Y-106113500D03*
X85002000Y-107688500D03*
%TD*%
D11*
%TO.C,C8*%
X98298000Y-96545500D03*
X96723000Y-96545500D03*
%TD*%
%TO.C,R8*%
X103403500Y-94234000D03*
X101828500Y-94234000D03*
%TD*%
D10*
%TO.C,R12*%
X103987500Y-111379000D03*
X105562500Y-111379000D03*
%TD*%
D19*
%TO.C,R5*%
X86526000Y-107688500D03*
X86526000Y-106113500D03*
%TD*%
D10*
%TO.C,R13*%
X130530500Y-114989000D03*
X132105500Y-114989000D03*
%TD*%
D15*
%TO.C,C15*%
X157353000Y-112115500D03*
X157353000Y-113690500D03*
%TD*%
D23*
%TO.C,BT1*%
X130276000Y-88646000D03*
X113876000Y-88646000D03*
%TD*%
D15*
%TO.C,R4*%
X105410000Y-88747500D03*
X105410000Y-90322500D03*
%TD*%
D10*
%TO.C,C6*%
X107416500Y-97028000D03*
X108991500Y-97028000D03*
%TD*%
D24*
%TO.C,J1*%
X126194200Y-126162000D03*
X120594200Y-126162000D03*
D25*
X121894200Y-122287000D03*
X122894200Y-122287000D03*
X123894200Y-122287000D03*
X124894200Y-122287000D03*
%TD*%
D10*
%TO.C,R7*%
X130530500Y-122609000D03*
X132105500Y-122609000D03*
%TD*%
D16*
%TO.C,D4*%
X167513000Y-122779000D03*
X167513000Y-120904000D03*
%TD*%
D11*
%TO.C,C11*%
X161618000Y-83058000D03*
X160043000Y-83058000D03*
%TD*%
D26*
%TO.C,U1*%
X117692000Y-119958000D03*
X117692000Y-120758000D03*
X117692000Y-121558000D03*
X117692000Y-122358000D03*
X115292000Y-122358000D03*
X115292000Y-121558000D03*
X115292000Y-120758000D03*
X115292000Y-119958000D03*
%TD*%
D10*
%TO.C,C14*%
X172567500Y-100965000D03*
X174142500Y-100965000D03*
%TD*%
D27*
%TO.C,C2*%
X78740000Y-95009000D03*
X78740000Y-92209000D03*
%TD*%
D28*
%TO.C,L1*%
X85237000Y-93609000D03*
X81387000Y-93609000D03*
%TD*%
D27*
%TO.C,C1*%
X87884000Y-95009000D03*
X87884000Y-92209000D03*
%TD*%
D11*
%TO.C,R19*%
X193954500Y-124841000D03*
X192379500Y-124841000D03*
%TD*%
D29*
%TO.C,U4*%
X185940000Y-99915000D03*
X185940000Y-100765000D03*
X185940000Y-101815000D03*
X185940000Y-102665000D03*
X185940000Y-103715000D03*
X185940000Y-104565000D03*
X185940000Y-105615000D03*
X185940000Y-106465000D03*
X185940000Y-107515000D03*
X185940000Y-108365000D03*
X186940000Y-99915000D03*
X186940000Y-100765000D03*
X186940000Y-101815000D03*
X186940000Y-102665000D03*
X186940000Y-103715000D03*
X186940000Y-104565000D03*
X186940000Y-105615000D03*
X186940000Y-106465000D03*
X186940000Y-107515000D03*
X186940000Y-108365000D03*
D30*
X188815000Y-97040000D03*
X188815000Y-98040000D03*
X188815000Y-110240000D03*
X188815000Y-111240000D03*
X189665000Y-97040000D03*
X189665000Y-98040000D03*
X189665000Y-110240000D03*
X189665000Y-111240000D03*
X190715000Y-97040000D03*
X190715000Y-98040000D03*
X190715000Y-110240000D03*
X190715000Y-111240000D03*
X191565000Y-97040000D03*
X191565000Y-98040000D03*
X191565000Y-110240000D03*
X191565000Y-111240000D03*
X192615000Y-97040000D03*
X192615000Y-98040000D03*
X192615000Y-110240000D03*
X192615000Y-111240000D03*
X193465000Y-97040000D03*
X193465000Y-98040000D03*
X193465000Y-110240000D03*
X193465000Y-111240000D03*
X194515000Y-97040000D03*
X194515000Y-98040000D03*
X194515000Y-110240000D03*
X194515000Y-111240000D03*
X195365000Y-97040000D03*
X195365000Y-98040000D03*
X195365000Y-110240000D03*
X195365000Y-111240000D03*
X196415000Y-97040000D03*
X196415000Y-98040000D03*
X196415000Y-110240000D03*
X196415000Y-111240000D03*
X197265000Y-97040000D03*
X197265000Y-98040000D03*
X197265000Y-110240000D03*
X197265000Y-111240000D03*
D29*
X199140000Y-99915000D03*
X199140000Y-100765000D03*
X199140000Y-101815000D03*
X199140000Y-102665000D03*
X199140000Y-103715000D03*
X199140000Y-104565000D03*
X199140000Y-105615000D03*
X199140000Y-106465000D03*
X199140000Y-107515000D03*
X199140000Y-108365000D03*
X200140000Y-99915000D03*
X200140000Y-100765000D03*
X200140000Y-101815000D03*
X200140000Y-102665000D03*
X200140000Y-103715000D03*
X200140000Y-104565000D03*
X200140000Y-105615000D03*
X200140000Y-106465000D03*
X200140000Y-107515000D03*
X200140000Y-108365000D03*
%TD*%
D10*
%TO.C,C16*%
X130530500Y-119561000D03*
X132105500Y-119561000D03*
%TD*%
D15*
%TO.C,R2*%
X92329000Y-100050500D03*
X92329000Y-101625500D03*
%TD*%
D10*
%TO.C,R21*%
X130530500Y-116513000D03*
X132105500Y-116513000D03*
%TD*%
D11*
%TO.C,C7*%
X95529500Y-103759000D03*
X93954500Y-103759000D03*
%TD*%
D15*
%TO.C,C4*%
X113665000Y-118846500D03*
X113665000Y-120421500D03*
%TD*%
%TO.C,C12*%
X163576000Y-83185000D03*
X163576000Y-84760000D03*
%TD*%
D31*
%TO.C,J9*%
X148082000Y-116561000D03*
X148082000Y-117661000D03*
X148082000Y-118761000D03*
X148082000Y-119861000D03*
X148082000Y-120961000D03*
X148082000Y-122061000D03*
X148082000Y-123161000D03*
X148082000Y-124261000D03*
D32*
X135382000Y-117961000D03*
D33*
X147582000Y-126361000D03*
D34*
X147582000Y-113011000D03*
D32*
X135382000Y-122861000D03*
D35*
X135282000Y-114911000D03*
%TD*%
M02*
