%TF.GenerationSoftware,KiCad,Pcbnew,9.0.1*%
%TF.CreationDate,2025-07-04T09:36:57-05:00*%
%TF.ProjectId,Orientation_Paddle,4f726965-6e74-4617-9469-6f6e5f506164,2.1*%
%TF.SameCoordinates,Original*%
%TF.FileFunction,Copper,L2,Bot*%
%TF.FilePolarity,Positive*%
%FSLAX46Y46*%
G04 Gerber Fmt 4.6, Leading zero omitted, Abs format (unit mm)*
G04 Created by KiCad (PCBNEW 9.0.1) date 2025-07-04 09:36:57*
%MOMM*%
%LPD*%
G01*
G04 APERTURE LIST*
G04 Aperture macros list*
%AMRoundRect*
0 Rectangle with rounded corners*
0 $1 Rounding radius*
0 $2 $3 $4 $5 $6 $7 $8 $9 X,Y pos of 4 corners*
0 Add a 4 corners polygon primitive as box body*
4,1,4,$2,$3,$4,$5,$6,$7,$8,$9,$2,$3,0*
0 Add four circle primitives for the rounded corners*
1,1,$1+$1,$2,$3*
1,1,$1+$1,$4,$5*
1,1,$1+$1,$6,$7*
1,1,$1+$1,$8,$9*
0 Add four rect primitives between the rounded corners*
20,1,$1+$1,$2,$3,$4,$5,0*
20,1,$1+$1,$4,$5,$6,$7,0*
20,1,$1+$1,$6,$7,$8,$9,0*
20,1,$1+$1,$8,$9,$2,$3,0*%
G04 Aperture macros list end*
%TA.AperFunction,ComponentPad*%
%ADD10R,1.468000X1.468000*%
%TD*%
%TA.AperFunction,ComponentPad*%
%ADD11C,1.468000*%
%TD*%
%TA.AperFunction,ComponentPad*%
%ADD12RoundRect,0.249900X-0.800100X-0.800100X0.800100X-0.800100X0.800100X0.800100X-0.800100X0.800100X0*%
%TD*%
%TA.AperFunction,ComponentPad*%
%ADD13C,2.100000*%
%TD*%
%TA.AperFunction,WasherPad*%
%ADD14C,3.937000*%
%TD*%
%TA.AperFunction,ComponentPad*%
%ADD15C,2.032000*%
%TD*%
%TA.AperFunction,ComponentPad*%
%ADD16C,1.524000*%
%TD*%
%TA.AperFunction,ComponentPad*%
%ADD17R,1.700000X1.700000*%
%TD*%
%TA.AperFunction,ComponentPad*%
%ADD18O,1.700000X1.700000*%
%TD*%
%TA.AperFunction,ComponentPad*%
%ADD19R,1.350000X1.350000*%
%TD*%
%TA.AperFunction,ComponentPad*%
%ADD20O,1.350000X1.350000*%
%TD*%
%TA.AperFunction,ViaPad*%
%ADD21C,0.508000*%
%TD*%
%TA.AperFunction,Conductor*%
%ADD22C,0.508000*%
%TD*%
%TA.AperFunction,Conductor*%
%ADD23C,0.304800*%
%TD*%
G04 APERTURE END LIST*
D10*
%TO.P,PS1,1,+VIN*%
%TO.N,Net-(PS1-+VIN)*%
X80772000Y-86750000D03*
D11*
%TO.P,PS1,2,GND*%
%TO.N,GND*%
X83312000Y-86750000D03*
%TO.P,PS1,3,+VOUT*%
%TO.N,+3V3*%
X85852000Y-86750000D03*
%TD*%
D12*
%TO.P,J4,1,Pin_1*%
%TO.N,GND*%
X79161000Y-115675000D03*
D13*
%TO.P,J4,2,Pin_2*%
%TO.N,Net-(J4-Pin_2)*%
X75125000Y-115675000D03*
%TD*%
D14*
%TO.P,H4,*%
%TO.N,*%
X217805000Y-85090000D03*
%TD*%
D15*
%TO.P,J2,*%
%TO.N,*%
X90688546Y-121666000D03*
X98098546Y-121666000D03*
D16*
%TO.P,J2,1,Pin_1*%
%TO.N,GND*%
X96301946Y-123139200D03*
%TO.P,J2,2,Pin_2*%
%TO.N,Status_LED_R*%
X95031946Y-125679200D03*
%TO.P,J2,3,Pin_3*%
%TO.N,Status_LED_G*%
X93761946Y-123139200D03*
%TO.P,J2,4,Pin_4*%
%TO.N,Status_LED_B*%
X92491946Y-125679200D03*
%TD*%
D14*
%TO.P,H1,*%
%TO.N,*%
X67945000Y-123190000D03*
%TD*%
D15*
%TO.P,J3,*%
%TO.N,*%
X101102546Y-121666000D03*
X108512546Y-121666000D03*
D16*
%TO.P,J3,1,Pin_1*%
%TO.N,GND*%
X106715946Y-123139200D03*
%TO.P,J3,2,Pin_2*%
%TO.N,UART3_TX*%
X105445946Y-125679200D03*
%TO.P,J3,3,Pin_3*%
%TO.N,UART3_RX*%
X104175946Y-123139200D03*
%TO.P,J3,4,Pin_4*%
%TO.N,+3V3*%
X102905946Y-125679200D03*
%TD*%
D17*
%TO.P,J6,1,Pin_1*%
%TO.N,GND*%
X93609000Y-85725000D03*
D18*
%TO.P,J6,2,Pin_2*%
%TO.N,SWCLK*%
X96149000Y-85725000D03*
%TO.P,J6,3,Pin_3*%
%TO.N,SWDIO*%
X98689000Y-85725000D03*
%TO.P,J6,4,Pin_4*%
%TO.N,+3V3*%
X101229000Y-85725000D03*
%TD*%
D12*
%TO.P,J5,1,Pin_1*%
%TO.N,+BATT*%
X87035000Y-115675000D03*
D13*
%TO.P,J5,2,Pin_2*%
%TO.N,Net-(D1-K)*%
X82999000Y-115675000D03*
%TD*%
D14*
%TO.P,H2,*%
%TO.N,*%
X217805000Y-123190000D03*
%TD*%
D19*
%TO.P,U3,1,VCC*%
%TO.N,+3V3*%
X161794000Y-87534000D03*
D20*
%TO.P,U3,2,DOUT/DIO13*%
%TO.N,XBee_RX*%
X159794000Y-87534000D03*
%TO.P,U3,3,DIN/DIO13*%
%TO.N,XBee_TX*%
X157794000Y-87534000D03*
%TO.P,U3,4,DIO12/MISO*%
%TO.N,unconnected-(U3-DIO12{slash}MISO-Pad4)*%
X155794000Y-87534000D03*
%TO.P,U3,5,nRESET*%
%TO.N,unconnected-(U3-nRESET-Pad5)*%
X153794000Y-87534000D03*
%TO.P,U3,6,~{DIO10/PWM0}*%
%TO.N,Net-(U3-~{DIO10{slash}PWM0})*%
X151794000Y-87534000D03*
%TO.P,U3,7,DIO11/PWM1*%
%TO.N,unconnected-(U3-DIO11{slash}PWM1-Pad7)*%
X149794000Y-87534000D03*
%TO.P,U3,8,RSVD*%
%TO.N,unconnected-(U3-RSVD-Pad8)*%
X147794000Y-87534000D03*
%TO.P,U3,9,nDTR/DIO8*%
%TO.N,unconnected-(U3-nDTR{slash}DIO8-Pad9)*%
X145794000Y-87534000D03*
%TO.P,U3,10,GND*%
%TO.N,GND*%
X143794000Y-87534000D03*
%TO.P,U3,11,DIO3/MOSI*%
%TO.N,unconnected-(U3-DIO3{slash}MOSI-Pad11)*%
X143794000Y-109534000D03*
%TO.P,U3,12,nCTS/DIO7*%
%TO.N,unconnected-(U3-nCTS{slash}DIO7-Pad12)*%
X145794000Y-109534000D03*
%TO.P,U3,13,nSLEEP/DIO9*%
%TO.N,unconnected-(U3-nSLEEP{slash}DIO9-Pad13)*%
X147794000Y-109534000D03*
%TO.P,U3,14,VREF*%
%TO.N,unconnected-(U3-VREF-Pad14)*%
X149794000Y-109534000D03*
%TO.P,U3,15,Assoc/DIO5*%
%TO.N,Net-(U3-Assoc{slash}DIO5)*%
X151794000Y-109534000D03*
%TO.P,U3,16,nRTS/DIO6*%
%TO.N,unconnected-(U3-nRTS{slash}DIO6-Pad16)*%
X153794000Y-109534000D03*
%TO.P,U3,17,AD3/DIO3/nSSEL*%
%TO.N,Net-(U3-AD3{slash}DIO3{slash}nSSEL)*%
X155794000Y-109534000D03*
%TO.P,U3,18,AD2/DIO2/CLK*%
%TO.N,unconnected-(U3-AD2{slash}DIO2{slash}CLK-Pad18)*%
X157794000Y-109534000D03*
%TO.P,U3,19,AD1/DIO1/ATTN*%
%TO.N,unconnected-(U3-AD1{slash}DIO1{slash}ATTN-Pad19)*%
X159794000Y-109534000D03*
%TO.P,U3,20,AD0/DIO0*%
%TO.N,unconnected-(U3-AD0{slash}DIO0-Pad20)*%
X161794000Y-109534000D03*
%TD*%
D14*
%TO.P,H3,*%
%TO.N,*%
X67945000Y-85090000D03*
%TD*%
D17*
%TO.P,J7,1,Pin_1*%
%TO.N,GND*%
X89535000Y-108209000D03*
D18*
%TO.P,J7,2,Pin_2*%
%TO.N,Reset*%
X89535000Y-105669000D03*
%TD*%
D21*
%TO.N,GND*%
X193040000Y-93980000D03*
X191135000Y-104140000D03*
X208280000Y-99060000D03*
X177800000Y-119380000D03*
X191135000Y-107950000D03*
X203200000Y-109220000D03*
X177800000Y-99060000D03*
X194945000Y-100330000D03*
X196850000Y-107950000D03*
X208280000Y-93980000D03*
X194945000Y-107950000D03*
X203200000Y-119380000D03*
X191135000Y-106045000D03*
X182880000Y-109220000D03*
X182880000Y-119380000D03*
X193040000Y-102235000D03*
X177800000Y-109220000D03*
X208280000Y-114300000D03*
X194945000Y-106045000D03*
X198120000Y-93980000D03*
X194945000Y-102235000D03*
X203200000Y-93980000D03*
X203200000Y-114300000D03*
X187960000Y-119380000D03*
X208280000Y-119380000D03*
X196850000Y-100330000D03*
X189230000Y-107950000D03*
X182880000Y-88900000D03*
X182880000Y-93980000D03*
X182880000Y-114300000D03*
X189230000Y-104140000D03*
X187960000Y-93980000D03*
X193040000Y-104140000D03*
X198120000Y-88900000D03*
X182880000Y-99060000D03*
X177800000Y-93980000D03*
X187960000Y-114300000D03*
X191135000Y-102235000D03*
X193040000Y-100330000D03*
X177800000Y-114300000D03*
X198120000Y-119380000D03*
X193040000Y-106045000D03*
X196850000Y-104140000D03*
X194945000Y-104140000D03*
X203200000Y-99060000D03*
X189230000Y-100330000D03*
X196850000Y-106045000D03*
X189230000Y-102235000D03*
X191135000Y-100330000D03*
X203200000Y-88900000D03*
X198120000Y-114300000D03*
X208280000Y-109220000D03*
X196850000Y-102235000D03*
X193040000Y-88900000D03*
X189230000Y-106045000D03*
X177800000Y-88900000D03*
X193040000Y-107950000D03*
X187960000Y-88900000D03*
X208280000Y-88900000D03*
%TO.N,+3V3*%
X98298000Y-95377000D03*
X106934000Y-109855000D03*
X112395000Y-121920000D03*
X170180000Y-102235000D03*
X122505200Y-120523000D03*
X86487000Y-109220000D03*
X104394000Y-92583000D03*
X106299000Y-97028000D03*
X118872000Y-120777000D03*
X108331000Y-106172000D03*
X103759000Y-88646000D03*
X130556000Y-125349000D03*
X95504000Y-104902000D03*
X170180000Y-83566000D03*
X130556000Y-113792000D03*
%TO.N,+BATT*%
X87884000Y-97028000D03*
%TO.N,Reset*%
X127889000Y-119938800D03*
X158496000Y-112141000D03*
X129286000Y-116991401D03*
X99568000Y-101600000D03*
%TO.N,SDA*%
X169897167Y-124792452D03*
X123793601Y-116272338D03*
X104909751Y-94112167D03*
X123894200Y-120777000D03*
%TO.N,SCL*%
X169782047Y-125442743D03*
X124447014Y-116176510D03*
X105791000Y-93548200D03*
X125730000Y-121335800D03*
%TO.N,UART3_TX*%
X103886000Y-107950000D03*
X102075669Y-117143017D03*
%TO.N,UART3_RX*%
X104444300Y-107391700D03*
X102616351Y-118617647D03*
%TO.N,SWCLK*%
X105410000Y-95885000D03*
%TO.N,SWDIO*%
X108350242Y-99623719D03*
%TO.N,SD_CS*%
X103343822Y-117763178D03*
X146304000Y-117729000D03*
%TO.N,SPI_MOSI*%
X133350000Y-118745000D03*
X146304000Y-118745000D03*
X106807000Y-118364501D03*
%TO.N,SPI_SCK*%
X133351249Y-121084268D03*
X146374000Y-120961000D03*
X105377042Y-119006134D03*
%TO.N,SPI_MISO*%
X133350000Y-122605143D03*
X106426000Y-119481601D03*
X146304000Y-123063000D03*
%TO.N,Status_LED_G*%
X100838000Y-101600000D03*
X99161597Y-107188000D03*
%TO.N,SD_CD*%
X117287735Y-102676265D03*
X134239000Y-117475000D03*
%TO.N,Status_LED_R*%
X101394808Y-101955097D03*
X99822000Y-107188000D03*
%TO.N,Status_LED_B*%
X101981000Y-101473000D03*
X98501194Y-107188000D03*
%TO.N,XBee_TX*%
X114427000Y-99207300D03*
%TO.N,Net-(J9-DAT2)*%
X133350000Y-116459000D03*
X146279000Y-116561000D03*
%TO.N,XBee_RX*%
X113784789Y-99055525D03*
%TO.N,Net-(J9-DAT1)*%
X133532000Y-124261000D03*
X146359000Y-124261000D03*
%TO.N,Net-(U3-~{DIO10{slash}PWM0})*%
X152781000Y-90043000D03*
X152781000Y-107188000D03*
%TO.N,GPS_PPS*%
X122189928Y-108226449D03*
X104167479Y-102413297D03*
%TO.N,GPS_TX*%
X105283000Y-103430297D03*
X112300000Y-104700000D03*
%TO.N,GPS_RX*%
X114800000Y-104200000D03*
X104768085Y-102972097D03*
%TO.N,Net-(JP1-C)*%
X113600000Y-108300000D03*
X122000000Y-112319600D03*
%TD*%
D22*
%TO.N,+BATT*%
X87884000Y-97028000D02*
X87884000Y-114826000D01*
X87884000Y-114826000D02*
X87035000Y-115675000D01*
D23*
%TO.N,Reset*%
X129286000Y-117092001D02*
X129286000Y-116991401D01*
X153064000Y-112141000D02*
X149305800Y-115899200D01*
X106167722Y-120015000D02*
X97090000Y-120015000D01*
X106657877Y-120041401D02*
X106194123Y-120041401D01*
X97090000Y-120015000D02*
X93390000Y-116315000D01*
X107061000Y-119838200D02*
X106884200Y-120015000D01*
X130478801Y-115899200D02*
X129286000Y-117092001D01*
X127788400Y-119838200D02*
X107061000Y-119838200D01*
X106884200Y-120015000D02*
X106684278Y-120015000D01*
X127889000Y-119938800D02*
X127788400Y-119838200D01*
X149305800Y-115899200D02*
X130478801Y-115899200D01*
X158496000Y-112141000D02*
X153064000Y-112141000D01*
X93390000Y-109524000D02*
X89535000Y-105669000D01*
X93604000Y-101600000D02*
X89535000Y-105669000D01*
X106684278Y-120015000D02*
X106657877Y-120041401D01*
X93390000Y-116315000D02*
X93390000Y-109524000D01*
X99568000Y-101600000D02*
X93604000Y-101600000D01*
X106194123Y-120041401D02*
X106167722Y-120015000D01*
%TO.N,SDA*%
X123215399Y-115694136D02*
X123215399Y-107813665D01*
X132130800Y-125018800D02*
X130937000Y-123825000D01*
X108808442Y-97239864D02*
X108808442Y-97238450D01*
X123215399Y-107813665D02*
X116569934Y-101168200D01*
X130937000Y-121793000D02*
X129921000Y-120777000D01*
X108808442Y-97238450D02*
X106361793Y-94791800D01*
X108909042Y-99856596D02*
X108910042Y-99855596D01*
X108910042Y-99855596D02*
X108910042Y-99391842D01*
X116569934Y-101168200D02*
X110185200Y-101168200D01*
X130937000Y-123825000D02*
X130937000Y-121793000D01*
X104914918Y-94107000D02*
X104909751Y-94112167D01*
X169644348Y-124792452D02*
X169418000Y-125018800D01*
X108909042Y-99892042D02*
X108909042Y-99856596D01*
X123793601Y-116272338D02*
X123215399Y-115694136D01*
X104914918Y-94117334D02*
X104914918Y-94107000D01*
X108910042Y-99391842D02*
X108909042Y-99390842D01*
X110185200Y-101168200D02*
X108909042Y-99892042D01*
X169418000Y-125018800D02*
X132130800Y-125018800D01*
X106361793Y-94791800D02*
X105589384Y-94791800D01*
X105589384Y-94791800D02*
X104914918Y-94117334D01*
X129921000Y-120777000D02*
X123894200Y-120777000D01*
X108909042Y-99390842D02*
X108909042Y-97340464D01*
X169897167Y-124792452D02*
X169644348Y-124792452D01*
X108909042Y-97340464D02*
X108808442Y-97239864D01*
%TO.N,SCL*%
X124447014Y-116176510D02*
X124353401Y-116082897D01*
X109368242Y-99703250D02*
X109368242Y-99202050D01*
X106551585Y-94333600D02*
X106017600Y-94333600D01*
X123673599Y-115360659D02*
X123673599Y-107623872D01*
X124353401Y-116040461D02*
X123673599Y-115360659D01*
X130478800Y-124014792D02*
X130478800Y-121982792D01*
X131941008Y-125477000D02*
X130478800Y-124014792D01*
X105791000Y-94107000D02*
X105791000Y-93548200D01*
X116759726Y-100710000D02*
X110374992Y-100710000D01*
X109367242Y-97150672D02*
X109266642Y-97050071D01*
X125830600Y-121235200D02*
X125730000Y-121335800D01*
X169782047Y-125442743D02*
X169642050Y-125442743D01*
X123673599Y-107623872D02*
X116759726Y-100710000D01*
X124353401Y-116082897D02*
X124353401Y-116040461D01*
X129731208Y-121235200D02*
X125830600Y-121235200D01*
X109266642Y-97050071D02*
X109266642Y-97048657D01*
X169642050Y-125442743D02*
X169607792Y-125477000D01*
X130478800Y-121982792D02*
X129731208Y-121235200D01*
X109368242Y-99202050D02*
X109367242Y-99201049D01*
X109266642Y-97048657D02*
X106551585Y-94333600D01*
X169607792Y-125477000D02*
X131941008Y-125477000D01*
X110374992Y-100710000D02*
X109368242Y-99703250D01*
X109367242Y-99201049D02*
X109367242Y-97150672D01*
X106017600Y-94333600D02*
X105791000Y-94107000D01*
%TO.N,UART3_TX*%
X103886000Y-115189000D02*
X103886000Y-107950000D01*
X102075669Y-117143017D02*
X102075669Y-116999331D01*
X102075669Y-116999331D02*
X103886000Y-115189000D01*
%TO.N,UART3_RX*%
X103003496Y-116719496D02*
X104344200Y-115378793D01*
X104344200Y-115378793D02*
X104344200Y-108331000D01*
X104344200Y-108331000D02*
X104444300Y-108230900D01*
X104444300Y-108230900D02*
X104444300Y-107391700D01*
X103003496Y-117005454D02*
X103003496Y-116719496D01*
X102616351Y-118617647D02*
X102616351Y-117392599D01*
X102616351Y-117392599D02*
X103003496Y-117005454D01*
%TO.N,SWCLK*%
X105410000Y-95885000D02*
X105127737Y-95885000D01*
X96149000Y-86906263D02*
X96149000Y-85725000D01*
X105127737Y-95885000D02*
X96149000Y-86906263D01*
%TO.N,SWDIO*%
X98689000Y-85725000D02*
X98689000Y-88799685D01*
X100448658Y-90559343D02*
X105139315Y-95250000D01*
X108350242Y-97428242D02*
X108350242Y-99623719D01*
X106172000Y-95250000D02*
X107442000Y-96520000D01*
X107442000Y-96520000D02*
X108350242Y-97428242D01*
X105537000Y-95250000D02*
X106172000Y-95250000D01*
X98689000Y-88799685D02*
X100448658Y-90559343D01*
X105139315Y-95250000D02*
X105537000Y-95250000D01*
%TO.N,SD_CS*%
X107242164Y-118008401D02*
X106962763Y-117729000D01*
X106962763Y-117729000D02*
X103378000Y-117729000D01*
X134007123Y-118034800D02*
X133980724Y-118008401D01*
X134470877Y-118034800D02*
X134007123Y-118034800D01*
X146304000Y-117729000D02*
X135382000Y-117729000D01*
X133980724Y-118008401D02*
X107242164Y-118008401D01*
X103378000Y-117729000D02*
X103343822Y-117763178D01*
X135382000Y-117729000D02*
X135102599Y-118008401D01*
X135102599Y-118008401D02*
X134497276Y-118008401D01*
X134497276Y-118008401D02*
X134470877Y-118034800D01*
%TO.N,SPI_MOSI*%
X106908100Y-118465601D02*
X133070601Y-118465601D01*
X133070601Y-118465601D02*
X133350000Y-118745000D01*
X133350000Y-118745000D02*
X146304000Y-118745000D01*
X106807000Y-118364501D02*
X106908100Y-118465601D01*
%TO.N,SPI_SCK*%
X133474517Y-120961000D02*
X133351249Y-121084268D01*
X146374000Y-120961000D02*
X133474517Y-120961000D01*
X133350000Y-119761000D02*
X132511801Y-118922801D01*
X133351249Y-121084268D02*
X133350000Y-121083019D01*
X133350000Y-121083019D02*
X133350000Y-119761000D01*
X105460375Y-118922801D02*
X105377042Y-119006134D01*
X132511801Y-118922801D02*
X105460375Y-118922801D01*
%TO.N,SPI_MISO*%
X106578399Y-119481601D02*
X106426000Y-119481601D01*
X132791449Y-121316145D02*
X132791449Y-119964449D01*
X133350000Y-122605143D02*
X133350000Y-121874696D01*
X132791449Y-119964449D02*
X132207000Y-119380000D01*
X145846143Y-122605143D02*
X146304000Y-123063000D01*
X133350000Y-122605143D02*
X145846143Y-122605143D01*
X132207000Y-119380000D02*
X106680000Y-119380000D01*
X133350000Y-121874696D02*
X132791449Y-121316145D01*
X106680000Y-119380000D02*
X106578399Y-119481601D01*
%TO.N,Status_LED_G*%
X100838000Y-102603008D02*
X99363800Y-104077208D01*
X99161597Y-106845395D02*
X99161597Y-107188000D01*
X99363800Y-106643193D02*
X99161597Y-106845395D01*
X99363800Y-104077208D02*
X99363800Y-106643193D01*
X100835008Y-102186974D02*
X100838000Y-102189966D01*
X100835008Y-101723220D02*
X100835008Y-102186974D01*
X100838000Y-101600000D02*
X100838000Y-101720228D01*
X100838000Y-101720228D02*
X100835008Y-101723220D01*
X100838000Y-102189966D02*
X100838000Y-102603008D01*
%TO.N,SD_CD*%
X124281201Y-117550201D02*
X134163799Y-117550201D01*
X117430007Y-102676265D02*
X122757199Y-108003457D01*
X122757199Y-108003457D02*
X122757199Y-115883929D01*
X123233801Y-116504215D02*
X123561724Y-116832138D01*
X134163799Y-117550201D02*
X134239000Y-117475000D01*
X122757199Y-115883929D02*
X123233801Y-116360530D01*
X117287735Y-102676265D02*
X117430007Y-102676265D01*
X123563138Y-116832138D02*
X124281201Y-117550201D01*
X123233801Y-116360530D02*
X123233801Y-116504215D01*
X123561724Y-116832138D02*
X123563138Y-116832138D01*
%TO.N,Status_LED_R*%
X101394808Y-102075325D02*
X101394808Y-102694192D01*
X99822000Y-104267000D02*
X99822000Y-107188000D01*
X101394808Y-102694192D02*
X99822000Y-104267000D01*
%TO.N,Status_LED_B*%
X100278200Y-102514816D02*
X98905600Y-103887416D01*
X98905600Y-106453400D02*
X98501194Y-106857806D01*
X98905600Y-103887416D02*
X98905600Y-106453400D01*
X101548200Y-101040200D02*
X100606123Y-101040200D01*
X100278200Y-101368123D02*
X100278200Y-102514816D01*
X100606123Y-101040200D02*
X100278200Y-101368123D01*
X98501194Y-106857806D02*
X98501194Y-107188000D01*
X101981000Y-101473000D02*
X101548200Y-101040200D01*
%TO.N,XBee_TX*%
X140905792Y-86183200D02*
X157430200Y-86183200D01*
X157430200Y-86183200D02*
X157794000Y-86547000D01*
X136221200Y-97471792D02*
X136221200Y-90867792D01*
X157794000Y-86547000D02*
X157794000Y-87534000D01*
X136221200Y-90867792D02*
X140905792Y-86183200D01*
X114427000Y-99207300D02*
X114527100Y-99107200D01*
X114527100Y-99107200D02*
X134585793Y-99107200D01*
X134585793Y-99107200D02*
X136221200Y-97471792D01*
%TO.N,Net-(J9-DAT2)*%
X133350000Y-116459000D02*
X133452000Y-116561000D01*
X133452000Y-116561000D02*
X146279000Y-116561000D01*
%TO.N,XBee_RX*%
X135763000Y-97282000D02*
X135763000Y-90678000D01*
X159794000Y-86388000D02*
X159794000Y-87534000D01*
X134396000Y-98649000D02*
X135763000Y-97282000D01*
X113784789Y-99055525D02*
X114191314Y-98649000D01*
X114191314Y-98649000D02*
X134396000Y-98649000D01*
X135763000Y-90678000D02*
X140716000Y-85725000D01*
X159131000Y-85725000D02*
X159794000Y-86388000D01*
X140716000Y-85725000D02*
X159131000Y-85725000D01*
%TO.N,Net-(J9-DAT1)*%
X133532000Y-124261000D02*
X146359000Y-124261000D01*
%TO.N,Net-(U3-~{DIO10{slash}PWM0})*%
X152781000Y-107188000D02*
X152781000Y-90043000D01*
%TO.N,GPS_PPS*%
X117026125Y-103310125D02*
X116129297Y-102413297D01*
X104351343Y-102597161D02*
X104167479Y-102413297D01*
X104999962Y-102412297D02*
X104536208Y-102412297D01*
X104536208Y-102412297D02*
X104351343Y-102597161D01*
X116129297Y-102413297D02*
X105000962Y-102413297D01*
X117415875Y-103310125D02*
X117026125Y-103310125D01*
X105000962Y-102413297D02*
X104999962Y-102412297D01*
X122189928Y-108084178D02*
X117415875Y-103310125D01*
X122189928Y-108226449D02*
X122189928Y-108084178D01*
%TO.N,GPS_TX*%
X105383600Y-103329697D02*
X105283000Y-103430297D01*
X108500000Y-103329697D02*
X109870303Y-104700000D01*
X108500000Y-103329697D02*
X105383600Y-103329697D01*
X109870303Y-104700000D02*
X112300000Y-104700000D01*
%TO.N,GPS_RX*%
X114600000Y-104000000D02*
X114800000Y-104200000D01*
X104768085Y-102972097D02*
X104868685Y-102871497D01*
X110200000Y-104000000D02*
X114600000Y-104000000D01*
X109071497Y-102871497D02*
X110200000Y-104000000D01*
X108700000Y-102871497D02*
X109071497Y-102871497D01*
X104868685Y-102871497D02*
X108700000Y-102871497D01*
%TO.N,Net-(JP1-C)*%
X114200000Y-112300000D02*
X121980400Y-112300000D01*
X121980400Y-112300000D02*
X122000000Y-112319600D01*
X113600000Y-108300000D02*
X113600000Y-111700000D01*
X113600000Y-111700000D02*
X114200000Y-112300000D01*
%TD*%
%TA.AperFunction,Conductor*%
%TO.N,+3V3*%
G36*
X170757121Y-81046502D02*
G01*
X170803614Y-81100158D01*
X170815000Y-81152500D01*
X170815000Y-124382345D01*
X170794998Y-124450466D01*
X170741342Y-124496959D01*
X170671068Y-124507063D01*
X170606488Y-124477569D01*
X170576696Y-124436257D01*
X170575804Y-124436734D01*
X170572885Y-124431273D01*
X170528543Y-124364911D01*
X170489439Y-124306387D01*
X170383232Y-124200180D01*
X170258346Y-124116734D01*
X170119581Y-124059255D01*
X169972270Y-124029952D01*
X169972267Y-124029952D01*
X169822067Y-124029952D01*
X169822063Y-124029952D01*
X169674752Y-124059255D01*
X169674751Y-124059256D01*
X169535983Y-124116736D01*
X169506907Y-124136164D01*
X169461491Y-124154976D01*
X169451578Y-124156948D01*
X169451573Y-124156949D01*
X169331293Y-124206770D01*
X169223053Y-124279094D01*
X169223046Y-124279099D01*
X169181151Y-124320995D01*
X169118839Y-124355021D01*
X169092056Y-124357900D01*
X147247500Y-124357900D01*
X147179379Y-124337898D01*
X147132886Y-124284242D01*
X147121500Y-124231900D01*
X147121500Y-124185899D01*
X147121499Y-124185896D01*
X147115741Y-124156948D01*
X147092197Y-124038587D01*
X147034718Y-123899821D01*
X146951272Y-123774935D01*
X146899932Y-123723595D01*
X146865906Y-123661283D01*
X146870971Y-123590468D01*
X146893769Y-123555019D01*
X146892345Y-123553850D01*
X146896267Y-123549069D01*
X146896272Y-123549065D01*
X146979718Y-123424179D01*
X147037197Y-123285413D01*
X147066500Y-123138100D01*
X147066500Y-122987900D01*
X147037197Y-122840587D01*
X146979718Y-122701821D01*
X146896272Y-122576935D01*
X146790065Y-122470728D01*
X146665179Y-122387282D01*
X146526413Y-122329803D01*
X146526410Y-122329802D01*
X146520695Y-122327435D01*
X146521057Y-122326559D01*
X146474014Y-122298360D01*
X146267444Y-122091790D01*
X146267442Y-122091788D01*
X146159197Y-122019461D01*
X146087936Y-121989944D01*
X146038925Y-121969643D01*
X146038920Y-121969641D01*
X145911238Y-121944243D01*
X145911236Y-121944243D01*
X134136900Y-121944243D01*
X134136629Y-121944163D01*
X134136358Y-121944242D01*
X134102581Y-121934166D01*
X134068779Y-121924241D01*
X134068594Y-121924027D01*
X134068324Y-121923947D01*
X134045361Y-121897215D01*
X134022286Y-121870585D01*
X134022183Y-121870233D01*
X134022062Y-121870092D01*
X134021834Y-121869034D01*
X134012106Y-121835638D01*
X134010900Y-121826985D01*
X134010900Y-121809603D01*
X134002803Y-121768897D01*
X134002301Y-121765295D01*
X134006991Y-121733638D01*
X134009844Y-121701768D01*
X134012155Y-121698792D01*
X134012708Y-121695065D01*
X134033768Y-121670970D01*
X134053398Y-121645701D01*
X134056950Y-121644447D01*
X134059431Y-121641610D01*
X134090179Y-121632724D01*
X134120350Y-121622081D01*
X134127095Y-121621900D01*
X145953537Y-121621900D01*
X146006739Y-121635226D01*
X146007103Y-121634349D01*
X146012818Y-121636716D01*
X146012821Y-121636718D01*
X146151587Y-121694197D01*
X146298900Y-121723500D01*
X146449100Y-121723500D01*
X146596413Y-121694197D01*
X146735179Y-121636718D01*
X146860065Y-121553272D01*
X146966272Y-121447065D01*
X147049718Y-121322179D01*
X147107197Y-121183413D01*
X147136500Y-121036100D01*
X147136500Y-120885900D01*
X147107197Y-120738587D01*
X147049718Y-120599821D01*
X146966272Y-120474935D01*
X146860065Y-120368728D01*
X146735179Y-120285282D01*
X146596414Y-120227803D01*
X146449103Y-120198500D01*
X146449100Y-120198500D01*
X146298900Y-120198500D01*
X146298896Y-120198500D01*
X146151585Y-120227803D01*
X146151584Y-120227804D01*
X146126479Y-120238203D01*
X146012821Y-120285282D01*
X146012819Y-120285283D01*
X146007103Y-120287651D01*
X146006739Y-120286773D01*
X145953537Y-120300100D01*
X134136900Y-120300100D01*
X134068779Y-120280098D01*
X134022286Y-120226442D01*
X134010900Y-120174100D01*
X134010900Y-119695911D01*
X134010900Y-119695907D01*
X134000104Y-119641634D01*
X133985502Y-119568223D01*
X133985500Y-119568220D01*
X133984294Y-119562153D01*
X133985518Y-119561909D01*
X133984946Y-119497477D01*
X134022798Y-119437412D01*
X134087115Y-119407347D01*
X134106153Y-119405900D01*
X145883537Y-119405900D01*
X145936739Y-119419226D01*
X145937103Y-119418349D01*
X145942818Y-119420716D01*
X145942821Y-119420718D01*
X146081587Y-119478197D01*
X146228900Y-119507500D01*
X146379100Y-119507500D01*
X146526413Y-119478197D01*
X146665179Y-119420718D01*
X146790065Y-119337272D01*
X146896272Y-119231065D01*
X146979718Y-119106179D01*
X147037197Y-118967413D01*
X147066500Y-118820100D01*
X147066500Y-118669900D01*
X147037197Y-118522587D01*
X146979718Y-118383821D01*
X146928388Y-118307001D01*
X146907174Y-118239249D01*
X146925957Y-118170782D01*
X146928389Y-118166998D01*
X146979718Y-118090179D01*
X147037197Y-117951413D01*
X147066500Y-117804100D01*
X147066500Y-117653900D01*
X147037197Y-117506587D01*
X146979718Y-117367821D01*
X146896272Y-117242935D01*
X146874932Y-117221595D01*
X146840906Y-117159283D01*
X146845971Y-117088468D01*
X146868769Y-117053019D01*
X146867345Y-117051850D01*
X146871267Y-117047069D01*
X146871272Y-117047065D01*
X146954718Y-116922179D01*
X147012197Y-116783413D01*
X147036444Y-116661518D01*
X147069352Y-116598608D01*
X147131047Y-116563477D01*
X147160023Y-116560100D01*
X149370892Y-116560100D01*
X149370893Y-116560100D01*
X149498577Y-116534702D01*
X149618854Y-116484882D01*
X149727099Y-116412555D01*
X153300848Y-112838804D01*
X153363160Y-112804779D01*
X153389943Y-112801900D01*
X158075537Y-112801900D01*
X158128739Y-112815226D01*
X158129103Y-112814349D01*
X158134818Y-112816716D01*
X158134821Y-112816718D01*
X158273587Y-112874197D01*
X158420900Y-112903500D01*
X158571100Y-112903500D01*
X158718413Y-112874197D01*
X158857179Y-112816718D01*
X158982065Y-112733272D01*
X159088272Y-112627065D01*
X159171718Y-112502179D01*
X159229197Y-112363413D01*
X159258500Y-112216100D01*
X159258500Y-112065900D01*
X159229197Y-111918587D01*
X159171718Y-111779821D01*
X159088272Y-111654935D01*
X158982065Y-111548728D01*
X158857179Y-111465282D01*
X158718414Y-111407803D01*
X158571103Y-111378500D01*
X158571100Y-111378500D01*
X158420900Y-111378500D01*
X158420896Y-111378500D01*
X158273585Y-111407803D01*
X158273584Y-111407804D01*
X158229062Y-111426246D01*
X158134821Y-111465282D01*
X158134819Y-111465283D01*
X158129103Y-111467651D01*
X158128739Y-111466773D01*
X158075537Y-111480100D01*
X152998902Y-111480100D01*
X152871222Y-111505498D01*
X152871219Y-111505499D01*
X152750945Y-111555318D01*
X152642705Y-111627642D01*
X152642698Y-111627647D01*
X149068951Y-115201395D01*
X149006639Y-115235421D01*
X148979856Y-115238300D01*
X130413705Y-115238300D01*
X130379769Y-115245050D01*
X130362801Y-115248426D01*
X130286023Y-115263698D01*
X130286018Y-115263700D01*
X130165746Y-115313518D01*
X130057506Y-115385842D01*
X130057499Y-115385847D01*
X130002569Y-115440778D01*
X129965446Y-115477901D01*
X129965444Y-115477903D01*
X129551199Y-115892148D01*
X129242354Y-116200993D01*
X129180042Y-116235018D01*
X129177842Y-116235476D01*
X129105298Y-116249907D01*
X129063587Y-116258204D01*
X129063585Y-116258204D01*
X129063584Y-116258205D01*
X128982295Y-116291876D01*
X128950062Y-116305228D01*
X128924819Y-116315684D01*
X128799939Y-116399126D01*
X128799932Y-116399131D01*
X128693730Y-116505333D01*
X128693725Y-116505340D01*
X128611731Y-116628054D01*
X128610282Y-116630222D01*
X128552803Y-116768988D01*
X128549934Y-116783414D01*
X128549045Y-116787882D01*
X128516138Y-116850792D01*
X128454443Y-116885924D01*
X128425466Y-116889301D01*
X125116750Y-116889301D01*
X125048629Y-116869299D01*
X125002136Y-116815643D01*
X124992032Y-116745369D01*
X125021526Y-116680789D01*
X125027655Y-116674206D01*
X125039286Y-116662575D01*
X125122732Y-116537689D01*
X125180211Y-116398923D01*
X125209514Y-116251610D01*
X125209514Y-116101410D01*
X125180211Y-115954097D01*
X125122732Y-115815331D01*
X125039286Y-115690445D01*
X124933079Y-115584238D01*
X124808193Y-115500792D01*
X124729247Y-115468091D01*
X124688371Y-115440778D01*
X124371403Y-115123809D01*
X124337378Y-115061497D01*
X124334499Y-115034714D01*
X124334499Y-109440856D01*
X142610500Y-109440856D01*
X142610500Y-109627144D01*
X142639641Y-109811137D01*
X142639642Y-109811141D01*
X142697205Y-109988302D01*
X142697206Y-109988305D01*
X142697207Y-109988306D01*
X142781780Y-110154289D01*
X142794000Y-110171108D01*
X142891276Y-110305000D01*
X143022999Y-110436723D01*
X143069991Y-110470864D01*
X143173711Y-110546220D01*
X143339694Y-110630793D01*
X143516863Y-110688359D01*
X143700856Y-110717500D01*
X143700858Y-110717500D01*
X143887142Y-110717500D01*
X143887144Y-110717500D01*
X144071137Y-110688359D01*
X144248306Y-110630793D01*
X144414289Y-110546220D01*
X144564999Y-110436724D01*
X144696724Y-110304999D01*
X144696729Y-110304991D01*
X144698186Y-110303287D01*
X144698909Y-110302814D01*
X144700225Y-110301499D01*
X144700501Y-110301775D01*
X144757635Y-110264476D01*
X144828630Y-110263966D01*
X144888630Y-110301920D01*
X144889814Y-110303287D01*
X144891282Y-110305006D01*
X145022999Y-110436723D01*
X145069991Y-110470864D01*
X145173711Y-110546220D01*
X145339694Y-110630793D01*
X145516863Y-110688359D01*
X145700856Y-110717500D01*
X145700858Y-110717500D01*
X145887142Y-110717500D01*
X145887144Y-110717500D01*
X146071137Y-110688359D01*
X146248306Y-110630793D01*
X146414289Y-110546220D01*
X146564999Y-110436724D01*
X146696724Y-110304999D01*
X146696729Y-110304991D01*
X146698186Y-110303287D01*
X146698909Y-110302814D01*
X146700225Y-110301499D01*
X146700501Y-110301775D01*
X146757635Y-110264476D01*
X146828630Y-110263966D01*
X146888630Y-110301920D01*
X146889814Y-110303287D01*
X146891282Y-110305006D01*
X147022999Y-110436723D01*
X147069991Y-110470864D01*
X147173711Y-110546220D01*
X147339694Y-110630793D01*
X147516863Y-110688359D01*
X147700856Y-110717500D01*
X147700858Y-110717500D01*
X147887142Y-110717500D01*
X147887144Y-110717500D01*
X148071137Y-110688359D01*
X148248306Y-110630793D01*
X148414289Y-110546220D01*
X148564999Y-110436724D01*
X148696724Y-110304999D01*
X148696729Y-110304991D01*
X148698186Y-110303287D01*
X148698909Y-110302814D01*
X148700225Y-110301499D01*
X148700501Y-110301775D01*
X148757635Y-110264476D01*
X148828630Y-110263966D01*
X148888630Y-110301920D01*
X148889814Y-110303287D01*
X148891282Y-110305006D01*
X149022999Y-110436723D01*
X149069991Y-110470864D01*
X149173711Y-110546220D01*
X149339694Y-110630793D01*
X149516863Y-110688359D01*
X149700856Y-110717500D01*
X149700858Y-110717500D01*
X149887142Y-110717500D01*
X149887144Y-110717500D01*
X150071137Y-110688359D01*
X150248306Y-110630793D01*
X150414289Y-110546220D01*
X150564999Y-110436724D01*
X150696724Y-110304999D01*
X150696729Y-110304991D01*
X150698186Y-110303287D01*
X150698909Y-110302814D01*
X150700225Y-110301499D01*
X150700501Y-110301775D01*
X150757635Y-110264476D01*
X150828630Y-110263966D01*
X150888630Y-110301920D01*
X150889814Y-110303287D01*
X150891282Y-110305006D01*
X151022999Y-110436723D01*
X151069991Y-110470864D01*
X151173711Y-110546220D01*
X151339694Y-110630793D01*
X151516863Y-110688359D01*
X151700856Y-110717500D01*
X151700858Y-110717500D01*
X151887142Y-110717500D01*
X151887144Y-110717500D01*
X152071137Y-110688359D01*
X152248306Y-110630793D01*
X152414289Y-110546220D01*
X152564999Y-110436724D01*
X152696724Y-110304999D01*
X152696729Y-110304991D01*
X152698186Y-110303287D01*
X152698909Y-110302814D01*
X152700225Y-110301499D01*
X152700501Y-110301775D01*
X152757635Y-110264476D01*
X152828630Y-110263966D01*
X152888630Y-110301920D01*
X152889814Y-110303287D01*
X152891282Y-110305006D01*
X153022999Y-110436723D01*
X153069991Y-110470864D01*
X153173711Y-110546220D01*
X153339694Y-110630793D01*
X153516863Y-110688359D01*
X153700856Y-110717500D01*
X153700858Y-110717500D01*
X153887142Y-110717500D01*
X153887144Y-110717500D01*
X154071137Y-110688359D01*
X154248306Y-110630793D01*
X154414289Y-110546220D01*
X154564999Y-110436724D01*
X154696724Y-110304999D01*
X154696729Y-110304991D01*
X154698186Y-110303287D01*
X154698909Y-110302814D01*
X154700225Y-110301499D01*
X154700501Y-110301775D01*
X154757635Y-110264476D01*
X154828630Y-110263966D01*
X154888630Y-110301920D01*
X154889814Y-110303287D01*
X154891282Y-110305006D01*
X155022999Y-110436723D01*
X155069991Y-110470864D01*
X155173711Y-110546220D01*
X155339694Y-110630793D01*
X155516863Y-110688359D01*
X155700856Y-110717500D01*
X155700858Y-110717500D01*
X155887142Y-110717500D01*
X155887144Y-110717500D01*
X156071137Y-110688359D01*
X156248306Y-110630793D01*
X156414289Y-110546220D01*
X156564999Y-110436724D01*
X156696724Y-110304999D01*
X156696729Y-110304991D01*
X156698186Y-110303287D01*
X156698909Y-110302814D01*
X156700225Y-110301499D01*
X156700501Y-110301775D01*
X156757635Y-110264476D01*
X156828630Y-110263966D01*
X156888630Y-110301920D01*
X156889814Y-110303287D01*
X156891282Y-110305006D01*
X157022999Y-110436723D01*
X157069991Y-110470864D01*
X157173711Y-110546220D01*
X157339694Y-110630793D01*
X157516863Y-110688359D01*
X157700856Y-110717500D01*
X157700858Y-110717500D01*
X157887142Y-110717500D01*
X157887144Y-110717500D01*
X158071137Y-110688359D01*
X158248306Y-110630793D01*
X158414289Y-110546220D01*
X158564999Y-110436724D01*
X158696724Y-110304999D01*
X158696729Y-110304991D01*
X158698186Y-110303287D01*
X158698909Y-110302814D01*
X158700225Y-110301499D01*
X158700501Y-110301775D01*
X158757635Y-110264476D01*
X158828630Y-110263966D01*
X158888630Y-110301920D01*
X158889814Y-110303287D01*
X158891282Y-110305006D01*
X159022999Y-110436723D01*
X159069991Y-110470864D01*
X159173711Y-110546220D01*
X159339694Y-110630793D01*
X159516863Y-110688359D01*
X159700856Y-110717500D01*
X159700858Y-110717500D01*
X159887142Y-110717500D01*
X159887144Y-110717500D01*
X160071137Y-110688359D01*
X160248306Y-110630793D01*
X160414289Y-110546220D01*
X160564999Y-110436724D01*
X160696724Y-110304999D01*
X160696729Y-110304991D01*
X160698186Y-110303287D01*
X160698909Y-110302814D01*
X160700225Y-110301499D01*
X160700501Y-110301775D01*
X160757635Y-110264476D01*
X160828630Y-110263966D01*
X160888630Y-110301920D01*
X160889814Y-110303287D01*
X160891282Y-110305006D01*
X161022999Y-110436723D01*
X161069991Y-110470864D01*
X161173711Y-110546220D01*
X161339694Y-110630793D01*
X161516863Y-110688359D01*
X161700856Y-110717500D01*
X161700858Y-110717500D01*
X161887142Y-110717500D01*
X161887144Y-110717500D01*
X162071137Y-110688359D01*
X162248306Y-110630793D01*
X162414289Y-110546220D01*
X162564999Y-110436724D01*
X162696724Y-110304999D01*
X162806220Y-110154289D01*
X162890793Y-109988306D01*
X162948359Y-109811137D01*
X162977500Y-109627144D01*
X162977500Y-109440856D01*
X162948359Y-109256863D01*
X162890793Y-109079694D01*
X162806220Y-108913711D01*
X162699267Y-108766501D01*
X162696723Y-108762999D01*
X162565000Y-108631276D01*
X162489644Y-108576528D01*
X162414289Y-108521780D01*
X162248306Y-108437207D01*
X162248305Y-108437206D01*
X162248302Y-108437205D01*
X162071141Y-108379642D01*
X162071139Y-108379641D01*
X162071137Y-108379641D01*
X161887144Y-108350500D01*
X161700856Y-108350500D01*
X161516863Y-108379641D01*
X161516861Y-108379641D01*
X161516858Y-108379642D01*
X161339697Y-108437205D01*
X161173712Y-108521779D01*
X161173711Y-108521780D01*
X161022999Y-108631276D01*
X160891277Y-108762998D01*
X160889807Y-108764720D01*
X160889084Y-108765191D01*
X160887775Y-108766501D01*
X160887499Y-108766225D01*
X160830354Y-108803526D01*
X160759360Y-108804030D01*
X160699363Y-108766070D01*
X160698193Y-108764720D01*
X160696722Y-108762998D01*
X160565000Y-108631276D01*
X160489644Y-108576528D01*
X160414289Y-108521780D01*
X160248306Y-108437207D01*
X160248305Y-108437206D01*
X160248302Y-108437205D01*
X160071141Y-108379642D01*
X160071139Y-108379641D01*
X160071137Y-108379641D01*
X159887144Y-108350500D01*
X159700856Y-108350500D01*
X159516863Y-108379641D01*
X159516861Y-108379641D01*
X159516858Y-108379642D01*
X159339697Y-108437205D01*
X159173712Y-108521779D01*
X159173711Y-108521780D01*
X159022999Y-108631276D01*
X158891277Y-108762998D01*
X158889807Y-108764720D01*
X158889084Y-108765191D01*
X158887775Y-108766501D01*
X158887499Y-108766225D01*
X158830354Y-108803526D01*
X158759360Y-108804030D01*
X158699363Y-108766070D01*
X158698193Y-108764720D01*
X158696722Y-108762998D01*
X158565000Y-108631276D01*
X158489644Y-108576528D01*
X158414289Y-108521780D01*
X158248306Y-108437207D01*
X158248305Y-108437206D01*
X158248302Y-108437205D01*
X158071141Y-108379642D01*
X158071139Y-108379641D01*
X158071137Y-108379641D01*
X157887144Y-108350500D01*
X157700856Y-108350500D01*
X157516863Y-108379641D01*
X157516861Y-108379641D01*
X157516858Y-108379642D01*
X157339697Y-108437205D01*
X157173712Y-108521779D01*
X157173711Y-108521780D01*
X157022999Y-108631276D01*
X156891277Y-108762998D01*
X156889807Y-108764720D01*
X156889084Y-108765191D01*
X156887775Y-108766501D01*
X156887499Y-108766225D01*
X156830354Y-108803526D01*
X156759360Y-108804030D01*
X156699363Y-108766070D01*
X156698193Y-108764720D01*
X156696722Y-108762998D01*
X156565000Y-108631276D01*
X156489644Y-108576528D01*
X156414289Y-108521780D01*
X156248306Y-108437207D01*
X156248305Y-108437206D01*
X156248302Y-108437205D01*
X156071141Y-108379642D01*
X156071139Y-108379641D01*
X156071137Y-108379641D01*
X155887144Y-108350500D01*
X155700856Y-108350500D01*
X155516863Y-108379641D01*
X155516861Y-108379641D01*
X155516858Y-108379642D01*
X155339697Y-108437205D01*
X155173712Y-108521779D01*
X155173711Y-108521780D01*
X155022999Y-108631276D01*
X154891277Y-108762998D01*
X154889807Y-108764720D01*
X154889084Y-108765191D01*
X154887775Y-108766501D01*
X154887499Y-108766225D01*
X154830354Y-108803526D01*
X154759360Y-108804030D01*
X154699363Y-108766070D01*
X154698193Y-108764720D01*
X154696722Y-108762998D01*
X154565000Y-108631276D01*
X154489644Y-108576528D01*
X154414289Y-108521780D01*
X154248306Y-108437207D01*
X154248305Y-108437206D01*
X154248302Y-108437205D01*
X154071141Y-108379642D01*
X154071139Y-108379641D01*
X154071137Y-108379641D01*
X153887144Y-108350500D01*
X153700856Y-108350500D01*
X153516863Y-108379641D01*
X153516861Y-108379641D01*
X153516858Y-108379642D01*
X153339697Y-108437205D01*
X153173712Y-108521779D01*
X153173711Y-108521780D01*
X153022999Y-108631276D01*
X152891277Y-108762998D01*
X152889807Y-108764720D01*
X152889084Y-108765191D01*
X152887775Y-108766501D01*
X152887499Y-108766225D01*
X152830354Y-108803526D01*
X152759360Y-108804030D01*
X152699363Y-108766070D01*
X152698193Y-108764720D01*
X152696722Y-108762998D01*
X152565000Y-108631276D01*
X152489644Y-108576528D01*
X152414289Y-108521780D01*
X152248306Y-108437207D01*
X152248305Y-108437206D01*
X152248302Y-108437205D01*
X152071141Y-108379642D01*
X152071139Y-108379641D01*
X152071137Y-108379641D01*
X151887144Y-108350500D01*
X151700856Y-108350500D01*
X151516863Y-108379641D01*
X151516861Y-108379641D01*
X151516858Y-108379642D01*
X151339697Y-108437205D01*
X151173712Y-108521779D01*
X151173711Y-108521780D01*
X151022999Y-108631276D01*
X150891277Y-108762998D01*
X150889807Y-108764720D01*
X150889084Y-108765191D01*
X150887775Y-108766501D01*
X150887499Y-108766225D01*
X150830354Y-108803526D01*
X150759360Y-108804030D01*
X150699363Y-108766070D01*
X150698193Y-108764720D01*
X150696722Y-108762998D01*
X150565000Y-108631276D01*
X150489644Y-108576528D01*
X150414289Y-108521780D01*
X150248306Y-108437207D01*
X150248305Y-108437206D01*
X150248302Y-108437205D01*
X150071141Y-108379642D01*
X150071139Y-108379641D01*
X150071137Y-108379641D01*
X149887144Y-108350500D01*
X149700856Y-108350500D01*
X149516863Y-108379641D01*
X149516861Y-108379641D01*
X149516858Y-108379642D01*
X149339697Y-108437205D01*
X149173712Y-108521779D01*
X149173711Y-108521780D01*
X149022999Y-108631276D01*
X148891277Y-108762998D01*
X148889807Y-108764720D01*
X148889084Y-108765191D01*
X148887775Y-108766501D01*
X148887499Y-108766225D01*
X148830354Y-108803526D01*
X148759360Y-108804030D01*
X148699363Y-108766070D01*
X148698193Y-108764720D01*
X148696722Y-108762998D01*
X148565000Y-108631276D01*
X148489644Y-108576528D01*
X148414289Y-108521780D01*
X148248306Y-108437207D01*
X148248305Y-108437206D01*
X148248302Y-108437205D01*
X148071141Y-108379642D01*
X148071139Y-108379641D01*
X148071137Y-108379641D01*
X147887144Y-108350500D01*
X147700856Y-108350500D01*
X147516863Y-108379641D01*
X147516861Y-108379641D01*
X147516858Y-108379642D01*
X147339697Y-108437205D01*
X147173712Y-108521779D01*
X147173711Y-108521780D01*
X147022999Y-108631276D01*
X146891277Y-108762998D01*
X146889807Y-108764720D01*
X146889084Y-108765191D01*
X146887775Y-108766501D01*
X146887499Y-108766225D01*
X146830354Y-108803526D01*
X146759360Y-108804030D01*
X146699363Y-108766070D01*
X146698193Y-108764720D01*
X146696722Y-108762998D01*
X146565000Y-108631276D01*
X146489644Y-108576528D01*
X146414289Y-108521780D01*
X146248306Y-108437207D01*
X146248305Y-108437206D01*
X146248302Y-108437205D01*
X146071141Y-108379642D01*
X146071139Y-108379641D01*
X146071137Y-108379641D01*
X145887144Y-108350500D01*
X145700856Y-108350500D01*
X145516863Y-108379641D01*
X145516861Y-108379641D01*
X145516858Y-108379642D01*
X145339697Y-108437205D01*
X145173712Y-108521779D01*
X145173711Y-108521780D01*
X145022999Y-108631276D01*
X144891277Y-108762998D01*
X144889807Y-108764720D01*
X144889084Y-108765191D01*
X144887775Y-108766501D01*
X144887499Y-108766225D01*
X144830354Y-108803526D01*
X144759360Y-108804030D01*
X144699363Y-108766070D01*
X144698193Y-108764720D01*
X144696722Y-108762998D01*
X144565000Y-108631276D01*
X144489644Y-108576528D01*
X144414289Y-108521780D01*
X144248306Y-108437207D01*
X144248305Y-108437206D01*
X144248302Y-108437205D01*
X144071141Y-108379642D01*
X144071139Y-108379641D01*
X144071137Y-108379641D01*
X143887144Y-108350500D01*
X143700856Y-108350500D01*
X143516863Y-108379641D01*
X143516861Y-108379641D01*
X143516858Y-108379642D01*
X143339697Y-108437205D01*
X143173712Y-108521779D01*
X143173711Y-108521780D01*
X143022999Y-108631276D01*
X142891276Y-108762999D01*
X142781780Y-108913711D01*
X142781779Y-108913712D01*
X142697205Y-109079697D01*
X142639642Y-109256858D01*
X142639641Y-109256861D01*
X142639641Y-109256863D01*
X142610500Y-109440856D01*
X124334499Y-109440856D01*
X124334499Y-107558779D01*
X124334498Y-107558776D01*
X124333288Y-107552692D01*
X124333287Y-107552691D01*
X124332589Y-107549179D01*
X124309101Y-107431095D01*
X124293059Y-107392366D01*
X124259281Y-107310818D01*
X124186954Y-107202573D01*
X124094898Y-107110517D01*
X124094897Y-107110516D01*
X124091736Y-107107355D01*
X124091721Y-107107341D01*
X117181027Y-100196647D01*
X117181025Y-100196645D01*
X117072780Y-100124318D01*
X117037692Y-100109784D01*
X116952508Y-100074500D01*
X116952503Y-100074498D01*
X116824821Y-100049100D01*
X116824819Y-100049100D01*
X114954986Y-100049100D01*
X114923160Y-100039755D01*
X114891007Y-100031648D01*
X114889284Y-100029808D01*
X114886865Y-100029098D01*
X114865144Y-100004031D01*
X114842478Y-99979827D01*
X114842023Y-99977347D01*
X114840372Y-99975442D01*
X114835651Y-99942609D01*
X114829669Y-99909995D01*
X114830626Y-99907663D01*
X114830268Y-99905168D01*
X114844043Y-99875004D01*
X114856648Y-99844324D01*
X114859070Y-99842102D01*
X114859762Y-99840588D01*
X114882825Y-99819810D01*
X114883886Y-99819068D01*
X114913065Y-99799572D01*
X114916013Y-99796623D01*
X114924335Y-99790810D01*
X114953536Y-99780996D01*
X114981899Y-99768948D01*
X114990954Y-99768421D01*
X114991633Y-99768194D01*
X114992240Y-99768347D01*
X114996496Y-99768100D01*
X134650887Y-99768100D01*
X134778570Y-99742702D01*
X134898847Y-99692882D01*
X134938176Y-99666603D01*
X135007092Y-99620555D01*
X135099148Y-99528499D01*
X135099149Y-99528496D01*
X135106325Y-99521321D01*
X135106331Y-99521313D01*
X136632123Y-97995520D01*
X136632128Y-97995517D01*
X136642497Y-97985147D01*
X136642499Y-97985147D01*
X136734555Y-97893091D01*
X136806882Y-97784846D01*
X136856702Y-97664569D01*
X136856915Y-97663500D01*
X136882100Y-97536886D01*
X136882100Y-97406699D01*
X136882100Y-91193736D01*
X136902102Y-91125615D01*
X136919005Y-91104641D01*
X138055750Y-89967896D01*
X152018500Y-89967896D01*
X152018500Y-90118103D01*
X152046069Y-90256698D01*
X152047803Y-90265413D01*
X152105282Y-90404179D01*
X152105283Y-90404180D01*
X152107651Y-90409897D01*
X152106772Y-90410261D01*
X152120100Y-90463462D01*
X152120100Y-106767537D01*
X152106773Y-106820739D01*
X152107651Y-106821103D01*
X152047804Y-106965584D01*
X152047803Y-106965585D01*
X152018500Y-107112896D01*
X152018500Y-107263103D01*
X152029142Y-107316600D01*
X152047803Y-107410413D01*
X152105282Y-107549179D01*
X152188728Y-107674065D01*
X152294935Y-107780272D01*
X152419821Y-107863718D01*
X152558587Y-107921197D01*
X152705900Y-107950500D01*
X152856100Y-107950500D01*
X153003413Y-107921197D01*
X153142179Y-107863718D01*
X153267065Y-107780272D01*
X153373272Y-107674065D01*
X153456718Y-107549179D01*
X153514197Y-107410413D01*
X153543500Y-107263100D01*
X153543500Y-107112900D01*
X153514197Y-106965587D01*
X153456718Y-106826821D01*
X153456716Y-106826818D01*
X153454349Y-106821103D01*
X153455226Y-106820739D01*
X153441900Y-106767537D01*
X153441900Y-90463462D01*
X153455227Y-90410261D01*
X153454349Y-90409897D01*
X153456716Y-90404181D01*
X153456718Y-90404179D01*
X153514197Y-90265413D01*
X153543500Y-90118100D01*
X153543500Y-89967900D01*
X153514197Y-89820587D01*
X153456718Y-89681821D01*
X153373272Y-89556935D01*
X153267065Y-89450728D01*
X153142179Y-89367282D01*
X153003414Y-89309803D01*
X152856103Y-89280500D01*
X152856100Y-89280500D01*
X152705900Y-89280500D01*
X152705896Y-89280500D01*
X152558585Y-89309803D01*
X152558584Y-89309804D01*
X152419819Y-89367283D01*
X152294939Y-89450725D01*
X152294932Y-89450730D01*
X152188730Y-89556932D01*
X152188725Y-89556939D01*
X152105283Y-89681819D01*
X152047804Y-89820584D01*
X152047803Y-89820585D01*
X152018500Y-89967896D01*
X138055750Y-89967896D01*
X141142641Y-86881005D01*
X141204953Y-86846979D01*
X141231736Y-86844100D01*
X142611635Y-86844100D01*
X142679756Y-86864102D01*
X142726249Y-86917758D01*
X142736353Y-86988032D01*
X142723902Y-87027303D01*
X142697205Y-87079697D01*
X142639642Y-87256858D01*
X142639641Y-87256861D01*
X142639641Y-87256863D01*
X142610500Y-87440856D01*
X142610500Y-87627144D01*
X142634727Y-87780108D01*
X142639642Y-87811141D01*
X142697205Y-87988302D01*
X142697206Y-87988305D01*
X142697207Y-87988306D01*
X142781780Y-88154289D01*
X142794000Y-88171108D01*
X142891276Y-88305000D01*
X143022999Y-88436723D01*
X143069991Y-88470864D01*
X143173711Y-88546220D01*
X143339694Y-88630793D01*
X143516863Y-88688359D01*
X143700856Y-88717500D01*
X143700858Y-88717500D01*
X143887142Y-88717500D01*
X143887144Y-88717500D01*
X144071137Y-88688359D01*
X144248306Y-88630793D01*
X144414289Y-88546220D01*
X144564999Y-88436724D01*
X144696724Y-88304999D01*
X144696729Y-88304991D01*
X144698186Y-88303287D01*
X144698909Y-88302814D01*
X144700225Y-88301499D01*
X144700501Y-88301775D01*
X144757635Y-88264476D01*
X144828630Y-88263966D01*
X144888630Y-88301920D01*
X144889814Y-88303287D01*
X144891282Y-88305006D01*
X145022999Y-88436723D01*
X145069991Y-88470864D01*
X145173711Y-88546220D01*
X145339694Y-88630793D01*
X145516863Y-88688359D01*
X145700856Y-88717500D01*
X145700858Y-88717500D01*
X145887142Y-88717500D01*
X145887144Y-88717500D01*
X146071137Y-88688359D01*
X146248306Y-88630793D01*
X146414289Y-88546220D01*
X146564999Y-88436724D01*
X146696724Y-88304999D01*
X146696729Y-88304991D01*
X146698186Y-88303287D01*
X146698909Y-88302814D01*
X146700225Y-88301499D01*
X146700501Y-88301775D01*
X146757635Y-88264476D01*
X146828630Y-88263966D01*
X146888630Y-88301920D01*
X146889814Y-88303287D01*
X146891282Y-88305006D01*
X147022999Y-88436723D01*
X147069991Y-88470864D01*
X147173711Y-88546220D01*
X147339694Y-88630793D01*
X147516863Y-88688359D01*
X147700856Y-88717500D01*
X147700858Y-88717500D01*
X147887142Y-88717500D01*
X147887144Y-88717500D01*
X148071137Y-88688359D01*
X148248306Y-88630793D01*
X148414289Y-88546220D01*
X148564999Y-88436724D01*
X148696724Y-88304999D01*
X148696729Y-88304991D01*
X148698186Y-88303287D01*
X148698909Y-88302814D01*
X148700225Y-88301499D01*
X148700501Y-88301775D01*
X148757635Y-88264476D01*
X148828630Y-88263966D01*
X148888630Y-88301920D01*
X148889814Y-88303287D01*
X148891282Y-88305006D01*
X149022999Y-88436723D01*
X149069991Y-88470864D01*
X149173711Y-88546220D01*
X149339694Y-88630793D01*
X149516863Y-88688359D01*
X149700856Y-88717500D01*
X149700858Y-88717500D01*
X149887142Y-88717500D01*
X149887144Y-88717500D01*
X150071137Y-88688359D01*
X150248306Y-88630793D01*
X150414289Y-88546220D01*
X150564999Y-88436724D01*
X150696724Y-88304999D01*
X150696729Y-88304991D01*
X150698186Y-88303287D01*
X150698909Y-88302814D01*
X150700225Y-88301499D01*
X150700501Y-88301775D01*
X150757635Y-88264476D01*
X150828630Y-88263966D01*
X150888630Y-88301920D01*
X150889814Y-88303287D01*
X150891282Y-88305006D01*
X151022999Y-88436723D01*
X151069991Y-88470864D01*
X151173711Y-88546220D01*
X151339694Y-88630793D01*
X151516863Y-88688359D01*
X151700856Y-88717500D01*
X151700858Y-88717500D01*
X151887142Y-88717500D01*
X151887144Y-88717500D01*
X152071137Y-88688359D01*
X152248306Y-88630793D01*
X152414289Y-88546220D01*
X152564999Y-88436724D01*
X152696724Y-88304999D01*
X152696729Y-88304991D01*
X152698186Y-88303287D01*
X152698909Y-88302814D01*
X152700225Y-88301499D01*
X152700501Y-88301775D01*
X152757635Y-88264476D01*
X152828630Y-88263966D01*
X152888630Y-88301920D01*
X152889814Y-88303287D01*
X152891282Y-88305006D01*
X153022999Y-88436723D01*
X153069991Y-88470864D01*
X153173711Y-88546220D01*
X153339694Y-88630793D01*
X153516863Y-88688359D01*
X153700856Y-88717500D01*
X153700858Y-88717500D01*
X153887142Y-88717500D01*
X153887144Y-88717500D01*
X154071137Y-88688359D01*
X154248306Y-88630793D01*
X154414289Y-88546220D01*
X154564999Y-88436724D01*
X154696724Y-88304999D01*
X154696729Y-88304991D01*
X154698186Y-88303287D01*
X154698909Y-88302814D01*
X154700225Y-88301499D01*
X154700501Y-88301775D01*
X154757635Y-88264476D01*
X154828630Y-88263966D01*
X154888630Y-88301920D01*
X154889814Y-88303287D01*
X154891282Y-88305006D01*
X155022999Y-88436723D01*
X155069991Y-88470864D01*
X155173711Y-88546220D01*
X155339694Y-88630793D01*
X155516863Y-88688359D01*
X155700856Y-88717500D01*
X155700858Y-88717500D01*
X155887142Y-88717500D01*
X155887144Y-88717500D01*
X156071137Y-88688359D01*
X156248306Y-88630793D01*
X156414289Y-88546220D01*
X156564999Y-88436724D01*
X156696724Y-88304999D01*
X156696729Y-88304991D01*
X156698186Y-88303287D01*
X156698909Y-88302814D01*
X156700225Y-88301499D01*
X156700501Y-88301775D01*
X156757635Y-88264476D01*
X156828630Y-88263966D01*
X156888630Y-88301920D01*
X156889814Y-88303287D01*
X156891282Y-88305006D01*
X157022999Y-88436723D01*
X157069991Y-88470864D01*
X157173711Y-88546220D01*
X157339694Y-88630793D01*
X157516863Y-88688359D01*
X157700856Y-88717500D01*
X157700858Y-88717500D01*
X157887142Y-88717500D01*
X157887144Y-88717500D01*
X158071137Y-88688359D01*
X158248306Y-88630793D01*
X158414289Y-88546220D01*
X158564999Y-88436724D01*
X158696724Y-88304999D01*
X158696729Y-88304991D01*
X158698186Y-88303287D01*
X158698909Y-88302814D01*
X158700225Y-88301499D01*
X158700501Y-88301775D01*
X158757635Y-88264476D01*
X158828630Y-88263966D01*
X158888630Y-88301920D01*
X158889814Y-88303287D01*
X158891282Y-88305006D01*
X159022999Y-88436723D01*
X159069991Y-88470864D01*
X159173711Y-88546220D01*
X159339694Y-88630793D01*
X159516863Y-88688359D01*
X159700856Y-88717500D01*
X159700858Y-88717500D01*
X159887142Y-88717500D01*
X159887144Y-88717500D01*
X160071137Y-88688359D01*
X160248306Y-88630793D01*
X160414289Y-88546220D01*
X160522740Y-88467425D01*
X160589606Y-88443568D01*
X160658758Y-88459649D01*
X160697667Y-88493853D01*
X160756097Y-88571905D01*
X160873034Y-88659444D01*
X161009906Y-88710494D01*
X161070402Y-88716999D01*
X161070415Y-88717000D01*
X161540000Y-88717000D01*
X161540000Y-87845686D01*
X161548394Y-87854080D01*
X161639606Y-87906741D01*
X161741339Y-87934000D01*
X161846661Y-87934000D01*
X161948394Y-87906741D01*
X162039606Y-87854080D01*
X162048000Y-87845686D01*
X162048000Y-88717000D01*
X162517585Y-88717000D01*
X162517597Y-88716999D01*
X162578093Y-88710494D01*
X162714964Y-88659444D01*
X162714965Y-88659444D01*
X162831904Y-88571904D01*
X162919444Y-88454965D01*
X162919444Y-88454964D01*
X162970494Y-88318093D01*
X162976999Y-88257597D01*
X162977000Y-88257585D01*
X162977000Y-87788000D01*
X162105686Y-87788000D01*
X162114080Y-87779606D01*
X162166741Y-87688394D01*
X162194000Y-87586661D01*
X162194000Y-87481339D01*
X162166741Y-87379606D01*
X162114080Y-87288394D01*
X162105686Y-87280000D01*
X162977000Y-87280000D01*
X162977000Y-86810414D01*
X162976999Y-86810402D01*
X162970494Y-86749906D01*
X162919444Y-86613035D01*
X162919444Y-86613034D01*
X162831904Y-86496095D01*
X162714965Y-86408555D01*
X162578093Y-86357505D01*
X162517597Y-86351000D01*
X162048000Y-86351000D01*
X162048000Y-87222314D01*
X162039606Y-87213920D01*
X161948394Y-87161259D01*
X161846661Y-87134000D01*
X161741339Y-87134000D01*
X161639606Y-87161259D01*
X161548394Y-87213920D01*
X161540000Y-87222314D01*
X161540000Y-86351000D01*
X161070402Y-86351000D01*
X161009906Y-86357505D01*
X160873035Y-86408555D01*
X160873034Y-86408555D01*
X160756094Y-86496096D01*
X160697666Y-86574146D01*
X160691026Y-86579116D01*
X160687155Y-86586453D01*
X160663017Y-86600082D01*
X160640830Y-86616692D01*
X160632556Y-86617283D01*
X160625334Y-86621362D01*
X160597661Y-86619778D01*
X160570014Y-86621756D01*
X160560909Y-86617676D01*
X160554453Y-86617307D01*
X160522735Y-86600570D01*
X160522063Y-86600082D01*
X160515452Y-86595278D01*
X160506836Y-86589018D01*
X160463484Y-86532794D01*
X160454900Y-86487084D01*
X160454900Y-86322909D01*
X160454900Y-86322907D01*
X160452468Y-86310682D01*
X160444982Y-86273044D01*
X160429505Y-86195229D01*
X160429504Y-86195228D01*
X160429503Y-86195227D01*
X160429503Y-86195223D01*
X160379682Y-86074946D01*
X160307355Y-85966701D01*
X159552299Y-85211645D01*
X159444054Y-85139318D01*
X159323782Y-85089500D01*
X159323777Y-85089498D01*
X159196095Y-85064100D01*
X159196093Y-85064100D01*
X140781094Y-85064100D01*
X140650907Y-85064100D01*
X140650904Y-85064100D01*
X140523222Y-85089498D01*
X140523217Y-85089500D01*
X140402945Y-85139318D01*
X140294705Y-85211642D01*
X140294698Y-85211647D01*
X135249647Y-90256698D01*
X135249642Y-90256705D01*
X135177318Y-90364945D01*
X135127500Y-90485217D01*
X135127498Y-90485222D01*
X135102100Y-90612904D01*
X135102100Y-96956056D01*
X135082098Y-97024177D01*
X135065195Y-97045151D01*
X134159151Y-97951195D01*
X134096839Y-97985221D01*
X134070056Y-97988100D01*
X114126216Y-97988100D01*
X113998536Y-98013498D01*
X113998533Y-98013499D01*
X113878259Y-98063318D01*
X113770019Y-98135642D01*
X113770012Y-98135647D01*
X113677959Y-98227700D01*
X113677959Y-98227701D01*
X113677957Y-98227703D01*
X113614774Y-98290886D01*
X113567731Y-98319085D01*
X113568094Y-98319960D01*
X113562378Y-98322327D01*
X113562376Y-98322328D01*
X113490307Y-98352179D01*
X113423609Y-98379807D01*
X113298728Y-98463250D01*
X113298721Y-98463255D01*
X113192519Y-98569457D01*
X113192514Y-98569464D01*
X113109072Y-98694344D01*
X113051593Y-98833109D01*
X113051592Y-98833110D01*
X113022289Y-98980421D01*
X113022289Y-99130628D01*
X113048529Y-99262540D01*
X113051592Y-99277938D01*
X113109071Y-99416704D01*
X113192517Y-99541590D01*
X113298724Y-99647797D01*
X113423610Y-99731243D01*
X113562376Y-99788722D01*
X113616666Y-99799521D01*
X113679576Y-99832429D01*
X113714707Y-99894124D01*
X113710906Y-99965019D01*
X113669381Y-100022605D01*
X113603314Y-100048599D01*
X113592084Y-100049100D01*
X110700936Y-100049100D01*
X110632815Y-100029098D01*
X110611841Y-100012195D01*
X110066047Y-99466401D01*
X110051102Y-99439032D01*
X110034246Y-99412804D01*
X110033340Y-99406505D01*
X110032021Y-99404089D01*
X110029142Y-99377306D01*
X110029142Y-99203381D01*
X110029142Y-99203256D01*
X110029175Y-99137287D01*
X110029171Y-99137268D01*
X110029142Y-99136967D01*
X110029142Y-99136957D01*
X110029140Y-99136947D01*
X110028736Y-99132794D01*
X110028142Y-99120569D01*
X110028142Y-97155502D01*
X110028143Y-97085582D01*
X110015929Y-97024177D01*
X110002747Y-96957902D01*
X110002746Y-96957899D01*
X110001983Y-96956056D01*
X109952926Y-96837621D01*
X109880599Y-96729376D01*
X109880597Y-96729373D01*
X109790116Y-96638892D01*
X109789439Y-96638193D01*
X109789285Y-96637900D01*
X109782544Y-96630462D01*
X109779991Y-96627351D01*
X109683552Y-96530912D01*
X109683529Y-96530891D01*
X106972886Y-93820247D01*
X106972885Y-93820246D01*
X106972884Y-93820245D01*
X106864639Y-93747918D01*
X106744362Y-93698098D01*
X106675001Y-93684301D01*
X106654917Y-93680306D01*
X106592008Y-93647398D01*
X106556877Y-93585702D01*
X106553500Y-93556727D01*
X106553500Y-93473099D01*
X106553499Y-93473096D01*
X106524197Y-93325787D01*
X106466718Y-93187021D01*
X106383272Y-93062135D01*
X106277065Y-92955928D01*
X106152179Y-92872482D01*
X106013414Y-92815003D01*
X105866103Y-92785700D01*
X105866100Y-92785700D01*
X105715900Y-92785700D01*
X105715896Y-92785700D01*
X105568585Y-92815003D01*
X105568584Y-92815004D01*
X105429819Y-92872483D01*
X105304939Y-92955925D01*
X105304932Y-92955930D01*
X105198730Y-93062132D01*
X105198725Y-93062139D01*
X105115282Y-93187021D01*
X105080130Y-93271885D01*
X105035581Y-93327166D01*
X104968218Y-93349587D01*
X104963721Y-93349667D01*
X104834647Y-93349667D01*
X104687336Y-93378970D01*
X104687335Y-93378971D01*
X104548571Y-93436449D01*
X104461813Y-93494419D01*
X104394060Y-93515633D01*
X104325593Y-93496849D01*
X104302717Y-93478748D01*
X100865568Y-90041598D01*
X100865545Y-90041577D01*
X99476494Y-88652525D01*
X99393586Y-88569617D01*
X117800500Y-88569617D01*
X117800500Y-88722382D01*
X117802949Y-88734693D01*
X117830302Y-88872205D01*
X117888761Y-89013337D01*
X117928324Y-89072547D01*
X117973629Y-89140351D01*
X117973634Y-89140357D01*
X118081642Y-89248365D01*
X118081648Y-89248370D01*
X118208663Y-89333239D01*
X118349795Y-89391698D01*
X118499620Y-89421500D01*
X118499621Y-89421500D01*
X118652379Y-89421500D01*
X118652380Y-89421500D01*
X118802205Y-89391698D01*
X118943337Y-89333239D01*
X119070352Y-89248370D01*
X119178370Y-89140352D01*
X119263239Y-89013337D01*
X119321698Y-88872205D01*
X119351500Y-88722380D01*
X119351500Y-88569620D01*
X119349051Y-88557306D01*
X125125500Y-88557306D01*
X125125500Y-88557309D01*
X125125500Y-88734691D01*
X125160106Y-88908666D01*
X125227987Y-89072547D01*
X125273293Y-89140352D01*
X125326535Y-89220034D01*
X125326540Y-89220040D01*
X125451959Y-89345459D01*
X125451965Y-89345464D01*
X125599453Y-89444013D01*
X125763334Y-89511894D01*
X125937309Y-89546500D01*
X125937310Y-89546500D01*
X126114690Y-89546500D01*
X126114691Y-89546500D01*
X126288666Y-89511894D01*
X126452547Y-89444013D01*
X126600035Y-89345464D01*
X126725464Y-89220035D01*
X126824013Y-89072547D01*
X126891894Y-88908666D01*
X126926500Y-88734691D01*
X126926500Y-88557309D01*
X126891894Y-88383334D01*
X126824013Y-88219453D01*
X126725464Y-88071965D01*
X126725459Y-88071959D01*
X126600040Y-87946540D01*
X126600034Y-87946535D01*
X126531898Y-87901008D01*
X126452547Y-87847987D01*
X126288666Y-87780106D01*
X126286152Y-87779606D01*
X126114693Y-87745500D01*
X126114691Y-87745500D01*
X125937309Y-87745500D01*
X125937306Y-87745500D01*
X125763333Y-87780106D01*
X125763328Y-87780108D01*
X125599453Y-87847987D01*
X125451965Y-87946535D01*
X125451959Y-87946540D01*
X125326540Y-88071959D01*
X125326535Y-88071965D01*
X125227987Y-88219453D01*
X125160108Y-88383328D01*
X125160106Y-88383333D01*
X125125500Y-88557306D01*
X119349051Y-88557306D01*
X119321698Y-88419795D01*
X119263239Y-88278663D01*
X119178370Y-88151648D01*
X119178365Y-88151642D01*
X119070357Y-88043634D01*
X119070351Y-88043629D01*
X119028205Y-88015468D01*
X118943337Y-87958761D01*
X118805020Y-87901468D01*
X118802210Y-87900304D01*
X118802205Y-87900302D01*
X118652382Y-87870500D01*
X118652380Y-87870500D01*
X118499620Y-87870500D01*
X118499617Y-87870500D01*
X118349794Y-87900302D01*
X118349789Y-87900304D01*
X118208663Y-87958761D01*
X118081648Y-88043629D01*
X118081642Y-88043634D01*
X117973634Y-88151642D01*
X117973629Y-88151648D01*
X117888761Y-88278663D01*
X117830304Y-88419789D01*
X117830302Y-88419794D01*
X117800500Y-88569617D01*
X99393586Y-88569617D01*
X99386805Y-88562836D01*
X99352779Y-88500524D01*
X99349900Y-88473741D01*
X99349900Y-86988227D01*
X99369902Y-86920106D01*
X99401839Y-86886291D01*
X99405030Y-86883971D01*
X99574004Y-86761206D01*
X99725206Y-86610004D01*
X99850894Y-86437009D01*
X99850902Y-86436992D01*
X99851854Y-86435441D01*
X99852377Y-86434967D01*
X99853804Y-86433004D01*
X99854216Y-86433303D01*
X99904497Y-86387804D01*
X99974537Y-86376189D01*
X100039738Y-86404285D01*
X100064484Y-86432843D01*
X100064624Y-86432742D01*
X100065801Y-86434362D01*
X100066729Y-86435433D01*
X100067535Y-86436749D01*
X100193177Y-86609679D01*
X100344320Y-86760822D01*
X100517249Y-86886463D01*
X100707707Y-86983506D01*
X100707713Y-86983509D01*
X100910998Y-87049560D01*
X100975000Y-87059696D01*
X100975000Y-86155702D01*
X101036007Y-86190925D01*
X101163174Y-86225000D01*
X101294826Y-86225000D01*
X101421993Y-86190925D01*
X101483000Y-86155702D01*
X101483000Y-87059696D01*
X101547001Y-87049560D01*
X101750286Y-86983509D01*
X101750292Y-86983506D01*
X101940750Y-86886463D01*
X102113679Y-86760822D01*
X102264822Y-86609679D01*
X102390463Y-86436750D01*
X102487506Y-86246292D01*
X102487509Y-86246286D01*
X102553559Y-86043004D01*
X102563698Y-85979000D01*
X101659703Y-85979000D01*
X101694925Y-85917993D01*
X101729000Y-85790826D01*
X101729000Y-85659174D01*
X101694925Y-85532007D01*
X101659703Y-85471000D01*
X102563697Y-85471000D01*
X102553559Y-85406995D01*
X102487509Y-85203713D01*
X102487506Y-85203707D01*
X102390463Y-85013249D01*
X102264822Y-84840320D01*
X102113679Y-84689177D01*
X101940750Y-84563536D01*
X101750292Y-84466493D01*
X101750286Y-84466490D01*
X101547004Y-84400440D01*
X101483000Y-84390302D01*
X101483000Y-85294297D01*
X101421993Y-85259075D01*
X101294826Y-85225000D01*
X101163174Y-85225000D01*
X101036007Y-85259075D01*
X100975000Y-85294297D01*
X100975000Y-84390302D01*
X100910995Y-84400440D01*
X100707713Y-84466490D01*
X100707707Y-84466493D01*
X100517249Y-84563536D01*
X100344320Y-84689177D01*
X100193177Y-84840320D01*
X100067532Y-85013255D01*
X100066724Y-85014574D01*
X100066286Y-85014969D01*
X100064624Y-85017258D01*
X100064143Y-85016908D01*
X100014075Y-85062203D01*
X99944033Y-85073807D01*
X99878836Y-85045702D01*
X99853901Y-85016924D01*
X99853804Y-85016996D01*
X99852975Y-85015855D01*
X99851859Y-85014567D01*
X99850899Y-85013001D01*
X99850894Y-85012991D01*
X99725206Y-84839996D01*
X99725203Y-84839993D01*
X99725201Y-84839990D01*
X99574009Y-84688798D01*
X99574006Y-84688796D01*
X99574004Y-84688794D01*
X99401009Y-84563106D01*
X99210483Y-84466028D01*
X99210480Y-84466027D01*
X99210478Y-84466026D01*
X99007120Y-84399952D01*
X99007123Y-84399952D01*
X98946195Y-84390302D01*
X98795916Y-84366500D01*
X98582084Y-84366500D01*
X98370884Y-84399951D01*
X98370878Y-84399952D01*
X98167521Y-84466026D01*
X98167515Y-84466029D01*
X97976987Y-84563108D01*
X97803993Y-84688796D01*
X97803990Y-84688798D01*
X97652798Y-84839990D01*
X97652796Y-84839993D01*
X97527108Y-85012987D01*
X97526434Y-85014088D01*
X97526068Y-85014418D01*
X97524196Y-85016996D01*
X97523654Y-85016602D01*
X97473787Y-85061721D01*
X97403745Y-85073328D01*
X97338547Y-85045226D01*
X97313976Y-85016870D01*
X97313804Y-85016996D01*
X97312341Y-85014982D01*
X97311566Y-85014088D01*
X97310896Y-85012996D01*
X97310894Y-85012991D01*
X97185206Y-84839996D01*
X97185203Y-84839993D01*
X97185201Y-84839990D01*
X97034009Y-84688798D01*
X97034006Y-84688796D01*
X97034004Y-84688794D01*
X96861009Y-84563106D01*
X96670483Y-84466028D01*
X96670480Y-84466027D01*
X96670478Y-84466026D01*
X96467120Y-84399952D01*
X96467123Y-84399952D01*
X96406195Y-84390302D01*
X96255916Y-84366500D01*
X96042084Y-84366500D01*
X95830884Y-84399951D01*
X95830878Y-84399952D01*
X95627521Y-84466026D01*
X95627515Y-84466029D01*
X95436987Y-84563108D01*
X95263995Y-84688794D01*
X95161018Y-84791771D01*
X95098706Y-84825796D01*
X95027890Y-84820730D01*
X94971054Y-84778184D01*
X94953871Y-84746715D01*
X94909889Y-84628796D01*
X94909886Y-84628792D01*
X94909886Y-84628791D01*
X94822261Y-84511738D01*
X94705207Y-84424112D01*
X94705202Y-84424110D01*
X94568204Y-84373011D01*
X94568196Y-84373009D01*
X94507649Y-84366500D01*
X94507638Y-84366500D01*
X92710362Y-84366500D01*
X92710350Y-84366500D01*
X92649803Y-84373009D01*
X92649795Y-84373011D01*
X92512797Y-84424110D01*
X92512792Y-84424112D01*
X92395738Y-84511738D01*
X92308112Y-84628792D01*
X92308110Y-84628797D01*
X92257011Y-84765795D01*
X92257009Y-84765803D01*
X92250500Y-84826350D01*
X92250500Y-86623649D01*
X92257009Y-86684196D01*
X92257011Y-86684204D01*
X92308110Y-86821202D01*
X92308112Y-86821207D01*
X92395738Y-86938261D01*
X92512792Y-87025887D01*
X92512794Y-87025888D01*
X92512796Y-87025889D01*
X92553184Y-87040953D01*
X92649795Y-87076988D01*
X92649803Y-87076990D01*
X92710350Y-87083499D01*
X92710355Y-87083499D01*
X92710362Y-87083500D01*
X92710368Y-87083500D01*
X94507632Y-87083500D01*
X94507638Y-87083500D01*
X94507645Y-87083499D01*
X94507649Y-87083499D01*
X94568196Y-87076990D01*
X94568199Y-87076989D01*
X94568201Y-87076989D01*
X94705204Y-87025889D01*
X94755515Y-86988227D01*
X94822261Y-86938261D01*
X94909887Y-86821207D01*
X94909887Y-86821206D01*
X94909889Y-86821204D01*
X94953869Y-86703288D01*
X94996414Y-86646456D01*
X95062934Y-86621645D01*
X95132308Y-86636736D01*
X95161018Y-86658229D01*
X95263990Y-86761201D01*
X95263993Y-86761203D01*
X95263996Y-86761206D01*
X95365187Y-86834726D01*
X95437293Y-86887114D01*
X95480647Y-86943336D01*
X95485949Y-86965471D01*
X95486892Y-86965284D01*
X95513498Y-87099040D01*
X95513500Y-87099045D01*
X95519413Y-87113321D01*
X95563318Y-87219317D01*
X95635645Y-87327562D01*
X104706438Y-96398355D01*
X104814683Y-96470682D01*
X104934960Y-96520503D01*
X104986804Y-96530814D01*
X105032227Y-96549630D01*
X105048817Y-96560716D01*
X105048819Y-96560717D01*
X105048821Y-96560718D01*
X105187587Y-96618197D01*
X105334900Y-96647500D01*
X105485100Y-96647500D01*
X105632413Y-96618197D01*
X105771179Y-96560718D01*
X105896065Y-96477272D01*
X106002272Y-96371065D01*
X106059625Y-96285228D01*
X106114098Y-96239704D01*
X106184541Y-96230855D01*
X106248586Y-96261495D01*
X106253483Y-96266137D01*
X106924239Y-96936892D01*
X106924244Y-96936898D01*
X107652437Y-97665090D01*
X107686462Y-97727403D01*
X107689342Y-97754186D01*
X107689342Y-99203256D01*
X107676015Y-99256458D01*
X107676893Y-99256822D01*
X107674525Y-99262538D01*
X107674524Y-99262540D01*
X107668145Y-99277940D01*
X107617046Y-99401303D01*
X107617045Y-99401304D01*
X107587742Y-99548615D01*
X107587742Y-99698822D01*
X107611454Y-99818025D01*
X107617045Y-99846132D01*
X107674524Y-99984898D01*
X107757970Y-100109784D01*
X107864177Y-100215991D01*
X107989063Y-100299437D01*
X108127829Y-100356916D01*
X108275142Y-100386219D01*
X108416375Y-100386219D01*
X108484496Y-100406221D01*
X108505470Y-100423124D01*
X109619648Y-101537302D01*
X109653674Y-101599614D01*
X109648609Y-101670429D01*
X109606062Y-101727265D01*
X109539542Y-101752076D01*
X109530553Y-101752397D01*
X105081395Y-101752397D01*
X105069041Y-101751790D01*
X105065057Y-101751397D01*
X105065055Y-101751397D01*
X105065052Y-101751397D01*
X104586071Y-101751397D01*
X104534938Y-101738589D01*
X104534376Y-101739948D01*
X104528659Y-101737580D01*
X104528658Y-101737579D01*
X104389893Y-101680100D01*
X104242582Y-101650797D01*
X104242579Y-101650797D01*
X104092379Y-101650797D01*
X104092375Y-101650797D01*
X103945064Y-101680100D01*
X103945063Y-101680101D01*
X103806298Y-101737580D01*
X103681418Y-101821022D01*
X103681411Y-101821027D01*
X103575209Y-101927229D01*
X103575204Y-101927236D01*
X103553936Y-101959067D01*
X103491761Y-102052118D01*
X103486312Y-102065274D01*
X103434283Y-102190881D01*
X103434282Y-102190882D01*
X103404979Y-102338193D01*
X103404979Y-102488400D01*
X103411093Y-102519135D01*
X103434282Y-102635710D01*
X103491761Y-102774476D01*
X103575207Y-102899362D01*
X103681414Y-103005569D01*
X103806300Y-103089015D01*
X103945066Y-103146494D01*
X103955222Y-103148514D01*
X104018132Y-103181421D01*
X104047051Y-103223874D01*
X104092367Y-103333276D01*
X104175813Y-103458162D01*
X104282020Y-103564369D01*
X104406906Y-103647815D01*
X104519949Y-103694639D01*
X104528732Y-103698277D01*
X104584013Y-103742825D01*
X104596923Y-103766468D01*
X104607280Y-103791473D01*
X104607281Y-103791474D01*
X104607282Y-103791476D01*
X104690728Y-103916362D01*
X104796935Y-104022569D01*
X104921821Y-104106015D01*
X105060587Y-104163494D01*
X105207900Y-104192797D01*
X105358100Y-104192797D01*
X105505413Y-104163494D01*
X105644179Y-104106015D01*
X105769065Y-104022569D01*
X105769075Y-104022558D01*
X105773169Y-104019200D01*
X105838515Y-103991445D01*
X105853106Y-103990597D01*
X108174056Y-103990597D01*
X108242177Y-104010599D01*
X108263151Y-104027502D01*
X109356948Y-105121299D01*
X109449004Y-105213355D01*
X109557249Y-105285682D01*
X109677526Y-105335502D01*
X109805210Y-105360900D01*
X111879537Y-105360900D01*
X111932739Y-105374226D01*
X111933103Y-105373349D01*
X111938818Y-105375716D01*
X111938821Y-105375718D01*
X112077587Y-105433197D01*
X112224900Y-105462500D01*
X112375100Y-105462500D01*
X112522413Y-105433197D01*
X112661179Y-105375718D01*
X112786065Y-105292272D01*
X112892272Y-105186065D01*
X112975718Y-105061179D01*
X113033197Y-104922413D01*
X113062500Y-104775100D01*
X113062501Y-104775096D01*
X113062555Y-104774549D01*
X113062663Y-104774280D01*
X113063708Y-104769029D01*
X113064703Y-104769227D01*
X113089138Y-104708717D01*
X113147092Y-104667708D01*
X113187948Y-104660900D01*
X114130372Y-104660900D01*
X114198493Y-104680902D01*
X114219467Y-104697804D01*
X114313935Y-104792272D01*
X114438821Y-104875718D01*
X114577587Y-104933197D01*
X114724900Y-104962500D01*
X114875100Y-104962500D01*
X115022413Y-104933197D01*
X115161179Y-104875718D01*
X115286065Y-104792272D01*
X115392272Y-104686065D01*
X115475718Y-104561179D01*
X115533197Y-104422413D01*
X115562500Y-104275100D01*
X115562500Y-104124900D01*
X115533197Y-103977587D01*
X115475718Y-103838821D01*
X115392272Y-103713935D01*
X115286065Y-103607728D01*
X115161179Y-103524282D01*
X115022413Y-103466803D01*
X115022411Y-103466802D01*
X115022410Y-103466802D01*
X115022408Y-103466801D01*
X115003118Y-103462964D01*
X114957703Y-103444151D01*
X114913054Y-103414318D01*
X114792777Y-103364498D01*
X114665095Y-103339100D01*
X114665093Y-103339100D01*
X110525943Y-103339100D01*
X110496027Y-103330316D01*
X110465558Y-103323688D01*
X110460462Y-103319873D01*
X110457822Y-103319098D01*
X110436848Y-103302195D01*
X110423945Y-103289292D01*
X110389919Y-103226980D01*
X110394984Y-103156165D01*
X110437531Y-103099329D01*
X110504051Y-103074518D01*
X110513040Y-103074197D01*
X115803352Y-103074197D01*
X115871473Y-103094199D01*
X115892447Y-103111101D01*
X116508364Y-103727017D01*
X116508369Y-103727023D01*
X116512769Y-103731423D01*
X116512770Y-103731424D01*
X116604826Y-103823480D01*
X116713071Y-103895807D01*
X116813728Y-103937500D01*
X116833348Y-103945627D01*
X116961031Y-103971025D01*
X116961032Y-103971025D01*
X117089931Y-103971025D01*
X117158052Y-103991027D01*
X117179026Y-104007930D01*
X121390608Y-108219512D01*
X121424634Y-108281824D01*
X121426906Y-108296257D01*
X121427426Y-108301544D01*
X121456731Y-108448862D01*
X121514210Y-108587628D01*
X121597656Y-108712514D01*
X121703863Y-108818721D01*
X121828749Y-108902167D01*
X121967515Y-108959646D01*
X121994880Y-108965089D01*
X122057790Y-108997996D01*
X122092922Y-109059691D01*
X122096299Y-109088668D01*
X122096299Y-111431100D01*
X122076297Y-111499221D01*
X122022641Y-111545714D01*
X121970299Y-111557100D01*
X121924896Y-111557100D01*
X121777585Y-111586403D01*
X121777584Y-111586404D01*
X121673521Y-111629509D01*
X121625302Y-111639100D01*
X114525944Y-111639100D01*
X114496023Y-111630314D01*
X114465558Y-111623687D01*
X114460463Y-111619873D01*
X114457823Y-111619098D01*
X114436848Y-111602195D01*
X114297804Y-111463150D01*
X114263779Y-111400838D01*
X114260900Y-111374055D01*
X114260900Y-108720462D01*
X114274227Y-108667261D01*
X114273349Y-108666897D01*
X114275716Y-108661181D01*
X114275718Y-108661179D01*
X114333197Y-108522413D01*
X114362500Y-108375100D01*
X114362500Y-108224900D01*
X114333197Y-108077587D01*
X114275718Y-107938821D01*
X114192272Y-107813935D01*
X114086065Y-107707728D01*
X113961179Y-107624282D01*
X113822414Y-107566803D01*
X113675103Y-107537500D01*
X113675100Y-107537500D01*
X113524900Y-107537500D01*
X113524896Y-107537500D01*
X113377585Y-107566803D01*
X113377584Y-107566804D01*
X113238819Y-107624283D01*
X113113939Y-107707725D01*
X113113932Y-107707730D01*
X113007730Y-107813932D01*
X113007725Y-107813939D01*
X112936059Y-107921196D01*
X112924282Y-107938821D01*
X112914618Y-107962153D01*
X112866804Y-108077584D01*
X112866803Y-108077585D01*
X112837500Y-108224896D01*
X112837500Y-108375103D01*
X112866677Y-108521779D01*
X112866803Y-108522413D01*
X112924282Y-108661179D01*
X112924283Y-108661180D01*
X112926651Y-108666897D01*
X112925772Y-108667261D01*
X112939100Y-108720462D01*
X112939100Y-111765095D01*
X112964498Y-111892777D01*
X112964500Y-111892782D01*
X113014318Y-112013054D01*
X113086644Y-112121298D01*
X113682239Y-112716892D01*
X113682260Y-112716915D01*
X113778695Y-112813350D01*
X113778698Y-112813352D01*
X113778701Y-112813355D01*
X113830825Y-112848183D01*
X113882594Y-112882775D01*
X113882593Y-112882775D01*
X113886942Y-112885680D01*
X113886946Y-112885682D01*
X114007223Y-112935502D01*
X114134906Y-112960900D01*
X114134907Y-112960900D01*
X121549089Y-112960900D01*
X121617210Y-112980902D01*
X121619080Y-112982127D01*
X121638821Y-112995318D01*
X121777587Y-113052797D01*
X121924900Y-113082100D01*
X121970299Y-113082100D01*
X122038420Y-113102102D01*
X122084913Y-113155758D01*
X122096299Y-113208100D01*
X122096299Y-115949025D01*
X122121697Y-116076709D01*
X122125945Y-116086961D01*
X122125946Y-116086969D01*
X122125948Y-116086969D01*
X122171517Y-116196983D01*
X122171519Y-116196987D01*
X122237298Y-116295433D01*
X122237299Y-116295433D01*
X122237302Y-116295437D01*
X122243845Y-116305229D01*
X122562008Y-116623392D01*
X122596032Y-116685703D01*
X122596490Y-116687901D01*
X122598297Y-116696986D01*
X122598298Y-116696989D01*
X122598299Y-116696992D01*
X122634096Y-116783414D01*
X122648119Y-116817269D01*
X122719546Y-116924168D01*
X122720446Y-116925514D01*
X122883400Y-117088468D01*
X122927338Y-117132405D01*
X122961363Y-117194717D01*
X122956299Y-117265533D01*
X122913752Y-117322369D01*
X122847232Y-117347180D01*
X122838243Y-117347501D01*
X107568108Y-117347501D01*
X107499987Y-117327499D01*
X107479013Y-117310596D01*
X107384064Y-117215647D01*
X107384062Y-117215645D01*
X107275817Y-117143318D01*
X107251730Y-117133341D01*
X107155545Y-117093500D01*
X107155540Y-117093498D01*
X107027858Y-117068100D01*
X107027856Y-117068100D01*
X103893736Y-117068100D01*
X103825615Y-117048098D01*
X103779122Y-116994442D01*
X103769018Y-116924168D01*
X103798512Y-116859588D01*
X103804628Y-116853017D01*
X104758318Y-115899326D01*
X104758325Y-115899321D01*
X104765496Y-115892149D01*
X104765499Y-115892148D01*
X104857555Y-115800092D01*
X104929882Y-115691847D01*
X104979702Y-115571570D01*
X104983309Y-115553436D01*
X105005100Y-115443887D01*
X105005100Y-115313700D01*
X105005100Y-108619414D01*
X105025102Y-108551293D01*
X105026338Y-108549408D01*
X105027470Y-108547712D01*
X105029982Y-108543954D01*
X105079802Y-108423677D01*
X105105200Y-108295993D01*
X105105200Y-108165806D01*
X105105200Y-107812162D01*
X105118527Y-107758961D01*
X105117649Y-107758597D01*
X105120016Y-107752881D01*
X105120018Y-107752879D01*
X105177497Y-107614113D01*
X105206800Y-107466800D01*
X105206800Y-107316600D01*
X105177497Y-107169287D01*
X105120018Y-107030521D01*
X105036572Y-106905635D01*
X104930365Y-106799428D01*
X104805479Y-106715982D01*
X104666714Y-106658503D01*
X104519403Y-106629200D01*
X104519400Y-106629200D01*
X104369200Y-106629200D01*
X104369196Y-106629200D01*
X104221885Y-106658503D01*
X104221884Y-106658504D01*
X104140595Y-106692175D01*
X104109137Y-106705206D01*
X104083119Y-106715983D01*
X103958239Y-106799425D01*
X103958232Y-106799430D01*
X103852030Y-106905632D01*
X103852025Y-106905639D01*
X103768581Y-107030521D01*
X103768579Y-107030525D01*
X103717157Y-107154668D01*
X103672609Y-107209949D01*
X103648968Y-107222857D01*
X103524825Y-107274279D01*
X103524821Y-107274281D01*
X103399939Y-107357725D01*
X103399932Y-107357730D01*
X103293730Y-107463932D01*
X103293725Y-107463939D01*
X103210283Y-107588819D01*
X103152804Y-107727584D01*
X103152803Y-107727585D01*
X103123500Y-107874896D01*
X103123500Y-108025103D01*
X103152803Y-108172413D01*
X103210282Y-108311179D01*
X103210283Y-108311180D01*
X103212651Y-108316897D01*
X103211772Y-108317261D01*
X103225100Y-108370462D01*
X103225100Y-114863056D01*
X103205098Y-114931177D01*
X103188195Y-114952151D01*
X101654372Y-116485973D01*
X101654371Y-116485975D01*
X101654370Y-116485976D01*
X101614710Y-116525636D01*
X101559561Y-116580784D01*
X101559529Y-116580818D01*
X101483399Y-116656949D01*
X101483398Y-116656950D01*
X101483397Y-116656952D01*
X101467470Y-116680789D01*
X101408675Y-116768782D01*
X101399951Y-116781838D01*
X101385275Y-116817269D01*
X101342473Y-116920601D01*
X101342472Y-116920602D01*
X101313169Y-117067913D01*
X101313169Y-117218120D01*
X101342472Y-117365430D01*
X101399951Y-117504196D01*
X101483397Y-117629082D01*
X101589604Y-117735289D01*
X101714490Y-117818735D01*
X101853256Y-117876214D01*
X101853980Y-117876358D01*
X101854030Y-117876368D01*
X101854396Y-117876559D01*
X101859175Y-117878009D01*
X101858900Y-117878915D01*
X101882612Y-117891318D01*
X101911963Y-117904723D01*
X101913848Y-117907656D01*
X101916940Y-117909274D01*
X101932906Y-117937311D01*
X101950347Y-117964449D01*
X101951017Y-117969115D01*
X101952073Y-117970968D01*
X101955451Y-117999947D01*
X101955451Y-118197184D01*
X101942124Y-118250386D01*
X101943002Y-118250750D01*
X101940634Y-118256466D01*
X101940633Y-118256468D01*
X101919701Y-118307002D01*
X101883155Y-118395231D01*
X101883154Y-118395232D01*
X101853851Y-118542543D01*
X101853851Y-118692750D01*
X101879184Y-118820103D01*
X101883154Y-118840060D01*
X101940633Y-118978826D01*
X102024079Y-119103712D01*
X102024081Y-119103714D01*
X102059372Y-119139005D01*
X102093398Y-119201317D01*
X102088333Y-119272132D01*
X102045786Y-119328968D01*
X101979266Y-119353779D01*
X101970277Y-119354100D01*
X97415943Y-119354100D01*
X97347822Y-119334098D01*
X97326848Y-119317195D01*
X94087805Y-116078151D01*
X94053779Y-116015839D01*
X94050900Y-115989056D01*
X94050900Y-109458909D01*
X94050899Y-109458904D01*
X94048038Y-109444521D01*
X94048037Y-109444517D01*
X94043610Y-109422261D01*
X94025502Y-109331223D01*
X93975682Y-109210946D01*
X93903355Y-109102701D01*
X93811299Y-109010645D01*
X93811298Y-109010644D01*
X93806898Y-109006244D01*
X93806887Y-109006234D01*
X90895562Y-106094908D01*
X90861536Y-106032596D01*
X90860208Y-105986110D01*
X90893500Y-105775916D01*
X90893500Y-105562084D01*
X90860208Y-105351891D01*
X90869307Y-105281485D01*
X90895559Y-105243093D01*
X93840849Y-102297805D01*
X93903161Y-102263779D01*
X93929944Y-102260900D01*
X99147537Y-102260900D01*
X99156217Y-102262650D01*
X99161676Y-102261696D01*
X99180456Y-102267539D01*
X99196377Y-102270751D01*
X99204497Y-102274165D01*
X99206821Y-102275718D01*
X99298483Y-102313685D01*
X99298971Y-102313891D01*
X99326224Y-102336094D01*
X99353631Y-102358180D01*
X99353741Y-102358513D01*
X99354013Y-102358734D01*
X99364931Y-102392133D01*
X99376051Y-102425544D01*
X99375964Y-102425883D01*
X99376073Y-102426216D01*
X99367200Y-102460218D01*
X99358492Y-102494335D01*
X99358199Y-102494711D01*
X99358147Y-102494913D01*
X99357781Y-102495249D01*
X99339227Y-102519135D01*
X98484301Y-103374061D01*
X98392247Y-103466114D01*
X98392242Y-103466121D01*
X98319918Y-103574361D01*
X98270100Y-103694633D01*
X98270098Y-103694638D01*
X98244700Y-103822320D01*
X98244700Y-106127454D01*
X98235916Y-106157369D01*
X98229288Y-106187839D01*
X98225473Y-106192934D01*
X98224698Y-106195575D01*
X98207796Y-106216549D01*
X98147796Y-106276548D01*
X98079895Y-106344450D01*
X98062172Y-106362174D01*
X97987837Y-106436509D01*
X97987836Y-106436511D01*
X97915512Y-106544751D01*
X97868395Y-106658504D01*
X97865692Y-106665029D01*
X97858396Y-106701710D01*
X97841803Y-106785122D01*
X97827093Y-106820669D01*
X97828393Y-106821364D01*
X97825477Y-106826817D01*
X97767998Y-106965584D01*
X97767997Y-106965585D01*
X97738694Y-107112896D01*
X97738694Y-107263103D01*
X97749336Y-107316600D01*
X97767997Y-107410413D01*
X97825476Y-107549179D01*
X97908922Y-107674065D01*
X98015129Y-107780272D01*
X98140015Y-107863718D01*
X98278781Y-107921197D01*
X98426094Y-107950500D01*
X98576294Y-107950500D01*
X98723607Y-107921197D01*
X98783176Y-107896521D01*
X98853765Y-107888932D01*
X98879604Y-107896518D01*
X98939184Y-107921197D01*
X99086497Y-107950500D01*
X99236697Y-107950500D01*
X99384010Y-107921197D01*
X99443579Y-107896521D01*
X99514168Y-107888932D01*
X99540007Y-107896518D01*
X99599587Y-107921197D01*
X99746900Y-107950500D01*
X99897100Y-107950500D01*
X100044413Y-107921197D01*
X100183179Y-107863718D01*
X100308065Y-107780272D01*
X100414272Y-107674065D01*
X100497718Y-107549179D01*
X100555197Y-107410413D01*
X100584500Y-107263100D01*
X100584500Y-107112900D01*
X100555197Y-106965587D01*
X100497718Y-106826821D01*
X100497716Y-106826818D01*
X100495349Y-106821103D01*
X100496226Y-106820739D01*
X100482900Y-106767537D01*
X100482900Y-104592942D01*
X100502902Y-104524821D01*
X100519800Y-104503852D01*
X101805731Y-103217920D01*
X101805736Y-103217917D01*
X101816105Y-103207547D01*
X101816107Y-103207547D01*
X101908163Y-103115491D01*
X101980490Y-103007246D01*
X102030310Y-102886969D01*
X102042543Y-102825468D01*
X102055708Y-102759286D01*
X102055708Y-102629099D01*
X102055708Y-102375560D01*
X102057612Y-102366316D01*
X102056625Y-102360384D01*
X102062981Y-102340249D01*
X102065967Y-102325759D01*
X102069181Y-102318287D01*
X102070526Y-102316276D01*
X102082863Y-102286489D01*
X102083179Y-102285757D01*
X102105330Y-102259022D01*
X102127058Y-102232060D01*
X102128006Y-102231657D01*
X102128477Y-102231089D01*
X102131921Y-102229994D01*
X102174337Y-102211980D01*
X102203413Y-102206197D01*
X102342179Y-102148718D01*
X102467065Y-102065272D01*
X102573272Y-101959065D01*
X102656718Y-101834179D01*
X102714197Y-101695413D01*
X102743500Y-101548100D01*
X102743500Y-101397900D01*
X102714197Y-101250587D01*
X102656718Y-101111821D01*
X102573272Y-100986935D01*
X102467065Y-100880728D01*
X102342179Y-100797282D01*
X102203413Y-100739803D01*
X102203410Y-100739802D01*
X102197695Y-100737435D01*
X102198057Y-100736559D01*
X102151014Y-100708360D01*
X101969501Y-100526847D01*
X101969499Y-100526845D01*
X101861254Y-100454518D01*
X101740979Y-100404699D01*
X101740977Y-100404698D01*
X101613295Y-100379300D01*
X101613293Y-100379300D01*
X100671216Y-100379300D01*
X100541029Y-100379300D01*
X100541025Y-100379300D01*
X100413345Y-100404698D01*
X100413342Y-100404699D01*
X100293068Y-100454518D01*
X100184828Y-100526842D01*
X100184821Y-100526847D01*
X100092768Y-100618901D01*
X100092765Y-100618902D01*
X100092766Y-100618903D01*
X99883452Y-100828215D01*
X99821140Y-100862240D01*
X99769776Y-100862697D01*
X99729905Y-100854767D01*
X99643103Y-100837500D01*
X99643100Y-100837500D01*
X99492900Y-100837500D01*
X99492896Y-100837500D01*
X99345585Y-100866803D01*
X99345584Y-100866804D01*
X99311976Y-100880725D01*
X99206821Y-100924282D01*
X99206819Y-100924283D01*
X99201103Y-100926651D01*
X99200739Y-100925773D01*
X99147537Y-100939100D01*
X93538904Y-100939100D01*
X93411222Y-100964498D01*
X93411217Y-100964500D01*
X93290945Y-101014318D01*
X93182705Y-101086642D01*
X93182698Y-101086647D01*
X89960907Y-104308437D01*
X89898595Y-104342463D01*
X89852105Y-104343790D01*
X89641916Y-104310500D01*
X89428084Y-104310500D01*
X89216884Y-104343951D01*
X89216878Y-104343952D01*
X89013521Y-104410026D01*
X89013515Y-104410029D01*
X88829703Y-104503686D01*
X88759926Y-104516790D01*
X88694141Y-104490090D01*
X88653235Y-104432062D01*
X88646500Y-104391419D01*
X88646500Y-96952899D01*
X88646499Y-96952896D01*
X88643317Y-96936898D01*
X88617197Y-96805587D01*
X88559718Y-96666821D01*
X88476272Y-96541935D01*
X88370065Y-96435728D01*
X88245179Y-96352282D01*
X88106414Y-96294803D01*
X87959103Y-96265500D01*
X87959100Y-96265500D01*
X87808900Y-96265500D01*
X87808896Y-96265500D01*
X87661585Y-96294803D01*
X87661584Y-96294804D01*
X87522819Y-96352283D01*
X87397939Y-96435725D01*
X87397932Y-96435730D01*
X87291730Y-96541932D01*
X87291725Y-96541939D01*
X87208283Y-96666819D01*
X87150804Y-96805584D01*
X87150803Y-96805585D01*
X87121500Y-96952896D01*
X87121500Y-113990500D01*
X87101498Y-114058621D01*
X87047842Y-114105114D01*
X86995500Y-114116500D01*
X86184356Y-114116500D01*
X86080496Y-114127111D01*
X85912204Y-114182877D01*
X85761310Y-114275949D01*
X85761304Y-114275954D01*
X85635954Y-114401304D01*
X85635949Y-114401310D01*
X85542877Y-114552204D01*
X85487111Y-114720496D01*
X85476500Y-114824355D01*
X85476500Y-116525644D01*
X85476499Y-116525644D01*
X85487111Y-116629503D01*
X85487112Y-116629506D01*
X85542877Y-116797796D01*
X85635949Y-116948689D01*
X85635954Y-116948695D01*
X85761304Y-117074045D01*
X85761310Y-117074050D01*
X85761311Y-117074051D01*
X85912204Y-117167123D01*
X86080494Y-117222888D01*
X86101268Y-117225010D01*
X86184356Y-117233500D01*
X86184364Y-117233500D01*
X87885644Y-117233500D01*
X87961177Y-117225782D01*
X87989506Y-117222888D01*
X88157796Y-117167123D01*
X88308689Y-117074051D01*
X88434051Y-116948689D01*
X88527123Y-116797796D01*
X88582888Y-116629506D01*
X88587866Y-116580784D01*
X88593500Y-116525644D01*
X88593500Y-115130686D01*
X88603092Y-115082467D01*
X88617193Y-115048424D01*
X88617194Y-115048419D01*
X88617197Y-115048413D01*
X88638889Y-114939360D01*
X88646500Y-114901100D01*
X88646500Y-109693500D01*
X88666502Y-109625379D01*
X88720158Y-109578886D01*
X88772500Y-109567500D01*
X90433632Y-109567500D01*
X90433638Y-109567500D01*
X90433645Y-109567499D01*
X90433649Y-109567499D01*
X90494196Y-109560990D01*
X90494199Y-109560989D01*
X90494201Y-109560989D01*
X90631204Y-109509889D01*
X90748261Y-109422261D01*
X90816411Y-109331224D01*
X90835887Y-109305207D01*
X90835887Y-109305206D01*
X90835889Y-109305204D01*
X90886989Y-109168201D01*
X90893500Y-109107638D01*
X90893500Y-108266343D01*
X90913502Y-108198222D01*
X90967158Y-108151729D01*
X91037432Y-108141625D01*
X91102012Y-108171119D01*
X91108595Y-108177248D01*
X92692195Y-109760848D01*
X92726221Y-109823160D01*
X92729100Y-109849943D01*
X92729100Y-116380095D01*
X92754498Y-116507777D01*
X92754500Y-116507782D01*
X92783598Y-116578032D01*
X92804318Y-116628054D01*
X92876645Y-116736299D01*
X94726248Y-118585902D01*
X96572234Y-120431887D01*
X96572244Y-120431898D01*
X96576644Y-120436298D01*
X96576645Y-120436299D01*
X96668701Y-120528355D01*
X96761308Y-120590233D01*
X96776946Y-120600682D01*
X96791634Y-120606766D01*
X96846915Y-120651311D01*
X96869338Y-120718674D01*
X96851782Y-120787466D01*
X96845355Y-120797235D01*
X96794678Y-120866986D01*
X96685737Y-121080793D01*
X96685734Y-121080799D01*
X96611585Y-121309006D01*
X96611584Y-121309011D01*
X96611584Y-121309012D01*
X96575108Y-121539319D01*
X96574046Y-121546022D01*
X96574046Y-121748432D01*
X96554044Y-121816553D01*
X96500388Y-121863046D01*
X96430114Y-121873150D01*
X96428337Y-121872881D01*
X96410367Y-121870035D01*
X96401937Y-121868700D01*
X96201955Y-121868700D01*
X96028959Y-121896100D01*
X96004430Y-121899985D01*
X95814247Y-121961779D01*
X95814241Y-121961782D01*
X95636055Y-122052572D01*
X95474268Y-122170119D01*
X95474265Y-122170121D01*
X95332867Y-122311519D01*
X95332865Y-122311522D01*
X95215318Y-122473310D01*
X95186413Y-122530039D01*
X95162517Y-122576939D01*
X95144213Y-122612862D01*
X95095464Y-122664477D01*
X95026549Y-122681543D01*
X94959348Y-122658642D01*
X94919679Y-122612862D01*
X94848575Y-122473313D01*
X94846698Y-122470730D01*
X94827458Y-122444248D01*
X94731029Y-122311525D01*
X94731026Y-122311522D01*
X94731024Y-122311519D01*
X94589626Y-122170121D01*
X94589623Y-122170119D01*
X94589621Y-122170117D01*
X94538374Y-122132883D01*
X94427836Y-122052572D01*
X94335410Y-122005479D01*
X94249649Y-121961781D01*
X94249646Y-121961780D01*
X94249644Y-121961779D01*
X94059459Y-121899985D01*
X94059463Y-121899985D01*
X94022689Y-121894160D01*
X93861937Y-121868700D01*
X93661955Y-121868700D01*
X93488959Y-121896100D01*
X93464430Y-121899985D01*
X93274247Y-121961779D01*
X93274241Y-121961782D01*
X93096055Y-122052572D01*
X92934268Y-122170119D01*
X92934265Y-122170121D01*
X92792867Y-122311519D01*
X92792865Y-122311522D01*
X92675318Y-122473309D01*
X92584528Y-122651495D01*
X92584525Y-122651501D01*
X92522731Y-122841684D01*
X92522730Y-122841689D01*
X92522730Y-122841690D01*
X92491446Y-123039209D01*
X92491446Y-123239191D01*
X92521015Y-123425882D01*
X92522731Y-123436715D01*
X92580309Y-123613922D01*
X92584527Y-123626903D01*
X92584528Y-123626904D01*
X92675318Y-123805090D01*
X92727421Y-123876802D01*
X92792863Y-123966875D01*
X92792865Y-123966877D01*
X92792867Y-123966880D01*
X92934265Y-124108278D01*
X92934268Y-124108280D01*
X92934271Y-124108283D01*
X93001253Y-124156948D01*
X93096055Y-124225827D01*
X93096059Y-124225829D01*
X93274243Y-124316619D01*
X93464430Y-124378414D01*
X93464431Y-124378414D01*
X93464436Y-124378416D01*
X93661955Y-124409700D01*
X93661958Y-124409700D01*
X93861934Y-124409700D01*
X93861937Y-124409700D01*
X94059456Y-124378416D01*
X94249649Y-124316619D01*
X94427833Y-124225829D01*
X94589621Y-124108283D01*
X94731029Y-123966875D01*
X94848575Y-123805087D01*
X94919680Y-123665535D01*
X94968427Y-123613922D01*
X95037342Y-123596856D01*
X95104544Y-123619757D01*
X95144210Y-123665534D01*
X95199954Y-123774935D01*
X95215319Y-123805090D01*
X95229421Y-123824500D01*
X95332863Y-123966875D01*
X95332865Y-123966877D01*
X95332867Y-123966880D01*
X95474265Y-124108278D01*
X95474268Y-124108280D01*
X95474271Y-124108283D01*
X95541253Y-124156948D01*
X95636055Y-124225827D01*
X95636059Y-124225829D01*
X95814243Y-124316619D01*
X96004430Y-124378414D01*
X96004431Y-124378414D01*
X96004436Y-124378416D01*
X96201955Y-124409700D01*
X96201958Y-124409700D01*
X96401934Y-124409700D01*
X96401937Y-124409700D01*
X96599456Y-124378416D01*
X96789649Y-124316619D01*
X96967833Y-124225829D01*
X97129621Y-124108283D01*
X97271029Y-123966875D01*
X97388575Y-123805087D01*
X97479365Y-123626903D01*
X97541162Y-123436710D01*
X97570633Y-123250632D01*
X97601046Y-123186481D01*
X97661314Y-123148954D01*
X97732303Y-123149968D01*
X97733971Y-123150497D01*
X97741558Y-123152962D01*
X97978565Y-123190500D01*
X97978568Y-123190500D01*
X98218524Y-123190500D01*
X98218527Y-123190500D01*
X98455534Y-123152962D01*
X98683751Y-123078810D01*
X98897558Y-122969869D01*
X99091691Y-122828823D01*
X99261369Y-122659145D01*
X99402415Y-122465012D01*
X99488280Y-122296491D01*
X99537027Y-122244879D01*
X99605942Y-122227813D01*
X99673144Y-122250714D01*
X99712810Y-122296491D01*
X99798677Y-122465012D01*
X99939723Y-122659145D01*
X99939725Y-122659147D01*
X99939727Y-122659150D01*
X100109395Y-122828818D01*
X100109398Y-122828820D01*
X100109401Y-122828823D01*
X100201640Y-122895838D01*
X100303530Y-122969867D01*
X100303534Y-122969869D01*
X100517341Y-123078810D01*
X100745558Y-123152962D01*
X100982565Y-123190500D01*
X100982568Y-123190500D01*
X101222524Y-123190500D01*
X101222527Y-123190500D01*
X101459534Y-123152962D01*
X101687751Y-123078810D01*
X101901558Y-122969869D01*
X102095691Y-122828823D01*
X102265369Y-122659145D01*
X102406415Y-122465012D01*
X102515356Y-122251205D01*
X102589508Y-122022988D01*
X102627046Y-121785981D01*
X102627046Y-121546019D01*
X102589508Y-121309012D01*
X102515356Y-121080795D01*
X102406415Y-120866988D01*
X102406411Y-120866982D01*
X102404167Y-120862577D01*
X102405319Y-120861990D01*
X102388334Y-120799205D01*
X102409788Y-120731527D01*
X102464426Y-120686193D01*
X102514305Y-120675900D01*
X105983887Y-120675900D01*
X106008468Y-120678321D01*
X106129024Y-120702300D01*
X106129027Y-120702300D01*
X106129030Y-120702301D01*
X106129031Y-120702301D01*
X106722969Y-120702301D01*
X106722970Y-120702301D01*
X106843525Y-120678320D01*
X106868107Y-120675900D01*
X106949292Y-120675900D01*
X106949293Y-120675900D01*
X107076977Y-120650502D01*
X107077602Y-120650242D01*
X107077954Y-120650204D01*
X107082907Y-120648703D01*
X107083191Y-120649641D01*
X107148190Y-120642644D01*
X107211681Y-120674415D01*
X107247917Y-120735468D01*
X107245392Y-120806419D01*
X107227772Y-120840704D01*
X107208680Y-120866982D01*
X107099737Y-121080793D01*
X107099734Y-121080799D01*
X107025585Y-121309006D01*
X107025584Y-121309011D01*
X107025584Y-121309012D01*
X106989108Y-121539319D01*
X106988046Y-121546022D01*
X106988046Y-121748432D01*
X106968044Y-121816553D01*
X106914388Y-121863046D01*
X106844114Y-121873150D01*
X106842337Y-121872881D01*
X106824367Y-121870035D01*
X106815937Y-121868700D01*
X106615955Y-121868700D01*
X106442959Y-121896100D01*
X106418430Y-121899985D01*
X106228247Y-121961779D01*
X106228241Y-121961782D01*
X106050055Y-122052572D01*
X105888268Y-122170119D01*
X105888265Y-122170121D01*
X105746867Y-122311519D01*
X105746865Y-122311522D01*
X105629318Y-122473310D01*
X105600413Y-122530039D01*
X105576517Y-122576939D01*
X105558213Y-122612862D01*
X105509464Y-122664477D01*
X105440549Y-122681543D01*
X105373348Y-122658642D01*
X105333679Y-122612862D01*
X105262575Y-122473313D01*
X105260698Y-122470730D01*
X105241458Y-122444248D01*
X105145029Y-122311525D01*
X105145026Y-122311522D01*
X105145024Y-122311519D01*
X105003626Y-122170121D01*
X105003623Y-122170119D01*
X105003621Y-122170117D01*
X104952374Y-122132883D01*
X104841836Y-122052572D01*
X104749410Y-122005479D01*
X104663649Y-121961781D01*
X104663646Y-121961780D01*
X104663644Y-121961779D01*
X104473459Y-121899985D01*
X104473463Y-121899985D01*
X104436689Y-121894160D01*
X104275937Y-121868700D01*
X104075955Y-121868700D01*
X103902959Y-121896100D01*
X103878430Y-121899985D01*
X103688247Y-121961779D01*
X103688241Y-121961782D01*
X103510055Y-122052572D01*
X103348268Y-122170119D01*
X103348265Y-122170121D01*
X103206867Y-122311519D01*
X103206865Y-122311522D01*
X103089318Y-122473309D01*
X102998528Y-122651495D01*
X102998525Y-122651501D01*
X102936731Y-122841684D01*
X102936730Y-122841689D01*
X102936730Y-122841690D01*
X102905446Y-123039209D01*
X102905446Y-123239191D01*
X102935015Y-123425882D01*
X102936731Y-123436715D01*
X102994309Y-123613922D01*
X102998527Y-123626903D01*
X102998528Y-123626904D01*
X103089318Y-123805090D01*
X103141421Y-123876802D01*
X103206863Y-123966875D01*
X103206865Y-123966877D01*
X103206867Y-123966880D01*
X103348265Y-124108278D01*
X103348268Y-124108280D01*
X103348271Y-124108283D01*
X103415253Y-124156948D01*
X103510055Y-124225827D01*
X103510059Y-124225829D01*
X103688243Y-124316619D01*
X103878430Y-124378414D01*
X103878431Y-124378414D01*
X103878436Y-124378416D01*
X104075955Y-124409700D01*
X104075958Y-124409700D01*
X104275934Y-124409700D01*
X104275937Y-124409700D01*
X104473456Y-124378416D01*
X104663649Y-124316619D01*
X104841833Y-124225829D01*
X105003621Y-124108283D01*
X105145029Y-123966875D01*
X105262575Y-123805087D01*
X105333680Y-123665535D01*
X105382427Y-123613922D01*
X105451342Y-123596856D01*
X105518544Y-123619757D01*
X105558210Y-123665534D01*
X105613954Y-123774935D01*
X105629319Y-123805090D01*
X105643421Y-123824500D01*
X105746863Y-123966875D01*
X105746865Y-123966877D01*
X105746867Y-123966880D01*
X105888265Y-124108278D01*
X105888268Y-124108280D01*
X105888271Y-124108283D01*
X105955253Y-124156948D01*
X106050055Y-124225827D01*
X106050059Y-124225829D01*
X106228243Y-124316619D01*
X106418430Y-124378414D01*
X106418431Y-124378414D01*
X106418436Y-124378416D01*
X106615955Y-124409700D01*
X106615958Y-124409700D01*
X106815934Y-124409700D01*
X106815937Y-124409700D01*
X107013456Y-124378416D01*
X107203649Y-124316619D01*
X107381833Y-124225829D01*
X107543621Y-124108283D01*
X107685029Y-123966875D01*
X107802575Y-123805087D01*
X107893365Y-123626903D01*
X107955162Y-123436710D01*
X107984633Y-123250632D01*
X108015046Y-123186481D01*
X108075314Y-123148954D01*
X108146303Y-123149968D01*
X108147971Y-123150497D01*
X108155558Y-123152962D01*
X108392565Y-123190500D01*
X108392568Y-123190500D01*
X108632524Y-123190500D01*
X108632527Y-123190500D01*
X108869534Y-123152962D01*
X109097751Y-123078810D01*
X109311558Y-122969869D01*
X109505691Y-122828823D01*
X109675369Y-122659145D01*
X109816415Y-122465012D01*
X109925356Y-122251205D01*
X109999508Y-122022988D01*
X110037046Y-121785981D01*
X110037046Y-121546019D01*
X109999508Y-121309012D01*
X109925356Y-121080795D01*
X109816415Y-120866988D01*
X109805600Y-120852103D01*
X109723126Y-120738587D01*
X109694480Y-120699159D01*
X109670623Y-120632294D01*
X109686703Y-120563142D01*
X109737617Y-120513662D01*
X109796417Y-120499100D01*
X123018508Y-120499100D01*
X123086629Y-120519102D01*
X123133122Y-120572758D01*
X123143226Y-120643032D01*
X123142088Y-120649676D01*
X123141924Y-120650501D01*
X123131700Y-120701899D01*
X123131700Y-120852103D01*
X123161003Y-120999413D01*
X123218482Y-121138179D01*
X123301928Y-121263065D01*
X123408135Y-121369272D01*
X123533021Y-121452718D01*
X123671787Y-121510197D01*
X123819100Y-121539500D01*
X123969300Y-121539500D01*
X124116613Y-121510197D01*
X124255379Y-121452718D01*
X124255381Y-121452716D01*
X124261097Y-121450349D01*
X124261460Y-121451226D01*
X124314663Y-121437900D01*
X124869466Y-121437900D01*
X124937587Y-121457902D01*
X124984080Y-121511558D01*
X124993044Y-121539316D01*
X124996803Y-121558213D01*
X125054282Y-121696979D01*
X125137728Y-121821865D01*
X125243935Y-121928072D01*
X125368821Y-122011518D01*
X125507587Y-122068997D01*
X125654900Y-122098300D01*
X125805100Y-122098300D01*
X125952413Y-122068997D01*
X126091179Y-122011518D01*
X126216065Y-121928072D01*
X126216075Y-121928061D01*
X126220169Y-121924703D01*
X126285515Y-121896948D01*
X126300106Y-121896100D01*
X129405264Y-121896100D01*
X129473385Y-121916102D01*
X129494359Y-121933005D01*
X129780995Y-122219641D01*
X129815021Y-122281953D01*
X129817900Y-122308736D01*
X129817900Y-124079887D01*
X129843298Y-124207569D01*
X129843300Y-124207574D01*
X129893118Y-124327846D01*
X129962225Y-124431273D01*
X129965445Y-124436091D01*
X131423252Y-125893897D01*
X131423263Y-125893909D01*
X131427652Y-125898298D01*
X131427653Y-125898299D01*
X131519709Y-125990355D01*
X131627954Y-126062682D01*
X131748226Y-126112500D01*
X131748231Y-126112502D01*
X131875914Y-126137900D01*
X131875915Y-126137900D01*
X169442735Y-126137900D01*
X169490952Y-126147490D01*
X169559634Y-126175940D01*
X169706947Y-126205243D01*
X169857147Y-126205243D01*
X170004460Y-126175940D01*
X170143226Y-126118461D01*
X170268112Y-126035015D01*
X170374319Y-125928808D01*
X170457765Y-125803922D01*
X170515244Y-125665156D01*
X170544547Y-125517843D01*
X170544547Y-125367643D01*
X170528425Y-125286595D01*
X170531028Y-125257497D01*
X170530603Y-125228283D01*
X170534380Y-125220047D01*
X170534753Y-125215882D01*
X170545024Y-125195446D01*
X170546094Y-125193724D01*
X170572885Y-125153631D01*
X170576552Y-125144776D01*
X170582020Y-125135990D01*
X170601095Y-125118967D01*
X170617136Y-125099062D01*
X170627131Y-125095734D01*
X170634992Y-125088720D01*
X170660240Y-125084713D01*
X170684498Y-125076638D01*
X170694706Y-125079243D01*
X170705111Y-125077592D01*
X170728519Y-125087872D01*
X170753290Y-125094194D01*
X170760468Y-125101903D01*
X170770115Y-125106140D01*
X170784250Y-125127445D01*
X170801670Y-125146154D01*
X170804440Y-125157875D01*
X170809366Y-125165300D01*
X170809574Y-125179600D01*
X170815000Y-125202558D01*
X170815000Y-127127498D01*
X170794998Y-127195619D01*
X170741342Y-127242112D01*
X170689000Y-127253498D01*
X67947921Y-127253498D01*
X67942102Y-127253364D01*
X67575886Y-127236432D01*
X67564298Y-127235358D01*
X67204099Y-127185113D01*
X67192658Y-127182974D01*
X66838641Y-127099709D01*
X66827448Y-127096524D01*
X66482619Y-126980950D01*
X66471766Y-126976746D01*
X66139068Y-126829845D01*
X66128650Y-126824657D01*
X65810937Y-126647692D01*
X65801042Y-126641566D01*
X65678542Y-126557652D01*
X65500992Y-126436027D01*
X65491720Y-126429025D01*
X65222229Y-126205243D01*
X65211918Y-126196681D01*
X65203317Y-126188840D01*
X64946157Y-125931679D01*
X64938317Y-125923079D01*
X64917737Y-125898296D01*
X64705970Y-125643275D01*
X64698973Y-125634009D01*
X64493431Y-125333953D01*
X64487306Y-125324060D01*
X64434630Y-125229489D01*
X64310339Y-125006344D01*
X64305153Y-124995930D01*
X64158248Y-124663221D01*
X64154052Y-124652389D01*
X64038473Y-124307548D01*
X64035289Y-124296357D01*
X64031230Y-124279099D01*
X63952021Y-123942323D01*
X63949887Y-123930912D01*
X63899641Y-123570701D01*
X63898567Y-123559113D01*
X63881634Y-123192853D01*
X63881500Y-123187034D01*
X63881500Y-123050893D01*
X65468000Y-123050893D01*
X65468000Y-123329106D01*
X65499150Y-123605570D01*
X65513565Y-123668725D01*
X65561057Y-123876802D01*
X65561059Y-123876808D01*
X65561058Y-123876808D01*
X65652937Y-124139382D01*
X65652948Y-124139409D01*
X65773653Y-124390055D01*
X65773658Y-124390064D01*
X65840825Y-124496959D01*
X65900902Y-124592571D01*
X65921675Y-124625630D01*
X65921678Y-124625634D01*
X66095129Y-124843137D01*
X66291862Y-125039870D01*
X66498275Y-125204477D01*
X66509373Y-125213327D01*
X66572474Y-125252976D01*
X66744935Y-125361341D01*
X66744944Y-125361346D01*
X66816557Y-125395833D01*
X66995600Y-125482056D01*
X66995616Y-125482061D01*
X66995617Y-125482062D01*
X67258191Y-125573941D01*
X67258194Y-125573941D01*
X67258198Y-125573943D01*
X67529433Y-125635850D01*
X67725469Y-125657938D01*
X67805893Y-125667000D01*
X67805895Y-125667000D01*
X68084107Y-125667000D01*
X68154318Y-125659088D01*
X68360567Y-125635850D01*
X68631802Y-125573943D01*
X68894400Y-125482056D01*
X69145060Y-125361344D01*
X69317531Y-125252973D01*
X73574500Y-125252973D01*
X73574500Y-125497027D01*
X73603354Y-125679199D01*
X73612680Y-125738080D01*
X73675584Y-125931679D01*
X73688096Y-125970185D01*
X73798894Y-126187639D01*
X73798896Y-126187642D01*
X73805463Y-126196681D01*
X73942345Y-126385083D01*
X73942347Y-126385085D01*
X73942349Y-126385088D01*
X74114911Y-126557650D01*
X74114914Y-126557652D01*
X74114917Y-126557655D01*
X74312361Y-126701106D01*
X74529815Y-126811904D01*
X74761924Y-126887321D01*
X75002973Y-126925500D01*
X75002976Y-126925500D01*
X75247024Y-126925500D01*
X75247027Y-126925500D01*
X75488076Y-126887321D01*
X75720185Y-126811904D01*
X75937639Y-126701106D01*
X76135083Y-126557655D01*
X76307655Y-126385083D01*
X76451106Y-126187639D01*
X76561904Y-125970185D01*
X76637321Y-125738076D01*
X76675500Y-125497027D01*
X76675500Y-125252973D01*
X77610500Y-125252973D01*
X77610500Y-125497027D01*
X77639354Y-125679199D01*
X77648680Y-125738080D01*
X77711584Y-125931679D01*
X77724096Y-125970185D01*
X77834894Y-126187639D01*
X77834896Y-126187642D01*
X77841463Y-126196681D01*
X77978345Y-126385083D01*
X77978347Y-126385085D01*
X77978349Y-126385088D01*
X78150911Y-126557650D01*
X78150914Y-126557652D01*
X78150917Y-126557655D01*
X78348361Y-126701106D01*
X78565815Y-126811904D01*
X78797924Y-126887321D01*
X79038973Y-126925500D01*
X79038976Y-126925500D01*
X79283024Y-126925500D01*
X79283027Y-126925500D01*
X79524076Y-126887321D01*
X79756185Y-126811904D01*
X79973639Y-126701106D01*
X80171083Y-126557655D01*
X80343655Y-126385083D01*
X80487106Y-126187639D01*
X80597904Y-125970185D01*
X80673321Y-125738076D01*
X80711500Y-125497027D01*
X80711500Y-125252973D01*
X81448500Y-125252973D01*
X81448500Y-125497027D01*
X81477354Y-125679199D01*
X81486680Y-125738080D01*
X81549584Y-125931679D01*
X81562096Y-125970185D01*
X81672894Y-126187639D01*
X81672896Y-126187642D01*
X81679463Y-126196681D01*
X81816345Y-126385083D01*
X81816347Y-126385085D01*
X81816349Y-126385088D01*
X81988911Y-126557650D01*
X81988914Y-126557652D01*
X81988917Y-126557655D01*
X82186361Y-126701106D01*
X82403815Y-126811904D01*
X82635924Y-126887321D01*
X82876973Y-126925500D01*
X82876976Y-126925500D01*
X83121024Y-126925500D01*
X83121027Y-126925500D01*
X83362076Y-126887321D01*
X83594185Y-126811904D01*
X83811639Y-126701106D01*
X84009083Y-126557655D01*
X84181655Y-126385083D01*
X84325106Y-126187639D01*
X84435904Y-125970185D01*
X84511321Y-125738076D01*
X84549500Y-125497027D01*
X84549500Y-125252973D01*
X85484500Y-125252973D01*
X85484500Y-125497027D01*
X85513354Y-125679199D01*
X85522680Y-125738080D01*
X85585584Y-125931679D01*
X85598096Y-125970185D01*
X85708894Y-126187639D01*
X85708896Y-126187642D01*
X85715463Y-126196681D01*
X85852345Y-126385083D01*
X85852347Y-126385085D01*
X85852349Y-126385088D01*
X86024911Y-126557650D01*
X86024914Y-126557652D01*
X86024917Y-126557655D01*
X86222361Y-126701106D01*
X86439815Y-126811904D01*
X86671924Y-126887321D01*
X86912973Y-126925500D01*
X86912976Y-126925500D01*
X87157024Y-126925500D01*
X87157027Y-126925500D01*
X87398076Y-126887321D01*
X87630185Y-126811904D01*
X87847639Y-126701106D01*
X88045083Y-126557655D01*
X88217655Y-126385083D01*
X88361106Y-126187639D01*
X88471904Y-125970185D01*
X88547321Y-125738076D01*
X88572483Y-125579209D01*
X91221446Y-125579209D01*
X91221446Y-125779191D01*
X91245598Y-125931679D01*
X91252731Y-125976715D01*
X91312205Y-126159757D01*
X91314527Y-126166903D01*
X91334212Y-126205537D01*
X91405318Y-126345090D01*
X91434377Y-126385085D01*
X91522863Y-126506875D01*
X91522865Y-126506877D01*
X91522867Y-126506880D01*
X91664265Y-126648278D01*
X91664268Y-126648280D01*
X91664271Y-126648283D01*
X91736971Y-126701103D01*
X91826055Y-126765827D01*
X91826059Y-126765829D01*
X92004243Y-126856619D01*
X92194430Y-126918414D01*
X92194431Y-126918414D01*
X92194436Y-126918416D01*
X92391955Y-126949700D01*
X92391958Y-126949700D01*
X92591934Y-126949700D01*
X92591937Y-126949700D01*
X92789456Y-126918416D01*
X92979649Y-126856619D01*
X93157833Y-126765829D01*
X93158424Y-126765400D01*
X93177064Y-126751857D01*
X93319621Y-126648283D01*
X93461029Y-126506875D01*
X93578575Y-126345087D01*
X93649680Y-126205535D01*
X93698427Y-126153922D01*
X93767342Y-126136856D01*
X93834544Y-126159757D01*
X93874210Y-126205534D01*
X93945317Y-126345087D01*
X94062863Y-126506875D01*
X94062865Y-126506877D01*
X94062867Y-126506880D01*
X94204265Y-126648278D01*
X94204268Y-126648280D01*
X94204271Y-126648283D01*
X94276971Y-126701103D01*
X94366055Y-126765827D01*
X94366059Y-126765829D01*
X94544243Y-126856619D01*
X94734430Y-126918414D01*
X94734431Y-126918414D01*
X94734436Y-126918416D01*
X94931955Y-126949700D01*
X94931958Y-126949700D01*
X95131934Y-126949700D01*
X95131937Y-126949700D01*
X95329456Y-126918416D01*
X95519649Y-126856619D01*
X95697833Y-126765829D01*
X95698424Y-126765400D01*
X95717064Y-126751857D01*
X95859621Y-126648283D01*
X95866338Y-126641566D01*
X95905445Y-126602460D01*
X96001024Y-126506880D01*
X96001029Y-126506875D01*
X96118575Y-126345087D01*
X96209365Y-126166903D01*
X96271162Y-125976710D01*
X96302446Y-125779191D01*
X96302446Y-125579252D01*
X101635946Y-125579252D01*
X101635946Y-125779147D01*
X101667219Y-125976597D01*
X101728989Y-126166706D01*
X101728992Y-126166712D01*
X101819745Y-126344824D01*
X101845568Y-126380366D01*
X102435994Y-125789940D01*
X102456235Y-125865477D01*
X102519770Y-125975523D01*
X102609623Y-126065376D01*
X102719669Y-126128911D01*
X102795204Y-126149150D01*
X102204777Y-126739577D01*
X102240319Y-126765399D01*
X102418433Y-126856153D01*
X102418439Y-126856156D01*
X102608550Y-126917926D01*
X102608546Y-126917926D01*
X102805998Y-126949200D01*
X103005894Y-126949200D01*
X103203343Y-126917926D01*
X103393452Y-126856156D01*
X103393458Y-126856153D01*
X103571572Y-126765400D01*
X103607112Y-126739577D01*
X103016686Y-126149151D01*
X103092223Y-126128911D01*
X103202269Y-126065376D01*
X103292122Y-125975523D01*
X103355657Y-125865477D01*
X103375897Y-125789940D01*
X103966323Y-126380366D01*
X103992147Y-126344824D01*
X103992148Y-126344822D01*
X104063398Y-126204987D01*
X104112146Y-126153371D01*
X104181061Y-126136305D01*
X104248262Y-126159205D01*
X104287930Y-126204984D01*
X104359317Y-126345087D01*
X104476863Y-126506875D01*
X104476865Y-126506877D01*
X104476867Y-126506880D01*
X104618265Y-126648278D01*
X104618268Y-126648280D01*
X104618271Y-126648283D01*
X104690971Y-126701103D01*
X104780055Y-126765827D01*
X104780059Y-126765829D01*
X104958243Y-126856619D01*
X105148430Y-126918414D01*
X105148431Y-126918414D01*
X105148436Y-126918416D01*
X105345955Y-126949700D01*
X105345958Y-126949700D01*
X105545934Y-126949700D01*
X105545937Y-126949700D01*
X105743456Y-126918416D01*
X105933649Y-126856619D01*
X106111833Y-126765829D01*
X106112424Y-126765400D01*
X106131064Y-126751857D01*
X106273621Y-126648283D01*
X106415029Y-126506875D01*
X106532575Y-126345087D01*
X106623365Y-126166903D01*
X106685162Y-125976710D01*
X106716446Y-125779191D01*
X106716446Y-125579209D01*
X106685162Y-125381690D01*
X106623365Y-125191497D01*
X106532709Y-125013576D01*
X106532573Y-125013309D01*
X106426673Y-124867552D01*
X106415029Y-124851525D01*
X106415026Y-124851522D01*
X106415024Y-124851519D01*
X106273626Y-124710121D01*
X106273623Y-124710119D01*
X106273621Y-124710117D01*
X106194152Y-124652379D01*
X106111836Y-124592572D01*
X105944015Y-124507063D01*
X105933649Y-124501781D01*
X105933646Y-124501780D01*
X105933644Y-124501779D01*
X105743459Y-124439985D01*
X105743463Y-124439985D01*
X105688457Y-124431273D01*
X105545937Y-124408700D01*
X105345955Y-124408700D01*
X105168956Y-124436734D01*
X105148430Y-124439985D01*
X104958247Y-124501779D01*
X104958241Y-124501782D01*
X104780055Y-124592572D01*
X104618268Y-124710119D01*
X104618265Y-124710121D01*
X104476867Y-124851519D01*
X104476865Y-124851522D01*
X104359318Y-125013310D01*
X104287932Y-125153413D01*
X104239183Y-125205028D01*
X104170268Y-125222094D01*
X104103067Y-125199193D01*
X104063398Y-125153413D01*
X103992145Y-125013573D01*
X103966323Y-124978031D01*
X103375896Y-125568458D01*
X103355657Y-125492923D01*
X103292122Y-125382877D01*
X103202269Y-125293024D01*
X103092223Y-125229489D01*
X103016686Y-125209248D01*
X103607112Y-124618822D01*
X103571570Y-124592999D01*
X103393458Y-124502246D01*
X103393452Y-124502243D01*
X103203341Y-124440473D01*
X103203345Y-124440473D01*
X103005894Y-124409200D01*
X102805998Y-124409200D01*
X102608548Y-124440473D01*
X102418439Y-124502243D01*
X102418433Y-124502246D01*
X102240322Y-124592998D01*
X102240321Y-124592999D01*
X102204778Y-124618822D01*
X102204778Y-124618823D01*
X102795204Y-125209249D01*
X102719669Y-125229489D01*
X102609623Y-125293024D01*
X102519770Y-125382877D01*
X102456235Y-125492923D01*
X102435995Y-125568458D01*
X101845569Y-124978032D01*
X101845568Y-124978032D01*
X101819745Y-125013575D01*
X101819744Y-125013576D01*
X101728992Y-125191687D01*
X101728989Y-125191693D01*
X101667219Y-125381802D01*
X101635946Y-125579252D01*
X96302446Y-125579252D01*
X96302446Y-125579209D01*
X96271162Y-125381690D01*
X96209365Y-125191497D01*
X96118709Y-125013576D01*
X96118573Y-125013309D01*
X96012673Y-124867552D01*
X96001029Y-124851525D01*
X96001026Y-124851522D01*
X96001024Y-124851519D01*
X95859626Y-124710121D01*
X95859623Y-124710119D01*
X95859621Y-124710117D01*
X95780152Y-124652379D01*
X95697836Y-124592572D01*
X95530015Y-124507063D01*
X95519649Y-124501781D01*
X95519646Y-124501780D01*
X95519644Y-124501779D01*
X95329459Y-124439985D01*
X95329463Y-124439985D01*
X95274457Y-124431273D01*
X95131937Y-124408700D01*
X94931955Y-124408700D01*
X94754956Y-124436734D01*
X94734430Y-124439985D01*
X94544247Y-124501779D01*
X94544241Y-124501782D01*
X94366055Y-124592572D01*
X94204268Y-124710119D01*
X94204265Y-124710121D01*
X94062867Y-124851519D01*
X94062865Y-124851522D01*
X93945318Y-125013310D01*
X93944526Y-125014865D01*
X93882810Y-125135990D01*
X93874213Y-125152862D01*
X93825464Y-125204477D01*
X93756549Y-125221543D01*
X93689348Y-125198642D01*
X93649679Y-125152862D01*
X93646261Y-125146154D01*
X93578575Y-125013313D01*
X93565945Y-124995930D01*
X93472673Y-124867552D01*
X93461029Y-124851525D01*
X93461026Y-124851522D01*
X93461024Y-124851519D01*
X93319626Y-124710121D01*
X93319623Y-124710119D01*
X93319621Y-124710117D01*
X93240152Y-124652379D01*
X93157836Y-124592572D01*
X92990015Y-124507063D01*
X92979649Y-124501781D01*
X92979646Y-124501780D01*
X92979644Y-124501779D01*
X92789459Y-124439985D01*
X92789463Y-124439985D01*
X92734457Y-124431273D01*
X92591937Y-124408700D01*
X92391955Y-124408700D01*
X92214956Y-124436734D01*
X92194430Y-124439985D01*
X92004247Y-124501779D01*
X92004241Y-124501782D01*
X91826055Y-124592572D01*
X91664268Y-124710119D01*
X91664265Y-124710121D01*
X91522867Y-124851519D01*
X91522865Y-124851522D01*
X91405318Y-125013309D01*
X91314528Y-125191495D01*
X91314525Y-125191501D01*
X91252731Y-125381684D01*
X91252730Y-125381689D01*
X91252730Y-125381690D01*
X91221446Y-125579209D01*
X88572483Y-125579209D01*
X88585500Y-125497027D01*
X88585500Y-125252973D01*
X88547321Y-125011924D01*
X88471904Y-124779815D01*
X88361106Y-124562361D01*
X88217655Y-124364917D01*
X88217652Y-124364914D01*
X88217650Y-124364911D01*
X88045088Y-124192349D01*
X88045085Y-124192347D01*
X88045083Y-124192345D01*
X87847639Y-124048894D01*
X87630185Y-123938096D01*
X87630182Y-123938095D01*
X87630180Y-123938094D01*
X87398080Y-123862680D01*
X87398078Y-123862679D01*
X87398076Y-123862679D01*
X87157027Y-123824500D01*
X86912973Y-123824500D01*
X86671924Y-123862679D01*
X86671922Y-123862679D01*
X86671919Y-123862680D01*
X86439819Y-123938094D01*
X86439813Y-123938097D01*
X86222357Y-124048896D01*
X86024914Y-124192347D01*
X86024911Y-124192349D01*
X85852349Y-124364911D01*
X85852347Y-124364914D01*
X85708896Y-124562357D01*
X85598097Y-124779813D01*
X85598094Y-124779819D01*
X85522680Y-125011919D01*
X85522679Y-125011922D01*
X85522679Y-125011924D01*
X85484500Y-125252973D01*
X84549500Y-125252973D01*
X84511321Y-125011924D01*
X84435904Y-124779815D01*
X84325106Y-124562361D01*
X84181655Y-124364917D01*
X84181652Y-124364914D01*
X84181650Y-124364911D01*
X84009088Y-124192349D01*
X84009085Y-124192347D01*
X84009083Y-124192345D01*
X83811639Y-124048894D01*
X83594185Y-123938096D01*
X83594182Y-123938095D01*
X83594180Y-123938094D01*
X83362080Y-123862680D01*
X83362078Y-123862679D01*
X83362076Y-123862679D01*
X83121027Y-123824500D01*
X82876973Y-123824500D01*
X82635924Y-123862679D01*
X82635922Y-123862679D01*
X82635919Y-123862680D01*
X82403819Y-123938094D01*
X82403813Y-123938097D01*
X82186357Y-124048896D01*
X81988914Y-124192347D01*
X81988911Y-124192349D01*
X81816349Y-124364911D01*
X81816347Y-124364914D01*
X81672896Y-124562357D01*
X81562097Y-124779813D01*
X81562094Y-124779819D01*
X81486680Y-125011919D01*
X81486679Y-125011922D01*
X81486679Y-125011924D01*
X81448500Y-125252973D01*
X80711500Y-125252973D01*
X80673321Y-125011924D01*
X80597904Y-124779815D01*
X80487106Y-124562361D01*
X80343655Y-124364917D01*
X80343652Y-124364914D01*
X80343650Y-124364911D01*
X80171088Y-124192349D01*
X80171085Y-124192347D01*
X80171083Y-124192345D01*
X79973639Y-124048894D01*
X79756185Y-123938096D01*
X79756182Y-123938095D01*
X79756180Y-123938094D01*
X79524080Y-123862680D01*
X79524078Y-123862679D01*
X79524076Y-123862679D01*
X79283027Y-123824500D01*
X79038973Y-123824500D01*
X78797924Y-123862679D01*
X78797922Y-123862679D01*
X78797919Y-123862680D01*
X78565819Y-123938094D01*
X78565813Y-123938097D01*
X78348357Y-124048896D01*
X78150914Y-124192347D01*
X78150911Y-124192349D01*
X77978349Y-124364911D01*
X77978347Y-124364914D01*
X77834896Y-124562357D01*
X77724097Y-124779813D01*
X77724094Y-124779819D01*
X77648680Y-125011919D01*
X77648679Y-125011922D01*
X77648679Y-125011924D01*
X77610500Y-125252973D01*
X76675500Y-125252973D01*
X76637321Y-125011924D01*
X76561904Y-124779815D01*
X76451106Y-124562361D01*
X76307655Y-124364917D01*
X76307652Y-124364914D01*
X76307650Y-124364911D01*
X76135088Y-124192349D01*
X76135085Y-124192347D01*
X76135083Y-124192345D01*
X75937639Y-124048894D01*
X75720185Y-123938096D01*
X75720182Y-123938095D01*
X75720180Y-123938094D01*
X75488080Y-123862680D01*
X75488078Y-123862679D01*
X75488076Y-123862679D01*
X75247027Y-123824500D01*
X75002973Y-123824500D01*
X74761924Y-123862679D01*
X74761922Y-123862679D01*
X74761919Y-123862680D01*
X74529819Y-123938094D01*
X74529813Y-123938097D01*
X74312357Y-124048896D01*
X74114914Y-124192347D01*
X74114911Y-124192349D01*
X73942349Y-124364911D01*
X73942347Y-124364914D01*
X73798896Y-124562357D01*
X73688097Y-124779813D01*
X73688094Y-124779819D01*
X73612680Y-125011919D01*
X73612679Y-125011922D01*
X73612679Y-125011924D01*
X73574500Y-125252973D01*
X69317531Y-125252973D01*
X69380627Y-125213327D01*
X69408542Y-125191065D01*
X69460651Y-125149511D01*
X69598137Y-125039870D01*
X69794870Y-124843137D01*
X69968321Y-124625634D01*
X69968327Y-124625627D01*
X70116344Y-124390060D01*
X70237056Y-124139400D01*
X70328943Y-123876802D01*
X70390850Y-123605567D01*
X70418810Y-123357414D01*
X70422000Y-123329106D01*
X70422000Y-123050893D01*
X70398427Y-122841684D01*
X70390850Y-122774433D01*
X70328943Y-122503198D01*
X70318484Y-122473309D01*
X70237062Y-122240617D01*
X70237061Y-122240616D01*
X70237056Y-122240600D01*
X70130561Y-122019461D01*
X70116346Y-121989944D01*
X70116341Y-121989935D01*
X70040373Y-121869034D01*
X69968327Y-121754373D01*
X69968321Y-121754365D01*
X69860874Y-121619630D01*
X69860872Y-121619628D01*
X69802171Y-121546019D01*
X89164046Y-121546019D01*
X89164046Y-121785981D01*
X89201584Y-122022988D01*
X89201585Y-122022993D01*
X89275576Y-122250714D01*
X89275736Y-122251205D01*
X89315784Y-122329803D01*
X89384678Y-122465015D01*
X89465992Y-122576932D01*
X89525723Y-122659145D01*
X89525725Y-122659147D01*
X89525727Y-122659150D01*
X89695395Y-122828818D01*
X89695398Y-122828820D01*
X89695401Y-122828823D01*
X89787640Y-122895838D01*
X89889530Y-122969867D01*
X89889534Y-122969869D01*
X90103341Y-123078810D01*
X90331558Y-123152962D01*
X90568565Y-123190500D01*
X90568568Y-123190500D01*
X90808524Y-123190500D01*
X90808527Y-123190500D01*
X91045534Y-123152962D01*
X91273751Y-123078810D01*
X91487558Y-122969869D01*
X91681691Y-122828823D01*
X91851369Y-122659145D01*
X91992415Y-122465012D01*
X92101356Y-122251205D01*
X92175508Y-122022988D01*
X92213046Y-121785981D01*
X92213046Y-121546019D01*
X92175508Y-121309012D01*
X92101356Y-121080795D01*
X91992415Y-120866988D01*
X91992414Y-120866986D01*
X91992413Y-120866984D01*
X91899126Y-120738587D01*
X91851369Y-120672855D01*
X91851366Y-120672852D01*
X91851364Y-120672849D01*
X91681696Y-120503181D01*
X91681693Y-120503179D01*
X91681691Y-120503177D01*
X91620198Y-120458499D01*
X91487561Y-120362132D01*
X91341384Y-120287651D01*
X91273751Y-120253190D01*
X91273748Y-120253189D01*
X91273746Y-120253188D01*
X91045539Y-120179039D01*
X91045535Y-120179038D01*
X91045534Y-120179038D01*
X90808527Y-120141500D01*
X90568565Y-120141500D01*
X90331558Y-120179038D01*
X90331552Y-120179039D01*
X90103345Y-120253188D01*
X90103339Y-120253191D01*
X89889530Y-120362132D01*
X89695398Y-120503179D01*
X89695395Y-120503181D01*
X89525727Y-120672849D01*
X89525725Y-120672852D01*
X89384678Y-120866984D01*
X89275737Y-121080793D01*
X89275734Y-121080799D01*
X89201585Y-121309006D01*
X89201584Y-121309011D01*
X89201584Y-121309012D01*
X89164046Y-121546019D01*
X69802171Y-121546019D01*
X69794863Y-121536855D01*
X69598137Y-121340129D01*
X69380634Y-121166678D01*
X69380630Y-121166675D01*
X69145064Y-121018658D01*
X69145055Y-121018653D01*
X68894409Y-120897948D01*
X68894404Y-120897946D01*
X68894400Y-120897944D01*
X68894394Y-120897941D01*
X68894382Y-120897937D01*
X68631808Y-120806058D01*
X68360570Y-120744150D01*
X68084107Y-120713000D01*
X68084105Y-120713000D01*
X67805895Y-120713000D01*
X67805893Y-120713000D01*
X67529429Y-120744150D01*
X67258191Y-120806058D01*
X66995617Y-120897937D01*
X66995590Y-120897948D01*
X66744944Y-121018653D01*
X66744935Y-121018658D01*
X66509369Y-121166675D01*
X66509365Y-121166678D01*
X66291862Y-121340129D01*
X66095129Y-121536862D01*
X65921678Y-121754365D01*
X65921675Y-121754369D01*
X65773658Y-121989935D01*
X65773653Y-121989944D01*
X65652948Y-122240590D01*
X65652937Y-122240617D01*
X65561058Y-122503191D01*
X65499150Y-122774429D01*
X65468000Y-123050893D01*
X63881500Y-123050893D01*
X63881500Y-115552343D01*
X73566500Y-115552343D01*
X73566500Y-115797657D01*
X73582602Y-115899321D01*
X73604876Y-116039952D01*
X73655413Y-116195487D01*
X73675791Y-116258204D01*
X73680682Y-116273255D01*
X73680685Y-116273263D01*
X73792051Y-116491832D01*
X73936244Y-116690296D01*
X74109703Y-116863755D01*
X74109706Y-116863757D01*
X74308168Y-117007949D01*
X74526744Y-117119318D01*
X74760050Y-117195124D01*
X75002343Y-117233500D01*
X75002346Y-117233500D01*
X75247654Y-117233500D01*
X75247657Y-117233500D01*
X75489950Y-117195124D01*
X75723256Y-117119318D01*
X75941832Y-117007949D01*
X76140294Y-116863757D01*
X76313757Y-116690294D01*
X76433383Y-116525644D01*
X77602499Y-116525644D01*
X77613111Y-116629503D01*
X77613112Y-116629506D01*
X77668877Y-116797796D01*
X77761949Y-116948689D01*
X77761954Y-116948695D01*
X77887304Y-117074045D01*
X77887310Y-117074050D01*
X77887311Y-117074051D01*
X78038204Y-117167123D01*
X78206494Y-117222888D01*
X78227268Y-117225010D01*
X78310356Y-117233500D01*
X78310364Y-117233500D01*
X80011644Y-117233500D01*
X80087177Y-117225782D01*
X80115506Y-117222888D01*
X80283796Y-117167123D01*
X80434689Y-117074051D01*
X80560051Y-116948689D01*
X80653123Y-116797796D01*
X80708888Y-116629506D01*
X80713866Y-116580784D01*
X80719500Y-116525644D01*
X80719500Y-115552343D01*
X81440500Y-115552343D01*
X81440500Y-115797657D01*
X81456602Y-115899321D01*
X81478876Y-116039952D01*
X81529413Y-116195487D01*
X81549791Y-116258204D01*
X81554682Y-116273255D01*
X81554685Y-116273263D01*
X81666051Y-116491832D01*
X81810244Y-116690296D01*
X81983703Y-116863755D01*
X81983706Y-116863757D01*
X82182168Y-117007949D01*
X82400744Y-117119318D01*
X82634050Y-117195124D01*
X82876343Y-117233500D01*
X82876346Y-117233500D01*
X83121654Y-117233500D01*
X83121657Y-117233500D01*
X83363950Y-117195124D01*
X83597256Y-117119318D01*
X83815832Y-117007949D01*
X84014294Y-116863757D01*
X84187757Y-116690294D01*
X84331949Y-116491832D01*
X84443318Y-116273256D01*
X84519124Y-116039950D01*
X84557500Y-115797657D01*
X84557500Y-115552343D01*
X84519124Y-115310050D01*
X84443318Y-115076744D01*
X84331949Y-114858168D01*
X84187757Y-114659706D01*
X84187755Y-114659703D01*
X84014296Y-114486244D01*
X83815832Y-114342051D01*
X83597263Y-114230685D01*
X83597258Y-114230683D01*
X83597256Y-114230682D01*
X83519487Y-114205413D01*
X83363952Y-114154876D01*
X83267032Y-114139525D01*
X83121657Y-114116500D01*
X82876343Y-114116500D01*
X82755196Y-114135688D01*
X82634047Y-114154876D01*
X82400744Y-114230682D01*
X82400736Y-114230685D01*
X82182167Y-114342051D01*
X81983703Y-114486244D01*
X81810244Y-114659703D01*
X81666051Y-114858167D01*
X81554685Y-115076736D01*
X81554682Y-115076744D01*
X81478876Y-115310047D01*
X81466871Y-115385845D01*
X81440500Y-115552343D01*
X80719500Y-115552343D01*
X80719500Y-114824355D01*
X80708888Y-114720496D01*
X80708888Y-114720494D01*
X80653123Y-114552204D01*
X80560051Y-114401311D01*
X80560050Y-114401310D01*
X80560045Y-114401304D01*
X80434695Y-114275954D01*
X80434689Y-114275949D01*
X80283796Y-114182877D01*
X80115506Y-114127112D01*
X80115503Y-114127111D01*
X80011644Y-114116500D01*
X80011636Y-114116500D01*
X78310364Y-114116500D01*
X78310356Y-114116500D01*
X78206496Y-114127111D01*
X78038204Y-114182877D01*
X77887310Y-114275949D01*
X77887304Y-114275954D01*
X77761954Y-114401304D01*
X77761949Y-114401310D01*
X77668877Y-114552204D01*
X77613111Y-114720496D01*
X77602500Y-114824355D01*
X77602500Y-116525644D01*
X77602499Y-116525644D01*
X76433383Y-116525644D01*
X76457949Y-116491832D01*
X76569318Y-116273256D01*
X76645124Y-116039950D01*
X76683500Y-115797657D01*
X76683500Y-115552343D01*
X76645124Y-115310050D01*
X76569318Y-115076744D01*
X76457949Y-114858168D01*
X76313757Y-114659706D01*
X76313755Y-114659703D01*
X76140296Y-114486244D01*
X75941832Y-114342051D01*
X75723263Y-114230685D01*
X75723258Y-114230683D01*
X75723256Y-114230682D01*
X75645487Y-114205413D01*
X75489952Y-114154876D01*
X75393032Y-114139525D01*
X75247657Y-114116500D01*
X75002343Y-114116500D01*
X74881196Y-114135688D01*
X74760047Y-114154876D01*
X74526744Y-114230682D01*
X74526736Y-114230685D01*
X74308167Y-114342051D01*
X74109703Y-114486244D01*
X73936244Y-114659703D01*
X73792051Y-114858167D01*
X73680685Y-115076736D01*
X73680682Y-115076744D01*
X73604876Y-115310047D01*
X73592871Y-115385845D01*
X73566500Y-115552343D01*
X63881500Y-115552343D01*
X63881500Y-85092920D01*
X63881634Y-85087101D01*
X63887932Y-84950893D01*
X65468000Y-84950893D01*
X65468000Y-85229106D01*
X65499150Y-85505570D01*
X65520368Y-85598530D01*
X65561057Y-85776802D01*
X65561059Y-85776808D01*
X65561058Y-85776808D01*
X65652937Y-86039382D01*
X65652948Y-86039409D01*
X65773653Y-86290055D01*
X65773658Y-86290064D01*
X65921675Y-86525630D01*
X65921678Y-86525634D01*
X66095129Y-86743137D01*
X66291862Y-86939870D01*
X66504210Y-87109210D01*
X66509373Y-87113327D01*
X66653651Y-87203983D01*
X66737808Y-87256863D01*
X66744940Y-87261344D01*
X66995600Y-87382056D01*
X66995616Y-87382061D01*
X66995617Y-87382062D01*
X67258191Y-87473941D01*
X67258194Y-87473941D01*
X67258198Y-87473943D01*
X67529433Y-87535850D01*
X67725469Y-87557938D01*
X67805893Y-87567000D01*
X67805895Y-87567000D01*
X68084107Y-87567000D01*
X68154318Y-87559088D01*
X68360567Y-87535850D01*
X68631802Y-87473943D01*
X68894400Y-87382056D01*
X69145060Y-87261344D01*
X69380627Y-87113327D01*
X69466649Y-87044727D01*
X69598137Y-86939870D01*
X69794870Y-86743137D01*
X69910794Y-86597771D01*
X69968327Y-86525627D01*
X70116344Y-86290060D01*
X70237056Y-86039400D01*
X70258191Y-85979000D01*
X70262268Y-85967350D01*
X79529500Y-85967350D01*
X79529500Y-87532649D01*
X79536009Y-87593196D01*
X79536011Y-87593204D01*
X79587110Y-87730202D01*
X79587112Y-87730207D01*
X79674738Y-87847261D01*
X79791792Y-87934887D01*
X79791794Y-87934888D01*
X79791796Y-87934889D01*
X79850875Y-87956924D01*
X79928795Y-87985988D01*
X79928803Y-87985990D01*
X79989350Y-87992499D01*
X79989355Y-87992499D01*
X79989362Y-87992500D01*
X79989368Y-87992500D01*
X81554632Y-87992500D01*
X81554638Y-87992500D01*
X81554645Y-87992499D01*
X81554649Y-87992499D01*
X81615196Y-87985990D01*
X81615199Y-87985989D01*
X81615201Y-87985989D01*
X81752204Y-87934889D01*
X81796847Y-87901470D01*
X81869261Y-87847261D01*
X81956887Y-87730207D01*
X81956887Y-87730206D01*
X81956889Y-87730204D01*
X82007989Y-87593201D01*
X82008693Y-87586661D01*
X82014499Y-87532649D01*
X82014500Y-87532632D01*
X82014500Y-87464784D01*
X82034502Y-87396663D01*
X82088158Y-87350170D01*
X82158432Y-87340066D01*
X82223012Y-87369560D01*
X82247936Y-87398954D01*
X82249323Y-87401218D01*
X82294896Y-87463944D01*
X82364274Y-87559434D01*
X82364276Y-87559436D01*
X82364278Y-87559439D01*
X82502560Y-87697721D01*
X82502563Y-87697723D01*
X82502566Y-87697726D01*
X82660788Y-87812681D01*
X82835046Y-87901470D01*
X83021047Y-87961905D01*
X83214213Y-87992500D01*
X83214216Y-87992500D01*
X83409784Y-87992500D01*
X83409787Y-87992500D01*
X83602953Y-87961905D01*
X83788954Y-87901470D01*
X83963212Y-87812681D01*
X84121434Y-87697726D01*
X84130766Y-87688394D01*
X84165946Y-87653215D01*
X84259721Y-87559439D01*
X84259726Y-87559434D01*
X84374681Y-87401212D01*
X84463470Y-87226954D01*
X84463475Y-87226936D01*
X84465363Y-87222382D01*
X84467228Y-87223154D01*
X84502464Y-87171580D01*
X84567850Y-87143918D01*
X84637811Y-87155997D01*
X84690136Y-87203983D01*
X84698561Y-87222414D01*
X84699100Y-87222191D01*
X84700994Y-87226764D01*
X84789745Y-87400948D01*
X84789746Y-87400949D01*
X84811667Y-87431121D01*
X85384171Y-86858617D01*
X85404711Y-86935273D01*
X85467904Y-87044727D01*
X85557273Y-87134096D01*
X85666727Y-87197289D01*
X85743381Y-87217828D01*
X85170877Y-87790331D01*
X85201050Y-87812253D01*
X85375235Y-87901005D01*
X85375241Y-87901008D01*
X85561160Y-87961416D01*
X85561156Y-87961416D01*
X85754255Y-87992000D01*
X85949745Y-87992000D01*
X86142841Y-87961416D01*
X86328758Y-87901008D01*
X86328764Y-87901005D01*
X86502951Y-87812252D01*
X86502953Y-87812251D01*
X86533121Y-87790332D01*
X86533122Y-87790331D01*
X85960619Y-87217828D01*
X86037273Y-87197289D01*
X86146727Y-87134096D01*
X86236096Y-87044727D01*
X86299289Y-86935273D01*
X86319828Y-86858619D01*
X86892331Y-87431122D01*
X86892332Y-87431121D01*
X86914251Y-87400953D01*
X86914252Y-87400951D01*
X87003005Y-87226764D01*
X87003008Y-87226758D01*
X87063416Y-87040841D01*
X87094000Y-86847744D01*
X87094000Y-86652255D01*
X87063416Y-86459158D01*
X87003008Y-86273241D01*
X87003005Y-86273235D01*
X86914253Y-86099050D01*
X86892331Y-86068877D01*
X86319828Y-86641380D01*
X86299289Y-86564727D01*
X86236096Y-86455273D01*
X86146727Y-86365904D01*
X86037273Y-86302711D01*
X85960618Y-86282171D01*
X86533121Y-85709667D01*
X86502949Y-85687746D01*
X86502948Y-85687745D01*
X86328764Y-85598994D01*
X86328758Y-85598991D01*
X86142839Y-85538583D01*
X86142843Y-85538583D01*
X85949745Y-85508000D01*
X85754255Y-85508000D01*
X85561158Y-85538583D01*
X85375241Y-85598991D01*
X85375235Y-85598994D01*
X85201053Y-85687744D01*
X85170876Y-85709667D01*
X85743380Y-86282171D01*
X85666727Y-86302711D01*
X85557273Y-86365904D01*
X85467904Y-86455273D01*
X85404711Y-86564727D01*
X85384171Y-86641380D01*
X84811667Y-86068876D01*
X84789744Y-86099053D01*
X84700994Y-86273235D01*
X84699100Y-86277809D01*
X84697202Y-86277023D01*
X84661973Y-86328490D01*
X84596562Y-86356094D01*
X84526611Y-86343952D01*
X84474329Y-86295920D01*
X84465880Y-86277403D01*
X84465363Y-86277618D01*
X84463474Y-86273059D01*
X84463470Y-86273046D01*
X84374681Y-86098788D01*
X84259726Y-85940566D01*
X84259723Y-85940563D01*
X84259721Y-85940560D01*
X84121439Y-85802278D01*
X84121436Y-85802276D01*
X84121434Y-85802274D01*
X83963800Y-85687746D01*
X83963215Y-85687321D01*
X83963214Y-85687320D01*
X83963212Y-85687319D01*
X83788954Y-85598530D01*
X83788951Y-85598529D01*
X83788949Y-85598528D01*
X83602957Y-85538096D01*
X83602955Y-85538095D01*
X83602953Y-85538095D01*
X83409787Y-85507500D01*
X83214213Y-85507500D01*
X83021047Y-85538095D01*
X83021045Y-85538095D01*
X83021042Y-85538096D01*
X82835050Y-85598528D01*
X82835044Y-85598531D01*
X82660784Y-85687321D01*
X82502563Y-85802276D01*
X82502560Y-85802278D01*
X82364278Y-85940560D01*
X82364276Y-85940563D01*
X82249316Y-86098791D01*
X82247931Y-86101052D01*
X82247180Y-86101730D01*
X82246409Y-86102793D01*
X82246185Y-86102630D01*
X82195282Y-86148683D01*
X82125241Y-86160288D01*
X82060044Y-86132183D01*
X82020391Y-86073292D01*
X82014500Y-86035215D01*
X82014500Y-85967367D01*
X82014499Y-85967350D01*
X82007990Y-85906803D01*
X82007988Y-85906795D01*
X81969004Y-85802278D01*
X81956889Y-85769796D01*
X81956888Y-85769794D01*
X81956887Y-85769792D01*
X81869261Y-85652738D01*
X81752207Y-85565112D01*
X81752202Y-85565110D01*
X81615204Y-85514011D01*
X81615196Y-85514009D01*
X81554649Y-85507500D01*
X81554638Y-85507500D01*
X79989362Y-85507500D01*
X79989350Y-85507500D01*
X79928803Y-85514009D01*
X79928795Y-85514011D01*
X79791797Y-85565110D01*
X79791792Y-85565112D01*
X79674738Y-85652738D01*
X79587112Y-85769792D01*
X79587110Y-85769797D01*
X79536011Y-85906795D01*
X79536009Y-85906803D01*
X79529500Y-85967350D01*
X70262268Y-85967350D01*
X70278006Y-85922373D01*
X70328941Y-85776808D01*
X70328941Y-85776807D01*
X70328943Y-85776802D01*
X70390850Y-85505567D01*
X70422000Y-85229105D01*
X70422000Y-84950895D01*
X70390850Y-84674433D01*
X70328943Y-84403198D01*
X70327807Y-84399952D01*
X70237062Y-84140617D01*
X70237061Y-84140616D01*
X70237056Y-84140600D01*
X70116344Y-83889940D01*
X69968327Y-83654373D01*
X69946991Y-83627618D01*
X69794870Y-83436862D01*
X69598137Y-83240129D01*
X69380634Y-83066678D01*
X69380630Y-83066675D01*
X69145064Y-82918658D01*
X69145055Y-82918653D01*
X68894409Y-82797948D01*
X68894404Y-82797946D01*
X68894400Y-82797944D01*
X68894394Y-82797941D01*
X68894382Y-82797937D01*
X68631808Y-82706058D01*
X68360570Y-82644150D01*
X68084107Y-82613000D01*
X68084105Y-82613000D01*
X67805895Y-82613000D01*
X67805893Y-82613000D01*
X67529429Y-82644150D01*
X67258191Y-82706058D01*
X66995617Y-82797937D01*
X66995590Y-82797948D01*
X66744944Y-82918653D01*
X66744935Y-82918658D01*
X66509369Y-83066675D01*
X66509365Y-83066678D01*
X66291862Y-83240129D01*
X66095129Y-83436862D01*
X65921678Y-83654365D01*
X65921675Y-83654369D01*
X65773658Y-83889935D01*
X65773653Y-83889944D01*
X65652948Y-84140590D01*
X65652937Y-84140617D01*
X65561058Y-84403191D01*
X65499150Y-84674429D01*
X65468000Y-84950893D01*
X63887932Y-84950893D01*
X63888364Y-84941541D01*
X63898565Y-84720886D01*
X63899639Y-84709298D01*
X63910868Y-84628797D01*
X63949887Y-84349081D01*
X63952019Y-84337678D01*
X64035289Y-83983631D01*
X64038472Y-83972446D01*
X64066124Y-83889944D01*
X64154050Y-83627607D01*
X64158247Y-83616776D01*
X64305158Y-83284053D01*
X64310333Y-83273662D01*
X64487311Y-82955926D01*
X64493423Y-82946053D01*
X64698980Y-82645977D01*
X64705961Y-82636732D01*
X64938330Y-82356901D01*
X64946151Y-82348323D01*
X65203323Y-82091151D01*
X65211901Y-82083330D01*
X65491732Y-81850961D01*
X65500977Y-81843980D01*
X65801053Y-81638423D01*
X65810926Y-81632311D01*
X66128662Y-81455333D01*
X66139053Y-81450158D01*
X66471776Y-81303247D01*
X66482607Y-81299050D01*
X66827455Y-81183469D01*
X66838631Y-81180289D01*
X67192678Y-81097019D01*
X67204081Y-81094887D01*
X67550942Y-81046502D01*
X67564298Y-81044639D01*
X67575886Y-81043565D01*
X67942102Y-81026634D01*
X67947921Y-81026500D01*
X170689000Y-81026500D01*
X170757121Y-81046502D01*
G37*
%TD.AperFunction*%
%TD*%
%TA.AperFunction,Conductor*%
%TO.N,GND*%
G36*
X217807896Y-81026634D02*
G01*
X218174112Y-81043565D01*
X218185700Y-81044639D01*
X218284428Y-81058410D01*
X218545913Y-81094886D01*
X218557324Y-81097020D01*
X218911361Y-81180288D01*
X218922548Y-81183471D01*
X219267390Y-81299050D01*
X219278222Y-81303247D01*
X219610946Y-81450158D01*
X219621336Y-81455332D01*
X219939061Y-81632304D01*
X219948954Y-81638429D01*
X220249010Y-81843971D01*
X220258276Y-81850968D01*
X220538087Y-82083321D01*
X220546687Y-82091162D01*
X220803836Y-82348311D01*
X220811677Y-82356911D01*
X221044027Y-82636719D01*
X221051029Y-82645991D01*
X221092176Y-82706058D01*
X221256568Y-82946041D01*
X221262694Y-82955936D01*
X221439659Y-83273649D01*
X221444847Y-83284067D01*
X221591748Y-83616765D01*
X221595952Y-83627618D01*
X221711526Y-83972447D01*
X221714711Y-83983640D01*
X221797976Y-84337658D01*
X221800115Y-84349098D01*
X221850360Y-84709296D01*
X221851434Y-84720885D01*
X221868364Y-85087057D01*
X221868498Y-85092876D01*
X221868498Y-123187077D01*
X221868364Y-123192896D01*
X221851432Y-123559112D01*
X221850358Y-123570701D01*
X221800113Y-123930899D01*
X221797974Y-123942339D01*
X221714710Y-124296357D01*
X221711525Y-124307551D01*
X221595950Y-124652380D01*
X221591746Y-124663232D01*
X221444846Y-124995931D01*
X221439658Y-125006349D01*
X221262693Y-125324061D01*
X221256567Y-125333956D01*
X221051034Y-125633998D01*
X221044020Y-125643286D01*
X220811676Y-125923086D01*
X220803835Y-125931686D01*
X220546686Y-126188835D01*
X220538086Y-126196676D01*
X220258286Y-126429020D01*
X220248998Y-126436034D01*
X219948956Y-126641567D01*
X219939061Y-126647693D01*
X219621349Y-126824658D01*
X219610931Y-126829846D01*
X219278232Y-126976746D01*
X219267380Y-126980950D01*
X218922551Y-127096525D01*
X218911357Y-127099710D01*
X218557339Y-127182974D01*
X218545899Y-127185113D01*
X218185701Y-127235358D01*
X218174112Y-127236432D01*
X217807896Y-127253364D01*
X217802077Y-127253498D01*
X171576000Y-127253498D01*
X171507879Y-127233496D01*
X171461386Y-127179840D01*
X171450000Y-127127498D01*
X171450000Y-123050893D01*
X215328000Y-123050893D01*
X215328000Y-123329106D01*
X215359150Y-123605570D01*
X215391379Y-123746774D01*
X215421057Y-123876802D01*
X215421059Y-123876808D01*
X215421058Y-123876808D01*
X215512937Y-124139382D01*
X215512948Y-124139409D01*
X215633653Y-124390055D01*
X215633658Y-124390064D01*
X215781675Y-124625630D01*
X215781678Y-124625634D01*
X215955129Y-124843137D01*
X216151862Y-125039870D01*
X216369365Y-125213321D01*
X216369373Y-125213327D01*
X216604940Y-125361344D01*
X216855600Y-125482056D01*
X216855616Y-125482061D01*
X216855617Y-125482062D01*
X217118191Y-125573941D01*
X217118194Y-125573941D01*
X217118198Y-125573943D01*
X217389433Y-125635850D01*
X217585469Y-125657938D01*
X217665893Y-125667000D01*
X217665895Y-125667000D01*
X217944107Y-125667000D01*
X218014318Y-125659088D01*
X218220567Y-125635850D01*
X218491802Y-125573943D01*
X218754400Y-125482056D01*
X219005060Y-125361344D01*
X219240627Y-125213327D01*
X219314628Y-125154312D01*
X219458137Y-125039870D01*
X219654870Y-124843137D01*
X219828321Y-124625634D01*
X219828327Y-124625627D01*
X219976344Y-124390060D01*
X220097056Y-124139400D01*
X220188943Y-123876802D01*
X220250850Y-123605567D01*
X220282000Y-123329105D01*
X220282000Y-123050895D01*
X220250850Y-122774433D01*
X220188943Y-122503198D01*
X220097056Y-122240600D01*
X219976344Y-121989940D01*
X219828327Y-121754373D01*
X219828321Y-121754365D01*
X219654870Y-121536862D01*
X219458137Y-121340129D01*
X219240634Y-121166678D01*
X219240630Y-121166675D01*
X219005064Y-121018658D01*
X219005055Y-121018653D01*
X218754409Y-120897948D01*
X218754404Y-120897946D01*
X218754400Y-120897944D01*
X218754394Y-120897941D01*
X218754382Y-120897937D01*
X218491808Y-120806058D01*
X218220570Y-120744150D01*
X217944107Y-120713000D01*
X217944105Y-120713000D01*
X217665895Y-120713000D01*
X217665893Y-120713000D01*
X217389429Y-120744150D01*
X217118191Y-120806058D01*
X216855617Y-120897937D01*
X216855590Y-120897948D01*
X216604944Y-121018653D01*
X216604935Y-121018658D01*
X216369369Y-121166675D01*
X216369365Y-121166678D01*
X216151862Y-121340129D01*
X215955129Y-121536862D01*
X215781678Y-121754365D01*
X215781675Y-121754369D01*
X215633658Y-121989935D01*
X215633653Y-121989944D01*
X215512948Y-122240590D01*
X215512937Y-122240617D01*
X215421058Y-122503191D01*
X215359150Y-122774429D01*
X215328000Y-123050893D01*
X171450000Y-123050893D01*
X171450000Y-84950893D01*
X215328000Y-84950893D01*
X215328000Y-85229106D01*
X215359150Y-85505570D01*
X215391379Y-85646774D01*
X215421057Y-85776802D01*
X215421059Y-85776808D01*
X215421058Y-85776808D01*
X215512937Y-86039382D01*
X215512948Y-86039409D01*
X215633653Y-86290055D01*
X215633658Y-86290064D01*
X215781675Y-86525630D01*
X215781678Y-86525634D01*
X215955129Y-86743137D01*
X216151862Y-86939870D01*
X216369365Y-87113321D01*
X216369373Y-87113327D01*
X216604940Y-87261344D01*
X216855600Y-87382056D01*
X216855616Y-87382061D01*
X216855617Y-87382062D01*
X217118191Y-87473941D01*
X217118194Y-87473941D01*
X217118198Y-87473943D01*
X217389433Y-87535850D01*
X217585469Y-87557938D01*
X217665893Y-87567000D01*
X217665895Y-87567000D01*
X217944107Y-87567000D01*
X218014318Y-87559088D01*
X218220567Y-87535850D01*
X218491802Y-87473943D01*
X218754400Y-87382056D01*
X219005060Y-87261344D01*
X219240627Y-87113327D01*
X219314628Y-87054312D01*
X219458137Y-86939870D01*
X219654870Y-86743137D01*
X219828321Y-86525634D01*
X219828327Y-86525627D01*
X219976344Y-86290060D01*
X220097056Y-86039400D01*
X220188943Y-85776802D01*
X220250850Y-85505567D01*
X220282000Y-85229105D01*
X220282000Y-84950895D01*
X220250850Y-84674433D01*
X220188943Y-84403198D01*
X220097056Y-84140600D01*
X219976344Y-83889940D01*
X219828327Y-83654373D01*
X219806991Y-83627618D01*
X219654870Y-83436862D01*
X219458137Y-83240129D01*
X219240634Y-83066678D01*
X219240630Y-83066675D01*
X219005064Y-82918658D01*
X219005055Y-82918653D01*
X218754409Y-82797948D01*
X218754404Y-82797946D01*
X218754400Y-82797944D01*
X218754394Y-82797941D01*
X218754382Y-82797937D01*
X218491808Y-82706058D01*
X218220570Y-82644150D01*
X217944107Y-82613000D01*
X217944105Y-82613000D01*
X217665895Y-82613000D01*
X217665893Y-82613000D01*
X217389429Y-82644150D01*
X217118191Y-82706058D01*
X216855617Y-82797937D01*
X216855590Y-82797948D01*
X216604944Y-82918653D01*
X216604935Y-82918658D01*
X216369369Y-83066675D01*
X216369365Y-83066678D01*
X216151862Y-83240129D01*
X215955129Y-83436862D01*
X215781678Y-83654365D01*
X215781675Y-83654369D01*
X215633658Y-83889935D01*
X215633653Y-83889944D01*
X215512948Y-84140590D01*
X215512937Y-84140617D01*
X215421058Y-84403191D01*
X215359150Y-84674429D01*
X215328000Y-84950893D01*
X171450000Y-84950893D01*
X171450000Y-81152500D01*
X171470002Y-81084379D01*
X171523658Y-81037886D01*
X171576000Y-81026500D01*
X217750147Y-81026500D01*
X217802077Y-81026500D01*
X217807896Y-81026634D01*
G37*
%TD.AperFunction*%
%TD*%
M02*
